<?xml version="1.0" encoding="utf-8"?>
<!-- Generator: Adobe Illustrator 16.0.0, SVG Export Plug-In . SVG Version: 6.00 Build 0)  -->
<!DOCTYPE svg PUBLIC "-//W3C//DTD SVG 1.1//EN" "http://www.w3.org/Graphics/SVG/1.1/DTD/svg11.dtd">
<svg version="1.1" id="OBJECTS" xmlns="http://www.w3.org/2000/svg" xmlns:xlink="http://www.w3.org/1999/xlink" x="0px" y="0px"
	 width="512px" height="512px" viewBox="0 0 512 512" enable-background="new 0 0 512 512" xml:space="preserve">
<g>
	<linearGradient id="SVGID_1_" gradientUnits="userSpaceOnUse" x1="6" y1="275.3203" x2="381.8291" y2="275.3203">
		<stop  offset="0" style="stop-color:#5C83E3"/>
		<stop  offset="1" style="stop-color:#6A30D1"/>
	</linearGradient>
	<path fill-rule="evenodd" clip-rule="evenodd" fill="url(#SVGID_1_)" d="M137.455,443.16
		c-44.304-29.33-79.075-73.631-95.828-128.41c-20.426-66.78-9.941-135.643,23.258-191.213C46.323,120.155,14.1,114.664,6,115.777
		c52.925-7.505,218.613-24.938,310.255,34.382c110.063,71.241,60.252,113.341,4.839,116.22
		c-55.409,2.877-99.407-40.605-174.834,11.889C101.797,309.217,117.265,385.631,137.455,443.16z"/>
	<linearGradient id="SVGID_2_" gradientUnits="userSpaceOnUse" x1="98.5845" y1="256" x2="506" y2="256">
		<stop  offset="0" style="stop-color:#5C83E3"/>
		<stop  offset="1" style="stop-color:#6A30D1"/>
	</linearGradient>
	<path fill-rule="evenodd" clip-rule="evenodd" fill="url(#SVGID_2_)" d="M199.174,18.366
		C324.526-19.971,457.22,50.563,495.559,175.914c38.338,125.35-32.2,258.045-157.549,296.383
		c-56.813,17.375-115.134,12.395-165.497-9.934c-4.851,20.139-7.316,41.711-7.316,41.711l-0.008-0.012
		c-8.459-34.295-30.715-146.51,29.884-181.23c71.85-41.162,125.392,36.42,214.153,9.992
		c88.756-26.434,59.517-198.601-102.936-248.712c-75.955-23.423-150.182-17.45-207.705-4.45
		C125.528,51.965,159.619,30.463,199.174,18.366z"/>
</g>
</svg>
