<?xml version="1.0" encoding="utf-8"?>
<!-- Generator: Adobe Illustrator 16.0.0, SVG Export Plug-In . SVG Version: 6.00 Build 0)  -->
<!DOCTYPE svg PUBLIC "-//W3C//DTD SVG 1.1//EN" "http://www.w3.org/Graphics/SVG/1.1/DTD/svg11.dtd">
<svg version="1.1" id="OBJECTS" xmlns="http://www.w3.org/2000/svg" xmlns:xlink="http://www.w3.org/1999/xlink" x="0px" y="0px"
	 width="512px" height="512px" viewBox="0 0 512 512" enable-background="new 0 0 512 512" xml:space="preserve">
<g>
	<path fill="#FFFFFF" d="M137.455,443.16c-44.304-29.33-79.075-73.631-95.828-128.41c-20.426-66.78-9.941-135.643,23.258-191.213
		C46.323,120.155,14.1,114.664,6,115.777c52.925-7.505,218.613-24.938,310.255,34.382c110.063,71.241,60.252,113.341,4.839,116.22
		c-55.408,2.877-99.407-40.605-174.834,11.889C101.797,309.217,117.265,385.631,137.455,443.16z"/>
	<path fill="#FFFFFF" d="M199.174,18.366C324.526-19.971,457.22,50.563,495.559,175.914
		c38.338,125.35-32.199,258.045-157.549,296.383c-56.813,17.375-115.134,12.396-165.497-9.934
		c-4.851,20.139-7.316,41.711-7.316,41.711l-0.008-0.012c-8.459-34.296-30.715-146.511,29.884-181.23
		c71.85-41.162,125.392,36.42,214.152,9.992c88.757-26.434,59.518-198.601-102.936-248.712
		c-75.955-23.423-150.182-17.45-207.705-4.45C125.528,51.965,159.619,30.463,199.174,18.366z"/>
</g>
</svg>
