<?xml version="1.0" encoding="utf-8"?>
<!-- Generator: Adobe Illustrator 16.0.0, SVG Export Plug-In . SVG Version: 6.00 Build 0)  -->
<!DOCTYPE svg PUBLIC "-//W3C//DTD SVG 1.1//EN" "http://www.w3.org/Graphics/SVG/1.1/DTD/svg11.dtd">
<svg version="1.1" id="Capa_1" xmlns="http://www.w3.org/2000/svg" xmlns:xlink="http://www.w3.org/1999/xlink" x="0px" y="0px"
	 width="50px" height="50px" viewBox="0 0 98 85" enable-background="new 0 0 98 85" xml:space="preserve">
<g>
	<g>
		<path fill="#FFFFFF" d="M79.053,12.448C71.025,4.421,60.352,0,49,0C37.648,0,26.975,4.421,18.948,12.448
			C10.921,20.475,6.5,31.148,6.5,42.5c0,11.352,4.421,22.025,12.448,30.053C26.975,80.579,37.648,85,49,85
			c11.352,0,22.025-4.421,30.053-12.447C87.079,64.525,91.5,53.852,91.5,42.5C91.5,31.148,87.079,20.475,79.053,12.448z M49,80.02
			c-20.688,0-37.52-16.831-37.52-37.52S28.312,4.98,49,4.98S86.52,21.812,86.52,42.5S69.688,80.02,49,80.02z"/>
	</g>
</g>
<g>
	<g>
		<path fill="#FFFFFF" d="M51.668,40.01h-5.335c-3.039,0-5.512-2.473-5.512-5.512s2.473-5.512,5.512-5.512h10.669
			c1.375,0,2.49-1.115,2.49-2.49c0-1.375-1.115-2.49-2.49-2.49H51.49v-5.512c0-1.375-1.115-2.49-2.49-2.49
			c-1.375,0-2.49,1.115-2.49,2.49v5.512h-0.177c-5.786,0-10.492,4.707-10.492,10.492c0,5.786,4.707,10.492,10.492,10.492h5.335
			c3.039,0,5.512,2.473,5.512,5.512s-2.473,5.512-5.512,5.512h-10.67c-1.375,0-2.49,1.115-2.49,2.49s1.115,2.49,2.49,2.49h5.512
			v5.512c0,1.375,1.115,2.49,2.49,2.49c1.375,0,2.49-1.115,2.49-2.49v-5.512h0.178c5.785,0,10.491-4.707,10.491-10.492
			S57.453,40.01,51.668,40.01z"/>
	</g>
</g>
</svg>
