<?xml version="1.0" encoding="utf-8"?>
<!-- Generator: Adobe Illustrator 16.0.0, SVG Export Plug-In . SVG Version: 6.00 Build 0)  -->
<!DOCTYPE svg PUBLIC "-//W3C//DTD SVG 1.1//EN" "http://www.w3.org/Graphics/SVG/1.1/DTD/svg11.dtd">
<svg version="1.1" id="Capa_1" xmlns="http://www.w3.org/2000/svg" xmlns:xlink="http://www.w3.org/1999/xlink" x="0px" y="0px"
	 width="34px" height="34px" viewBox="239 239 34 34" enable-background="new 239 239 34 34" xml:space="preserve">
<g>
	<g>
		<g>
			<path fill="#5D6BDD" d="M244.342,250.435h-0.082c-1.051,0-1.907,0.859-1.907,1.908v8.305c0,1.052,0.856,1.909,1.907,1.909h0.083
				c1.051,0,1.908-0.859,1.908-1.909v-8.306C246.25,251.294,245.392,250.435,244.342,250.435z"/>
			<path fill="#5D6BDD" d="M247.164,263.854c0,0.965,0.789,1.75,1.753,1.75h1.874v4.486c0,1.054,0.859,1.91,1.907,1.91h0.082
				c1.052,0,1.911-0.858,1.911-1.91v-4.486h2.618v4.486c0,1.054,0.862,1.91,1.91,1.91h0.081c1.052,0,1.908-0.858,1.908-1.91v-4.486
				h1.875c0.964,0,1.752-0.785,1.752-1.75v-13.114h-17.671V263.854z"/>
			<path fill="#5D6BDD" d="M260.4,242.786l1.488-2.297c0.096-0.145,0.054-0.343-0.093-0.437c-0.145-0.096-0.343-0.056-0.438,0.093
				l-1.543,2.376c-1.157-0.474-2.449-0.741-3.815-0.741c-1.366,0-2.656,0.267-3.816,0.741l-1.54-2.376
				c-0.094-0.149-0.293-0.188-0.44-0.093c-0.146,0.094-0.188,0.292-0.093,0.437l1.489,2.297c-2.685,1.316-4.496,3.796-4.496,6.641
				c0,0.175,0.011,0.347,0.026,0.518h17.741c0.015-0.171,0.024-0.343,0.024-0.518C264.896,246.583,263.084,244.102,260.4,242.786z
				 M251.888,246.899c-0.472,0-0.854-0.38-0.854-0.853s0.382-0.852,0.854-0.852c0.474,0,0.854,0.378,0.854,0.852
				C252.742,246.52,252.359,246.899,251.888,246.899z M260.112,246.899c-0.472,0-0.854-0.38-0.854-0.853s0.382-0.852,0.854-0.852
				c0.473,0,0.853,0.378,0.853,0.852C260.965,246.52,260.585,246.899,260.112,246.899z"/>
			<path fill="#5D6BDD" d="M267.738,250.435h-0.079c-1.051,0-1.91,0.859-1.91,1.908v8.305c0,1.052,0.861,1.909,1.91,1.909h0.081
				c1.052,0,1.907-0.859,1.907-1.909v-8.306C269.647,251.294,268.789,250.435,267.738,250.435z"/>
		</g>
	</g>
</g>
</svg>
