<?xml version="1.0" encoding="utf-8"?>
<!-- Generator: Adobe Illustrator 16.0.0, SVG Export Plug-In . SVG Version: 6.00 Build 0)  -->
<!DOCTYPE svg PUBLIC "-//W3C//DTD SVG 1.1//EN" "http://www.w3.org/Graphics/SVG/1.1/DTD/svg11.dtd">
<svg version="1.1" id="Capa_1" xmlns="http://www.w3.org/2000/svg" xmlns:xlink="http://www.w3.org/1999/xlink" x="0px" y="0px"
	 width="34px" height="34px" viewBox="0 0 34 34" enable-background="new 0 0 34 34" xml:space="preserve">
<g>
	<g>
		<g>
			<path fill="#5D6BDD" d="M5.342,11.436H5.26c-1.051,0-1.906,0.858-1.906,1.907v8.306c0,1.052,0.855,1.908,1.906,1.908h0.083
				c1.052,0,1.908-0.858,1.908-1.908v-8.307C7.25,12.294,6.393,11.436,5.342,11.436z"/>
			<path fill="#5D6BDD" d="M8.164,24.854c0,0.965,0.789,1.75,1.753,1.75h1.874v4.486c0,1.055,0.859,1.91,1.907,1.91h0.081
				c1.053,0,1.912-0.857,1.912-1.91v-4.486h2.617v4.486c0,1.055,0.862,1.91,1.91,1.91H20.3c1.052,0,1.908-0.857,1.908-1.91v-4.486
				h1.875c0.964,0,1.752-0.785,1.752-1.75V11.74H8.164V24.854L8.164,24.854z"/>
			<path fill="#5D6BDD" d="M21.4,3.786l1.488-2.297c0.096-0.146,0.053-0.343-0.094-0.438c-0.145-0.096-0.343-0.056-0.438,0.093
				l-1.543,2.377c-1.157-0.475-2.449-0.741-3.815-0.741s-2.656,0.267-3.815,0.741l-1.541-2.377
				c-0.094-0.148-0.293-0.188-0.439-0.093s-0.188,0.292-0.094,0.438l1.49,2.297c-2.686,1.315-4.496,3.796-4.496,6.641
				c0,0.175,0.011,0.347,0.025,0.519H25.87c0.015-0.172,0.024-0.344,0.024-0.519C25.896,7.583,24.084,5.102,21.4,3.786z
				 M12.889,7.898c-0.473,0-0.854-0.379-0.854-0.853c0-0.473,0.382-0.853,0.854-0.853s0.854,0.379,0.854,0.853
				S13.359,7.898,12.889,7.898z M21.111,7.898c-0.471,0-0.854-0.379-0.854-0.853c0-0.473,0.383-0.853,0.854-0.853
				c0.474,0,0.854,0.379,0.854,0.853S21.585,7.898,21.111,7.898z"/>
			<path fill="#5D6BDD" d="M28.738,11.436h-0.079c-1.052,0-1.91,0.858-1.91,1.907v8.306c0,1.052,0.86,1.908,1.91,1.908h0.081
				c1.052,0,1.906-0.858,1.906-1.908v-8.307C30.646,12.294,29.789,11.436,28.738,11.436z"/>
		</g>
	</g>
</g>
</svg>
