<?xml version="1.0" encoding="iso-8859-1"?>
<!-- Generator: Adobe Illustrator 19.0.0, SVG Export Plug-In . SVG Version: 6.00 Build 0)  -->
<svg xmlns="http://www.w3.org/2000/svg" xmlns:xlink="http://www.w3.org/1999/xlink" version="1.1" id="Layer_1" x="0px" y="0px" viewBox="0 0 512 512" style="enable-background:new 0 0 512 512;" xml:space="preserve" width="512" height="512">
<g>
	<g>
		<g>
			<g>
				<g>
					<g>
						<g>
							<g>
								<g>
									<g>
										<g>
											<g>
												<g>
													<path style="fill:#426175;" d="M273.072,331.237h-64.916c0,99.926-60.881,151.074-60.881,151.074h186.679               C333.954,482.311,273.072,431.162,273.072,331.237z"/>
													<path style="fill:#2C4456;" d="M273.072,331.237H221.21c0,99.926,60.881,151.074,60.881,151.074h51.863               C333.954,482.311,273.072,431.162,273.072,331.237z"/>
													<path style="fill:#CDD6DF;" d="M346.73,489.634H134.498c-5.109,0-9.25-4.142-9.25-9.25v0               c0-16.281,13.198-29.479,29.479-29.479h171.776c16.281,0,29.479,13.198,29.479,29.479v0               C355.981,485.493,351.839,489.634,346.73,489.634z"/>
												</g>
												<g>
													<g>
														<path style="fill:#426175;" d="M462.527,388.568H18.702C8.373,388.568,0,380.195,0,369.866V41.067                c0-10.329,8.373-18.702,18.702-18.702h443.825c10.329,0,18.702,8.373,18.702,18.702v328.798                C481.228,380.195,472.855,388.568,462.527,388.568z"/>
														<rect x="27.11" y="50.444" style="fill:#F2F2F2;" width="427.007" height="255.128"/>
														<rect x="399.178" y="50.444" style="fill:#CDD6DF;" width="54.94" height="255.128"/>
														<rect x="27.11" y="50.444" style="fill:#46D1C0;" width="427.007" height="39.705"/>
														<rect x="399.178" y="50.444" style="fill:#33BCA5;" width="54.94" height="39.705"/>
														<path style="fill:#CDD6DF;" d="M0,334.618v35.247c0,10.329,8.373,18.702,18.702,18.702h443.825                c10.329,0,18.702-8.373,18.702-18.702v-35.247H0z"/>
														<path style="fill:#ABB2BA;" d="M481.228,334.618h-52.013v35.247c0,10.329-8.373,18.702-18.702,18.702h52.013                c10.329,0,18.702-8.373,18.702-18.702L481.228,334.618L481.228,334.618z"/>
													</g>
												</g>
											</g>
										</g>
									</g>
								</g>
							</g>
						</g>
					</g>
				</g>
				<g>
					<g>
						<circle style="fill:#FF9248;" cx="163.899" cy="199.271" r="73.041"/>
					</g>
				</g>
				<g>
					<path style="fill:#FD715C;" d="M496.838,412.01H326.136c-8.374,0-15.162-6.788-15.162-15.162V177.881       c0-8.374,6.788-15.162,15.162-15.162h170.702c8.374,0,15.162,6.788,15.162,15.162v218.968       C512,405.222,505.212,412.01,496.838,412.01z"/>
					<path style="fill:#E5483C;" d="M496.838,162.719h-40.465V412.01h40.465c8.374,0,15.162-6.788,15.162-15.162V177.881       C512,169.507,505.212,162.719,496.838,162.719z"/>
					<rect x="336.927" y="192.258" style="fill:#F2F2F2;" width="149.119" height="52.956"/>
				</g>
			</g>
			<path style="fill:#46D1C0;" d="M226.47,161.578c-12.788-21.182-36.024-35.348-62.571-35.348v73.041L226.47,161.578z"/>
			<path style="fill:#FED066;" d="M226.47,161.578l-62.571,37.692l45.613,57.028c16.713-13.385,27.427-33.95,27.427-57.028     C236.94,185.479,233.114,172.583,226.47,161.578z"/>
		</g>
	</g>
	<g>
		<path style="fill:#426175;" d="M338.605,304.295V281.73c0-2.336,1.894-4.23,4.23-4.23h22.566c2.336,0,4.23,1.894,4.23,4.23v22.566    c0,2.336-1.894,4.23-4.23,4.23h-22.566C340.499,308.525,338.605,306.631,338.605,304.295z"/>
		<path style="fill:#426175;" d="M395.975,304.295V281.73c0-2.336,1.894-4.23,4.23-4.23h22.566c2.336,0,4.23,1.894,4.23,4.23v22.566    c0,2.336-1.894,4.23-4.23,4.23h-22.566C397.868,308.525,395.975,306.631,395.975,304.295z"/>
		<path style="fill:#426175;" d="M453.344,304.295V281.73c0-2.336,1.894-4.23,4.23-4.23h22.566c2.336,0,4.23,1.894,4.23,4.23v22.566    c0,2.336-1.894,4.23-4.23,4.23h-22.566C455.237,308.525,453.344,306.631,453.344,304.295z"/>
		<path style="fill:#426175;" d="M338.605,369.72v-22.566c0-2.336,1.894-4.23,4.23-4.23h22.566c2.336,0,4.23,1.894,4.23,4.23v22.566    c0,2.336-1.894,4.23-4.23,4.23h-22.566C340.499,373.95,338.605,372.056,338.605,369.72z"/>
		<path style="fill:#426175;" d="M395.975,369.72v-22.566c0-2.336,1.894-4.23,4.23-4.23h22.566c2.336,0,4.23,1.894,4.23,4.23v22.566    c0,2.336-1.894,4.23-4.23,4.23h-22.566C397.868,373.95,395.975,372.056,395.975,369.72z"/>
		<path style="fill:#426175;" d="M453.344,369.72v-22.566c0-2.336,1.894-4.23,4.23-4.23h22.566c2.336,0,4.23,1.894,4.23,4.23v22.566    c0,2.336-1.894,4.23-4.23,4.23h-22.566C455.237,373.95,453.344,372.056,453.344,369.72z"/>
	</g>
</g>















</svg>
