<?xml version="1.0" encoding="utf-8"?>
<!-- Generator: Adobe Illustrator 16.0.0, SVG Export Plug-In . SVG Version: 6.00 Build 0)  -->
<!DOCTYPE svg PUBLIC "-//W3C//DTD SVG 1.1//EN" "http://www.w3.org/Graphics/SVG/1.1/DTD/svg11.dtd">
<svg version="1.1" id="Layer_1" xmlns="http://www.w3.org/2000/svg" xmlns:xlink="http://www.w3.org/1999/xlink" x="0px" y="0px"
	 width="50px" height="50px" viewBox="0 0 494 494" enable-background="new 0 0 494 494" xml:space="preserve">
<path fill="#FFFFFF" d="M441.906,0H122.469C94.746,0,72.191,22.344,72.191,49.719L70.133,331H7.793C3.375,331,0,334.906,0,339.324
	v38.711c0,36.238,29,65.875,64,67.5V446h269v-0.523c2,0.082,3.211,0.523,4.586,0.523h0.191
	c37.328-0.219,67.418-30.645,67.223-67.973V132h81.207c4.418,0,7.793-4,7.793-8.414V52.559C494.051,23.691,470.773,0.207,441.906,0z
	 M67.5,430h-0.055C38.988,430,16,406.48,16,378.027V347h254v30.895c-0.063,18.008,7.051,35.297,19.766,48.047
	c1.352,1.359,2.766,2.059,4.211,4.059H67.5z M389,378.02c0,28.461-22.766,51.98-51.234,51.98h-0.164
	c-28.609-0.207-51.668-23.492-51.602-52.102v-38.574c0.023-4.48-3.52-8.168-8-8.324H86.133l2.059-281.227
	C88.191,31.168,103.566,16,122.469,16h281.668C395.02,26,389,38.652,389,52.773V378.02z M478,52.699V116h-73V52.758
	C405,32.734,421.656,16,441.672,16h0.223c20.066,0.199,36.199,16.57,36.105,36.641V52.699z"/>
<path fill="#FFFFFF" d="M187.855,196.914l41.246,28.199c2.691,1.855,6.25,1.855,8.941,0l41.121-28.191
	C293.449,187.176,304,166.801,304,149.523V92.469c0.086-3.016-1.578-5.813-4.266-7.184l-62.801-30.891
	c-2.203-1.094-4.789-1.094-6.992,0l-62.684,30.805c-2.688,1.371-4.348,4.168-4.258,7.184v57.141
	C163,166.801,173.574,187.176,187.855,196.914z M179,97.375l54.5-26.891L288,97.449v52.074c0,12.051-7.898,27.379-17.863,34.172
	l-36.73,25.121l-36.586-25.117c-9.965-6.801-17.82-22.125-17.82-34.176V97.375z"/>
<path fill="#FFFFFF" d="M219.969,161.602c1.492,1.523,3.531,2.387,5.664,2.398h0.02c2.125-0.008,4.16-0.859,5.656-2.367
	l31.824-31.836c3.129-3.125,3.129-8.195,0.004-11.32c-3.121-3.129-8.191-3.129-11.316-0.004l-26.141,26.137l-10.449-10.551
	c-3.113-3.141-8.18-3.164-11.32-0.051s-3.16,8.18-0.051,11.32L219.969,161.602z"/>
<path fill="#FFFFFF" d="M333,248H141c-4.418,0-8,3.582-8,8s3.582,8,8,8h192c4.418,0,8-3.582,8-8S337.418,248,333,248z"/>
<path fill="#FFFFFF" d="M333,285H141c-4.418,0-8,3.582-8,8s3.582,8,8,8h192c4.418,0,8-3.582,8-8S337.418,285,333,285z"/>
</svg>
