<?xml version="1.0" encoding="utf-8"?>
<!-- Generator: Adobe Illustrator 16.0.0, SVG Export Plug-In . SVG Version: 6.00 Build 0)  -->
<!DOCTYPE svg PUBLIC "-//W3C//DTD SVG 1.1//EN" "http://www.w3.org/Graphics/SVG/1.1/DTD/svg11.dtd">
<svg version="1.1" id="Capa_1" xmlns="http://www.w3.org/2000/svg" xmlns:xlink="http://www.w3.org/1999/xlink" x="0px" y="0px"
	 width="50px" height="50px" viewBox="0 0 50 50" enable-background="new 0 0 50 50" xml:space="preserve">
<g>
	
		<linearGradient id="SVGID_1_" gradientUnits="userSpaceOnUse" x1="55" y1="-114" x2="95" y2="-114" gradientTransform="matrix(1 0 0 -1 -50 -89)">
		<stop  offset="0" style="stop-color:#5E55D7"/>
		<stop  offset="1" style="stop-color:#5C83E3"/>
	</linearGradient>
	<path fill="url(#SVGID_1_)" d="M27.115,16.056c0-3.653,2.959-6.613,6.612-6.613c3.651,0,6.612,2.96,6.612,6.613
		c0,3.651-2.961,6.612-6.612,6.612C30.074,22.668,27.115,19.707,27.115,16.056z M36.533,23.119h-5.611
		c-4.668,0-8.467,3.799-8.467,8.467v6.865l0.019,0.104l0.474,0.147c4.455,1.394,8.327,1.855,11.512,1.855
		c6.225,0,9.83-1.773,10.054-1.887l0.44-0.226H45v-6.86C45,26.918,41.203,23.119,36.533,23.119z M16.272,22.668
		c3.653,0,6.613-2.961,6.613-6.613c0-3.653-2.96-6.613-6.613-6.613c-3.651,0-6.612,2.96-6.612,6.613
		C9.66,19.707,12.621,22.668,16.272,22.668z M20.929,38.451v-6.865c0-2.733,1.103-5.209,2.879-7.021
		c-1.351-0.913-2.979-1.446-4.729-1.446h-5.611C8.799,23.119,5,26.916,5,31.586v6.862l0.018,0.105l0.475,0.147
		c4.455,1.394,8.325,1.855,11.512,1.855c2.025,0,3.77-0.188,5.214-0.445l-1.093-0.342L20.929,38.451z"/>
</g>
</svg>
