<svg height="512pt" viewBox="-32 0 512 512" width="512pt" xmlns="http://www.w3.org/2000/svg"><path d="m448.804688 211.164062v263.445313c0 20.652344-16.738282 37.390625-37.390626 37.390625h-374.023437c-20.652344 0-37.390625-16.738281-37.390625-37.390625v-263.445313zm0 0" fill="#ff5a58"/><path d="m420.28125 211.164062v263.445313c0 20.652344-16.742188 37.390625-37.390625 37.390625h28.523437c20.652344 0 37.390626-16.738281 37.390626-37.390625v-263.445313zm0 0" fill="#ee374b"/><path d="m355.164062 403.042969c-3.019531-3.019531-7.910156-3.019531-10.929687 0-3.015625 3.015625-3.015625 7.90625 0 10.925781l90.140625 90.140625c4.105469-3.199219 7.527344-7.230469 10.007812-11.847656zm0 0" fill="#ee374b"/><path d="m420.28125 468.160156v6.449219c0 4.59375-.835938 8.992187-2.347656 13.054687l16.441406 16.445313c.507812-.394531 1.003906-.804687 1.492188-1.226563.011718-.007812.019531-.015624.03125-.027343.472656-.410157.9375-.835938 1.390624-1.269531.019532-.015626.039063-.035157.054688-.050782.449219-.429687.882812-.871094 1.308594-1.324218.019531-.019532.039062-.039063.0625-.0625.425781-.453126.839844-.921876 1.246094-1.398438.011718-.015625.023437-.03125.039062-.046875 1.671875-1.980469 3.144531-4.136719 4.382812-6.441406zm0 0" fill="#d63048"/><path d="m104.570312 403.042969c-3.015624-3.015625-7.910156-3.019531-10.925781 0l-89.226562 89.207031c2.476562 4.617188 5.898437 8.652344 10.003906 11.851562l90.148437-90.132812c3.019532-3.015625 3.019532-7.910156 0-10.925781zm0 0" fill="#ee374b"/><path d="m185.011719 37.457031-173.570313 148.839844c-15.246094 13.070313-15.246094 36.664063 0 49.734375l173.570313 148.839844c22.667969 19.433594 56.117187 19.433594 78.78125 0l173.574219-148.839844c15.246093-13.070312 15.246093-36.664062 0-49.734375l-173.574219-148.839844c-22.664063-19.433593-56.117188-19.433593-78.78125 0zm0 0" fill="#ffdc61"/><path d="m396.945312 28.324219v242.363281l-133.148437 114.175781c-22.660156 19.449219-56.125 19.449219-78.785156 0l-133.152344-114.179687v-242.359375c0-15.644531 12.683594-28.324219 28.324219-28.324219h288.4375c15.644531 0 28.324218 12.679688 28.324218 28.324219zm0 0" fill="#f5eef3"/><path d="m368.621094 0h-26.769532c15.640626 0 28.324219 12.679688 28.324219 28.324219v265.316406l26.769531-22.957031v-242.359375c0-15.644531-12.679687-28.324219-28.324218-28.324219zm0 0" fill="#bed0e9"/><path d="m208.449219 263.84375c1.058593.710938 2.425781.710938 3.484375 0 10.320312-6.898438 63.472656-43.410156 78.726562-73.328125 13.964844-27.390625 3.84375-67.851563-28.539062-76.375-18.8125-4.953125-41.308594 3.921875-50.546875 21.113281-.601563 1.113282-2.167969 1.113282-2.765625 0-9.242188-17.191406-31.738282-26.066406-50.550782-21.113281-32.378906 8.527344-42.503906 48.988281-28.539062 76.375 15.253906 29.921875 68.410156 66.429687 78.730469 73.328125zm0 0" fill="#ff87b3"/><path d="m275.984375 158.480469c.589844.394531 1.351563.394531 1.941406 0 5.75-3.84375 35.371094-24.1875 43.867188-40.859375 7.78125-15.261719 2.140625-37.804688-15.902344-42.554688-10.480469-2.761718-23.015625 2.183594-28.164063 11.761719-.335937.621094-1.207031.621094-1.542968 0-5.148438-9.578125-17.683594-14.523437-28.164063-11.761719-18.042969 4.75-23.683593 27.292969-15.902343 42.554688 8.5 16.671875 38.117187 37.015625 43.867187 40.859375zm0 0" fill="#00d1b6"/></svg>