<?xml version="1.0" encoding="utf-8"?>
<!-- Generator: Adobe Illustrator 16.0.0, SVG Export Plug-In . SVG Version: 6.00 Build 0)  -->
<!DOCTYPE svg PUBLIC "-//W3C//DTD SVG 1.1//EN" "http://www.w3.org/Graphics/SVG/1.1/DTD/svg11.dtd">
<svg version="1.1" id="Capa_1" xmlns="http://www.w3.org/2000/svg" xmlns:xlink="http://www.w3.org/1999/xlink" x="0px" y="0px"
	 width="512px" height="512px" viewBox="0 0 512 512" enable-background="new 0 0 512 512" xml:space="preserve">
<linearGradient id="SVGID_1_" gradientUnits="userSpaceOnUse" x1="572.8164" y1="-5.001" x2="1211.8868" y2="-5.001" gradientTransform="matrix(1 0 0 -1 -347 248.5)">
	<stop  offset="7.011211e-004" style="stop-color:#FFF0D5"/>
	<stop  offset="0.5112" style="stop-color:#FFDFFF"/>
	<stop  offset="1" style="stop-color:#D9CEFF"/>
</linearGradient>
<path fill="url(#SVGID_1_)" d="M505.626,289.418c-11.826-34.61-38.138-60.16-69.852-72.202
	c-16.431-6.239-27.347-21.856-27.587-39.429c-0.006-0.384-0.013-0.769-0.021-1.154c-1.507-64.582-55.488-116.33-120.077-115.221
	c-38.094,0.654-71.788,19.355-92.905,47.92c-18.185,24.599-46.49,39.965-77.08,39.949c-0.898,0-1.797,0.009-2.7,0.029
	C53.487,150.664,0.837,203.788,0.011,265.713c-0.879,65.932,52.303,119.654,118.032,119.654c50.947,0,94.349-32.277,110.886-77.497
	c4.327-11.832,17.152-18.175,29.283-14.772c0.151,0.043,0.304,0.086,0.455,0.127c11.099,3.064,18.458,13.641,17.55,25.119
	c-1.217,15.383,0.581,31.255,5.799,46.796c20.521,61.136,87.188,94.686,148.492,74.681
	C493.219,419.355,526.887,351.636,505.626,289.418L505.626,289.418z"/>
<path opacity="0.1" fill="#590BB2" enable-background="new    " d="M382.658,291.841l-25.876-7.368
	c-2.534-10.33-6.613-20.059-11.982-28.912l13.093-23.516c1.109-1.999,0.762-4.5-0.856-6.118l-17.685-17.685
	c-1.619-1.618-4.119-1.966-6.119-0.856l-23.516,13.092c-7.051-4.276-14.665-7.718-22.689-10.229v-48.905
	c0-2.913-0.641-5.795-1.861-8.438l-20.089-43.2c-3.583-7.717-14.564-7.717-18.147,0l-20.099,43.2
	c-1.231,2.642-1.862,5.525-1.862,8.438v48.905c-8.024,2.511-15.638,5.952-22.689,10.229l-23.516-13.092
	c-1.999-1.11-4.5-0.762-6.118,0.856l-17.685,17.685c-1.618,1.618-1.966,4.119-0.856,6.118l13.092,23.516
	c-5.369,8.853-9.448,18.582-11.982,28.912l-25.876,7.368c-2.207,0.63-3.724,2.642-3.724,4.935v25.008
	c0,2.293,1.518,4.306,3.724,4.934l25.876,7.368c2.534,10.33,6.613,20.059,11.982,28.912l-13.092,23.516
	c-1.11,1.999-0.762,4.5,0.856,6.118l17.685,17.686c1.618,1.617,4.119,1.966,6.118,0.855l23.516-13.092
	c8.853,5.369,18.581,9.448,28.912,11.981l7.368,25.876c0.629,2.206,2.641,3.725,4.934,3.725h25.007c2.293,0,4.306-1.519,4.935-3.725
	l7.367-25.876c10.33-2.533,20.059-6.612,28.912-11.981l23.516,13.092c2,1.11,4.5,0.762,6.119-0.855l17.685-17.686
	c1.618-1.618,1.966-4.119,0.856-6.118l-13.093-23.516c5.369-8.854,9.448-18.581,11.981-28.912l25.877-7.368
	c2.207-0.628,3.724-2.641,3.724-4.934v-25.008C386.383,294.482,384.865,292.469,382.658,291.841L382.658,291.841z M202.375,309.278
	c0-18.048,8.927-34.003,22.597-43.722V353C211.302,343.281,202.375,327.326,202.375,309.278z M287.029,353v-87.443
	c13.669,9.719,22.596,25.674,22.596,43.723C309.625,327.327,300.698,343.281,287.029,353z"/>
<g>
	<path fill="#FFA052" d="M444.633,292.119h-17.244c-3.4,0-6.157-2.758-6.157-6.158v-17.244c0-3.4,2.757-6.158,6.157-6.158h17.244
		c3.401,0,6.158,2.758,6.158,6.158v17.244C450.792,289.361,448.034,292.119,444.633,292.119z"/>
	<path fill="#FFA052" d="M84.611,292.119H67.367c-3.401,0-6.158-2.758-6.158-6.158v-17.244c0-3.4,2.757-6.158,6.158-6.158h17.244
		c3.401,0,6.158,2.758,6.158,6.158v17.244C90.769,289.361,88.012,292.119,84.611,292.119L84.611,292.119z"/>
	<path fill="#FFA052" d="M264.622,97.328h-17.244c-3.401,0-6.158-2.757-6.158-6.158V73.925c0-3.401,2.757-6.158,6.158-6.158h17.244
		c3.401,0,6.157,2.757,6.157,6.158v17.244C270.779,94.57,268.023,97.328,264.622,97.328z"/>
	<path fill="#FFA052" d="M264.622,97.328h-17.244c-3.401,0-6.158-2.757-6.158-6.158V73.925c0-3.401,2.757-6.158,6.158-6.158h17.244
		c3.401,0,6.157,2.757,6.157,6.158v17.244C270.779,94.57,268.023,97.328,264.622,97.328z"/>
	<circle fill="#FFA052" cx="450.792" cy="82.547" r="15.208"/>
	<circle fill="#FFA052" cx="61.208" cy="82.547" r="15.208"/>
</g>
<path fill="#D6B0FF" d="M382.659,312.841l-25.876-7.368c-2.534-10.33-6.613-20.059-11.982-28.912l13.092-23.516
	c1.11-1.999,0.762-4.5-0.855-6.118l-17.686-17.685c-1.617-1.618-4.119-1.966-6.117-0.856l-23.517,13.092
	c-8.853-5.369-18.581-9.448-28.911-11.982l-7.369-25.876c-0.629-2.206-2.641-3.724-4.934-3.724h-25.007
	c-2.293,0-4.306,1.518-4.934,3.724l-7.368,25.876c-10.33,2.534-20.059,6.613-28.912,11.982l-23.516-13.092
	c-1.999-1.11-4.5-0.762-6.118,0.856l-17.685,17.685c-1.618,1.618-1.966,4.119-0.856,6.118l13.092,23.516
	c-5.369,8.854-9.448,18.582-11.982,28.912l-25.876,7.368c-2.206,0.629-3.724,2.642-3.724,4.936v25.007
	c0,2.293,1.518,4.306,3.724,4.934l25.876,7.368c2.534,10.33,6.613,20.059,11.982,28.912l-13.092,23.516
	c-1.11,1.999-0.762,4.5,0.856,6.118l17.685,17.686c1.618,1.617,4.119,1.966,6.118,0.855l23.516-13.092
	c8.853,5.369,18.581,9.448,28.912,11.981l7.368,25.876c0.629,2.206,2.641,3.725,4.934,3.725h25.007c2.293,0,4.307-1.519,4.934-3.725
	l7.369-25.876c10.33-2.533,20.059-6.612,28.911-11.981l23.517,13.092c1.998,1.11,4.5,0.762,6.117-0.855l17.686-17.686
	c1.618-1.618,1.966-4.119,0.855-6.118l-13.092-23.516c5.369-8.854,9.448-18.581,11.982-28.912l25.876-7.368
	c2.206-0.629,3.724-2.641,3.724-4.934v-25.007C386.383,315.482,384.865,313.469,382.659,312.841z M256,383.904
	c-29.614,0-53.625-24.012-53.625-53.625c0-29.614,24.011-53.625,53.625-53.625c29.614,0,53.625,24.011,53.625,53.625
	C309.625,359.893,285.614,383.904,256,383.904z"/>
<path fill="#FFA052" d="M287.029,182.344v191.678c-8.758,6.226-19.469,9.879-31.029,9.879c-11.571,0-22.271-3.663-31.029-9.899
	V182.344c0-2.913,0.631-5.795,1.862-8.438l20.099-43.2c3.583-7.717,14.564-7.717,18.147,0l20.089,43.2
	C286.389,176.549,287.029,179.431,287.029,182.344L287.029,182.344z"/>
<path fill="#FFE783" d="M256,188.099V383.9c-11.571,0-22.271-3.663-31.029-9.899V188.099H256z"/>
<path fill="#FFD5B8" d="M246.929,130.709l-20.094,43.192c-1.231,2.645-1.868,5.527-1.868,8.445v12.758
	c3.574,1.922,7.668,3.013,12.012,3.013c5.016,0,9.694-1.46,13.628-3.978c3.319-2.124,7.588-2.019,10.92,0.084
	c3.906,2.466,8.533,3.894,13.5,3.894c4.344,0,8.429-1.091,12.002-3.013v-12.76c0-2.916-0.637-5.797-1.867-8.442l-20.086-43.194
	C261.494,122.991,250.512,122.991,246.929,130.709L246.929,130.709z"/>
<path fill="#B557FF" d="M246.929,130.709l-10.991,23.644c5.476,4.475,12.453,7.167,20.06,7.167c7.618,0,14.605-2.693,20.07-7.177
	l-10.991-23.634C261.494,122.991,250.512,122.991,246.929,130.709L246.929,130.709z"/>
<path fill="#5E55D7" d="M450.792,102.756c11.143,0,20.208-9.065,20.208-20.209c0-11.143-9.065-20.208-20.208-20.208
	c-9.415,0-17.323,6.48-19.557,15.208H275.779v-3.621c0-6.153-5.006-11.159-11.157-11.159h-17.244
	c-6.152,0-11.158,5.006-11.158,11.159v3.621H80.765c-2.234-8.728-10.142-15.208-19.557-15.208C50.065,62.339,41,71.404,41,82.547
	c0,11.144,9.065,20.209,20.208,20.209c9.415,0,17.323-6.481,19.557-15.209h115.113c-28.959,9.939-55.211,27.022-76.319,50.058
	c-30.194,32.952-47.304,75.379-48.497,119.954h-3.695c-6.153,0-11.159,5.006-11.159,11.158v17.244
	c0,6.152,5.006,11.158,11.159,11.158H84.61c6.153,0,11.159-5.006,11.159-11.158v-17.244c0-6.152-5.006-11.158-11.159-11.158h-3.542
	c1.19-42.066,17.365-82.096,45.865-113.198c28.674-31.294,67.373-50.985,109.287-55.701v2.51c0,6.152,5.006,11.158,11.158,11.158
	h17.244c6.151,0,11.157-5.006,11.157-11.158v-2.51c41.914,4.716,80.611,24.408,109.285,55.7
	c28.5,31.104,44.677,71.132,45.866,113.201h-3.542c-6.152,0-11.159,5.006-11.159,11.157v17.244c0,6.151,5.007,11.158,11.159,11.158
	h17.243c6.153,0,11.159-5.007,11.159-11.158v-17.244c0-6.151-5.006-11.157-11.159-11.157h-3.695
	c-1.192-44.577-18.304-87.004-48.499-119.957c-21.106-23.035-47.358-40.116-76.316-50.056h115.113
	C433.469,96.275,441.377,102.756,450.792,102.756L450.792,102.756z M85.77,268.717v17.244c0,0.639-0.52,1.158-1.159,1.158H67.367
	c-0.64,0-1.159-0.52-1.159-1.158v-17.244c0-0.639,0.52-1.158,1.159-1.158H84.61C85.25,267.559,85.77,268.078,85.77,268.717z
	 M445.792,268.717v17.244c0,0.639-0.52,1.158-1.159,1.158H427.39c-0.64,0-1.158-0.52-1.158-1.158v-17.244
	c0-0.639,0.52-1.158,1.158-1.158h17.243C445.272,267.559,445.792,268.078,445.792,268.717z M450.792,72.339
	c5.629,0,10.208,4.579,10.208,10.208s-4.579,10.209-10.208,10.209s-10.209-4.58-10.209-10.209S445.163,72.339,450.792,72.339z
	 M61.208,92.756C55.579,92.756,51,88.176,51,82.547s4.579-10.208,10.208-10.208s10.209,4.579,10.209,10.208
	S66.837,92.756,61.208,92.756z M265.779,91.169c0,0.639-0.52,1.158-1.157,1.158h-17.244c-0.639,0-1.158-0.52-1.158-1.158V73.926
	c0-0.64,0.52-1.159,1.158-1.159h17.244c0.639,0,1.157,0.52,1.157,1.159V91.169z"/>
<path fill="#5E55D7" d="M384.027,308.032l-23.125-6.585c-2.393-8.725-5.86-17.096-10.342-24.954l11.703-21.022
	c2.182-3.932,1.486-8.898-1.691-12.079l-17.686-17.685c-3.181-3.179-8.147-3.877-12.086-1.689l-21.017,11.7
	c-5.657-3.224-11.61-5.933-17.752-8.089v-45.281c0-3.62-0.808-7.268-2.332-10.55l-20.089-43.2c-2.49-5.355-7.705-8.682-13.611-8.682
	c-5.905,0.001-11.12,3.327-13.609,8.682l-20.089,43.201c-1.525,3.281-2.332,6.929-2.332,10.549v45.278
	c-6.145,2.156-12.097,4.867-17.756,8.093l-21.022-11.704c-3.932-2.182-8.901-1.487-12.079,1.693l-17.687,17.686
	c-3.178,3.18-3.873,8.146-1.688,12.085l11.699,21.016c-4.48,7.858-7.949,16.229-10.341,24.954l-23.124,6.584
	c-4.331,1.231-7.356,5.239-7.356,9.744v25.007c0,4.504,3.025,8.511,7.355,9.742l23.125,6.586c2.392,8.725,5.86,17.095,10.341,24.953
	l-11.703,21.021c-2.182,3.933-1.486,8.898,1.692,12.079l17.686,17.686c3.18,3.18,8.147,3.88,12.085,1.688l21.017-11.699
	c7.858,4.48,16.229,7.949,24.954,10.341l6.584,23.124c1.232,4.331,5.239,7.356,9.744,7.356h25.006c4.505,0,8.512-3.025,9.743-7.355
	l6.585-23.125c8.725-2.392,17.096-5.859,24.954-10.341l21.021,11.702c3.932,2.186,8.901,1.489,12.082-1.691l17.687-17.687
	c3.178-3.18,3.872-8.146,1.688-12.084l-11.699-21.017c4.479-7.858,7.949-16.229,10.34-24.953l23.125-6.585
	c4.33-1.232,7.355-5.239,7.355-9.743v-25.007C391.383,313.271,388.357,309.264,384.027,308.032z M255.998,217c-2.762,0-5,2.238-5,5
	v156.647c-24.47-2.513-43.623-23.246-43.623-48.369c0-12.102,4.6-23.737,12.596-32.606v48.788c0,2.762,2.238,5,5,5
	c2.762,0,5-2.238,5-5V202.289c2.289,0.541,4.642,0.828,7.008,0.828c5.806,0,11.45-1.648,16.323-4.767
	c1.627-1.043,3.81-1.001,5.558,0.102c4.834,3.052,10.426,4.665,16.168,4.665c2.365,0,4.718-0.287,7.007-0.829v168.276
	c0,0.241,0.038,0.473,0.071,0.705c-6.223,3.976-13.396,6.587-21.106,7.378V222C260.998,219.238,258.76,217,255.998,217L255.998,217z
	 M292.033,297.623c8.08,8.868,12.592,20.371,12.592,32.655c0,12.538-4.771,23.98-12.592,32.612V297.623z M251.46,132.814
	c1.25-2.688,3.792-2.897,4.542-2.897s3.293,0.209,4.543,2.898l9.227,19.843c-4.136,2.497-8.903,3.863-13.773,3.863
	c-4.936,0-9.625-1.335-13.77-3.853L251.46,132.814z M231.371,176.015l6.617-14.231c5.474,3.081,11.69,4.737,18.01,4.737
	c6.332,0,12.55-1.656,18.018-4.738l6.617,14.232c0.916,1.97,1.4,4.16,1.4,6.333v9.529c-2.229,0.819-4.573,1.24-7.006,1.24
	c-3.852,0-7.596-1.079-10.832-3.122c-5.014-3.164-11.405-3.189-16.284-0.067c-3.26,2.087-7.041,3.189-10.933,3.189
	c-2.398,0-4.775-0.431-7.008-1.245v-9.525C229.971,180.175,230.455,177.984,231.371,176.015z M381.383,342.782
	c0,0.06-0.035,0.107-0.094,0.125l-25.876,7.369c-1.728,0.491-3.06,1.873-3.487,3.616c-2.381,9.708-6.217,18.965-11.4,27.511
	c-0.932,1.536-0.967,3.455-0.092,5.023l13.088,23.511c0.026,0.05,0.019,0.118-0.02,0.156l-17.686,17.687
	c-0.041,0.038-0.107,0.046-0.15,0.021L312.15,414.71c-1.572-0.875-3.488-0.84-5.025,0.093c-8.547,5.185-17.803,9.021-27.511,11.4
	c-1.744,0.429-3.125,1.76-3.617,3.487l-7.369,25.877c-0.016,0.057-0.063,0.093-0.125,0.093h-25.006
	c-0.061,0-0.109-0.036-0.126-0.094l-7.368-25.876c-0.492-1.729-1.873-3.06-3.617-3.487c-9.708-2.381-18.964-6.217-27.511-11.4
	c-1.536-0.932-3.453-0.968-5.025-0.093l-23.511,13.09c-0.051,0.027-0.115,0.02-0.155-0.02l-17.685-17.686
	c-0.038-0.039-0.047-0.107-0.023-0.151l13.092-23.517c0.875-1.568,0.839-3.487-0.093-5.023c-5.184-8.546-9.02-17.803-11.4-27.511
	c-0.429-1.743-1.76-3.125-3.487-3.616l-25.877-7.37c-0.057-0.017-0.093-0.064-0.093-0.124v-25.007c0-0.062,0.036-0.109,0.094-0.126
	l25.876-7.368c1.728-0.492,3.059-1.873,3.487-3.617c2.381-9.708,6.217-18.964,11.4-27.512c0.932-1.535,0.968-3.454,0.093-5.023
	l-13.088-23.51c-0.027-0.05-0.019-0.119,0.019-0.157l17.686-17.685c0.039-0.037,0.108-0.047,0.15-0.023l23.516,13.092
	c1.572,0.875,3.489,0.838,5.025-0.093c4.805-2.915,9.863-5.413,15.096-7.464v45.771c-14.166,11.069-22.596,28.217-22.596,46.218
	c0,32.326,26.299,58.625,58.625,58.625s58.625-26.299,58.625-58.625c0-18.227-8.231-35.026-22.592-46.226V238.29
	c5.229,2.05,10.289,4.549,15.092,7.463c1.536,0.931,3.453,0.968,5.024,0.093l23.51-13.088c0.05-0.027,0.119-0.021,0.156,0.021
	l17.686,17.683c0.038,0.039,0.047,0.108,0.023,0.152l-13.092,23.516c-0.875,1.569-0.84,3.488,0.092,5.024
	c5.185,8.547,9.021,17.803,11.4,27.511c0.43,1.744,1.76,3.125,3.487,3.617l25.877,7.369c0.058,0.016,0.093,0.063,0.093,0.125
	V342.782z"/>
<path opacity="0.1" fill="#590BB2" enable-background="new    " d="M450.792,76.756c8.399,0,15.208-6.809,15.208-15.208
	s-6.809-15.208-15.208-15.208c-6.645,0-12.28,4.269-14.35,10.208H270.779v-3.622c0-3.401-2.756-6.158-6.158-6.158h-17.244
	c-3.401,0-6.159,2.757-6.159,6.158v3.622H75.558c-2.07-5.939-7.705-10.208-14.35-10.208C52.809,46.339,46,53.148,46,61.547
	s6.809,15.208,15.208,15.208c6.645,0,12.28-4.269,14.35-10.209h128.134C127.82,88.947,72.098,158.776,71.014,241.558h-3.648
	c-3.401,0-6.158,2.757-6.158,6.159v17.244c0,3.4,2.757,6.158,6.158,6.158H84.61c3.401,0,6.159-2.758,6.159-6.158v-17.244
	c0-3.401-2.757-6.159-6.159-6.159h-3.592c1.253-90.408,71.397-164.46,160.202-171.923v0.534c0,3.401,2.757,6.159,6.159,6.159h17.244
	c3.4,0,6.158-2.757,6.158-6.159v-0.534c88.806,7.462,158.949,81.514,160.202,171.923h-3.593c-3.4,0-6.157,2.757-6.157,6.159v17.244
	c0,3.4,2.757,6.158,6.157,6.158h17.244c3.401,0,6.158-2.758,6.158-6.158v-17.244c0-3.401-2.757-6.159-6.158-6.159h-3.647
	c-1.084-82.781-56.806-152.611-132.679-175.012h128.135C438.511,72.487,444.146,76.756,450.792,76.756L450.792,76.756z"/>
<path fill="#FFE783" d="M58.292,159.216c-2.762,0-5-2.238-5-5c0-3.306-2.689-5.995-5.995-5.995c-2.762,0-5-2.238-5-5
	c0-2.762,2.238-5,5-5c3.306,0,5.995-2.689,5.995-5.995c0-2.762,2.238-5,5-5s5,2.238,5,5c0,3.306,2.689,5.995,5.995,5.995
	c2.762,0,5,2.238,5,5c0,2.762-2.238,5-5,5c-3.306,0-5.995,2.689-5.995,5.995C63.292,156.978,61.054,159.216,58.292,159.216z"/>
<path fill="#C182F9" d="M345.52,187.102c-2.763,0-5-2.238-5-5c0-3.306-2.689-5.995-5.996-5.995c-2.762,0-5-2.238-5-5
	c0-2.762,2.238-5,5-5c3.307,0,5.996-2.689,5.996-5.995c0-2.762,2.237-5,5-5c2.762,0,5,2.238,5,5c0,3.306,2.688,5.995,5.994,5.995
	c2.762,0,5,2.238,5,5c0,2.762-2.238,5-5,5c-3.306,0-5.994,2.689-5.994,5.995C350.52,184.863,348.279,187.102,345.52,187.102z"/>
<path fill="#FFA052" d="M101.764,437.988c-1.279,0-2.56-0.488-3.535-1.465l-10.994-10.994c-1.953-1.952-1.953-5.118,0-7.07
	l10.994-10.994c1.951-1.953,5.119-1.953,7.07,0l10.994,10.994c1.953,1.952,1.953,5.118,0,7.07l-10.994,10.994
	C104.323,437.5,103.043,437.988,101.764,437.988L101.764,437.988z M97.841,421.994l3.923,3.923l3.923-3.923l-3.923-3.923
	L97.841,421.994z"/>
<path fill="#FFA052" d="M432.58,358.48c-1.279,0-2.561-0.488-3.535-1.466l-10.994-10.993c-1.953-1.952-1.953-5.118,0-7.07
	l10.994-10.994c1.951-1.953,5.119-1.953,7.07,0l10.994,10.994c1.952,1.952,1.952,5.118,0,7.07l-10.994,10.993
	C435.14,357.991,433.859,358.48,432.58,358.48z M428.657,342.485l3.923,3.923l3.923-3.923l-3.923-3.923L428.657,342.485z"/>
</svg>
