<?xml version="1.0" encoding="utf-8"?>
<!-- Generator: Adobe Illustrator 16.0.0, SVG Export Plug-In . SVG Version: 6.00 Build 0)  -->
<!DOCTYPE svg PUBLIC "-//W3C//DTD SVG 1.1//EN" "http://www.w3.org/Graphics/SVG/1.1/DTD/svg11.dtd">
<svg version="1.1" id="Capa_1" xmlns="http://www.w3.org/2000/svg" xmlns:xlink="http://www.w3.org/1999/xlink" x="0px" y="0px"
	 width="50px" height="50px" viewBox="0 0 512 512" enable-background="new 0 0 512 512" xml:space="preserve">
<path fill="#FFFFFF" d="M80.331,328.659c43.551,103.676,190.931,103.819,234.542,0c5.065-12.058-3.88-25.378-16.932-25.378H97.262
	C84.182,303.28,75.275,316.624,80.331,328.659z M97.262,318.274h200.679c2.336,0,4.029,2.379,3.105,4.577
	c-38.416,91.458-168.421,91.585-206.892,0C93.23,320.649,94.931,318.274,97.262,318.274L97.262,318.274z"/>
<path fill="#FFFFFF" d="M104.976,236.397c0-14.863,12.093-26.955,26.957-26.955s26.955,12.092,26.955,26.955
	c0,4.141,3.356,7.497,7.497,7.497c4.142,0,7.497-3.356,7.497-7.497c0-23.131-18.818-41.949-41.949-41.949
	c-23.132,0-41.951,18.818-41.951,41.949c0,4.141,3.355,7.497,7.497,7.497C101.62,243.895,104.976,240.539,104.976,236.397z"/>
<path fill="#FFFFFF" d="M236.316,236.397c0-14.863,12.093-26.955,26.956-26.955c14.863,0,26.956,12.092,26.956,26.955
	c0,4.141,3.356,7.497,7.497,7.497c4.142,0,7.497-3.356,7.497-7.497c0-23.131-18.818-41.949-41.95-41.949
	c-23.131,0-41.95,18.818-41.95,41.949c0,4.141,3.355,7.497,7.497,7.497C232.96,243.895,236.316,240.539,236.316,236.397z"/>
<path fill="#FFFFFF" d="M222.437,41.301c3.52-2.18,4.606-6.8,2.426-10.321c-2.179-3.52-6.798-4.605-10.321-2.426
	c-26.81,16.604-49.159,39.717-64.849,66.96C69.464,116.15,7.794,189.008,7.64,279.109c-0.106,61.15,29.086,118.135,78.14,153.91
	c2.2,1.604,2.873,4.514,1.563,6.767c-9.975,17.163-22.595,32.748-37.506,46.321c-11.002,10.015-2.002,28.271,12.661,25.636
	c27.795-4.994,68.516-16.333,104.669-41.988c2.05-1.455,4.666-2.073,7.369-1.746c34.402,4.185,69.493-0.921,101.756-15.623
	c3.768-1.718,5.431-6.164,3.714-9.932c-1.718-3.768-6.162-5.43-9.932-3.714c-29.915,13.632-62.269,18.21-93.729,14.384
	c-6.417-0.777-12.757,0.783-17.856,4.402c-33.692,23.909-71.887,34.605-98.244,39.382c15.909-14.539,29.384-31.219,40.061-49.587
	c5.182-8.913,2.735-20.271-5.69-26.416c-45.169-32.941-72.077-85.94-71.982-141.77c0.165-96.309,78.656-174.662,174.97-174.661
	c96.477,0,174.966,78.49,174.966,174.968c0,56.414-27.454,109.689-73.441,142.513c-3.369,2.405-4.151,7.087-1.746,10.457
	c2.405,3.371,7.086,4.152,10.458,1.747c18.358-13.104,33.985-29.22,46.42-47.396c33.766,21.321,70.074,31.165,95.24,35.687
	c14.651,2.632,23.675-15.611,12.661-25.636c-14.913-13.575-27.532-29.16-37.506-46.322c-1.311-2.252-0.638-5.161,1.563-6.766
	c48.932-35.686,78.247-92.582,78.142-153.91C504.131,56.265,370.817-34.215,247.349,12.391c-3.874,1.461-5.829,5.788-4.367,9.661
	c1.463,3.874,5.791,5.829,9.662,4.366c114.453-43.2,236.514,41.957,236.722,163.424c0.096,55.829-26.813,108.827-71.982,141.77
	c-8.427,6.145-10.873,17.501-5.69,26.415c10.663,18.346,24.12,35.009,40.061,49.593c-23.82-4.315-57.962-13.616-89.523-33.558
	c16.345-28.446,25.334-61.016,25.334-94.621c0-114.697-101.761-204.692-217.648-187.979
	C183.689,71.356,201.607,54.201,222.437,41.301L222.437,41.301z"/>
</svg>
