<?xml version="1.0" encoding="utf-8"?>
<!-- Generator: Adobe Illustrator 16.0.0, SVG Export Plug-In . SVG Version: 6.00 Build 0)  -->
<!DOCTYPE svg PUBLIC "-//W3C//DTD SVG 1.1//EN" "http://www.w3.org/Graphics/SVG/1.1/DTD/svg11.dtd">
<svg version="1.1" id="Capa_1" xmlns="http://www.w3.org/2000/svg" xmlns:xlink="http://www.w3.org/1999/xlink" x="0px" y="0px"
	 width="50px" height="50px" viewBox="0 0 98 85" enable-background="new 0 0 98 85" xml:space="preserve">
<g>
	<path fill="#FFFFFF" d="M28.681,55.162c-1.215-0.961-2.738-1.489-4.288-1.489c-2.106,0-4.068,0.937-5.382,2.568
		c-1.149,1.429-1.669,3.216-1.464,5.033c0.205,1.82,1.113,3.451,2.557,4.593c1.215,0.959,2.737,1.488,4.287,1.488
		c2.108,0,4.07-0.938,5.383-2.571c1.147-1.427,1.667-3.212,1.463-5.028C31.033,57.936,30.125,56.304,28.681,55.162z M27.329,62.818
		c-0.714,0.889-1.785,1.399-2.937,1.399c-0.858,0-1.668-0.281-2.341-0.813c-0.782-0.618-1.273-1.5-1.385-2.482
		c-0.11-0.979,0.17-1.943,0.791-2.714c0.715-0.889,1.785-1.398,2.937-1.398c0.859,0,1.669,0.281,2.342,0.813
		c0.782,0.619,1.273,1.5,1.384,2.484C28.229,61.085,27.949,62.047,27.329,62.818z"/>
	<path fill="#FFFFFF" d="M56.272,39.091c1.035,0,2.036-0.227,2.978-0.675c1.663-0.796,2.913-2.189,3.518-3.921
		c0.602-1.722,0.494-3.575-0.304-5.216c-1.142-2.352-3.578-3.872-6.208-3.872c-1.037,0-2.04,0.228-2.98,0.676
		c-1.664,0.793-2.914,2.185-3.52,3.918c-0.603,1.723-0.495,3.576,0.305,5.218C51.205,37.571,53.643,39.091,56.272,39.091z
		 M52.718,31.038c0.327-0.938,1.005-1.691,1.908-2.122c0.516-0.246,1.063-0.371,1.63-0.371c1.436,0,2.764,0.825,3.385,2.104
		c0.43,0.885,0.488,1.882,0.164,2.81c-0.327,0.938-1.006,1.692-1.907,2.124c-0.515,0.245-1.062,0.369-1.625,0.369
		c-1.438,0-2.769-0.827-3.392-2.106C52.451,32.963,52.394,31.965,52.718,31.038z"/>
	<path fill="#FFFFFF" d="M39.197,28.002c0.505,0.114,1.021,0.172,1.535,0.172c3.23,0,5.99-2.185,6.711-5.316
		c0.406-1.775,0.094-3.603-0.877-5.147c-0.979-1.556-2.51-2.637-4.309-3.045c-0.507-0.115-1.025-0.173-1.542-0.173
		c-3.228,0-5.985,2.187-6.704,5.317c-0.409,1.774-0.099,3.602,0.872,5.147C35.865,26.516,37.396,27.597,39.197,28.002z
		 M37.07,20.514c0.39-1.697,1.89-2.883,3.646-2.883c0.282,0,0.567,0.032,0.847,0.096c0.981,0.222,1.814,0.811,2.347,1.656
		c0.525,0.833,0.693,1.819,0.475,2.773c-0.385,1.669-1.921,2.88-3.653,2.88c-0.282,0-0.565-0.032-0.845-0.095
		c-0.981-0.221-1.815-0.809-2.347-1.654C37.017,22.454,36.85,21.47,37.07,20.514z"/>
	<path fill="#FFFFFF" d="M26.729,31.917c1.442-1.143,2.349-2.775,2.554-4.596c0.204-1.815-0.314-3.601-1.462-5.03
		c-1.316-1.632-3.279-2.567-5.386-2.567c-1.548,0-3.069,0.527-4.285,1.486c-1.442,1.139-2.35,2.769-2.555,4.588
		c-0.206,1.818,0.314,3.606,1.465,5.038c1.314,1.633,3.278,2.57,5.387,2.57C23.996,33.406,25.517,32.877,26.729,31.917z
		 M19.505,28.869c-0.621-0.773-0.902-1.739-0.792-2.719c0.111-0.981,0.602-1.862,1.381-2.478c0.672-0.53,1.481-0.811,2.34-0.811
		c1.152,0,2.226,0.51,2.941,1.396c0.618,0.771,0.898,1.733,0.789,2.712c-0.111,0.984-0.603,1.868-1.384,2.487
		c-0.669,0.53-1.477,0.811-2.334,0.811C21.292,30.268,20.221,29.757,19.505,28.869z"/>
	<path fill="#FFFFFF" d="M90.9,16.563c-0.271-0.273-0.756-0.6-1.52-0.6c-0.895,0-3.272,0-17.714,12.289
		c-0.29,0.247-0.583,0.497-0.877,0.749c-2.58-6.731-7.114-12.731-12.956-17.072C51.137,6.952,43.16,4.32,34.77,4.318
		c-0.002,0-0.004,0-0.006,0c-5.663,0-12.546,1.979-17.965,5.165c-6.642,3.905-10.3,9.127-10.298,14.704
		c0.002,6.733,3.8,9.55,6.851,11.813c2.488,1.846,4.454,3.303,4.455,6.497c0.001,3.193-1.963,4.65-4.45,6.494
		c-3.051,2.261-6.847,5.076-6.845,11.81c0.001,5.577,3.661,10.8,10.305,14.708c5.423,3.189,12.31,5.173,17.974,5.174
		c0.004,0,0.007,0,0.011,0c10.279,0,19.941-3.967,27.208-11.171c7.174-7.112,11.164-16.539,11.27-26.585
		c2.437-2.772,4.797-5.528,6.951-8.124c3.686-4.442,6.521-8.107,8.424-10.894C91.176,20.217,92.28,17.954,90.9,16.563z
		 M59.799,67.282C53.123,73.9,44.246,77.544,34.8,77.544c-0.003,0-0.007,0-0.01,0C24.667,77.541,9.651,70.509,9.648,60.799
		c-0.002-5.153,2.708-7.162,5.576-9.289c2.681-1.987,5.72-4.24,5.719-9.015c-0.001-4.773-3.041-7.028-5.723-9.017
		c-2.87-2.128-5.581-4.139-5.582-9.292c-0.001-5.963,5.482-10.077,8.75-11.999c4.89-2.875,11.316-4.731,16.375-4.731
		c0.001,0,0.004,0,0.005,0c7.712,0.002,15.041,2.42,21.194,6.991c5.676,4.217,10.008,10.136,12.289,16.75
		c-6.805,5.942-14.176,12.793-19.664,18.3c-9.116,1.18-10.358,7.255-11.266,11.718c-0.773,3.801-1.275,5.638-4.208,5.873
		c-0.723,0.059-1.312,0.604-1.424,1.32c-0.113,0.716,0.279,1.416,0.949,1.693c0.189,0.078,4.675,1.911,9.917,1.912
		c0,0,0.001,0,0.001,0c3.653,0,6.786-0.887,9.313-2.633c3.113-2.15,5.225-5.563,6.285-10.137c3.586-3.629,7.684-8.004,11.736-12.51
		C68.959,54.493,65.458,61.672,59.799,67.282z M55.004,58.947c-1.662,6.588-5.846,9.928-12.446,9.928c0,0-0.001,0-0.001,0
		c-1.74,0-3.407-0.237-4.808-0.533c1.673-1.707,2.196-4.275,2.649-6.5c0.862-4.239,1.678-8.25,8.348-9.203L55.004,58.947z
		 M76.672,34.167c-6.221,7.41-13.749,15.732-19.947,22.059l-0.959-0.968l-4.233-4.267c5.619-5.593,12.828-12.263,19.554-18.1l0,0
		c0.783-0.681,1.563-1.353,2.33-2.007c7.806-6.657,11.896-9.554,13.982-10.814C86.152,22.168,83.282,26.29,76.672,34.167z"/>
</g>
</svg>
