<?xml version="1.0" encoding="utf-8"?>
<!-- Generator: Adobe Illustrator 16.0.0, SVG Export Plug-In . SVG Version: 6.00 Build 0)  -->
<!DOCTYPE svg PUBLIC "-//W3C//DTD SVG 1.1//EN" "http://www.w3.org/Graphics/SVG/1.1/DTD/svg11.dtd">
<svg version="1.1" id="Layer_1" xmlns="http://www.w3.org/2000/svg" xmlns:xlink="http://www.w3.org/1999/xlink" x="0px" y="0px"
	 width="98px" height="85px" viewBox="0 0 98 85" enable-background="new 0 0 98 85" xml:space="preserve">
<path fill="#464655" d="M88.568,6.595H9.431C7.812,6.595,6.5,7.907,6.5,9.526v46.896h85V9.526C91.5,7.907,90.188,6.595,88.568,6.595
	z M87.104,52.025H10.896V10.991h76.207V52.025z"/>
<g>
	<path fill="#FFFFFF" d="M40.207,29.311c0.405,0,0.733,0.328,0.733,0.732h2.198v-2.198h-2.931c-0.405,0-0.733-0.328-0.733-0.732
		c0-0.405,0.328-0.733,0.733-0.733h2.931v-9.526H29.948v13.189h9.525C39.474,29.638,39.802,29.311,40.207,29.311z"/>
	<path fill="#FFFFFF" d="M10.896,52.025h76.207V10.991H10.896V52.025z M43.138,48.361h-2.931c-0.405,0-0.733-0.327-0.733-0.732
		c0-0.404,0.328-0.732,0.733-0.732h2.931c0.405,0,0.733,0.328,0.733,0.732C43.871,48.034,43.543,48.361,43.138,48.361z
		 M40.207,41.034c0.405,0,0.733,0.328,0.733,0.733v2.931c0,0.405-0.328,0.733-0.733,0.733c-0.405,0-0.733-0.328-0.733-0.733v-2.931
		C39.474,41.362,39.802,41.034,40.207,41.034z M39.474,38.836v-2.931c0-0.405,0.328-0.733,0.733-0.733
		c0.405,0,0.732,0.328,0.732,0.733v2.931c0,0.405-0.328,0.732-0.732,0.732C39.802,39.569,39.474,39.241,39.474,38.836z M49,48.361
		h-2.931c-0.405,0-0.733-0.327-0.733-0.732c0-0.404,0.328-0.732,0.733-0.732H49c0.405,0,0.732,0.328,0.732,0.732
		C49.732,48.034,49.405,48.361,49,48.361z M61.457,44.698c0,0.405-0.328,0.733-0.733,0.733s-0.732-0.328-0.732-0.733v-2.931
		c0-0.405,0.327-0.733,0.732-0.733s0.733,0.328,0.733,0.733V44.698z M61.457,38.836c0,0.405-0.328,0.732-0.733,0.732
		s-0.732-0.328-0.732-0.732v-2.931c0-0.405,0.327-0.733,0.732-0.733s0.733,0.328,0.733,0.733V38.836z M61.457,32.974
		c0,0.405-0.328,0.733-0.733,0.733s-0.732-0.328-0.732-0.733v-2.931c0-0.405,0.327-0.732,0.732-0.732s0.733,0.328,0.733,0.732
		V32.974z M68.052,34.439V24.181v-8.793c0-0.81,0.656-1.466,1.466-1.466h13.189c0.809,0,1.465,0.656,1.465,1.466v8.793V34.44v13.189
		c0,0.81-0.656,1.466-1.465,1.466H69.518c-0.81,0-1.466-0.656-1.466-1.466V34.439z M57.793,26.379h2.931
		c0.405,0,0.733,0.328,0.733,0.733c0,0.405-0.328,0.732-0.733,0.732h-2.931c-0.405,0-0.732-0.328-0.732-0.732
		C57.061,26.707,57.388,26.379,57.793,26.379z M57.793,46.896h2.931c0.405,0,0.733,0.328,0.733,0.732
		c0,0.406-0.328,0.733-0.733,0.733h-2.931c-0.405,0-0.732-0.327-0.732-0.733C57.061,47.225,57.388,46.896,57.793,46.896z
		 M51.931,26.379h2.931c0.406,0,0.733,0.328,0.733,0.733c0,0.405-0.327,0.732-0.733,0.732h-2.931c-0.405,0-0.732-0.328-0.732-0.732
		C51.198,26.707,51.525,26.379,51.931,26.379z M51.931,46.896h2.931c0.406,0,0.733,0.328,0.733,0.732
		c0,0.406-0.327,0.733-0.733,0.733h-2.931c-0.405,0-0.732-0.327-0.732-0.733C51.198,47.225,51.525,46.896,51.931,46.896z
		 M27.017,15.388c0-0.81,0.656-1.466,1.465-1.466h16.121c0.81,0,1.466,0.655,1.466,1.466v10.991H49c0.405,0,0.732,0.328,0.732,0.733
		c0,0.405-0.328,0.732-0.732,0.732h-2.931v3.664c0,0.159-0.026,0.312-0.073,0.455l3.846,3.446c0.318,0.285,0.236,0.805-0.156,0.977
		l-1.457,0.64l1.302,2.965c0.162,0.37-0.007,0.803-0.377,0.966c-0.096,0.042-0.196,0.062-0.294,0.062
		c-0.283,0-0.551-0.163-0.672-0.438l-1.302-2.965l-1.458,0.64c-0.392,0.172-0.83-0.119-0.825-0.546l0.062-4.737
		c-0.021,0.001-0.041,0.003-0.062,0.003h-3.664c0,0.405-0.328,0.732-0.733,0.732c-0.405,0-0.733-0.328-0.733-0.732H28.482
		c-0.809,0-1.465-0.656-1.465-1.466V15.388L27.017,15.388z M13.828,15.388c0-0.81,0.656-1.466,1.465-1.466h4.397
		c0.809,0,1.465,0.656,1.465,1.466v32.241c0,0.81-0.656,1.466-1.465,1.466h-4.397c-0.809,0-1.465-0.656-1.465-1.466V15.388z"/>
</g>
<path fill="#BEC8DC" d="M6.5,62.284c0,1.619,1.312,2.931,2.931,2.931h27.845h23.449h27.844c1.619,0,2.932-1.312,2.932-2.931v-5.862
	h-85V62.284z M49,58.621c1.214,0,2.198,0.984,2.198,2.197c0,1.215-0.984,2.199-2.198,2.199s-2.198-0.984-2.198-2.199
	C46.802,59.605,47.786,58.621,49,58.621z"/>
<polygon fill="#AFBBD0" points="35.994,75.475 62.006,75.475 61.091,68.146 36.909,68.146 "/>
<path fill="#BEC8DC" d="M35.811,75.475c-0.81,0-1.466,0.656-1.466,1.465c0,0.81,0.656,1.466,1.466,1.466h26.379
	c0.81,0,1.466-0.656,1.466-1.466c0-0.809-0.656-1.465-1.466-1.465h-0.183H35.994H35.811z"/>
<g>
	<polygon fill="#96A5B9" points="36.909,68.146 61.091,68.146 60.725,65.216 37.276,65.216 	"/>
	<circle fill="#96A5B9" cx="49" cy="60.819" r="2.198"/>
</g>
<path fill="#BEC8DC" d="M15.293,49.095h4.397c0.809,0,1.465-0.656,1.465-1.466V15.388c0-0.81-0.656-1.466-1.465-1.466h-4.397
	c-0.809,0-1.465,0.656-1.465,1.466v32.241C13.828,48.438,14.484,49.095,15.293,49.095z M16.759,16.854h1.465
	c0.81,0,1.466,0.656,1.466,1.465c0,0.81-0.656,1.466-1.466,1.466h-1.465c-0.81,0-1.466-0.656-1.466-1.466
	C15.293,17.51,15.949,16.854,16.759,16.854z M16.759,21.25h1.465c0.81,0,1.466,0.656,1.466,1.466c0,0.809-0.656,1.465-1.466,1.465
	h-1.465c-0.81,0-1.466-0.656-1.466-1.465C15.293,21.906,15.949,21.25,16.759,21.25z M16.759,25.646h1.465
	c0.81,0,1.466,0.656,1.466,1.466c0,0.809-0.656,1.465-1.466,1.465h-1.465c-0.81,0-1.466-0.656-1.466-1.465
	C15.293,26.303,15.949,25.646,16.759,25.646z M16.759,30.043h1.465c0.81,0,1.466,0.656,1.466,1.466c0,0.809-0.656,1.466-1.466,1.466
	h-1.465c-0.81,0-1.466-0.657-1.466-1.466C15.293,30.699,15.949,30.043,16.759,30.043z M16.759,34.439h1.465
	c0.81,0,1.466,0.656,1.466,1.466c0,0.809-0.656,1.465-1.466,1.465h-1.465c-0.81,0-1.466-0.656-1.466-1.465
	C15.293,35.096,15.949,34.439,16.759,34.439z M15.293,41.767c0-0.809,0.656-1.465,1.466-1.465h1.466
	c0.809,0,1.465,0.656,1.465,1.465v2.931c0,0.81-0.656,1.466-1.465,1.466h-1.466c-0.81,0-1.466-0.656-1.466-1.466V41.767z"/>
<path fill="#E4EAF6" d="M16.759,19.784h1.465c0.81,0,1.466-0.656,1.466-1.465c0-0.81-0.656-1.466-1.466-1.466h-1.465
	c-0.81,0-1.466,0.656-1.466,1.466S15.949,19.784,16.759,19.784z"/>
<path fill="#96A5B9" d="M16.759,24.181h1.465c0.81,0,1.466-0.656,1.466-1.466c0-0.809-0.656-1.465-1.466-1.465h-1.465
	c-0.81,0-1.466,0.656-1.466,1.465C15.293,23.525,15.949,24.181,16.759,24.181z"/>
<g>
	<path fill="#E4EAF6" d="M16.759,28.578h1.465c0.81,0,1.466-0.656,1.466-1.466c0-0.809-0.656-1.465-1.466-1.465h-1.465
		c-0.81,0-1.466,0.656-1.466,1.465C15.293,27.921,15.949,28.578,16.759,28.578z"/>
	<path fill="#E4EAF6" d="M16.759,32.974h1.465c0.81,0,1.466-0.656,1.466-1.465c0-0.81-0.656-1.466-1.466-1.466h-1.465
		c-0.81,0-1.466,0.656-1.466,1.466C15.293,32.318,15.949,32.974,16.759,32.974z"/>
	<path fill="#E4EAF6" d="M16.759,37.371h1.465c0.81,0,1.466-0.656,1.466-1.465c0-0.81-0.656-1.466-1.466-1.466h-1.465
		c-0.81,0-1.466,0.656-1.466,1.466C15.293,36.714,15.949,37.371,16.759,37.371z"/>
</g>
<path fill="#96A5B9" d="M16.759,46.164h1.465c0.81,0,1.466-0.656,1.466-1.466v-2.931c0-0.809-0.656-1.465-1.466-1.465h-1.465
	c-0.81,0-1.466,0.656-1.466,1.465v2.931C15.293,45.508,15.949,46.164,16.759,46.164z"/>
<g>
	<path fill="#BEC8DC" d="M84.172,15.388c0-0.81-0.656-1.466-1.465-1.466H69.518c-0.81,0-1.466,0.656-1.466,1.466v8.793h16.12V15.388
		L84.172,15.388z M81.975,22.716h-5.862h-1.466H70.25c-0.404,0-0.732-0.328-0.732-0.733s0.328-0.733,0.732-0.733h4.396h1.466h5.862
		c0.404,0,0.732,0.328,0.732,0.733S82.379,22.716,81.975,22.716z M81.975,19.784h-1.466h-1.466H70.25
		c-0.404,0-0.732-0.328-0.732-0.732s0.328-0.733,0.732-0.733h8.793h1.466h1.466c0.404,0,0.732,0.328,0.732,0.733
		S82.379,19.784,81.975,19.784z M81.975,16.854h-8.793h-1.467H70.25c-0.404,0-0.732-0.328-0.732-0.733s0.328-0.733,0.732-0.733
		h1.466h1.466h8.793c0.404,0,0.732,0.328,0.732,0.733S82.379,16.854,81.975,16.854z"/>
	<path fill="#BEC8DC" d="M69.518,49.095h13.189c0.809,0,1.465-0.656,1.465-1.466V34.439h-16.12v13.189
		C68.052,48.438,68.708,49.095,69.518,49.095z M76.111,35.905h5.863c0.404,0,0.732,0.328,0.732,0.733s-0.328,0.732-0.732,0.732
		h-5.863c-0.404,0-0.732-0.328-0.732-0.732S75.707,35.905,76.111,35.905z M76.111,38.836h5.863c0.404,0,0.732,0.328,0.732,0.732
		s-0.328,0.733-0.732,0.733h-5.863c-0.404,0-0.732-0.328-0.732-0.733S75.707,38.836,76.111,38.836z M76.111,41.767h5.863
		c0.404,0,0.732,0.328,0.732,0.733s-0.328,0.732-0.732,0.732h-5.863c-0.404,0-0.732-0.328-0.732-0.732S75.707,41.767,76.111,41.767z
		 M76.111,44.698h5.863c0.404,0,0.732,0.328,0.732,0.733c0,0.404-0.328,0.732-0.732,0.732h-5.863c-0.404,0-0.732-0.328-0.732-0.732
		C75.379,45.026,75.707,44.698,76.111,44.698z M73.182,35.905L73.182,35.905c0.404,0,0.732,0.328,0.732,0.733
		s-0.328,0.732-0.732,0.732l0,0c-0.405,0-0.733-0.328-0.733-0.732S72.776,35.905,73.182,35.905z M73.182,38.836L73.182,38.836
		c0.404,0,0.732,0.328,0.732,0.732s-0.328,0.733-0.732,0.733l0,0c-0.405,0-0.733-0.328-0.733-0.733S72.776,38.836,73.182,38.836z
		 M73.182,41.767L73.182,41.767c0.404,0,0.732,0.328,0.732,0.733s-0.328,0.732-0.732,0.732l0,0c-0.405,0-0.733-0.328-0.733-0.732
		S72.776,41.767,73.182,41.767z M73.182,44.698L73.182,44.698c0.404,0,0.732,0.328,0.732,0.733c0,0.404-0.328,0.732-0.732,0.732l0,0
		c-0.405,0-0.733-0.328-0.733-0.732C72.448,45.026,72.776,44.698,73.182,44.698z M70.25,35.905L70.25,35.905
		c0.404,0,0.732,0.328,0.732,0.733s-0.328,0.732-0.732,0.732l0,0c-0.404,0-0.732-0.328-0.732-0.732S69.846,35.905,70.25,35.905z
		 M70.25,38.836L70.25,38.836c0.404,0,0.732,0.328,0.732,0.732s-0.328,0.733-0.732,0.733l0,0c-0.404,0-0.732-0.328-0.732-0.733
		S69.846,38.836,70.25,38.836z M70.25,41.767L70.25,41.767c0.404,0,0.732,0.328,0.732,0.733s-0.328,0.732-0.732,0.732l0,0
		c-0.404,0-0.732-0.328-0.732-0.732S69.846,41.767,70.25,41.767z M70.25,44.698L70.25,44.698c0.404,0,0.732,0.328,0.732,0.733
		c0,0.404-0.328,0.732-0.732,0.732l0,0c-0.404,0-0.732-0.328-0.732-0.732C69.518,45.026,69.846,44.698,70.25,44.698z"/>
</g>
<g>
	<path fill="#96A5B9" d="M84.172,24.181h-16.12v10.258h16.12V24.181z M71.716,32.974H70.25c-0.404,0-0.732-0.328-0.732-0.733
		s0.328-0.732,0.732-0.732h1.466c0.404,0,0.732,0.328,0.732,0.732S72.12,32.974,71.716,32.974z M71.716,30.043H70.25
		c-0.404,0-0.732-0.328-0.732-0.732s0.328-0.733,0.732-0.733h1.466c0.404,0,0.732,0.328,0.732,0.733S72.12,30.043,71.716,30.043z
		 M71.716,27.112H70.25c-0.404,0-0.732-0.328-0.732-0.732s0.328-0.733,0.732-0.733h1.466c0.404,0,0.732,0.328,0.732,0.733
		S72.12,27.112,71.716,27.112z M81.975,32.974h-7.328c-0.404,0-0.732-0.328-0.732-0.733s0.328-0.732,0.732-0.732h7.328
		c0.404,0,0.732,0.328,0.732,0.732S82.379,32.974,81.975,32.974z M81.975,30.043h-7.328c-0.404,0-0.732-0.328-0.732-0.732
		s0.328-0.733,0.732-0.733h7.328c0.404,0,0.732,0.328,0.732,0.733S82.379,30.043,81.975,30.043z M81.975,27.112h-7.328
		c-0.404,0-0.732-0.328-0.732-0.732s0.328-0.733,0.732-0.733h7.328c0.404,0,0.732,0.328,0.732,0.733S82.379,27.112,81.975,27.112z"
		/>
	<path fill="#96A5B9" d="M81.975,15.388h-8.793c0.404,0,0.732,0.328,0.732,0.732s-0.328,0.733-0.732,0.733h8.793
		c0.404,0,0.732-0.328,0.732-0.733S82.379,15.388,81.975,15.388z"/>
	<path fill="#96A5B9" d="M70.982,16.121c0-0.405,0.328-0.733,0.733-0.733H70.25c-0.404,0-0.732,0.328-0.732,0.733
		s0.328,0.733,0.732,0.733h1.466C71.311,16.854,70.982,16.525,70.982,16.121z"/>
	<path fill="#96A5B9" d="M81.975,21.25h-5.862c0.405,0,0.732,0.328,0.732,0.733s-0.327,0.733-0.732,0.733h5.862
		c0.404,0,0.732-0.328,0.732-0.733S82.379,21.25,81.975,21.25z"/>
	<path fill="#96A5B9" d="M73.914,21.983c0-0.405,0.328-0.733,0.732-0.733H70.25c-0.404,0-0.732,0.328-0.732,0.733
		s0.328,0.733,0.732,0.733h4.396C74.242,22.716,73.914,22.387,73.914,21.983z"/>
</g>
<path fill="#BEC8DC" d="M81.975,25.646h-7.328c-0.404,0-0.732,0.328-0.732,0.733s0.328,0.733,0.732,0.733h7.328
	c0.404,0,0.732-0.328,0.732-0.733S82.379,25.646,81.975,25.646z"/>
<g>
	<path fill="#96A5B9" d="M78.311,19.052c0-0.405,0.328-0.733,0.732-0.733H70.25c-0.404,0-0.732,0.328-0.732,0.733
		s0.328,0.733,0.732,0.733h8.793C78.639,19.784,78.311,19.457,78.311,19.052z"/>
	<path fill="#96A5B9" d="M81.975,18.319h-1.466c0.404,0,0.732,0.328,0.732,0.733s-0.328,0.733-0.732,0.733h1.466
		c0.404,0,0.732-0.328,0.732-0.733S82.379,18.319,81.975,18.319z"/>
</g>
<g>
	<path fill="#E4EAF6" d="M73.914,16.121c0-0.405-0.328-0.733-0.732-0.733h-1.467c-0.404,0-0.732,0.328-0.732,0.733
		s0.328,0.733,0.732,0.733h1.467C73.586,16.854,73.914,16.525,73.914,16.121z"/>
	<path fill="#E4EAF6" d="M76.845,21.983c0-0.405-0.328-0.733-0.733-0.733h-1.465c-0.404,0-0.732,0.328-0.732,0.733
		s0.328,0.733,0.732,0.733h1.465C76.517,22.716,76.845,22.387,76.845,21.983z"/>
	<path fill="#E4EAF6" d="M71.716,25.646H70.25c-0.404,0-0.732,0.328-0.732,0.733s0.328,0.733,0.732,0.733h1.466
		c0.404,0,0.732-0.328,0.732-0.733S72.12,25.646,71.716,25.646z"/>
</g>
<path fill="#BEC8DC" d="M81.975,28.578h-7.328c-0.404,0-0.732,0.328-0.732,0.733s0.328,0.732,0.732,0.732h7.328
	c0.404,0,0.732-0.328,0.732-0.732S82.379,28.578,81.975,28.578z"/>
<path fill="#E4EAF6" d="M71.716,28.578H70.25c-0.404,0-0.732,0.328-0.732,0.733s0.328,0.732,0.732,0.732h1.466
	c0.404,0,0.732-0.328,0.732-0.732S72.12,28.578,71.716,28.578z"/>
<path fill="#BEC8DC" d="M81.975,31.509h-7.328c-0.404,0-0.732,0.328-0.732,0.732s0.328,0.733,0.732,0.733h7.328
	c0.404,0,0.732-0.328,0.732-0.733S82.379,31.509,81.975,31.509z"/>
<g>
	<path fill="#E4EAF6" d="M71.716,31.509H70.25c-0.404,0-0.732,0.328-0.732,0.732s0.328,0.733,0.732,0.733h1.466
		c0.404,0,0.732-0.328,0.732-0.733S72.12,31.509,71.716,31.509z"/>
	<path fill="#E4EAF6" d="M70.25,40.302L70.25,40.302c0.404,0,0.732-0.328,0.732-0.733s-0.328-0.732-0.732-0.732l0,0
		c-0.404,0-0.732,0.328-0.732,0.732S69.846,40.302,70.25,40.302z"/>
	<path fill="#E4EAF6" d="M70.25,37.371L70.25,37.371c0.404,0,0.732-0.328,0.732-0.733s-0.328-0.732-0.732-0.732l0,0
		c-0.404,0-0.732,0.328-0.732,0.732S69.846,37.371,70.25,37.371z"/>
	<path fill="#E4EAF6" d="M70.25,46.164L70.25,46.164c0.404,0,0.732-0.328,0.732-0.732c0-0.405-0.328-0.733-0.732-0.733l0,0
		c-0.404,0-0.732,0.328-0.732,0.733C69.518,45.836,69.846,46.164,70.25,46.164z"/>
	<path fill="#E4EAF6" d="M70.25,43.232L70.25,43.232c0.404,0,0.732-0.328,0.732-0.732s-0.328-0.733-0.732-0.733l0,0
		c-0.404,0-0.732,0.328-0.732,0.733S69.846,43.232,70.25,43.232z"/>
</g>
<g>
	<path fill="#96A5B9" d="M73.182,40.302L73.182,40.302c0.404,0,0.732-0.328,0.732-0.733s-0.328-0.732-0.732-0.732l0,0
		c-0.405,0-0.733,0.328-0.733,0.732S72.776,40.302,73.182,40.302z"/>
	<path fill="#96A5B9" d="M73.182,37.371L73.182,37.371c0.404,0,0.732-0.328,0.732-0.733s-0.328-0.732-0.732-0.732l0,0
		c-0.405,0-0.733,0.328-0.733,0.732S72.776,37.371,73.182,37.371z"/>
	<path fill="#96A5B9" d="M73.182,46.164L73.182,46.164c0.404,0,0.732-0.328,0.732-0.732c0-0.405-0.328-0.733-0.732-0.733l0,0
		c-0.405,0-0.733,0.328-0.733,0.733C72.448,45.836,72.776,46.164,73.182,46.164z"/>
	<path fill="#96A5B9" d="M73.182,43.232L73.182,43.232c0.404,0,0.732-0.328,0.732-0.732s-0.328-0.733-0.732-0.733l0,0
		c-0.405,0-0.733,0.328-0.733,0.733S72.776,43.232,73.182,43.232z"/>
	<path fill="#96A5B9" d="M76.111,40.302h5.863c0.404,0,0.732-0.328,0.732-0.733s-0.328-0.732-0.732-0.732h-5.863
		c-0.404,0-0.732,0.328-0.732,0.732S75.707,40.302,76.111,40.302z"/>
	<path fill="#96A5B9" d="M76.111,37.371h5.863c0.404,0,0.732-0.328,0.732-0.733s-0.328-0.732-0.732-0.732h-5.863
		c-0.404,0-0.732,0.328-0.732,0.732S75.707,37.371,76.111,37.371z"/>
	<path fill="#96A5B9" d="M76.111,46.164h5.863c0.404,0,0.732-0.328,0.732-0.732c0-0.405-0.328-0.733-0.732-0.733h-5.863
		c-0.404,0-0.732,0.328-0.732,0.733C75.379,45.836,75.707,46.164,76.111,46.164z"/>
	<path fill="#96A5B9" d="M76.111,43.232h5.863c0.404,0,0.732-0.328,0.732-0.732s-0.328-0.733-0.732-0.733h-5.863
		c-0.404,0-0.732,0.328-0.732,0.733S75.707,43.232,76.111,43.232z"/>
</g>
<path fill="#E4EAF6" d="M81.241,19.052c0-0.405-0.328-0.733-0.732-0.733h-1.466c-0.404,0-0.732,0.328-0.732,0.733
	s0.328,0.733,0.732,0.733h1.466C80.913,19.784,81.241,19.457,81.241,19.052z"/>
<path fill="#FF6469" d="M28.482,32.974h10.992v-2.931h-9.526V16.854h13.189v9.526c0.405,0,0.733,0.328,0.733,0.733
	c0,0.405-0.328,0.732-0.733,0.732v2.198h-2.198v2.931h3.664c0.021,0,0.042-0.002,0.062-0.003l0.012-0.881
	c0.007-0.505,0.604-0.767,0.98-0.431l0.339,0.304c0.047-0.144,0.073-0.296,0.073-0.455v-3.664c-0.405,0-0.732-0.328-0.732-0.733
	c0-0.405,0.328-0.732,0.732-0.732V15.388c0-0.81-0.656-1.466-1.465-1.466H28.483c-0.81,0-1.466,0.655-1.466,1.466v16.121
	C27.017,32.319,27.673,32.974,28.482,32.974z"/>
<g>
	<path fill="#96A5B9" d="M40.207,39.569c0.405,0,0.733-0.328,0.733-0.732v-2.931c0-0.405-0.328-0.733-0.733-0.733
		c-0.405,0-0.733,0.328-0.733,0.733v2.931C39.474,39.241,39.802,39.569,40.207,39.569z"/>
	<path fill="#96A5B9" d="M57.793,48.361h2.931c0.405,0,0.733-0.327,0.733-0.732c0-0.404-0.328-0.732-0.733-0.732h-2.931
		c-0.405,0-0.732,0.328-0.732,0.732C57.061,48.034,57.388,48.361,57.793,48.361z"/>
	<path fill="#96A5B9" d="M60.725,41.034c-0.406,0-0.733,0.328-0.733,0.733v2.931c0,0.405,0.327,0.733,0.733,0.733
		c0.404,0,0.732-0.328,0.732-0.733v-2.931C61.457,41.362,61.129,41.034,60.725,41.034z"/>
	<path fill="#96A5B9" d="M57.793,27.845h2.931c0.405,0,0.733-0.328,0.733-0.733c0-0.405-0.328-0.732-0.733-0.732h-2.931
		c-0.405,0-0.732,0.328-0.732,0.732C57.061,27.517,57.388,27.845,57.793,27.845z"/>
	<path fill="#96A5B9" d="M60.725,29.311c-0.406,0-0.733,0.328-0.733,0.732v2.931c0,0.405,0.327,0.733,0.733,0.733
		c0.404,0,0.732-0.328,0.732-0.733v-2.931C61.457,29.638,61.129,29.311,60.725,29.311z"/>
	<path fill="#96A5B9" d="M49,46.896h-2.931c-0.405,0-0.733,0.328-0.733,0.732c0,0.406,0.328,0.733,0.733,0.733H49
		c0.405,0,0.732-0.327,0.732-0.733C49.732,47.225,49.405,46.896,49,46.896z"/>
	<path fill="#96A5B9" d="M40.207,29.311c-0.405,0-0.733,0.328-0.733,0.732v2.931c0,0.405,0.328,0.733,0.733,0.733
		c0.405,0,0.733-0.328,0.733-0.733v-2.931C40.939,29.638,40.612,29.311,40.207,29.311z"/>
	<path fill="#96A5B9" d="M43.138,46.896h-2.931c-0.405,0-0.733,0.328-0.733,0.732c0,0.406,0.328,0.733,0.733,0.733h2.931
		c0.405,0,0.733-0.327,0.733-0.733C43.871,47.225,43.543,46.896,43.138,46.896z"/>
	<path fill="#96A5B9" d="M39.474,44.698c0,0.405,0.328,0.733,0.733,0.733c0.405,0,0.732-0.328,0.732-0.733v-2.931
		c0-0.405-0.328-0.733-0.732-0.733c-0.405,0-0.733,0.328-0.733,0.733V44.698z"/>
	<path fill="#96A5B9" d="M60.725,35.172c-0.406,0-0.733,0.328-0.733,0.733v2.931c0,0.405,0.327,0.732,0.733,0.732
		c0.404,0,0.732-0.328,0.732-0.732v-2.931C61.457,35.5,61.129,35.172,60.725,35.172z"/>
	<path fill="#96A5B9" d="M51.931,27.845h2.931c0.406,0,0.733-0.328,0.733-0.733c0-0.405-0.327-0.732-0.733-0.732h-2.931
		c-0.405,0-0.732,0.328-0.732,0.732C51.198,27.517,51.525,27.845,51.931,27.845z"/>
	<path fill="#96A5B9" d="M39.474,27.112c0,0.405,0.328,0.733,0.733,0.733h2.931c0.405,0,0.733-0.328,0.733-0.733
		c0-0.405-0.328-0.732-0.733-0.732h-2.931C39.802,26.379,39.474,26.707,39.474,27.112z"/>
	<path fill="#96A5B9" d="M51.931,48.361h2.931c0.406,0,0.733-0.327,0.733-0.732c0-0.404-0.327-0.732-0.733-0.732h-2.931
		c-0.405,0-0.732,0.328-0.732,0.732C51.198,48.034,51.525,48.361,51.931,48.361z"/>
	<path fill="#96A5B9" d="M45.336,27.112c0,0.405,0.328,0.733,0.733,0.733H49c0.405,0,0.732-0.328,0.732-0.733
		c0-0.405-0.328-0.732-0.732-0.732h-2.931C45.664,26.379,45.336,26.707,45.336,27.112z"/>
</g>
<g>
	<g id="check-circle-outline">
		<path fill="#464655" d="M47.191,35.07l-0.959,0.958l3.082,3.083l6.851-6.85l-0.96-0.959l-5.891,5.891L47.191,35.07z
			 M55.479,36.371c0,3.014-2.466,5.479-5.479,5.479s-5.479-2.465-5.479-5.479s2.466-5.479,5.479-5.479
			c0.548,0,1.027,0.068,1.507,0.206L52.604,30c-0.822-0.274-1.713-0.479-2.604-0.479c-3.768,0-6.85,3.083-6.85,6.85
			c0,3.768,3.082,6.85,6.85,6.85s6.85-3.083,6.85-6.85H55.479z"/>
	</g>
</g>
</svg>
