<?xml version="1.0" encoding="utf-8"?>
<!-- Generator: Adobe Illustrator 16.0.0, SVG Export Plug-In . SVG Version: 6.00 Build 0)  -->
<!DOCTYPE svg PUBLIC "-//W3C//DTD SVG 1.1//EN" "http://www.w3.org/Graphics/SVG/1.1/DTD/svg11.dtd">
<svg version="1.1" id="Capa_1" xmlns="http://www.w3.org/2000/svg" xmlns:xlink="http://www.w3.org/1999/xlink" x="0px" y="0px"
	 width="50px" height="50px" viewBox="0 0 50 50" enable-background="new 0 0 50 50" xml:space="preserve">
<g>
	<g>
		
			<linearGradient id="SVGID_1_" gradientUnits="userSpaceOnUse" x1="55" y1="-114" x2="95" y2="-114" gradientTransform="matrix(1 0 0 -1 -50 -89)">
			<stop  offset="0" style="stop-color:#5E55D7"/>
			<stop  offset="1" style="stop-color:#5C83E3"/>
		</linearGradient>
		<path fill="url(#SVGID_1_)" d="M41.668,28.769V11.666c0-1.838-1.496-3.333-3.334-3.333h-4.166c-0.461,0-0.834,0.373-0.834,0.833
			v4.167c0,0.918-0.748,1.667-1.666,1.667C30.748,15,30,14.252,30,13.333c0-0.697,0.447-1.324,1.113-1.561
			c0.332-0.119,0.555-0.434,0.555-0.785V5.833C31.668,5.372,31.295,5,30.834,5S30,5.373,30,5.833v2.5H17.5
			c-0.46,0-0.833,0.373-0.833,0.833v4.167C16.667,14.251,15.92,15,15,15s-1.667-0.748-1.667-1.667c0-0.697,0.446-1.324,1.112-1.561
			C14.778,11.653,15,11.339,15,10.987V5.833C15,5.372,14.626,5,14.167,5s-0.833,0.373-0.833,0.833v2.5h-5
			C6.496,8.333,5,9.828,5,11.666v26.667c0,1.839,1.496,3.334,3.333,3.334h20.434C30.451,43.701,32.994,45,35.832,45
			C40.887,45,45,40.888,45,35.833C45,32.992,43.701,30.45,41.668,28.769z M26.668,35.832c0,0.868,0.129,1.704,0.354,2.5H8.333v-20
			h30v8.688c-0.797-0.227-1.633-0.354-2.5-0.354C30.779,26.666,26.668,30.778,26.668,35.832z M38.924,38.922
			c-0.164,0.162-0.377,0.244-0.59,0.244s-0.426-0.082-0.59-0.244l-2.5-2.5C35.088,36.267,35,36.054,35,35.832v-5
			c0-0.46,0.373-0.833,0.834-0.833s0.834,0.373,0.834,0.833v4.655l2.256,2.256C39.248,38.067,39.248,38.597,38.924,38.922z"/>
	</g>
</g>
</svg>
