<?xml version="1.0" encoding="iso-8859-1"?>
<!-- Generator: Adobe Illustrator 19.0.0, SVG Export Plug-In . SVG Version: 6.00 Build 0)  -->
<svg xmlns="http://www.w3.org/2000/svg" xmlns:xlink="http://www.w3.org/1999/xlink" version="1.1" id="Layer_1" x="0px" y="0px" viewBox="0 0 512 512" style="enable-background:new 0 0 512 512;" xml:space="preserve" width="512" height="512">
<g>
	<path style="fill:#426175;" d="M427.481,403.457H198.173c-12.033,0-21.787-9.754-21.787-21.787V21.787   C176.386,9.754,186.14,0,198.173,0h229.308c12.033,0,21.787,9.754,21.787,21.787V381.67   C449.268,393.703,439.514,403.457,427.481,403.457z"/>
	<path style="fill:#2C4456;" d="M427.481,0h-33.552v403.457h33.552c12.033,0,21.787-9.754,21.787-21.787V21.787   C449.268,9.754,439.514,0,427.481,0z"/>
	<rect x="176.386" y="40.176" style="fill:#F2F2F2;" width="272.882" height="323.106"/>
	<g>
		<g>
			<g>
				<g>
					<path style="fill:#426175;" d="M315.678,164.829c-4.268,0-7.726-3.459-7.726-7.726v-16.596c0-4.268,3.459-7.726,7.726-7.726       s7.726,3.459,7.726,7.726v16.596C323.404,161.37,319.946,164.829,315.678,164.829z"/>
				</g>
			</g>
		</g>
	</g>
	<rect x="393.929" y="40.176" style="fill:#CDD6DF;" width="55.339" height="323.106"/>
	<g>
		<g>
			<g>
				<g>
					<path style="fill:#FF9248;" d="M315.678,152.506c-39.364,0-71.275,34.129-71.275,76.23h142.55       C386.953,186.635,355.043,152.506,315.678,152.506z"/>
				</g>
			</g>
		</g>
		<g>
			<path style="fill:#426175;" d="M404.146,236.463H227.21c-4.268,0-7.726-3.459-7.726-7.726s3.459-7.726,7.726-7.726h176.936     c4.268,0,7.726,3.459,7.726,7.726S408.413,236.463,404.146,236.463z"/>
		</g>
		<g>
			<path style="fill:#FFE8C2;" d="M285.856,361.122l-6.053-5.583c-5.228-4.822-13.376-4.492-18.197,0.736l-1.575,1.708l0,0     l7.171-7.776c4.822-5.228,4.492-13.376-0.736-18.197l-6.053-5.583c-5.228-4.822-13.375-4.492-18.197,0.736l4.447-4.822     c4.822-5.228,4.492-13.376-0.736-18.197l-6.053-5.583c-5.228-4.822-13.376-4.492-18.197,0.736l-1.842,1.997l0,0l53.084-57.56     c6.363-6.9,5.928-17.652-0.971-24.015l0,0c-6.9-6.363-17.652-5.928-24.015,0.971l-67.06,72.714l0,0l-33.275,36.081l-5.202-44.016     c-1.206-10.205-11.265-16.901-21.145-14.077h0c-7.129,2.038-12.056,8.537-12.093,15.951l-0.493,99.111     c0.747,2.824,0,5.834-1.981,7.982L91.914,410.45l76.119,70.2l16.98-18.411c0.636-0.69,1.382-1.27,2.207-1.718l30.938-16.791     c11.977-6.501,22.803-14.93,32.042-24.948l8.195-8.886l0,0l28.198-30.575C291.413,374.091,291.084,365.944,285.856,361.122z"/>
			<g>
				<path style="fill:#EFD5AF;" d="M285.856,361.122l-6.053-5.583c-5.228-4.822-13.376-4.492-18.197,0.736l-1.575,1.708l7.171-7.776      c4.822-5.228,4.492-13.376-0.736-18.197l-5.941-5.479l-41.017,44.475l-8.195,8.886c-9.239,10.018-20.064,18.447-32.042,24.948      l-32.184,17.467l-19.448,21.088l40.395,37.254l16.98-18.412c0.636-0.69,1.382-1.27,2.207-1.718l30.938-16.791      c11.977-6.501,22.803-14.93,32.042-24.948l8.195-8.886l28.198-30.575C291.414,374.091,291.084,365.944,285.856,361.122z"/>
			</g>
			<path style="fill:#FD715C;" d="M172.547,493.421l-14.646,15.881c-3.137,3.401-8.437,3.616-11.839,0.479L65.43,435.418     c-3.418-3.152-3.615-8.485-0.439-11.881l14.755-15.779c3.145-3.363,8.415-3.558,11.799-0.436l80.523,74.261     C175.47,484.719,175.684,490.02,172.547,493.421z"/>
		</g>
	</g>
</g>















</svg>
