<?xml version="1.0" encoding="utf-8"?>
<!-- Generator: Adobe Illustrator 16.0.0, SVG Export Plug-In . SVG Version: 6.00 Build 0)  -->
<!DOCTYPE svg PUBLIC "-//W3C//DTD SVG 1.1//EN" "http://www.w3.org/Graphics/SVG/1.1/DTD/svg11.dtd">
<svg version="1.1" id="Capa_1" xmlns="http://www.w3.org/2000/svg" xmlns:xlink="http://www.w3.org/1999/xlink" x="0px" y="0px"
	 width="20px" height="20px" viewBox="0 0 20 20" enable-background="new 0 0 20 20" xml:space="preserve">
<g>
	<path fill="#7380A2" d="M13.789,1.5H6.211c-0.632,0-1.148,0.516-1.148,1.148v14.704c0,0.633,0.517,1.148,1.148,1.148h7.578
		c0.632,0,1.148-0.516,1.148-1.148V2.648C14.938,2.016,14.421,1.5,13.789,1.5z M8.788,2.328h2.424c0.078,0,0.14,0.062,0.14,0.139
		c0,0.077-0.062,0.139-0.14,0.139H8.788c-0.077,0-0.14-0.062-0.14-0.139C8.648,2.39,8.711,2.328,8.788,2.328z M10,17.926
		c-0.316,0-0.574-0.257-0.574-0.574c0-0.316,0.258-0.574,0.574-0.574s0.574,0.258,0.574,0.574
		C10.574,17.669,10.316,17.926,10,17.926z M14.139,16.375H5.861V3.32h8.277V16.375z"/>
</g>
</svg>
