<?xml version="1.0" encoding="utf-8"?>
<!-- Generator: Adobe Illustrator 16.0.0, SVG Export Plug-In . SVG Version: 6.00 Build 0)  -->
<!DOCTYPE svg PUBLIC "-//W3C//DTD SVG 1.1//EN" "http://www.w3.org/Graphics/SVG/1.1/DTD/svg11.dtd">
<svg version="1.1" id="Capa_1" xmlns="http://www.w3.org/2000/svg" xmlns:xlink="http://www.w3.org/1999/xlink" x="0px" y="0px"
	 width="20px" height="20px" viewBox="0 0 20 20" enable-background="new 0 0 20 20" xml:space="preserve">
<g>
	<g>
		<path fill="#7380A2" d="M18.389,3.457H1.611C1.274,3.457,1,3.73,1,4.067v11.864c0,0.336,0.274,0.612,0.611,0.612h16.777
			c0.337,0,0.611-0.273,0.611-0.612V4.066C19,3.729,18.726,3.457,18.389,3.457z M17.778,15.32H2.222V4.678h15.557V15.32z"/>
		<path fill="#7380A2" d="M3.822,7.551l5.859,3.611c0.099,0.06,0.208,0.091,0.319,0.091s0.222-0.029,0.32-0.091l5.861-3.612
			c0.288-0.177,0.375-0.551,0.198-0.84c-0.178-0.287-0.552-0.375-0.839-0.199L10,9.925L4.461,6.512
			c-0.287-0.177-0.663-0.087-0.84,0.199C3.445,7,3.534,7.375,3.822,7.551z"/>
	</g>
</g>
</svg>
