<?xml version="1.0" encoding="utf-8"?>
<!-- Generator: Adobe Illustrator 16.0.0, SVG Export Plug-In . SVG Version: 6.00 Build 0)  -->
<!DOCTYPE svg PUBLIC "-//W3C//DTD SVG 1.1//EN" "http://www.w3.org/Graphics/SVG/1.1/DTD/svg11.dtd">
<svg version="1.1" id="Layer_1" xmlns="http://www.w3.org/2000/svg" xmlns:xlink="http://www.w3.org/1999/xlink" x="0px" y="0px"
	 width="20px" height="20px" viewBox="0 0 20 20" enable-background="new 0 0 20 20" xml:space="preserve">
<g>
	<g>
		<g>
			<path fill="#7380A2" d="M17.636,12.675c0.349-0.923,0.525-1.892,0.525-2.885c0-2.181-0.849-4.229-2.39-5.771
				s-3.59-2.39-5.771-2.39c-0.988,0-1.949,0.175-2.86,0.519C6.472,1.415,5.538,1,4.536,1C2.586,1,1,2.586,1,4.536
				c0,1.042,0.466,2.032,1.258,2.7C1.98,8.066,1.841,8.925,1.841,9.79c0,2.181,0.849,4.229,2.39,5.771s3.59,2.39,5.77,2.39
				c0.875,0,1.746-0.146,2.593-0.431c0.658,0.922,1.731,1.48,2.872,1.48C17.414,19,19,17.414,19,15.465
				C19.002,14.367,18.497,13.346,17.636,12.675z M15.467,18.234c-0.977,0-1.891-0.525-2.385-1.37
				c-0.071-0.12-0.198-0.189-0.331-0.189c-0.045,0-0.091,0.009-0.136,0.024c-0.852,0.32-1.73,0.484-2.613,0.484
				c-1.977,0-3.832-0.771-5.229-2.166s-2.166-3.252-2.166-5.229c0-0.867,0.156-1.727,0.465-2.553
				c0.061-0.163,0.004-0.346-0.137-0.445C2.204,6.27,1.768,5.427,1.768,4.535c0-1.527,1.242-2.77,2.771-2.77
				c0.86,0,1.657,0.392,2.187,1.074C6.83,2.977,7.016,3.025,7.174,2.959c0.895-0.374,1.848-0.563,2.829-0.563
				c1.976,0,3.832,0.769,5.229,2.164c1.396,1.396,2.164,3.254,2.164,5.229c0,0.993-0.194,1.961-0.58,2.874
				c-0.07,0.171-0.01,0.369,0.146,0.47c0.798,0.517,1.275,1.388,1.275,2.331C18.236,16.991,16.993,18.234,15.467,18.234z"/>
			<path fill="#7380A2" d="M10.568,8.588C7.919,8.073,7.747,7.264,8.385,6.699c0.639-0.564,2.534-0.818,3.067,0.172
				c0.516,0.957,0.884,1.349,1.595,1.177c0.68-0.164,0.777-1.104,0.491-1.668c-0.231-0.456-1.276-1.62-3.337-1.62
				S5.98,5.521,5.98,7.41s1.963,2.723,3.853,2.992c1.889,0.271,2.33,1.08,2.086,1.668c-0.245,0.59-1.056,1.152-2.282,1.031
				c-1.227-0.123-1.793-1.149-1.963-1.67c-0.164-0.498-0.736-0.563-1.006-0.539c-0.27,0.024-1.129,0.368-0.736,1.57
				c0.394,1.202,1.67,2.159,4.221,2.159s4.047-1.571,4.047-3.067C14.199,10.061,13.219,9.104,10.568,8.588z"/>
		</g>
	</g>
</g>
</svg>
