<?xml version="1.0" encoding="utf-8"?>
<!-- Generator: Adobe Illustrator 16.0.0, SVG Export Plug-In . SVG Version: 6.00 Build 0)  -->
<!DOCTYPE svg PUBLIC "-//W3C//DTD SVG 1.1//EN" "http://www.w3.org/Graphics/SVG/1.1/DTD/svg11.dtd">
<svg version="1.1" id="Capa_1" xmlns="http://www.w3.org/2000/svg" xmlns:xlink="http://www.w3.org/1999/xlink" x="0px" y="0px"
	 width="20px" height="20px" viewBox="0 0 20 20" enable-background="new 0 0 20 20" xml:space="preserve">
<g>
	<g>
		<path fill="#7380A2" d="M15.657,12.343c-0.872-0.87-1.909-1.516-3.04-1.905c1.212-0.836,2.008-2.232,2.008-3.813
			C14.625,4.075,12.55,2,10,2S5.375,4.075,5.375,6.625c0,1.58,0.796,2.977,2.008,3.813c-1.132,0.391-2.169,1.035-3.04,1.905
			C2.832,13.854,2,15.863,2,18h1.25c0-3.723,3.027-6.75,6.75-6.75s6.75,3.027,6.75,6.75H18C18,15.863,17.168,13.854,15.657,12.343z
			 M10,10c-1.861,0-3.375-1.514-3.375-3.375S8.139,3.25,10,3.25s3.375,1.514,3.375,3.375S11.861,10,10,10z"/>
	</g>
</g>
</svg>
