<?xml version="1.0" encoding="utf-8"?>
<!-- Generator: Adobe Illustrator 16.0.0, SVG Export Plug-In . SVG Version: 6.00 Build 0)  -->
<!DOCTYPE svg PUBLIC "-//W3C//DTD SVG 1.1//EN" "http://www.w3.org/Graphics/SVG/1.1/DTD/svg11.dtd">
<svg version="1.1" id="Layer_1" xmlns="http://www.w3.org/2000/svg" xmlns:xlink="http://www.w3.org/1999/xlink" x="0px" y="0px"
	 width="127.502px" height="90.128px" viewBox="-14.752 -1.986 127.502 90.128"
	 enable-background="new -14.752 -1.986 127.502 90.128" xml:space="preserve">
<path fill="#AEB5CA" d="M64.388,85.946H33.61v-4.6c0-1.301-0.385-2.573-1.107-3.656l-3.289-4.933h39.569l-3.29,4.933
	c-0.721,1.083-1.106,2.355-1.106,3.656V85.946L64.388,85.946z"/>
<path fill="#C7CFE2" d="M108.353,74.952H-10.355c-2.429,0-4.397-1.969-4.397-4.396V2.41c0-2.428,1.968-4.396,4.397-4.396h118.708
	c2.429,0,4.397,1.968,4.397,4.396v68.146C112.75,72.983,110.781,74.952,108.353,74.952z"/>
<path fill="#464655" d="M106.155,66.162H-8.157c-1.213,0-2.198-0.986-2.198-2.201V4.608c0-1.214,0.984-2.198,2.198-2.198h114.313
	c1.212,0,2.197,0.984,2.197,2.198v59.356C108.353,65.176,107.367,66.162,106.155,66.162z"/>
<path fill="#D7DEED" d="M54.235,70.556H43.763c-0.833,0-1.594,0.472-1.967,1.216l-1.591,3.181h17.586l-1.589-3.181
	C55.828,71.027,55.068,70.556,54.235,70.556z"/>
<path fill="#C7CFE2" d="M75.379,88.143h-52.76c-1.214,0-2.198-0.984-2.198-2.196l0,0c0-1.213,0.984-2.197,2.198-2.197h52.76
	c1.214,0,2.199,0.984,2.199,2.197l0,0C77.578,87.158,76.593,88.143,75.379,88.143z"/>
<g>
	<g>
		
			<rect x="4.622" y="20.911" transform="matrix(0.6247 0.7809 -0.7809 0.6247 21.184 0.8948)" fill="#C7CFE2" width="10.077" height="3.149"/>
		<path fill="#C7CFE2" d="M40.181,26.697c-1.035-0.131-1.595-1.284-1.057-2.177l1.221-2.036c0.851-1.418,2.362-2.356,4.015-2.359
			c0.008,0,0.018,0,0.028,0h7.758c1.487,0,2.885,0.7,3.778,1.89l5.533,7.379L40.181,26.697z"/>
		<path fill="#C7CFE2" d="M61.129,19.076c-0.136-0.109-0.282-0.219-0.443-0.328h-6.963l11.012,12.391l6.294-3.147
			C71.028,27.992,63.675,21.154,61.129,19.076z"/>
	</g>
	<path fill="#FF6464" d="M77.32,26.419h-6.437c-0.933,0-1.844,0.276-2.619,0.793l-2.228,1.485c-0.267,0.176-0.551,0.315-0.843,0.434
		l-5.85-7.799c-0.373-0.498-0.018-1.208,0.604-1.208h2.413c-0.474-0.414-0.899-0.774-1.233-1.049
		c-1.246-1.016-3.607-2.098-8.979-2.098h-7.761c-3.423,0-6.798,0.797-9.859,2.327l-11.079,5.541H9.661
		c-2.606,0-4.72,2.113-4.72,4.72v14.161l11.015,3.149h77.1v-4.722C93.057,33.464,86.011,26.419,77.32,26.419z M40.181,26.697
		c-1.035-0.131-1.595-1.284-1.057-2.177l1.221-2.036c0.851-1.418,2.362-2.356,4.015-2.359c0.008,0,0.018,0,0.028,0h7.758
		c1.487,0,2.885,0.7,3.778,1.89l5.533,7.379L40.181,26.697z"/>
	<path fill="#D2555A" d="M93.057,48.448H22.25c-0.869,0-1.574-0.704-1.574-1.572c0-0.871,0.704-1.576,1.574-1.576h70.809
		c0.868,0,1.571,0.705,1.571,1.576C94.63,47.744,93.927,48.448,93.057,48.448z"/>
	<circle fill="#D7DEED" cx="77.32" cy="42.154" r="7.868"/>
	<path fill="#464655" d="M77.32,51.595c-5.205,0-9.438-4.236-9.438-9.44c0-5.208,4.233-9.441,9.438-9.441
		c5.209,0,9.441,4.234,9.441,9.441C86.762,47.357,82.529,51.595,77.32,51.595z M77.32,35.858c-3.471,0-6.292,2.824-6.292,6.296
		c0,3.47,2.821,6.294,6.292,6.294c3.473,0,6.295-2.824,6.295-6.294C83.615,38.683,80.793,35.858,77.32,35.858z"/>
	<circle fill="#B8BFD4" cx="77.32" cy="42.153" r="3.147"/>
	<g>
		<path fill="#D2555A" d="M17.531,48.448c-0.126,0-0.256-0.016-0.383-0.048L4.561,45.254c-0.845-0.212-1.357-1.066-1.146-1.908
			c0.209-0.846,1.064-1.361,1.907-1.144l12.588,3.147c0.843,0.21,1.357,1.063,1.145,1.908
			C18.877,47.971,18.236,48.448,17.531,48.448z"/>
		<path fill="#D2555A" d="M4.942,34.286l2.225,2.225c0.591,0.591,0.921,1.39,0.921,2.225v6.563l-3.146-1.572V34.286z"/>
		<path fill="#D2555A" d="M55.833,42.154H28.544c-0.87,0-1.575-0.705-1.575-1.575c0-0.87,0.705-1.573,1.575-1.573h27.289
			c1.261,0,2.447-0.492,3.339-1.383l2.385-2.386c0.612-0.614,1.608-0.614,2.225,0c0.614,0.615,0.614,1.611,0,2.225l-2.385,2.385
			C59.909,41.334,57.936,42.154,55.833,42.154z"/>
	</g>
	<circle fill="#D7DEED" cx="20.676" cy="42.154" r="7.868"/>
	<path fill="#464655" d="M20.676,51.595c-5.205,0-9.44-4.236-9.44-9.44c0-5.208,4.235-9.441,9.44-9.441
		c5.207,0,9.441,4.234,9.441,9.441C30.118,47.357,25.882,51.595,20.676,51.595z M20.676,35.858c-3.471,0-6.292,2.824-6.292,6.296
		c0,3.47,2.821,6.294,6.292,6.294c3.472,0,6.293-2.824,6.293-6.294C26.97,38.683,24.147,35.858,20.676,35.858z"/>
	<circle fill="#B8BFD4" cx="20.676" cy="42.153" r="3.147"/>
	<path fill="#FF8B8B" d="M6.073,26.532l60.405,6.04c0.841,0.085,1.697-0.046,2.463-0.408c3.67-1.733,16.037-6.152,24.013,8.24
		c-0.872-7.866-7.534-13.985-15.634-13.985h-6.437c-0.933,0-1.844,0.275-2.619,0.793l-2.229,1.485
		c-0.266,0.176-0.55,0.315-0.842,0.433c0,0-0.571,0.68-3.736,0.263l-12.607-1.598c-10.538-1.316-23.943-2.951-25.4-2.951H9.661
		C8.216,24.845,6.939,25.509,6.073,26.532z"/>
	<path fill="#FF6464" d="M11.235,21.698H7.209c-1.354,0-2.557-0.866-2.985-2.152l-0.468-1.407c-0.191-0.572,0.234-1.162,0.836-1.162
		h6.643c0.868,0,1.573,0.705,1.573,1.574v1.574C12.809,20.994,12.104,21.698,11.235,21.698z"/>
</g>
</svg>
