<?xml version="1.0" encoding="utf-8"?>
<!-- Generator: Adobe Illustrator 16.0.0, SVG Export Plug-In . SVG Version: 6.00 Build 0)  -->
<!DOCTYPE svg PUBLIC "-//W3C//DTD SVG 1.1//EN" "http://www.w3.org/Graphics/SVG/1.1/DTD/svg11.dtd">
<svg version="1.1" id="Capa_1" xmlns="http://www.w3.org/2000/svg" xmlns:xlink="http://www.w3.org/1999/xlink" x="0px" y="0px"
	 width="50px" height="50px" viewBox="0 0 50 50" enable-background="new 0 0 50 50" xml:space="preserve">
<g>
	
		<linearGradient id="SVGID_1_" gradientUnits="userSpaceOnUse" x1="55" y1="-114" x2="95" y2="-114" gradientTransform="matrix(1 0 0 -1 -50 -89)">
		<stop  offset="0" style="stop-color:#5E55D7"/>
		<stop  offset="1" style="stop-color:#5C83E3"/>
	</linearGradient>
	<path fill="url(#SVGID_1_)" d="M41.424,16.438c-5.283-8.68-13.242-2.641-13.242-2.641c-0.517,0.391-1.468,0.711-2.113,0.712
		l-2.133,0.001c-0.646,0-1.598-0.32-2.113-0.71c0,0-7.959-6.041-13.244,2.64c-5.282,8.678-3.154,18.126-3.154,18.126
		c0.373,2.313,1.604,3.857,3.922,3.664C11.659,38.038,16.68,32,16.68,32c0.414-0.498,1.283-0.904,1.928-0.904l12.781-0.002
		c0.646,0,1.514,0.406,1.928,0.904c0,0,5.021,6.038,7.338,6.23c2.318,0.193,3.55-1.353,3.921-3.664
		C44.574,34.564,46.707,25.118,41.424,16.438z M20.197,23.503h-2.74v2.641c0,0-0.581,0.442-1.479,0.432
		c-0.896-0.014-1.303-0.483-1.303-0.483v-2.588h-2.588c0,0-0.322-0.331-0.41-1.203c-0.085-0.871,0.357-1.576,0.357-1.576h2.74
		v-2.742c0,0,0.564-0.301,1.375-0.278c0.813,0.024,1.406,0.331,1.406,0.331l-0.011,2.688h2.588c0,0,0.452,0.582,0.489,1.282
		C20.661,22.708,20.197,23.503,20.197,23.503z M32.768,26.514c-1.199,0-2.168-0.971-2.168-2.167c0-1.201,0.969-2.17,2.168-2.17
		c1.195,0,2.17,0.969,2.17,2.17C34.938,25.544,33.963,26.514,32.768,26.514z M32.768,20.546c-1.199,0-2.168-0.97-2.168-2.168
		c0-1.201,0.969-2.169,2.168-2.169c1.195,0,2.17,0.968,2.17,2.169C34.938,19.578,33.963,20.546,32.768,20.546z M38.169,23.75
		c-1.2,0-2.167-0.971-2.167-2.169c0-1.2,0.967-2.169,2.167-2.169c1.195,0,2.17,0.969,2.17,2.169
		C40.339,22.78,39.364,23.75,38.169,23.75z"/>
</g>
</svg>
