<?xml version="1.0" encoding="utf-8"?>
<!-- Generator: Adobe Illustrator 16.0.0, SVG Export Plug-In . SVG Version: 6.00 Build 0)  -->
<!DOCTYPE svg PUBLIC "-//W3C//DTD SVG 1.1//EN" "http://www.w3.org/Graphics/SVG/1.1/DTD/svg11.dtd">
<svg version="1.1" id="Capa_1" xmlns="http://www.w3.org/2000/svg" xmlns:xlink="http://www.w3.org/1999/xlink" x="0px" y="0px"
	 width="50px" height="50px" viewBox="0 0 50 50" enable-background="new 0 0 50 50" xml:space="preserve">
<g>
	<g>
		<g>
			
				<linearGradient id="SVGID_1_" gradientUnits="userSpaceOnUse" x1="55" y1="-106.2441" x2="95" y2="-106.2441" gradientTransform="matrix(1 0 0 -1 -50 -89)">
				<stop  offset="0" style="stop-color:#5E55D7"/>
				<stop  offset="1" style="stop-color:#5C83E3"/>
			</linearGradient>
			<path fill="url(#SVGID_1_)" d="M34.375,7.578c-4.739,0-7.781,3.281-9.375,6.238c-1.594-2.957-4.637-6.238-9.375-6.238
				C9.611,7.578,5,12.456,5,18.927c0,1.688,0.338,3.247,0.96,4.745h8.94l2.02-4.04c0.398-0.794,1.698-0.794,2.098,0l3.639,7.278
				l1.295-2.59c0.398-0.795,1.699-0.795,2.096,0l1.296,2.59l3.64-7.278c0.397-0.794,1.699-0.794,2.097,0l2.021,4.04h8.939
				C44.662,22.174,45,20.615,45,18.927C45,12.457,40.389,7.578,34.375,7.578z"/>
		</g>
	</g>
	<g>
		<g>
			
				<linearGradient id="SVGID_2_" gradientUnits="userSpaceOnUse" x1="57.1914" y1="-121.5996" x2="92.8105" y2="-121.5996" gradientTransform="matrix(1 0 0 -1 -50 -89)">
				<stop  offset="0" style="stop-color:#5E55D7"/>
				<stop  offset="1" style="stop-color:#5C83E3"/>
			</linearGradient>
			<path fill="url(#SVGID_2_)" d="M34.375,26.016c-0.443,0-0.85-0.25-1.048-0.647l-1.296-2.591l-3.641,7.279
				c-0.197,0.396-0.604,0.646-1.048,0.646s-0.85-0.251-1.048-0.646L25,27.465l-1.295,2.592c-0.398,0.793-1.698,0.793-2.098,0
				l-3.639-7.279l-1.295,2.591c-0.199,0.397-0.604,0.647-1.048,0.647H7.191c2.412,3.795,6.756,7.399,12.188,11.985
				c1.524,1.287,3.147,2.657,4.853,4.135c0.221,0.191,0.494,0.286,0.768,0.286s0.547-0.095,0.768-0.286
				c1.705-1.478,3.328-2.848,4.854-4.135c5.434-4.586,9.777-8.19,12.189-11.985H34.375z"/>
		</g>
	</g>
</g>
</svg>
