<?xml version="1.0" encoding="utf-8"?>
<!-- Generator: Adobe Illustrator 16.0.0, SVG Export Plug-In . SVG Version: 6.00 Build 0)  -->
<!DOCTYPE svg PUBLIC "-//W3C//DTD SVG 1.1//EN" "http://www.w3.org/Graphics/SVG/1.1/DTD/svg11.dtd">
<svg version="1.1" id="Capa_1" xmlns="http://www.w3.org/2000/svg" xmlns:xlink="http://www.w3.org/1999/xlink" x="0px" y="0px"
	 width="34px" height="34px" viewBox="239 239 34 34" enable-background="new 239 239 34 34" xml:space="preserve">
<g>
	<g>
		<path fill="#5D6BDD" d="M262.158,240c0.074,0,0.148,0,0.227,0c0.184,2.257-0.678,3.943-1.725,5.164
			c-1.027,1.212-2.434,2.389-4.709,2.21c-0.151-2.225,0.711-3.786,1.756-5.004C258.678,241.235,260.455,240.225,262.158,240z"/>
		<path fill="#5D6BDD" d="M269.045,263.489c0,0.022,0,0.042,0,0.063c-0.641,1.937-1.553,3.597-2.664,5.136
			c-1.018,1.398-2.262,3.28-4.484,3.28c-1.922,0-3.197-1.235-5.166-1.269c-2.082-0.034-3.228,1.032-5.131,1.301
			c-0.218,0-0.436,0-0.649,0c-1.398-0.202-2.526-1.31-3.349-2.308c-2.424-2.948-4.297-6.756-4.646-11.629c0-0.478,0-0.954,0-1.432
			c0.148-3.488,1.842-6.323,4.095-7.698c1.189-0.73,2.823-1.353,4.643-1.075c0.78,0.121,1.576,0.388,2.275,0.652
			c0.662,0.254,1.489,0.705,2.273,0.681c0.532-0.015,1.059-0.292,1.594-0.487c1.568-0.566,3.105-1.215,5.133-0.911
			c2.436,0.368,4.162,1.45,5.23,3.12c-2.059,1.311-3.688,3.287-3.41,6.66C265.037,260.639,266.818,262.433,269.045,263.489z"/>
	</g>
</g>
</svg>
