<svg height="512pt" viewBox="-10 0 512 512.00266" width="512pt" xmlns="http://www.w3.org/2000/svg"><path d="m246.257812 93.925781c-4.265624 0-7.726562-3.460937-7.726562-7.726562v-51.375c0-4.265625 3.460938-7.726563 7.726562-7.726563 4.269532 0 7.726563 3.460938 7.726563 7.726563v51.375c0 4.265625-3.457031 7.726562-7.726563 7.726562zm0 0" fill="#b4e1f9"/><path d="m246.257812 487.648438c-4.265624 0-7.726562-3.457032-7.726562-7.726563v-51.375c0-4.265625 3.460938-7.726563 7.726562-7.726563 4.269532 0 7.726563 3.460938 7.726563 7.726563v51.375c0 4.269531-3.457031 7.726563-7.726563 7.726563zm0 0" fill="#b4e1f9"/><path d="m95.34375 177.789062-44.492188-25.683593c-3.695312-2.136719-4.960937-6.859375-2.828124-10.558594 2.132812-3.691406 6.859374-4.960937 10.554687-2.828125l44.492187 25.6875c3.695313 2.132812 4.960938 6.859375 2.828126 10.554688-2.136719 3.695312-6.859376 4.960937-10.554688 2.828124zm0 0" fill="#b4e1f9"/><path d="m48.339844 121.628906c-8.328125-4.808594-18.976563-1.953125-23.785156 6.375-4.808594 8.324219-1.953126 18.972656 6.375 23.78125 8.324218 4.808594 18.972656 1.957032 23.78125-6.371094 4.808593-8.328124 1.957031-18.976562-6.371094-23.785156zm0 0" fill="#ffc964"/><path d="m49.949219 122.683594c-.511719-.375-1.042969-.730469-1.605469-1.054688-8.328125-4.808594-18.976562-1.957031-23.785156 6.371094s-1.957032 18.976562 6.371094 23.785156c6.175781 3.566406 13.621093 2.910156 19.019531-1.058594-9.398438-6.886718-9.558594-21.039062 0-28.042968zm0 0" fill="#f3a334"/><g fill="#b4e1f9"><path d="m437.796875 374.316406c-1.3125 0-2.640625-.335937-3.859375-1.039062l-44.488281-25.683594c-3.695313-2.132812-4.960938-6.859375-2.828125-10.554688 2.132812-3.695312 6.859375-4.964843 10.554687-2.828124l44.488281 25.683593c3.699219 2.132813 4.964844 6.859375 2.828126 10.554688-1.429688 2.480469-4.027344 3.867187-6.695313 3.867187zm0 0"/><path d="m386.621094 174.960938c-2.132813-3.695313-.867188-8.421876 2.828125-10.554688l44.488281-25.6875c3.695312-2.132812 8.421875-.867188 10.554688 2.828125 2.136718 3.699219.871093 8.421875-2.828126 10.558594l-44.488281 25.683593c-3.695312 2.132813-8.421875.867188-10.554687-2.828124zm0 0"/><path d="m48.023438 370.449219c-2.132813-3.695313-.867188-8.417969 2.828124-10.554688l44.492188-25.683593c3.695312-2.136719 8.417969-.871094 10.554688 2.828124 2.132812 3.695313.867187 8.417969-2.828126 10.554688l-44.492187 25.683594c-3.695313 2.136718-8.421875.871094-10.554687-2.828125zm0 0"/><path d="m63.796875 102.09375c-3.171875-2.859375-3.425781-7.742188-.570313-10.914062 35.148438-39.007813 80.730469-65.339844 131.816407-76.144532 4.171875-.886718 8.273437 1.785156 9.15625 5.960938.882812 4.171875-1.785157 8.273437-5.960938 9.15625-47.867187 10.125-90.585937 34.804687-123.53125 71.371094-2.855469 3.171874-7.742187 3.425781-10.910156.570312zm0 0"/><path d="m417.808594 101.523438c-32.945313-36.5625-75.664063-61.242188-123.53125-71.371094-4.175782-.882813-6.84375-4.980469-5.960938-9.15625.882813-4.175782 4.984375-6.84375 9.160156-5.960938 51.085938 10.804688 96.664063 37.136719 131.8125 76.144532 2.859376 3.171874 2.601563 8.058593-.566406 10.914062-3.167968 2.855469-8.054687 2.601562-10.914062-.570312zm0 0"/><path d="m470.828125 337.085938c-4.058594-1.316407-6.28125-5.675782-4.964844-9.734376 14.941407-46.023437 14.941407-96.710937-.007812-142.726562-1.316407-4.058594.90625-8.417969 4.964843-9.738281 4.058594-1.316407 8.417969.90625 9.734376 4.964843 15.945312 49.09375 15.949218 103.171876.007812 152.269532-1.320312 4.0625-5.679688 6.28125-9.734375 4.964844zm0 0"/><path d="m288.316406 491.003906c-.882812-4.175781 1.785156-8.277344 5.960938-9.160156 47.871094-10.125 90.585937-34.804688 123.535156-71.367188 2.855469-3.171874 7.742188-3.425781 10.910156-.570312 3.171875 2.859375 3.425782 7.742188.570313 10.914062-35.148438 39.007813-80.730469 65.335938-131.816407 76.144532-4.167968.882812-8.273437-1.777344-9.160156-5.960938zm0 0"/><path d="m195.042969 496.964844c-51.085938-10.808594-96.667969-37.136719-131.816407-76.144532-2.855468-3.171874-2.601562-8.058593.570313-10.914062 3.167969-2.855469 8.054687-2.601562 10.910156.570312 32.949219 36.5625 75.664063 61.242188 123.535157 71.367188 4.171874.882812 6.839843 4.984375 5.957031 9.160156-.882813 4.175782-4.984375 6.84375-9.15625 5.960938zm0 0"/><path d="m11.953125 332.121094c-15.9375-49.09375-15.9375-103.171875.011719-152.269532 1.316406-4.058593 5.675781-6.28125 9.734375-4.960937 4.058593 1.316406 6.28125 5.675781 4.960937 9.734375-14.945312 46.019531-14.949218 96.707031-.007812 142.726562 1.320312 4.058594-.902344 8.417969-4.960938 9.734376-4.054687 1.316406-8.417968-.898438-9.738281-4.964844zm0 0"/></g><path d="m416.0625 256c0 93.777344-76.023438 169.800781-169.804688 169.800781-93.777343 0-169.800781-76.023437-169.800781-169.800781 0-93.78125 76.023438-169.800781 169.800781-169.800781 93.78125 0 169.804688 76.019531 169.804688 169.800781zm0 0" fill="#4b98d4"/><path d="m105.367188 256c0-88.910156 68.335937-161.847656 155.347656-169.183594-4.765625-.402344-9.585938-.617187-14.457032-.617187-93.777343 0-169.800781 76.019531-169.800781 169.800781 0 93.777344 76.023438 169.800781 169.800781 169.800781 4.871094 0 9.691407-.214843 14.457032-.617187-87.011719-7.339844-155.347656-80.273438-155.347656-169.183594zm0 0" fill="#2472b2"/><path d="m396.070312 160.847656c-.140624-.300781-.296874-.597656-.480468-.886718-33.109375-51.375-89.214844-81.492188-149.332032-81.492188-139.261718 0-225.355468 154.164062-149.808593 272.683594.140625.304687.296875.597656.480469.882812 33.105468 51.378906 89.214843 81.492188 149.328124 81.492188 60.484376 0 116.417969-30.414063 149.332032-81.492188.183594-.285156.339844-.582031.484375-.886718 36.960937-57.988282 36.984375-132.269532-.003907-190.300782zm-87.984374 244.960938c17.445312-17.285156 30.191406-40.296875 38.5-63.535156 11.414062 2.558593 21.753906 5.574218 30.703124 8.996093-18.027343 24.710938-42.226562 43.382813-69.203124 54.539063zm-201.527344-231.890625c9.992187 4.042969 21.6875 7.578125 34.675781 10.546875-5.628906 19.949218-8.863281 41.519531-9.472656 63.808594h-47.390625c1.234375-26.230469 8.824218-51.710938 22.1875-74.355469zm77.871094-67.726563c-17.433594 17.277344-30.1875 40.28125-38.496094 63.535156-11.417969-2.5625-21.757813-5.574218-30.707032-8.996093 17.765626-24.375 41.96875-43.328125 69.203126-54.539063zm223.714843 142.082032h-47.390625c-.605468-22.292969-3.839844-43.859376-9.472656-63.808594 12.988281-2.96875 24.6875-6.507813 34.675781-10.546875 12.980469 22.003906 20.914063 47.320312 22.1875 74.355469zm-22.1875 89.808593c-9.988281-4.042969-21.683593-7.578125-34.675781-10.546875 5.632812-19.949218 8.863281-41.519531 9.472656-63.808594h47.390625c-1.210937 26.074219-8.785156 51.660157-22.1875 74.355469zm-270.730469 13.1875c8.949219-3.421875 19.289063-6.4375 30.707032-8.996093 8.308594 23.253906 21.066406 46.261718 38.496094 63.535156-28.246094-11.625-52.253907-31.257813-69.203126-54.539063zm46.035157-12.050781c23.078125-4.058594 49.507812-6.433594 77.269531-6.808594v85.164063c-37.652344-4.8125-63.980469-42.484375-77.269531-78.355469zm92.722656-144.179688c29.441406-.390624 57.5625-3.003906 82.121094-7.476562 5.4375 18.886719 8.582031 39.417969 9.195312 60.710938h-91.316406zm0-15.453124v-85.160157c37.65625 4.8125 63.980469 42.484375 77.273437 78.355469-23.082031 4.058594-49.511718 6.433594-77.273437 6.804688zm-15.453125 0c-27.761719-.371094-54.191406-2.746094-77.269531-6.804688 13.292969-35.878906 39.648437-73.546875 77.269531-78.355469zm0 15.453124v53.234376h-91.3125c.613281-21.292969 3.753906-41.824219 9.191406-60.710938 24.5625 4.472656 52.679688 7.085938 82.121094 7.476562zm0 68.6875v53.230469c-29.441406.394531-57.558594 3.007813-82.121094 7.480469-5.433594-18.886719-8.578125-39.417969-9.191406-60.710938zm15.453125 68.683594c27.761719.375 54.191406 2.75 77.273437 6.808594-13.292968 35.878906-39.648437 73.546875-77.273437 78.355469zm0-15.453125v-53.230469h91.316406c-.613281 21.292969-3.757812 41.824219-9.195312 60.710938-24.558594-4.472656-52.679688-7.085938-82.121094-7.480469zm123.304687-156.226562c-8.949218 3.421875-19.285156 6.433593-30.703124 8.996093-8.308594-23.242187-21.0625-46.253906-38.5-63.535156 27.792968 11.511719 51.707031 30.539063 69.203124 54.539063zm-245.527343 102.996093c.609375 22.292969 3.84375 43.859376 9.472656 63.808594-12.988281 2.96875-24.683594 6.503906-34.675781 10.546875-13.0625-22.136719-20.898438-47.449219-22.1875-74.355469zm0 0" fill="#72bdf6"/><path d="m254.964844 2.34375c-8.328125-4.808594-18.976563-1.957031-23.785156 6.371094-4.808594 8.328125-1.953126 18.976562 6.375 23.78125 8.324218 4.808594 18.972656 1.957031 23.78125-6.371094 4.808593-8.328125 1.957031-18.976562-6.371094-23.78125zm0 0" fill="#ffc964"/><path d="m251.472656 9.273438c1.273438-2.40625 3.039063-4.375 5.097656-5.882813-.511718-.375-1.042968-.730469-1.605468-1.054687-8.328125-4.808594-18.976563-1.957032-23.785156 6.371093-4.808594 8.328125-1.953126 18.976563 6.375 23.785157 6.171874 3.566406 13.617187 2.910156 19.019531-1.058594-6.855469-5.019532-9.191407-14.425782-5.101563-22.160156zm0 0" fill="#f3a334"/><path d="m461.582031 121.640625c-8.328125-4.808594-18.976562-1.957031-23.78125 6.371094-4.808593 8.328125-1.957031 18.976562 6.371094 23.785156s18.976563 1.953125 23.785156-6.375c4.804688-8.324219 1.953125-18.972656-6.375-23.78125zm0 0" fill="#ffc964"/><path d="m463.191406 122.683594c-8.457031-6.207032-20.25-3.582032-25.386718 5.316406-4.808594 8.328125-1.957032 18.976562 6.371093 23.785156 6.175781 3.566406 13.621094 2.910156 19.019531-1.058594-9.402343-6.886718-9.558593-21.039062-.003906-28.042968zm0 0" fill="#f3a334"/><path d="m461.578125 360.226562c-8.328125-4.808593-18.976563-1.957031-23.785156 6.371094-4.808594 8.328125-1.953125 18.976563 6.371093 23.785156 8.328126 4.808594 18.976563 1.953126 23.785157-6.375 4.808593-8.324218 1.953125-18.972656-6.371094-23.78125zm0 0" fill="#ffc964"/><path d="m458.09375 367.152344c1.273438-2.40625 3.042969-4.375 5.097656-5.882813-.511718-.375-1.042968-.730469-1.605468-1.054687-8.328126-4.808594-18.976563-1.957032-23.785157 6.371094-4.808593 8.328124-1.953125 18.976562 6.375 23.785156 6.175781 3.566406 13.621094 2.910156 19.019531-1.058594-6.855468-5.019531-9.191406-14.425781-5.101562-22.160156zm0 0" fill="#f3a334"/><path d="m254.953125 479.515625c-8.328125-4.808594-18.976563-1.957031-23.785156 6.371094-4.808594 8.328125-1.953125 18.976562 6.371093 23.785156 8.328126 4.804687 18.976563 1.953125 23.785157-6.375 4.808593-8.328125 1.953125-18.976563-6.371094-23.78125zm0 0" fill="#ffc964"/><path d="m251.472656 486.445312c1.273438-2.40625 3.039063-4.375 5.097656-5.882812-.511718-.375-1.042968-.730469-1.605468-1.054688-8.328125-4.808593-18.976563-1.957031-23.785156 6.371094-4.808594 8.328125-1.953126 18.976563 6.375 23.785156 6.171874 3.566407 13.617187 2.910157 19.019531-1.058593-6.855469-5.019531-9.191407-14.425781-5.101563-22.160157zm0 0" fill="#f3a334"/><path d="m48.332031 360.214844c-8.328125-4.804688-18.972656-1.953125-23.78125 6.375-4.808593 8.324218-1.957031 18.972656 6.371094 23.78125s18.976563 1.957031 23.785156-6.371094c4.804688-8.328125 1.953125-18.976562-6.375-23.785156zm0 0" fill="#ffc964"/><path d="m49.949219 361.269531c-.511719-.375-1.042969-.730469-1.605469-1.054687-8.328125-4.808594-18.976562-1.957032-23.785156 6.371094-4.808594 8.328124-1.957032 18.976562 6.371094 23.785156 6.175781 3.566406 13.621093 2.910156 19.019531-1.058594-9.398438-6.886719-9.558594-21.039062 0-28.042969zm0 0" fill="#f3a334"/></svg>