<?xml version="1.0" encoding="utf-8"?>
<!-- Generator: Adobe Illustrator 16.0.0, SVG Export Plug-In . SVG Version: 6.00 Build 0)  -->
<!DOCTYPE svg PUBLIC "-//W3C//DTD SVG 1.1//EN" "http://www.w3.org/Graphics/SVG/1.1/DTD/svg11.dtd">
<svg version="1.1" id="Capa_1" xmlns="http://www.w3.org/2000/svg" xmlns:xlink="http://www.w3.org/1999/xlink" x="0px" y="0px"
	 width="50px" height="50px" viewBox="0 0 50 50" enable-background="new 0 0 50 50" xml:space="preserve">
<linearGradient id="SVGID_1_" gradientUnits="userSpaceOnUse" x1="55" y1="-114" x2="95" y2="-114" gradientTransform="matrix(1 0 0 -1 -50 -89)">
	<stop  offset="0" style="stop-color:#5E55D7"/>
	<stop  offset="1" style="stop-color:#5C83E3"/>
</linearGradient>
<path fill="url(#SVGID_1_)" d="M40.637,5c-2.406,0-4.363,1.957-4.363,4.364c0,0.752,0.189,1.461,0.527,2.079l-7.148,7.148
	c-0.984-0.767-2.219-1.228-3.563-1.228c-1.341,0-2.575,0.461-3.561,1.228l-5.578-5.578c0.256-0.433,0.412-0.93,0.412-1.468
	c0-1.604-1.305-2.909-2.908-2.909s-2.909,1.305-2.909,2.909s1.306,2.909,2.909,2.909c0.538,0,1.036-0.156,1.468-0.413L21.5,19.62
	c-0.767,0.985-1.228,2.22-1.228,3.562c0,1.344,0.461,2.577,1.228,3.563l-9.21,9.211c-0.775-0.703-1.8-1.137-2.926-1.137
	C6.958,34.818,5,36.775,5,39.182s1.957,4.363,4.364,4.363c2.406,0,4.363-1.957,4.363-4.363c0-0.752-0.191-1.461-0.528-2.08
	l9.329-9.33c0.806,0.627,1.775,1.045,2.836,1.178v7.389c-2.061,0.35-3.637,2.141-3.637,4.301c0,2.404,1.957,4.361,4.364,4.361
	c2.406,0,4.363-1.957,4.363-4.361c0-2.158-1.576-3.951-3.635-4.301v-7.389c1.059-0.133,2.029-0.551,2.834-1.178l5.578,5.578
	c-0.258,0.434-0.414,0.932-0.414,1.469c0,1.604,1.305,2.91,2.91,2.91c1.604,0,2.908-1.307,2.908-2.91s-1.305-2.908-2.908-2.908
	c-0.539,0-1.037,0.156-1.471,0.412l-5.576-5.578c0.768-0.986,1.229-2.219,1.229-3.563c0-1.342-0.461-2.576-1.229-3.562l7.029-7.029
	c0.773,0.703,1.799,1.136,2.926,1.136c2.406,0,4.363-1.957,4.363-4.362C45,6.957,43.043,5,40.637,5z"/>
</svg>
