<?xml version="1.0" encoding="utf-8"?>
<!-- Generator: Adobe Illustrator 16.0.0, SVG Export Plug-In . SVG Version: 6.00 Build 0)  -->
<!DOCTYPE svg PUBLIC "-//W3C//DTD SVG 1.1//EN" "http://www.w3.org/Graphics/SVG/1.1/DTD/svg11.dtd">
<svg version="1.1" id="Layer_1" xmlns="http://www.w3.org/2000/svg" xmlns:xlink="http://www.w3.org/1999/xlink" x="0px" y="0px"
	 width="409.586px" height="512px" viewBox="0 0 409.586 512" enable-background="new 0 0 409.586 512" xml:space="preserve">
<g>
	<path fill="#A2BABC" d="M85.328,8.535h238.934c28.277,0,51.199,22.922,51.199,51.199v392.531c0,28.277-22.922,51.199-51.199,51.199
		H85.328c-28.277,0-51.203-22.922-51.203-51.199V59.734C34.125,31.457,57.051,8.535,85.328,8.535z"/>
	<path fill="#B4D2D7" d="M85.328,8.535H298.66c28.275,0,51.199,22.922,51.199,51.199v392.531c0,28.277-22.924,51.199-51.199,51.199
		H85.328c-28.277,0-51.203-22.922-51.203-51.199V59.734C34.125,31.457,57.051,8.535,85.328,8.535z"/>
	<path fill="#ED9145" d="M34.125,85.332h341.336v341.336H34.125V85.332z"/>
	<path fill="#FFA34A" d="M34.125,85.332h315.734v341.336H34.125V85.332z"/>
	<path fill="#202934" d="M375.461,235.348c-4.715,0-8.535-3.82-8.535-8.531V59.734c-0.025-23.555-19.113-42.641-42.664-42.668
		H85.328C61.773,17.094,42.688,36.18,42.66,59.734v167.082c0,4.711-3.82,8.531-8.535,8.531c-4.711,0-8.531-3.82-8.531-8.531V59.734
		C25.633,26.758,52.352,0.039,85.328,0h238.934c32.975,0.039,59.695,26.758,59.73,59.734v167.082
		C383.992,231.527,380.172,235.348,375.461,235.348z"/>
	<path fill="#202934" d="M324.262,512H85.328c-32.977-0.039-59.695-26.758-59.734-59.734V285.184c0-4.711,3.82-8.531,8.531-8.531
		c4.715,0,8.535,3.82,8.535,8.531v167.082c0.027,23.557,19.113,42.643,42.668,42.668h238.934
		c23.552-0.025,42.639-19.111,42.664-42.668V285.184c0-4.711,3.82-8.531,8.535-8.531c4.711,0,8.531,3.82,8.531,8.531v167.082
		C383.957,485.242,357.234,511.961,324.262,512z"/>
	<path fill="#202934" d="M375.461,235.348c-4.715,0-8.535-3.82-8.535-8.531V93.867H42.66v132.949c0,4.711-3.82,8.531-8.535,8.531
		c-4.711,0-8.531-3.82-8.531-8.531V85.332c0-4.711,3.82-8.531,8.531-8.531h341.336c4.711,0,8.531,3.82,8.531,8.531v141.484
		C383.992,231.527,380.172,235.348,375.461,235.348z"/>
	<path fill="#202934" d="M375.461,435.199H34.125c-4.711,0-8.531-3.82-8.531-8.531V285.184c0-4.711,3.82-8.531,8.531-8.531
		c4.715,0,8.535,3.82,8.535,8.531v132.949h324.266V285.184c0-4.711,3.82-8.531,8.535-8.531c4.711,0,8.531,3.82,8.531,8.531v141.484
		C383.992,431.379,380.172,435.199,375.461,435.199z"/>
	<path fill="#202934" d="M136.527,59.734c-0.574-0.02-1.145-0.078-1.707-0.172c-0.535-0.094-1.051-0.266-1.535-0.512
		c-0.547-0.188-1.066-0.445-1.543-0.77c-0.445-0.313-0.871-0.656-1.273-1.023c-1.563-1.633-2.445-3.797-2.477-6.059
		c0.016-1.113,0.246-2.215,0.684-3.242c0.41-1.043,1.02-2,1.793-2.816c2.441-2.461,6.129-3.199,9.332-1.871
		c3.199,1.328,5.281,4.465,5.258,7.93c0.023,2.27-0.867,4.453-2.473,6.059C140.98,58.864,138.797,59.758,136.527,59.734z"/>
	<path fill="#202934" d="M273.059,59.734h-93.863c-4.715,0-8.534-3.82-8.534-8.535c0-4.711,3.819-8.531,8.534-8.531h93.863
		c4.717,0,8.535,3.82,8.535,8.531C281.594,55.914,277.773,59.734,273.059,59.734z"/>
	<path fill="#202934" d="M213.328,477.867h-17.066c-4.715,0-8.535-3.82-8.535-8.535c0-4.711,3.82-8.531,8.535-8.531h17.066
		c4.711,0,8.531,3.82,8.531,8.531C221.859,474.047,218.039,477.867,213.328,477.867z"/>
</g>
<g>
	<g>
		<path fill="#FFFFFF" d="M246.195,148.418c0.5,0,1.002,0,1.529,0c1.229,15.174-4.563,26.512-11.602,34.722
			c-6.906,8.154-16.363,16.062-31.661,14.862c-1.021-14.957,4.78-25.454,11.811-33.645
			C222.791,156.723,234.744,149.93,246.195,148.418z"/>
		<path fill="#FFFFFF" d="M292.5,306.354c0,0.15,0,0.283,0,0.425c-4.299,13.02-10.43,24.178-17.914,34.533
			c-6.83,9.401-15.201,22.052-30.148,22.052c-12.916,0-21.494-8.305-34.732-8.531c-14.001-0.227-21.702,6.944-34.503,8.749
			c-1.465,0-2.929,0-4.366,0c-9.401-1.36-16.988-8.806-22.515-15.515c-16.298-19.822-28.893-45.427-31.236-78.192
			c0-3.213,0-6.416,0-9.629c0.992-23.45,12.387-42.516,27.532-51.756c7.994-4.913,18.981-9.099,31.217-7.228
			c5.243,0.813,10.601,2.608,15.296,4.384c4.45,1.71,10.016,4.743,15.288,4.582c3.572-0.104,7.123-1.965,10.725-3.278
			c10.543-3.808,20.879-8.173,34.504-6.123c16.373,2.476,27.996,9.75,35.176,20.975c-13.852,8.815-24.801,22.1-22.932,44.784
			C265.555,287.193,277.535,299.249,292.5,306.354z"/>
	</g>
</g>
</svg>
