<?xml version="1.0" encoding="utf-8"?>
<!-- Generator: Adobe Illustrator 16.0.0, SVG Export Plug-In . SVG Version: 6.00 Build 0)  -->
<!DOCTYPE svg PUBLIC "-//W3C//DTD SVG 1.1//EN" "http://www.w3.org/Graphics/SVG/1.1/DTD/svg11.dtd">
<svg version="1.1" id="Capa_1" xmlns="http://www.w3.org/2000/svg" xmlns:xlink="http://www.w3.org/1999/xlink" x="0px" y="0px"
	 width="50px" height="50px" viewBox="0 0 50 50" enable-background="new 0 0 50 50" xml:space="preserve">
<path fill="#FFFFFF" d="M41.215,19.968L50,14.948L25,0.75L0,14.948l8.786,5.02L0,24.957l8.786,5.02L0,34.965l25,14.283l25-14.283
	l-8.785-4.988L50,24.957L41.215,19.968z M25,2.843l21.323,12.109L25,27.136L3.677,14.953L25,2.843z M10.623,21.017L25,29.231
	l14.378-8.214l6.944,3.944L25,37.145L3.677,24.961L10.623,21.017z M46.323,34.97L25,47.152L3.677,34.97l6.946-3.944L25,39.24
	l14.378-8.215L46.323,34.97z"/>
</svg>
