<?xml version="1.0" encoding="utf-8"?>
<!-- Generator: Adobe Illustrator 16.0.0, SVG Export Plug-In . SVG Version: 6.00 Build 0)  -->
<!DOCTYPE svg PUBLIC "-//W3C//DTD SVG 1.1//EN" "http://www.w3.org/Graphics/SVG/1.1/DTD/svg11.dtd">
<svg version="1.1" id="Capa_1" xmlns="http://www.w3.org/2000/svg" xmlns:xlink="http://www.w3.org/1999/xlink" x="0px" y="0px"
	 width="30px" height="30px" viewBox="241 241 30 30" enable-background="new 241 241 30 30" xml:space="preserve">
<linearGradient id="SVGID_1_" gradientUnits="userSpaceOnUse" x1="246.8301" y1="256" x2="265.1699" y2="256">
	<stop  offset="0" style="stop-color:#5E55D7"/>
	<stop  offset="1" style="stop-color:#5C83E3"/>
</linearGradient>
<path fill="url(#SVGID_1_)" d="M262.849,247.283c-0.03-0.019-1.907-0.739-1.907-0.739l-0.562-3.528
	c-0.048-0.297-0.304-0.516-0.605-0.516h-8.312c-0.301,0-0.558,0.219-0.605,0.516l-0.562,3.528c0,0-1.877,0.72-1.907,0.739
	c-0.893,0.316-1.559,1.022-1.559,1.983v13.489c0,0.992,0.782,1.694,1.645,2.004c0.004,0.002,0.007,0.004,0.011,0.005l1.811,0.691
	l0.562,3.528c0.048,0.297,0.305,0.516,0.605,0.516h8.312c0.302,0,0.558-0.219,0.605-0.516l0.563-3.528c0,0,1.816-0.695,1.82-0.696
	c0.786-0.231,1.645-1.012,1.645-2.004v-3.722h0.763v-2.321h-0.763v-2.425h0.763v-2.322h-0.763v-2.7
	C264.407,248.306,263.755,247.671,262.849,247.283z M262.432,261.626c0,0.66-0.537,1.197-1.198,1.197h-11.229
	c-0.661,0-1.198-0.537-1.198-1.197v-11.229c0-0.661,0.537-1.198,1.198-1.198h11.229c0.661,0,1.198,0.538,1.198,1.198V261.626
	L262.432,261.626z M258.322,257.082c-0.308,0.934-1.037,1.848-1.888,1.848c-0.261,0-0.508-0.066-0.738-0.179
	c-0.229,0.112-0.477,0.179-0.737,0.179c-1.129,0-2.044-1.609-2.044-2.739c0-1.979,1.947-1.979,2.782-1.248
	c0.424-0.372,1.138-0.554,1.734-0.383c-0.268,0.269-0.435,0.639-0.435,1.049C256.997,256.374,257.578,257.004,258.322,257.082z
	 M254.516,253.997c-0.365-0.366-0.529-0.857-0.492-1.335c0.479-0.037,0.97,0.126,1.335,0.492c0.366,0.366,0.529,0.857,0.493,1.336
	C255.373,254.526,254.882,254.363,254.516,253.997z"/>
</svg>
