<?xml version="1.0" encoding="utf-8"?>
<!-- Generator: Adobe Illustrator 16.0.0, SVG Export Plug-In . SVG Version: 6.00 Build 0)  -->
<!DOCTYPE svg PUBLIC "-//W3C//DTD SVG 1.1//EN" "http://www.w3.org/Graphics/SVG/1.1/DTD/svg11.dtd">
<svg version="1.1" id="Capa_1" xmlns="http://www.w3.org/2000/svg" xmlns:xlink="http://www.w3.org/1999/xlink" x="0px" y="0px"
	 width="30px" height="30px" viewBox="241 241 30 30" enable-background="new 241 241 30 30" xml:space="preserve">
<g>
	<g>
		<linearGradient id="SVGID_1_" gradientUnits="userSpaceOnUse" x1="242.5" y1="256" x2="269.5" y2="256">
			<stop  offset="0" style="stop-color:#5E55D7"/>
			<stop  offset="1" style="stop-color:#5C83E3"/>
		</linearGradient>
		<path fill="url(#SVGID_1_)" d="M267.162,260.813c0,0,3.85-8.704-8.021-16.625c0,0,4.86,6.003,2.359,12.709
			c0,0-8.721-6.068-13.108-10.421c0,0,5.482,7.741,7.45,9.32c0,0-3.272-1.662-10.854-7.992c0,0,8.697,11.136,12.798,13.462
			c0,0-6.205,4.161-15.287-1.712c0,0,4.777,8.259,14.854,8.259c4.531,0,5.859-2.283,8.104-2.283c2.321,0,3.721,2.283,3.721,2.283
			C270.534,264.544,267.162,260.813,267.162,260.813z"/>
	</g>
</g>
</svg>
