<?xml version="1.0" encoding="utf-8"?>
<!-- Generator: Adobe Illustrator 16.0.0, SVG Export Plug-In . SVG Version: 6.00 Build 0)  -->
<!DOCTYPE svg PUBLIC "-//W3C//DTD SVG 1.1//EN" "http://www.w3.org/Graphics/SVG/1.1/DTD/svg11.dtd">
<svg version="1.1" id="Layer_1" xmlns="http://www.w3.org/2000/svg" xmlns:xlink="http://www.w3.org/1999/xlink" x="0px" y="0px"
	 width="30px" height="30px" viewBox="241 241 30 30" enable-background="new 241 241 30 30" xml:space="preserve">
<g>
	<g>
		<linearGradient id="SVGID_1_" gradientUnits="userSpaceOnUse" x1="252.1826" y1="249.8506" x2="259.499" y2="249.8506">
			<stop  offset="0" style="stop-color:#5E55D7"/>
			<stop  offset="1" style="stop-color:#5C83E3"/>
		</linearGradient>
		<path fill="url(#SVGID_1_)" d="M255.867,247.503c-1.248,0.877-2.662,1.872-3.419,3.517c-1.316,2.871,2.693,6.002,2.864,6.134
			c0.04,0.03,0.087,0.046,0.135,0.046c0.051,0,0.101-0.018,0.142-0.052c0.08-0.066,0.102-0.18,0.054-0.271
			c-0.014-0.028-1.453-2.823-1.4-4.828c0.019-0.698,0.997-1.49,2.031-2.329c0.947-0.769,2.021-1.639,2.65-2.658
			c1.38-2.242-0.154-4.447-0.17-4.469c-0.061-0.085-0.173-0.116-0.27-0.074c-0.096,0.042-0.149,0.146-0.127,0.249
			c0.003,0.015,0.302,1.472-0.528,2.975C257.487,246.363,256.736,246.892,255.867,247.503z"/>
		<linearGradient id="SVGID_2_" gradientUnits="userSpaceOnUse" x1="255.7212" y1="253.1426" x2="261.21" y2="253.1426">
			<stop  offset="0" style="stop-color:#5E55D7"/>
			<stop  offset="1" style="stop-color:#5C83E3"/>
		</linearGradient>
		<path fill="url(#SVGID_2_)" d="M261.122,248.492c0.088-0.066,0.114-0.188,0.061-0.284c-0.053-0.096-0.169-0.139-0.272-0.1
			c-0.212,0.081-5.189,2-5.189,4.318c0,1.598,0.683,2.442,1.18,3.059c0.196,0.242,0.365,0.451,0.42,0.629
			c0.157,0.514-0.214,1.442-0.37,1.757c-0.045,0.091-0.022,0.2,0.054,0.267c0.041,0.035,0.093,0.054,0.145,0.054
			c0.044,0,0.088-0.014,0.127-0.04c0.085-0.06,2.092-1.478,1.731-3.187c-0.134-0.649-0.453-1.124-0.734-1.543
			c-0.437-0.649-0.752-1.118-0.273-1.983C258.56,250.428,261.097,248.511,261.122,248.492z"/>
	</g>
	<g>
		<linearGradient id="SVGID_3_" gradientUnits="userSpaceOnUse" x1="248.1211" y1="258.6035" x2="261.4834" y2="258.6035">
			<stop  offset="0" style="stop-color:#5E55D7"/>
			<stop  offset="1" style="stop-color:#5C83E3"/>
		</linearGradient>
		<path fill="url(#SVGID_3_)" d="M248.165,258.228c-0.085,0.256-0.045,0.509,0.116,0.733c0.54,0.749,2.451,1.161,5.382,1.161
			c0,0,0,0,0,0c0.397,0,0.816-0.008,1.246-0.022c4.687-0.168,6.425-1.628,6.496-1.69c0.078-0.067,0.1-0.18,0.051-0.271
			c-0.049-0.091-0.153-0.137-0.254-0.109c-1.65,0.451-4.732,0.611-6.87,0.611c-2.393,0-3.611-0.173-3.909-0.3
			c0.153-0.21,1.097-0.585,2.267-0.815c0.112-0.022,0.188-0.125,0.177-0.238c-0.011-0.113-0.106-0.2-0.22-0.2
			C251.963,257.086,248.524,257.141,248.165,258.228z"/>
		<linearGradient id="SVGID_4_" gradientUnits="userSpaceOnUse" x1="261.4238" y1="259.5684" x2="266.0117" y2="259.5684">
			<stop  offset="0" style="stop-color:#5E55D7"/>
			<stop  offset="1" style="stop-color:#5C83E3"/>
		</linearGradient>
		<path fill="url(#SVGID_4_)" d="M263.848,256.724c-0.967,0-1.884,0.484-1.922,0.505c-0.09,0.048-0.135,0.15-0.11,0.249
			s0.112,0.168,0.214,0.168c0.021,0,2.063,0.017,2.247,1.183c0.164,1.007-1.932,2.637-2.753,3.181
			c-0.089,0.059-0.123,0.172-0.082,0.27c0.035,0.084,0.116,0.136,0.204,0.136c0.016,0,0.031-0.001,0.047-0.005
			c0.194-0.041,4.767-1.049,4.283-3.711C265.681,257.066,264.655,256.724,263.848,256.724z"/>
		<linearGradient id="SVGID_5_" gradientUnits="userSpaceOnUse" x1="250.0107" y1="261.4629" x2="260.7158" y2="261.4629">
			<stop  offset="0" style="stop-color:#5E55D7"/>
			<stop  offset="1" style="stop-color:#5C83E3"/>
		</linearGradient>
		<path fill="url(#SVGID_5_)" d="M260.712,261.683c0.016-0.085-0.021-0.172-0.091-0.222l-1.097-0.768
			c-0.054-0.038-0.121-0.05-0.184-0.033c-0.012,0.003-1.158,0.305-2.822,0.489c-0.661,0.074-1.4,0.113-2.14,0.113
			c-1.664,0-2.752-0.195-2.911-0.339c-0.021-0.04-0.014-0.059-0.011-0.068c0.029-0.08,0.183-0.176,0.283-0.213
			c0.11-0.041,0.169-0.16,0.135-0.272s-0.149-0.178-0.264-0.15c-1.1,0.266-1.638,0.637-1.598,1.103
			c0.069,0.827,1.985,1.252,3.605,1.364c0.233,0.016,0.485,0.024,0.749,0.024h0c2.693,0,6.146-0.846,6.18-0.854
			C260.631,261.836,260.695,261.769,260.712,261.683z"/>
		<linearGradient id="SVGID_6_" gradientUnits="userSpaceOnUse" x1="250.7808" y1="264.3418" x2="260.292" y2="264.3418">
			<stop  offset="0" style="stop-color:#5E55D7"/>
			<stop  offset="1" style="stop-color:#5C83E3"/>
		</linearGradient>
		<path fill="url(#SVGID_6_)" d="M252.446,263.458c0.083-0.054,0.12-0.156,0.09-0.251s-0.118-0.157-0.217-0.155
			c-0.147,0.004-1.442,0.063-1.533,0.887c-0.028,0.246,0.043,0.472,0.209,0.669c0.465,0.551,1.72,0.878,3.836,1.001
			c0.25,0.015,0.505,0.022,0.756,0.022c2.69,0,4.502-0.843,4.578-0.878c0.073-0.035,0.122-0.107,0.126-0.188
			s-0.036-0.158-0.105-0.201l-1.386-0.846c-0.048-0.029-0.105-0.039-0.16-0.027c-0.009,0.002-0.889,0.185-2.216,0.364
			c-0.251,0.034-0.565,0.052-0.935,0.052c-1.326,0-2.802-0.217-3.084-0.358C252.401,263.521,252.406,263.487,252.446,263.458z"/>
		<linearGradient id="SVGID_7_" gradientUnits="userSpaceOnUse" x1="245.9883" y1="266.5615" x2="264.6758" y2="266.5615">
			<stop  offset="0" style="stop-color:#5E55D7"/>
			<stop  offset="1" style="stop-color:#5C83E3"/>
		</linearGradient>
		<path fill="url(#SVGID_7_)" d="M254.334,268.174c6.162-0.005,9.469-1.101,10.106-1.79c0.226-0.244,0.25-0.476,0.23-0.626
			c-0.047-0.371-0.385-0.599-0.424-0.623c-0.092-0.06-0.217-0.044-0.288,0.039c-0.072,0.083-0.074,0.205-0.002,0.288
			c0.039,0.05,0.062,0.134-0.052,0.247c-0.255,0.238-2.824,0.96-7.102,1.177c-0.585,0.031-1.2,0.046-1.826,0.046
			c-3.83,0-6.633-0.524-7-0.83c0.142-0.203,1.133-0.529,2.188-0.713c0.119-0.021,0.199-0.133,0.181-0.252s-0.128-0.201-0.249-0.186
			c-0.03,0.004-0.13,0.01-0.248,0.017c-1.739,0.106-3.75,0.344-3.854,1.239c-0.032,0.273,0.049,0.521,0.241,0.737
			C246.706,267.473,248.057,268.174,254.334,268.174C254.334,268.174,254.334,268.174,254.334,268.174z"/>
		<linearGradient id="SVGID_8_" gradientUnits="userSpaceOnUse" x1="249.8335" y1="268.0283" x2="265.7793" y2="268.0283">
			<stop  offset="0" style="stop-color:#5E55D7"/>
			<stop  offset="1" style="stop-color:#5C83E3"/>
		</linearGradient>
		<path fill="url(#SVGID_8_)" d="M265.651,266.578c-0.088-0.041-0.19-0.021-0.256,0.05c-0.009,0.01-0.936,0.979-3.721,1.548
			c-1.066,0.213-3.068,0.321-5.949,0.321c-2.887,0-5.634-0.113-5.662-0.114c-0.115-0.006-0.213,0.078-0.229,0.19
			c-0.016,0.113,0.057,0.22,0.168,0.246c0.028,0.007,2.907,0.681,6.843,0.681c1.888,0,3.726-0.153,5.461-0.455
			c3.235-0.567,3.462-2.172,3.47-2.24C265.789,266.71,265.738,266.618,265.651,266.578z"/>
	</g>
</g>
</svg>
