<?xml version="1.0" encoding="utf-8"?>
<!-- Generator: Adobe Illustrator 16.0.0, SVG Export Plug-In . SVG Version: 6.00 Build 0)  -->
<!DOCTYPE svg PUBLIC "-//W3C//DTD SVG 1.1//EN" "http://www.w3.org/Graphics/SVG/1.1/DTD/svg11.dtd">
<svg version="1.1" id="Layer_1" xmlns="http://www.w3.org/2000/svg" xmlns:xlink="http://www.w3.org/1999/xlink" x="0px" y="0px"
	 width="30px" height="30px" viewBox="241 241 30 30" enable-background="new 241 241 30 30" xml:space="preserve">
<g>
	<linearGradient id="SVGID_1_" gradientUnits="userSpaceOnUse" x1="246.1782" y1="258.0986" x2="249.1025" y2="258.0986">
		<stop  offset="0" style="stop-color:#5E55D7"/>
		<stop  offset="1" style="stop-color:#5C83E3"/>
	</linearGradient>
	<path fill="url(#SVGID_1_)" d="M248.312,257.979c-0.304,0-0.551-0.248-0.551-0.553c0-0.438-0.354-0.791-0.791-0.791
		c-0.437,0-0.791,0.354-0.791,0.791c0,1.177,0.957,2.135,2.133,2.135c0.437,0,0.791-0.354,0.791-0.791
		C249.103,258.334,248.748,257.979,248.312,257.979z"/>
	<linearGradient id="SVGID_2_" gradientUnits="userSpaceOnUse" x1="246.6499" y1="249.0996" x2="250.1011" y2="249.0996">
		<stop  offset="0" style="stop-color:#5E55D7"/>
		<stop  offset="1" style="stop-color:#5C83E3"/>
	</linearGradient>
	<path fill="url(#SVGID_2_)" d="M249.763,248.405c-0.467-0.326-1.034-0.451-1.595-0.351c-0.561,0.1-1.05,0.413-1.376,0.881
		c-0.25,0.359-0.161,0.852,0.197,1.101c0.138,0.096,0.295,0.142,0.451,0.142c0.25,0,0.496-0.118,0.65-0.339
		c0.084-0.121,0.21-0.202,0.355-0.228c0.145-0.025,0.291,0.006,0.411,0.091c0.358,0.25,0.851,0.163,1.102-0.196
		C250.208,249.149,250.121,248.656,249.763,248.405L249.763,248.405z"/>
	<linearGradient id="SVGID_3_" gradientUnits="userSpaceOnUse" x1="253.5225" y1="249.0996" x2="256.9736" y2="249.0996">
		<stop  offset="0" style="stop-color:#5E55D7"/>
		<stop  offset="1" style="stop-color:#5C83E3"/>
	</linearGradient>
	<path fill="url(#SVGID_3_)" d="M254.767,249.703c0.121-0.084,0.266-0.117,0.411-0.091s0.271,0.107,0.355,0.228
		c0.154,0.221,0.399,0.339,0.65,0.339c0.156,0,0.313-0.046,0.451-0.142c0.359-0.25,0.447-0.743,0.197-1.102
		c-0.325-0.468-0.814-0.781-1.376-0.881c-0.561-0.1-1.127,0.025-1.595,0.351c-0.358,0.25-0.445,0.744-0.195,1.102
		C253.915,249.865,254.408,249.953,254.767,249.703z"/>
	<linearGradient id="SVGID_4_" gradientUnits="userSpaceOnUse" x1="246.2383" y1="253.8506" x2="249.9878" y2="253.8506">
		<stop  offset="0" style="stop-color:#5E55D7"/>
		<stop  offset="1" style="stop-color:#5C83E3"/>
	</linearGradient>
	<path fill="url(#SVGID_4_)" d="M249.12,253.951c-0.317,0.031-0.627-0.063-0.873-0.266c-0.247-0.203-0.399-0.489-0.431-0.808
		c-0.042-0.435-0.428-0.753-0.864-0.71c-0.435,0.042-0.752,0.429-0.71,0.864c0.072,0.738,0.427,1.404,0.999,1.875
		c0.501,0.413,1.117,0.632,1.757,0.632c0.092,0,0.184-0.004,0.276-0.014c0.435-0.042,0.752-0.43,0.71-0.864
		C249.941,254.226,249.554,253.907,249.12,253.951z"/>
	<linearGradient id="SVGID_5_" gradientUnits="userSpaceOnUse" x1="253.7412" y1="253.8506" x2="257.4912" y2="253.8506">
		<stop  offset="0" style="stop-color:#5E55D7"/>
		<stop  offset="1" style="stop-color:#5C83E3"/>
	</linearGradient>
	<path fill="url(#SVGID_5_)" d="M256.488,254.906c0.572-0.471,0.927-1.137,1-1.875c0.042-0.435-0.275-0.822-0.711-0.864
		c-0.435-0.042-0.821,0.276-0.864,0.71c-0.031,0.318-0.184,0.605-0.43,0.808s-0.556,0.297-0.873,0.266
		c-0.435-0.042-0.822,0.275-0.864,0.71c-0.042,0.435,0.275,0.822,0.71,0.864c0.092,0.009,0.184,0.014,0.276,0.014
		C255.371,255.539,255.986,255.319,256.488,254.906L256.488,254.906z"/>
	<linearGradient id="SVGID_6_" gradientUnits="userSpaceOnUse" x1="242.5" y1="256" x2="269.5" y2="256">
		<stop  offset="0" style="stop-color:#5E55D7"/>
		<stop  offset="1" style="stop-color:#5C83E3"/>
	</linearGradient>
	<path fill="url(#SVGID_6_)" d="M267.541,264.042c1.08,0,1.959-0.878,1.959-1.958s-0.879-1.958-1.959-1.958h-0.02
		c-0.062-0.171-0.131-0.339-0.208-0.503l0.024-0.025c0.371-0.37,0.574-0.861,0.574-1.385s-0.203-1.016-0.574-1.385
		c-0.764-0.763-2.006-0.763-2.77,0l-0.026,0.025c-0.165-0.078-0.333-0.147-0.504-0.209v-0.018c0-1.08-0.879-1.958-1.96-1.958
		c-0.381,0-0.736,0.109-1.038,0.298c-0.062-0.146-0.127-0.279-0.192-0.397c0.278-0.504,0.438-1.114,0.434-1.702
		c-0.007-0.845-0.349-1.633-0.939-2.211c0.091-0.297,0.136-0.603,0.133-0.915c-0.009-1.147-0.636-2.217-1.586-2.793
		c0.01-0.55-0.134-1.314-0.818-1.99c-0.313-0.308-0.696-0.536-1.112-0.666c-0.551-1.076-1.638-1.792-2.782-1.792
		c-0.007,0-0.014,0-0.021,0c-0.921,0.007-1.762,0.452-2.336,1.139c-0.036-0.042-0.072-0.082-0.11-0.122
		c-0.6-0.633-1.388-0.981-2.221-0.981c-0.007,0-0.015,0-0.023,0c-1.151,0.009-2.237,0.745-2.775,1.835
		c-0.414,0.136-0.794,0.371-1.103,0.684c-0.671,0.683-0.8,1.454-0.785,2c-0.942,0.59-1.554,1.671-1.545,2.819
		c0.002,0.311,0.052,0.616,0.148,0.912c-0.582,0.587-0.912,1.381-0.906,2.226c0.005,0.578,0.168,1.174,0.445,1.669
		c-0.278,0.48-0.424,1.024-0.42,1.581c0.006,0.769,0.297,1.5,0.812,2.069c-0.008,0.094-0.012,0.185-0.012,0.274
		c0.006,0.823,0.341,1.645,0.917,2.253c0.56,0.59,1.283,0.933,2.054,0.976c0.651,0.957,1.741,1.55,2.911,1.55
		c0.009,0,0.018,0,0.027,0c1.08-0.009,2.041-0.554,2.661-1.396c0.079,0.096,0.164,0.188,0.253,0.277
		c0.697,0.69,1.63,1.083,2.558,1.075c0.122-0.001,0.243-0.008,0.362-0.021c0.359,0.461,0.919,0.758,1.547,0.758h0.031
		c0.063,0.17,0.134,0.338,0.212,0.501c-0.365,0.369-0.566,0.858-0.566,1.377c0,0.523,0.204,1.016,0.574,1.386
		c0.764,0.763,2.007,0.763,2.771,0l0.011-0.011c0.165,0.077,0.334,0.146,0.506,0.206v0.006c0,1.079,0.879,1.958,1.959,1.958
		s1.959-0.879,1.959-1.958v-0.031c0.165-0.061,0.328-0.128,0.486-0.204l0.01,0.01c0.764,0.763,2.006,0.763,2.771,0
		c0.37-0.37,0.573-0.862,0.573-1.386c0-0.522-0.203-1.015-0.573-1.385l-0.018-0.017c0.074-0.159,0.142-0.322,0.201-0.487H267.541
		L267.541,264.042z M249.223,261.802c-0.005,0-0.01,0-0.015,0c-0.744,0-1.431-0.438-1.753-1.12
		c-0.146-0.309-0.472-0.489-0.811-0.447c-0.031,0.004-0.061,0.008-0.091,0.012c-0.028,0.004-0.066,0.01-0.078,0.011
		c-0.004,0-0.007,0-0.011,0c-0.395,0-0.775-0.173-1.074-0.487c-0.304-0.32-0.479-0.749-0.483-1.177
		c-0.001-0.108,0.014-0.225,0.047-0.365c0.068-0.294-0.036-0.6-0.269-0.791c-0.364-0.299-0.575-0.73-0.578-1.187
		c-0.004-0.484,0.214-0.833,0.397-1.04c0.269-0.303,0.265-0.759-0.008-1.058c-0.241-0.264-0.412-0.737-0.415-1.151
		c-0.004-0.533,0.264-1.026,0.717-1.319c0.354-0.229,0.467-0.694,0.256-1.06c-0.141-0.245-0.214-0.501-0.216-0.76
		c-0.005-0.703,0.453-1.378,1.09-1.607c0.318-0.114,0.528-0.417,0.524-0.755c-0.001-0.072-0.013-0.147-0.033-0.216
		c-0.019-0.064-0.172-0.645,0.295-1.12c0.181-0.184,0.41-0.3,0.663-0.336c0.296-0.042,0.543-0.248,0.638-0.532
		c0.194-0.582,0.759-1.173,1.46-1.179c0.003,0,0.007,0,0.011,0c0.394,0,0.775,0.173,1.073,0.487c0.304,0.32,0.48,0.749,0.483,1.176
		v13.926v0.011v0.001C251.053,260.859,250.236,261.793,249.223,261.802z M252.626,259.707V245.77
		c-0.007-0.893,0.713-1.681,1.542-1.688c0.003,0,0.006,0,0.01,0c0.697,0,1.266,0.58,1.469,1.156
		c0.099,0.282,0.349,0.484,0.646,0.522c0.25,0.032,0.487,0.147,0.667,0.325c0.435,0.429,0.363,0.923,0.312,1.116
		c-0.011,0.041-0.04,0.151-0.025,0.295c0.032,0.308,0.239,0.568,0.531,0.668c0.641,0.219,1.11,0.887,1.115,1.59
		c0.002,0.259-0.066,0.516-0.204,0.763c-0.204,0.368-0.085,0.833,0.273,1.056c0.457,0.285,0.732,0.774,0.737,1.307
		c0.003,0.414-0.16,0.89-0.397,1.158c-0.268,0.303-0.268,0.756,0.006,1.055c0.005,0.006,0.479,0.605,0.552,1.653
		c-0.088,0.037-0.175,0.075-0.262,0.116l-0.009-0.009c-0.764-0.764-2.007-0.763-2.771,0c-0.37,0.37-0.574,0.861-0.574,1.385
		s0.204,1.015,0.574,1.385l0.018,0.018c-0.08,0.17-0.15,0.344-0.213,0.521h-0.007c-0.958,0-1.757,0.69-1.926,1.599
		c-0.003,0-0.005,0-0.008,0c-0.506,0-1.022-0.225-1.419-0.617C252.862,260.745,252.63,260.222,252.626,259.707L252.626,259.707z
		 M266.934,262.46c-0.365,0-0.684,0.251-0.769,0.606c-0.102,0.422-0.268,0.824-0.493,1.196c-0.19,0.312-0.143,0.713,0.116,0.971
		l0.432,0.432c0.097,0.096,0.11,0.208,0.11,0.266c0,0.059-0.014,0.17-0.11,0.267c-0.146,0.146-0.387,0.146-0.533,0l-0.427-0.427
		c-0.26-0.259-0.663-0.306-0.975-0.113c-0.371,0.229-0.772,0.397-1.193,0.502c-0.354,0.087-0.602,0.404-0.602,0.768v0.615
		c0,0.207-0.169,0.376-0.377,0.376s-0.378-0.169-0.378-0.376v-0.599c0-0.367-0.254-0.687-0.612-0.771
		c-0.428-0.099-0.836-0.265-1.213-0.492c-0.127-0.076-0.268-0.113-0.408-0.113c-0.204,0-0.407,0.079-0.56,0.231l-0.423,0.423
		c-0.147,0.146-0.387,0.146-0.534,0c-0.096-0.096-0.11-0.208-0.11-0.267c0-0.058,0.015-0.17,0.11-0.266l0.411-0.411
		c0.261-0.26,0.308-0.665,0.112-0.978c-0.232-0.374-0.404-0.779-0.51-1.205c-0.087-0.353-0.404-0.601-0.768-0.601h-0.615
		c-0.208,0-0.377-0.169-0.377-0.376c0-0.208,0.169-0.377,0.377-0.377h0.599c0.368,0,0.688-0.253,0.771-0.611
		c0.101-0.433,0.269-0.845,0.5-1.225c0.19-0.313,0.142-0.713-0.116-0.972l-0.433-0.432c-0.096-0.096-0.11-0.207-0.11-0.266
		c0-0.058,0.015-0.17,0.11-0.266c0.147-0.147,0.387-0.147,0.534,0l0.427,0.426c0.259,0.259,0.663,0.307,0.975,0.113
		c0.379-0.234,0.79-0.405,1.223-0.509c0.355-0.085,0.606-0.403,0.606-0.77v-0.605c0-0.208,0.169-0.376,0.377-0.376
		s0.378,0.168,0.378,0.376v0.605c0,0.366,0.251,0.685,0.606,0.77c0.427,0.103,0.834,0.271,1.21,0.501
		c0.312,0.191,0.714,0.144,0.972-0.114l0.442-0.441c0.146-0.147,0.387-0.147,0.534,0c0.096,0.096,0.109,0.207,0.109,0.266
		s-0.014,0.17-0.109,0.266l-0.442,0.441c-0.259,0.259-0.307,0.661-0.114,0.974c0.229,0.375,0.398,0.781,0.501,1.208
		c0.085,0.355,0.403,0.606,0.77,0.606h0.606c0.208,0,0.377,0.169,0.377,0.376c0,0.208-0.169,0.377-0.377,0.377L266.934,262.46
		L266.934,262.46z"/>
	<linearGradient id="SVGID_7_" gradientUnits="userSpaceOnUse" x1="259.249" y1="262.084" x2="264.915" y2="262.084">
		<stop  offset="0" style="stop-color:#5E55D7"/>
		<stop  offset="1" style="stop-color:#5C83E3"/>
	</linearGradient>
	<path fill="url(#SVGID_7_)" d="M262.082,259.253c-1.563,0-2.833,1.271-2.833,2.831c0,1.562,1.271,2.831,2.833,2.831
		c1.562,0,2.833-1.27,2.833-2.831C264.915,260.523,263.644,259.253,262.082,259.253z M262.082,263.333
		c-0.69,0-1.251-0.56-1.251-1.249c0-0.688,0.561-1.249,1.251-1.249c0.689,0,1.251,0.561,1.251,1.249
		C263.333,262.773,262.771,263.333,262.082,263.333z"/>
</g>
</svg>
