<?xml version="1.0" encoding="utf-8"?>
<!-- Generator: Adobe Illustrator 16.0.0, SVG Export Plug-In . SVG Version: 6.00 Build 0)  -->
<!DOCTYPE svg PUBLIC "-//W3C//DTD SVG 1.1//EN" "http://www.w3.org/Graphics/SVG/1.1/DTD/svg11.dtd">
<svg version="1.1" id="Layer_1" xmlns="http://www.w3.org/2000/svg" xmlns:xlink="http://www.w3.org/1999/xlink" x="0px" y="0px"
	 width="30px" height="30px" viewBox="0 0 30 30" enable-background="new 0 0 30 30" xml:space="preserve">
<g>
	<linearGradient id="SVGID_1_" gradientUnits="userSpaceOnUse" x1="1.4995" y1="15" x2="28.5" y2="15">
		<stop  offset="0" style="stop-color:#5E5DA9"/>
		<stop  offset="1" style="stop-color:#6480BF"/>
	</linearGradient>
	<path fill="url(#SVGID_1_)" d="M18.263,24.183c-0.143,0-0.279-0.074-0.356-0.202l-3.144-5.243L8.89,20.335
		c-0.188,0.051-0.385-0.035-0.476-0.206L1.548,7.213C1.484,7.093,1.483,6.95,1.546,6.829c0.062-0.121,0.179-0.204,0.313-0.222
		l5.835-0.785C7.858,5.799,8.021,5.877,8.105,6.02l7.046,11.751l8.185-2.226l-2.733-3.853c-0.08-0.113-0.099-0.258-0.05-0.388
		c0.049-0.129,0.158-0.226,0.293-0.257l3.829-0.905c0.156-0.037,0.319,0.02,0.42,0.145l3.313,4.137
		c0.088,0.109,0.114,0.255,0.071,0.389c-0.044,0.133-0.151,0.236-0.287,0.273l-3.49,0.949l3.043,4.289
		c0.076,0.106,0.098,0.242,0.058,0.367c-0.04,0.124-0.136,0.223-0.259,0.266L18.4,24.159C18.355,24.175,18.309,24.183,18.263,24.183
		 M15.596,18.511l2.85,4.752l8.303-2.907l-2.9-4.089L15.596,18.511z M2.563,7.351l6.43,12.095l5.326-1.448L7.533,6.682L2.563,7.351z
		 M21.638,11.714l2.553,3.598l3.173-0.863l-2.753-3.437L21.638,11.714z"/>
</g>
</svg>
