<?xml version="1.0" encoding="utf-8"?>
<!-- Generator: Adobe Illustrator 16.0.0, SVG Export Plug-In . SVG Version: 6.00 Build 0)  -->
<!DOCTYPE svg PUBLIC "-//W3C//DTD SVG 1.1//EN" "http://www.w3.org/Graphics/SVG/1.1/DTD/svg11.dtd">
<svg version="1.1" id="Capa_1" xmlns="http://www.w3.org/2000/svg" xmlns:xlink="http://www.w3.org/1999/xlink" x="0px" y="0px"
	 width="30px" height="30px" viewBox="191.498 191.498 30 30" enable-background="new 191.498 191.498 30 30" xml:space="preserve">
<g>
	<g>
		<g>
			<linearGradient id="SVGID_1_" gradientUnits="userSpaceOnUse" x1="192.998" y1="206.498" x2="219.998" y2="206.498">
				<stop  offset="0" style="stop-color:#5E55D7"/>
				<stop  offset="1" style="stop-color:#5C83E3"/>
			</linearGradient>
			<path fill="url(#SVGID_1_)" d="M218.69,194.851h-24.385c-0.722,0-1.308,0.585-1.308,1.308v15.298
				c0,0.723,0.585,1.308,1.308,1.308h9.12v2.963h-3.549c-0.667,0-1.209,0.543-1.209,1.209c0,0.667,0.542,1.21,1.209,1.21h13.243
				c0.667,0,1.21-0.543,1.21-1.21c0-0.666-0.543-1.209-1.21-1.209h-3.549v-2.963h9.12c0.723,0,1.308-0.585,1.308-1.308v-15.298
				C219.998,195.436,219.413,194.851,218.69,194.851z M218.037,210.803h-23.078v-13.991h23.078V210.803z"/>
			<linearGradient id="SVGID_2_" gradientUnits="userSpaceOnUse" x1="198.7183" y1="203.7905" x2="204.4453" y2="203.7905">
				<stop  offset="0" style="stop-color:#5E55D7"/>
				<stop  offset="1" style="stop-color:#5C83E3"/>
			</linearGradient>
			<path fill="url(#SVGID_2_)" d="M199.182,204.546l4.124,1.918c0.106,0.049,0.22,0.074,0.337,0.074
				c0.153,0,0.302-0.043,0.432-0.126c0.232-0.148,0.37-0.4,0.37-0.675v-0.021c0-0.311-0.182-0.596-0.464-0.727l-2.58-1.198
				l2.58-1.199c0.282-0.131,0.464-0.417,0.464-0.727v-0.021c0-0.275-0.139-0.528-0.37-0.676c-0.128-0.082-0.278-0.125-0.432-0.125
				c-0.116,0-0.233,0.026-0.337,0.074l-4.124,1.917c-0.282,0.131-0.464,0.417-0.464,0.727v0.057
				C198.718,204.129,198.9,204.415,199.182,204.546z"/>
			<linearGradient id="SVGID_3_" gradientUnits="userSpaceOnUse" x1="204.3281" y1="203.7705" x2="208.668" y2="203.7705">
				<stop  offset="0" style="stop-color:#5E55D7"/>
				<stop  offset="1" style="stop-color:#5C83E3"/>
			</linearGradient>
			<path fill="url(#SVGID_3_)" d="M204.482,208.452c0.15,0.206,0.393,0.329,0.647,0.329h0.021c0.35,0,0.657-0.225,0.763-0.557
				l2.717-8.418c0.078-0.243,0.034-0.511-0.116-0.718c-0.15-0.206-0.392-0.329-0.646-0.329h-0.021c-0.351,0-0.657,0.224-0.764,0.557
				l-2.717,8.418C204.289,207.979,204.332,208.246,204.482,208.452z"/>
			<linearGradient id="SVGID_4_" gradientUnits="userSpaceOnUse" x1="208.5508" y1="203.7905" x2="214.2773" y2="203.7905">
				<stop  offset="0" style="stop-color:#5E55D7"/>
				<stop  offset="1" style="stop-color:#5C83E3"/>
			</linearGradient>
			<path fill="url(#SVGID_4_)" d="M208.551,201.865c0,0.311,0.182,0.596,0.464,0.727l2.579,1.199l-2.579,1.198
				c-0.282,0.131-0.464,0.416-0.464,0.727v0.021c0,0.275,0.139,0.527,0.37,0.675c0.13,0.083,0.278,0.126,0.432,0.126
				c0.117,0,0.23-0.025,0.338-0.075l4.124-1.918c0.281-0.131,0.463-0.417,0.463-0.727v-0.057c0-0.311-0.182-0.596-0.463-0.727
				l-4.124-1.917c-0.104-0.048-0.221-0.074-0.337-0.074c-0.154,0-0.304,0.043-0.432,0.125c-0.232,0.148-0.371,0.401-0.371,0.676
				V201.865L208.551,201.865z"/>
		</g>
	</g>
</g>
</svg>
