<?xml version="1.0" encoding="utf-8"?>
<!-- Generator: Adobe Illustrator 16.0.0, SVG Export Plug-In . SVG Version: 6.00 Build 0)  -->
<!DOCTYPE svg PUBLIC "-//W3C//DTD SVG 1.1//EN" "http://www.w3.org/Graphics/SVG/1.1/DTD/svg11.dtd">
<svg version="1.1" id="Capa_1" xmlns="http://www.w3.org/2000/svg" xmlns:xlink="http://www.w3.org/1999/xlink" x="0px" y="0px"
	 width="30px" height="30px" viewBox="2.5 2.5 30 30" enable-background="new 2.5 2.5 30 30" xml:space="preserve">
<g>
	<linearGradient id="SVGID_1_" gradientUnits="userSpaceOnUse" x1="9.6577" y1="17.5" x2="25.3428" y2="17.5">
		<stop  offset="0" style="stop-color:#5E55D7"/>
		<stop  offset="1" style="stop-color:#5C83E3"/>
	</linearGradient>
	<path fill="url(#SVGID_1_)" d="M23.519,4H11.481c-1.003,0-1.824,0.82-1.824,1.824v23.352c0,1.003,0.821,1.824,1.824,1.824h12.037
		c1.003,0,1.824-0.819,1.824-1.824V5.824C25.343,4.82,24.521,4,23.519,4z M15.574,5.314h3.852c0.122,0,0.221,0.099,0.221,0.222
		c0,0.122-0.099,0.22-0.221,0.22h-3.852c-0.122,0-0.221-0.099-0.221-0.22C15.354,5.413,15.453,5.314,15.574,5.314z M17.5,30.089
		c-0.503,0-0.912-0.409-0.912-0.913c0-0.505,0.409-0.912,0.912-0.912c0.503,0,0.911,0.407,0.911,0.912
		C18.411,29.68,18.003,30.089,17.5,30.089z M24.073,27.625H10.927V6.892h13.146V27.625z"/>
</g>
</svg>
