<?xml version="1.0" encoding="utf-8"?>
<!-- Generator: Adobe Illustrator 16.0.0, SVG Export Plug-In . SVG Version: 6.00 Build 0)  -->
<!DOCTYPE svg PUBLIC "-//W3C//DTD SVG 1.1//EN" "http://www.w3.org/Graphics/SVG/1.1/DTD/svg11.dtd">
<svg version="1.1" id="Capa_1" xmlns="http://www.w3.org/2000/svg" xmlns:xlink="http://www.w3.org/1999/xlink" x="0px" y="0px"
	 width="30px" height="30px" viewBox="158.217 158.218 30 30" enable-background="new 158.217 158.218 30 30" xml:space="preserve">
<g>
	<g>
		<g>
			<linearGradient id="SVGID_1_" gradientUnits="userSpaceOnUse" x1="170.1064" y1="169.8699" x2="176.189" y2="169.8699">
				<stop  offset="0" style="stop-color:#5E55D7"/>
				<stop  offset="1" style="stop-color:#5C83E3"/>
			</linearGradient>
			<path fill="url(#SVGID_1_)" d="M174.643,169.552c0-0.907,0.597-1.704,1.447-1.97c-0.245-0.303-0.544-0.485-0.869-0.53
				c-0.069-0.02-0.122-0.027-0.178-0.027c-0.23,0-0.557,0.036-0.837,0.146c-0.281,0.11-0.51,0.292-0.737,0.292h-0.059l-0.042-0.043
				c-0.352-0.351-0.861-0.424-1.227-0.424c-0.301,0-0.52,0.05-0.548,0.058l-0.02,0.01c-0.474,0.064-0.884,0.415-1.154,0.983
				c-0.281,0.589-0.376,1.337-0.271,2.105c0.213,1.539,1.207,2.725,2.209,2.585c0.353-0.048,0.673-0.256,0.928-0.601l0.115-0.155
				l0.116,0.153c0.254,0.339,0.571,0.543,0.919,0.592c0.646,0.085,1.311-0.372,1.754-1.176
				C175.282,171.316,174.643,170.504,174.643,169.552z"/>
		</g>
		<g>
			<linearGradient id="SVGID_2_" gradientUnits="userSpaceOnUse" x1="173.6313" y1="165.9602" x2="175.3667" y2="165.9602">
				<stop  offset="0" style="stop-color:#5E55D7"/>
				<stop  offset="1" style="stop-color:#5C83E3"/>
			</linearGradient>
			<path fill="url(#SVGID_2_)" d="M175.367,165.092c-0.271,0.047-0.798,0.186-1.174,0.562c-0.378,0.378-0.515,0.904-0.562,1.175
				c0.271-0.049,0.797-0.186,1.174-0.562C175.182,165.89,175.319,165.363,175.367,165.092z"/>
		</g>
		<g>
			<linearGradient id="SVGID_3_" gradientUnits="userSpaceOnUse" x1="159.9253" y1="173.2175" x2="186.5093" y2="173.2175">
				<stop  offset="0" style="stop-color:#5E55D7"/>
				<stop  offset="1" style="stop-color:#5C83E3"/>
			</linearGradient>
			<path fill="url(#SVGID_3_)" d="M184.847,159.717h-23.26c-0.917,0-1.662,0.745-1.662,1.662v17.521
				c0,0.915,0.745,1.661,1.662,1.661h6.57c0.487,0.632,1.473,2.15,1.127,2.871c-0.14,0.29-0.519,0.438-1.13,0.438
				c-3.306,0-3.401,1.172-3.401,1.306v1.543h16.93v-2.017l-0.093-0.07c-0.042-0.031-1.026-0.761-3.459-0.761
				c-0.531,0-0.638-0.208-0.671-0.275c-0.305-0.594,0.518-2.132,1.149-3.033h6.238c0.917,0,1.662-0.746,1.662-1.661v-17.521
				C186.509,160.462,185.764,159.717,184.847,159.717z M177.036,183.809c0.181,0.355,0.549,0.534,1.095,0.534
				c1.847,0,2.794,0.445,3.077,0.606v1.293h-15.98l0-1.058c0.025-0.233,0.599-0.842,2.928-0.842c0.81,0,1.334-0.237,1.559-0.708
				c0.433-0.906-0.464-2.369-0.965-3.075h9.289C177.542,181.316,176.595,182.951,177.036,183.809z M172.434,178.818
				c0-0.432,0.351-0.783,0.783-0.783c0.432,0,0.782,0.351,0.782,0.783c0,0.432-0.351,0.783-0.782,0.783
				C172.785,179.6,172.434,179.25,172.434,178.818z M185.084,177.044H161.35v-15.602h23.735L185.084,177.044L185.084,177.044z"/>
		</g>
	</g>
</g>
</svg>
