<?xml version="1.0" encoding="utf-8"?>
<!-- Generator: Adobe Illustrator 16.0.0, SVG Export Plug-In . SVG Version: 6.00 Build 0)  -->
<!DOCTYPE svg PUBLIC "-//W3C//DTD SVG 1.1//EN" "http://www.w3.org/Graphics/SVG/1.1/DTD/svg11.dtd">
<svg version="1.1" id="Layer_1" xmlns="http://www.w3.org/2000/svg" xmlns:xlink="http://www.w3.org/1999/xlink" x="0px" y="0px"
	 width="30px" height="30px" viewBox="241 43 30 30" enable-background="new 241 43 30 30" xml:space="preserve">
<g>
	<g>
		<g transform="translate(0.000000, 8.827586)">
			<linearGradient id="SVGID_1_" gradientUnits="userSpaceOnUse" x1="242.374" y1="51.2339" x2="268.9932" y2="51.2339">
				<stop  offset="0" style="stop-color:#5E55D7"/>
				<stop  offset="1" style="stop-color:#5C83E3"/>
			</linearGradient>
			<path fill="url(#SVGID_1_)" d="M268.993,55.713l-0.122,0.316c-2.078,4.047-5.762,6.53-11.015,6.64
				c-2.457,0.052-4.796-0.579-6.325-1.265c-3.299-1.481-6.074-4.23-7.589-7.168c-2.174-4.21-2.566-10.066,1.955-14.441
				c0.069,0-0.549,0.949-0.479,0.949l-0.124,0.405c-3.257,10.198,6.777,18.936,16.533,17.937
				C264.17,58.846,267.159,57.562,268.993,55.713"/>
			<linearGradient id="SVGID_2_" gradientUnits="userSpaceOnUse" x1="250.3896" y1="45.3541" x2="269.626" y2="45.3541">
				<stop  offset="0" style="stop-color:#5E55D7"/>
				<stop  offset="1" style="stop-color:#5C83E3"/>
			</linearGradient>
			<path fill="url(#SVGID_2_)" d="M263.091,51.497c2.454,0.017,5.018-1.13,6.535-2.741c-1.328,3.372-5.173,5.539-10.33,4.849
				c-4.318-0.578-8.431-4.923-8.854-9.276c-0.31-3.168,0.794-5.06,2.614-7.354c-0.632,1.2-0.869,2.125-0.928,2.715
				C251.437,46.544,257.604,51.461,263.091,51.497"/>
			<linearGradient id="SVGID_3_" gradientUnits="userSpaceOnUse" x1="257.3936" y1="40.7955" x2="269.3799" y2="40.7955">
				<stop  offset="0" style="stop-color:#5E55D7"/>
				<stop  offset="1" style="stop-color:#5C83E3"/>
			</linearGradient>
			<path fill="url(#SVGID_3_)" d="M269.38,42.983c-0.382,0.875-2.579,2.528-3.549,2.734c-3.841,0.818-6.301-1.003-7.589-3.076
				c-0.192-0.31-0.546-1.155-0.609-1.37c-0.5-1.699-0.271-4.269,1.221-5.599c-0.449,1.265-0.515,2.734-0.278,3.689
				c0.143,0.578,0.579,1.586,1.016,2.22c0.795,1.155,1.299,1.436,2.319,2.049c0.46,0.276,0.953,0.498,1.166,0.559
				C264.044,44.474,266.086,45.225,269.38,42.983"/>
		</g>
	</g>
</g>
</svg>
