<?xml version="1.0" encoding="utf-8"?>
<!-- Generator: Adobe Illustrator 16.0.0, SVG Export Plug-In . SVG Version: 6.00 Build 0)  -->
<!DOCTYPE svg PUBLIC "-//W3C//DTD SVG 1.1//EN" "http://www.w3.org/Graphics/SVG/1.1/DTD/svg11.dtd">
<svg version="1.1" id="Capa_1" xmlns="http://www.w3.org/2000/svg" xmlns:xlink="http://www.w3.org/1999/xlink" x="0px" y="0px"
	 width="30px" height="30px" viewBox="241 241 30 30" enable-background="new 241 241 30 30" xml:space="preserve">
<linearGradient id="SVGID_1_" gradientUnits="userSpaceOnUse" x1="244.1875" y1="256" x2="267.8125" y2="256">
	<stop  offset="0" style="stop-color:#5E55D7"/>
	<stop  offset="1" style="stop-color:#5C83E3"/>
</linearGradient>
<path fill="url(#SVGID_1_)" d="M244.188,242.5l2.151,24.3l9.661,2.7l9.658-2.698l2.154-24.302H244.188z M254.548,257.07
	c0,1.209-0.372,2.174-1.115,2.893c-0.744,0.719-1.696,1.078-2.857,1.078c-1.334,0-2.391-0.32-3.169-0.961
	c-0.778-0.639-1.154-1.57-1.127-2.79l0.024-0.049h2.686c0,0.58,0.146,1.007,0.439,1.277c0.293,0.271,0.676,0.406,1.147,0.406
	c0.358,0,0.651-0.164,0.879-0.491c0.228-0.328,0.341-0.783,0.341-1.363v-8.048h2.751V257.07z M264.06,260.158
	c-0.813,0.589-1.893,0.883-3.238,0.883c-1.34,0-2.476-0.316-3.405-0.947c-0.93-0.633-1.382-1.627-1.355-2.983l0.017-0.048h2.676
	c0,0.688,0.17,1.178,0.51,1.468c0.338,0.29,0.858,0.437,1.558,0.437c0.575,0,1.004-0.115,1.286-0.343
	c0.281-0.228,0.423-0.525,0.423-0.895c0-0.423-0.139-0.747-0.415-0.973c-0.277-0.226-0.778-0.465-1.506-0.72
	c-1.47-0.478-2.562-0.986-3.274-1.526c-0.714-0.54-1.07-1.317-1.07-2.332c0-0.992,0.415-1.795,1.245-2.408
	c0.829-0.613,1.885-0.919,3.165-0.919c1.351,0,2.438,0.316,3.264,0.948c0.824,0.632,1.223,1.523,1.195,2.673l-0.016,0.048h-2.669
	c0-0.558-0.152-0.964-0.456-1.216c-0.304-0.253-0.763-0.379-1.375-0.379c-0.5,0-0.893,0.122-1.18,0.366
	c-0.288,0.244-0.432,0.545-0.432,0.903c0,0.348,0.147,0.625,0.443,0.834c0.296,0.209,0.848,0.471,1.656,0.786
	c1.372,0.406,2.411,0.903,3.116,1.489c0.705,0.585,1.058,1.389,1.058,2.408C265.28,258.754,264.874,259.569,264.06,260.158z"/>
</svg>
