<?xml version="1.0" encoding="utf-8"?>
<!-- Generator: Adobe Illustrator 16.0.0, SVG Export Plug-In . SVG Version: 6.00 Build 0)  -->
<!DOCTYPE svg PUBLIC "-//W3C//DTD SVG 1.1//EN" "http://www.w3.org/Graphics/SVG/1.1/DTD/svg11.dtd">
<svg version="1.1" id="Layer_1" xmlns="http://www.w3.org/2000/svg" xmlns:xlink="http://www.w3.org/1999/xlink" x="0px" y="0px"
	 width="30px" height="30px" viewBox="0 0 30 30" enable-background="new 0 0 30 30" xml:space="preserve">
<g display="none">
	<g display="inline">
		<g>
			<g>
				<defs>
					<path id="SVGID_1_" d="M498,398c0,55.229-44.771,100-100,100H114c-55.229,0-100-44.771-100-100V114C14,58.771,58.771,14,114,14
						h284c55.229,0,100,44.771,100,100V398z"/>
				</defs>
				<clipPath id="SVGID_2_">
					<use xlink:href="#SVGID_1_"  overflow="visible"/>
				</clipPath>
				<circle clip-path="url(#SVGID_2_)" fill="#26788E" cx="244.068" cy="283.162" r="343.352"/>
			</g>
		</g>
		<g>
			<g>
				<defs>
					<path id="SVGID_3_" d="M498,398c0,55.229-44.771,100-100,100H114c-55.229,0-100-44.771-100-100V114C14,58.771,58.771,14,114,14
						h284c55.229,0,100,44.771,100,100V398z"/>
				</defs>
				<clipPath id="SVGID_4_">
					<use xlink:href="#SVGID_3_"  overflow="visible"/>
				</clipPath>
				<circle clip-path="url(#SVGID_4_)" fill="#2C9DC4" cx="182.068" cy="375.162" r="374.567"/>
			</g>
		</g>
		<g>
			<g>
				<defs>
					<path id="SVGID_5_" d="M498,398c0,55.229-44.771,100-100,100H114c-55.229,0-100-44.771-100-100V114C14,58.771,58.771,14,114,14
						h284c55.229,0,100,44.771,100,100V398z"/>
				</defs>
				<clipPath id="SVGID_6_">
					<use xlink:href="#SVGID_5_"  overflow="visible"/>
				</clipPath>
				<circle clip-path="url(#SVGID_6_)" fill="#5EC3EF" cx="167.068" cy="390.162" r="331.792"/>
			</g>
		</g>
		<g>
			<g>
				<defs>
					<path id="SVGID_7_" d="M498,398c0,55.229-44.771,100-100,100H114c-55.229,0-100-44.771-100-100V114C14,58.771,58.771,14,114,14
						h284c55.229,0,100,44.771,100,100V398z"/>
				</defs>
				<clipPath id="SVGID_8_">
					<use xlink:href="#SVGID_7_"  overflow="visible"/>
				</clipPath>
				<circle clip-path="url(#SVGID_8_)" fill="#A1E7FF" cx="138.068" cy="460.162" r="331.792"/>
			</g>
		</g>
	</g>
</g>
<g>
	<g>
		<g>
			<linearGradient id="SVGID_9_" gradientUnits="userSpaceOnUse" x1="4.2412" y1="2.1787" x2="25.7583" y2="27.8217">
				<stop  offset="0" style="stop-color:#5E55D7"/>
				<stop  offset="1" style="stop-color:#5C83E3"/>
			</linearGradient>
			<path fill="url(#SVGID_9_)" d="M28.5,7.08v15.84c0,3.08-2.5,5.58-5.58,5.58H7.08C4,28.5,1.5,26,1.5,22.92V7.08
				C1.5,4,4,1.5,7.08,1.5h15.84C26,1.5,28.5,4,28.5,7.08z"/>
		</g>
		<g display="none">
			<g display="inline">
				<defs>
					<path id="SVGID_10_" d="M28.5,22.922c0,3.08-2.498,5.578-5.578,5.578H7.079c-3.081,0-5.579-2.498-5.579-5.578V7.079
						C1.5,3.998,3.998,1.5,7.079,1.5h15.843c3.08,0,5.578,2.498,5.578,5.579V22.922z"/>
				</defs>
				<clipPath id="SVGID_11_">
					<use xlink:href="#SVGID_10_"  overflow="visible"/>
				</clipPath>
				
					<linearGradient id="SVGID_12_" gradientUnits="userSpaceOnUse" x1="102.0215" y1="280.8418" x2="126.6458" y2="310.1879" gradientTransform="matrix(1 0 0 1 -100 -279)">
					<stop  offset="0" style="stop-color:#5E55D7"/>
					<stop  offset="1" style="stop-color:#5C83E3"/>
				</linearGradient>
				<circle clip-path="url(#SVGID_11_)" fill="url(#SVGID_12_)" cx="14.334" cy="16.515" r="19.154"/>
			</g>
		</g>
		<g>
			<g>
				<defs>
					<path id="SVGID_13_" d="M28.5,22.922c0,3.08-2.498,5.578-5.578,5.578H7.079c-3.081,0-5.579-2.498-5.579-5.578V7.079
						C1.5,3.998,3.998,1.5,7.079,1.5h15.843c3.08,0,5.578,2.498,5.578,5.579V22.922z"/>
				</defs>
				<clipPath id="SVGID_14_">
					<use xlink:href="#SVGID_13_"  overflow="visible"/>
				</clipPath>
				<circle clip-path="url(#SVGID_14_)" fill="#FFFFFF" cx="10.876" cy="21.647" r="20.896"/>
			</g>
		</g>
		<g>
			<g>
				<defs>
					<path id="SVGID_15_" d="M28.5,22.922c0,3.08-2.498,5.578-5.578,5.578H7.079c-3.081,0-5.579-2.498-5.579-5.578V7.079
						C1.5,3.998,3.998,1.5,7.079,1.5h15.843c3.08,0,5.578,2.498,5.578,5.579V22.922z"/>
				</defs>
				<clipPath id="SVGID_16_">
					<use xlink:href="#SVGID_15_"  overflow="visible"/>
				</clipPath>
				
					<linearGradient id="SVGID_17_" gradientUnits="userSpaceOnUse" x1="98.1406" y1="287.3047" x2="121.9363" y2="315.6633" gradientTransform="matrix(1 0 0 1 -100 -279)">
					<stop  offset="0" style="stop-color:#5E55D7"/>
					<stop  offset="1" style="stop-color:#5C83E3"/>
				</linearGradient>
				<circle clip-path="url(#SVGID_16_)" fill="url(#SVGID_17_)" cx="10.039" cy="22.484" r="18.509"/>
			</g>
		</g>
		<g>
			<g>
				<defs>
					<path id="SVGID_18_" d="M28.5,22.922c0,3.08-2.498,5.578-5.578,5.578H7.079c-3.081,0-5.579-2.498-5.579-5.578V7.079
						C1.5,3.998,3.998,1.5,7.079,1.5h15.843c3.08,0,5.578,2.498,5.578,5.579V22.922z"/>
				</defs>
				<clipPath id="SVGID_19_">
					<use xlink:href="#SVGID_18_"  overflow="visible"/>
				</clipPath>
				<circle clip-path="url(#SVGID_19_)" fill="#FFFFFF" cx="8.421" cy="26.389" r="18.509"/>
			</g>
		</g>
	</g>
</g>
</svg>
