<?xml version="1.0" encoding="utf-8"?>
<!-- Generator: Adobe Illustrator 16.0.0, SVG Export Plug-In . SVG Version: 6.00 Build 0)  -->
<!DOCTYPE svg PUBLIC "-//W3C//DTD SVG 1.1//EN" "http://www.w3.org/Graphics/SVG/1.1/DTD/svg11.dtd">
<svg version="1.1" id="Capa_1" xmlns="http://www.w3.org/2000/svg" xmlns:xlink="http://www.w3.org/1999/xlink" x="0px" y="0px"
	 width="30px" height="30px" viewBox="241 241 30 30" enable-background="new 241 241 30 30" xml:space="preserve">
<g>
	<linearGradient id="SVGID_1_" gradientUnits="userSpaceOnUse" x1="248.355" y1="256" x2="263.6445" y2="256">
		<stop  offset="0" style="stop-color:#5E55D7"/>
		<stop  offset="1" style="stop-color:#5C83E3"/>
	</linearGradient>
	<path fill="url(#SVGID_1_)" d="M261.68,242.5h-11.36c-1.087,0-1.965,0.881-1.965,1.967v23.068c0,1.084,0.877,1.965,1.965,1.965
		h11.36c1.085,0,1.965-0.881,1.965-1.965v-23.068C263.645,243.381,262.765,242.5,261.68,242.5z M253.197,243.694h5.608
		c0.142,0,0.257,0.211,0.257,0.473s-0.115,0.475-0.257,0.475h-5.608c-0.143,0-0.256-0.213-0.256-0.475
		S253.054,243.694,253.197,243.694z M256.001,267.559c-0.692,0-1.255-0.563-1.255-1.255c0-0.693,0.563-1.254,1.255-1.254
		c0.689,0,1.252,0.561,1.252,1.254C257.253,266.996,256.69,267.559,256.001,267.559z M262.173,263.26h-12.345v-17.441h12.345V263.26
		L262.173,263.26z"/>
</g>
</svg>
