<?xml version="1.0" encoding="utf-8"?>
<!-- Generator: Adobe Illustrator 16.0.0, SVG Export Plug-In . SVG Version: 6.00 Build 0)  -->
<!DOCTYPE svg PUBLIC "-//W3C//DTD SVG 1.1//EN" "http://www.w3.org/Graphics/SVG/1.1/DTD/svg11.dtd">
<svg version="1.1" id="Layer_1" xmlns="http://www.w3.org/2000/svg" xmlns:xlink="http://www.w3.org/1999/xlink" x="0px" y="0px"
	 width="30px" height="30px" viewBox="0 0 30 30" enable-background="new 0 0 30 30" xml:space="preserve">
<g>
	
		<linearGradient id="SVGID_1_" gradientUnits="userSpaceOnUse" x1="53.7578" y1="-124" x2="76.2412" y2="-124" gradientTransform="matrix(1 0 0 -1 -50 -109)">
		<stop  offset="0" style="stop-color:#5E55D7"/>
		<stop  offset="1" style="stop-color:#5C83E3"/>
	</linearGradient>
	<path fill="url(#SVGID_1_)" d="M10.991,28.498C9.372,27.799,7.856,26.02,7.853,24.2c-0.004-1.984,1.254-3.669,2.817-4.776
		c-0.188,0.711-0.291,1.361,0.175,1.996c0.434,0.591,1.191,0.877,1.908,0.723c1.673-0.367,1.75-2.207,0.758-3.277
		c-0.98-1.063-1.93-2.26-1.556-3.799c0.187-0.771,0.661-1.494,1.261-2.01c-0.461,1.211,0.85,2.406,1.713,3.002
		c1.498,1.033,3.141,1.813,4.52,3.024c1.447,1.272,2.519,2.993,2.303,4.989c-0.234,2.164-1.953,3.668-3.882,4.428
		c4.075-0.898,8.284-4.063,8.371-8.58c0.071-3.719-2.479-6.58-5.638-8.218l-0.166-0.091c0.086,0.211,0.115,0.39,0.111,0.55
		c0.028-0.118,0.049-0.239,0.053-0.365c0,0.156-0.021,0.304-0.058,0.44l0.005-0.075c-0.047,0.2-0.127,0.387-0.232,0.558l0.045-0.05
		c-0.629,1.045-2.336,1.272-3.18,0.19c-1.354-1.741,0.028-3.619,0.223-5.463c0.242-2.311-1.206-4.554-3.004-5.896
		c0.99,1.602-0.313,3.719-1.356,4.902c-1.011,1.148-2.241,2.106-3.358,3.149c-1.199,1.12-2.353,2.3-3.338,3.615
		c-1.973,2.632-3.18,5.94-2.293,9.224C4.94,25.672,7.782,27.76,10.991,28.498L10.991,28.498z"/>
</g>
</svg>
