<?xml version="1.0" encoding="utf-8"?>
<!-- Generator: Adobe Illustrator 16.0.0, SVG Export Plug-In . SVG Version: 6.00 Build 0)  -->
<!DOCTYPE svg PUBLIC "-//W3C//DTD SVG 1.1//EN" "http://www.w3.org/Graphics/SVG/1.1/DTD/svg11.dtd">
<svg version="1.1" id="Capa_1" xmlns="http://www.w3.org/2000/svg" xmlns:xlink="http://www.w3.org/1999/xlink" x="0px" y="0px"
	 width="30px" height="30px" viewBox="241 241 30 30" enable-background="new 241 241 30 30" xml:space="preserve">
<g>
	<linearGradient id="SVGID_1_" gradientUnits="userSpaceOnUse" x1="246.1162" y1="256" x2="265.8691" y2="256">
		<stop  offset="0" style="stop-color:#5E55D7"/>
		<stop  offset="1" style="stop-color:#5C83E3"/>
	</linearGradient>
	<path fill="url(#SVGID_1_)" d="M264.037,242.5h-16.09c-1.015,0-1.831,0.82-1.831,1.834v23.333c0,1.01,0.816,1.833,1.831,1.833
		h16.09c1.011,0,1.832-0.822,1.832-1.833v-23.333C265.87,243.32,265.049,242.5,264.037,242.5z M255.993,268.813
		c-0.602,0-1.089-0.486-1.089-1.088s0.487-1.09,1.089-1.09c0.601,0,1.089,0.488,1.089,1.09S256.594,268.813,255.993,268.813z
		 M264.016,265.682H247.97v-20.979h16.045V265.682z"/>
</g>
</svg>
