<?xml version="1.0" encoding="utf-8"?>
<!-- Generator: Adobe Illustrator 16.0.0, SVG Export Plug-In . SVG Version: 6.00 Build 0)  -->
<!DOCTYPE svg PUBLIC "-//W3C//DTD SVG 1.1//EN" "http://www.w3.org/Graphics/SVG/1.1/DTD/svg11.dtd">
<svg version="1.1" id="Layer_1" xmlns="http://www.w3.org/2000/svg" xmlns:xlink="http://www.w3.org/1999/xlink" x="0px" y="0px"
	 width="30px" height="30px" viewBox="241 241 30 30" enable-background="new 241 241 30 30" xml:space="preserve">
<g>
	<linearGradient id="SVGID_1_" gradientUnits="userSpaceOnUse" x1="247.2988" y1="252.8037" x2="252.0449" y2="252.8037">
		<stop  offset="0" style="stop-color:#5E55D7"/>
		<stop  offset="1" style="stop-color:#5C83E3"/>
	</linearGradient>
	<path fill="url(#SVGID_1_)" d="M251.254,250.426h-3.164c-0.437,0-0.791,0.355-0.791,0.792v3.17c0,0.438,0.354,0.792,0.791,0.792
		h3.164c0.437,0,0.791-0.355,0.791-0.792v-3.17C252.045,250.781,251.691,250.426,251.254,250.426z M250.463,253.596h-1.582v-1.585
		h1.582V253.596z"/>
	<linearGradient id="SVGID_2_" gradientUnits="userSpaceOnUse" x1="247.2988" y1="259.1436" x2="252.0449" y2="259.1436">
		<stop  offset="0" style="stop-color:#5E55D7"/>
		<stop  offset="1" style="stop-color:#5C83E3"/>
	</linearGradient>
	<path fill="url(#SVGID_2_)" d="M251.254,256.766h-3.164c-0.437,0-0.791,0.355-0.791,0.793v3.17c0,0.438,0.354,0.793,0.791,0.793
		h3.164c0.437,0,0.791-0.354,0.791-0.793v-3.17C252.045,257.121,251.691,256.766,251.254,256.766z M250.463,259.937h-1.582v-1.585
		h1.582V259.937z"/>
	<linearGradient id="SVGID_3_" gradientUnits="userSpaceOnUse" x1="253.627" y1="252.8037" x2="258.373" y2="252.8037">
		<stop  offset="0" style="stop-color:#5E55D7"/>
		<stop  offset="1" style="stop-color:#5C83E3"/>
	</linearGradient>
	<path fill="url(#SVGID_3_)" d="M257.582,250.426h-3.164c-0.437,0-0.791,0.355-0.791,0.792v3.17c0,0.438,0.354,0.792,0.791,0.792
		h3.164c0.438,0,0.791-0.355,0.791-0.792v-3.17C258.373,250.781,258.02,250.426,257.582,250.426z M256.791,253.596h-1.582v-1.585
		h1.582V253.596z"/>
	<linearGradient id="SVGID_4_" gradientUnits="userSpaceOnUse" x1="244.1348" y1="256" x2="267.8652" y2="256">
		<stop  offset="0" style="stop-color:#5E55D7"/>
		<stop  offset="1" style="stop-color:#5C83E3"/>
	</linearGradient>
	<path fill="url(#SVGID_4_)" d="M267.47,263.478l-0.734-0.425c-0.526-0.305-0.528-1.066,0-1.372l0.734-0.425
		c0.378-0.219,0.508-0.703,0.29-1.083l-1.582-2.745c-0.219-0.379-0.703-0.509-1.081-0.29l-0.734,0.425
		c-0.528,0.306-1.187-0.076-1.187-0.687v-0.85c0-0.438-0.354-0.792-0.791-0.792h-0.848v-9.828c0-1.603-1.301-2.906-2.9-2.906
		h-11.602c-1.6,0-2.9,1.304-2.9,2.906v21.188c0,1.603,1.301,2.906,2.9,2.906h15.35c0.438,0,0.791-0.354,0.791-0.792v-0.85
		c0-0.61,0.658-0.992,1.187-0.687l0.734,0.425c0.378,0.219,0.862,0.089,1.081-0.29l1.582-2.746
		C267.978,264.182,267.848,263.697,267.47,263.478z M259.221,255.234c-0.437,0-0.791,0.355-0.791,0.792v0.85
		c0,0.609-0.658,0.992-1.187,0.687l-0.733-0.425c-0.379-0.219-0.863-0.089-1.081,0.29l-1.582,2.745
		c-0.219,0.38-0.089,0.864,0.29,1.083l0.734,0.425c0.527,0.305,0.528,1.067,0,1.373l-0.092,0.053h-9.061V248.84h14.238v6.394
		H259.221z M247.035,244.085h11.602c0.727,0,1.318,0.593,1.318,1.321v1.849h-14.238v-1.849
		C245.717,244.678,246.308,244.085,247.035,244.085z M245.717,266.594v-1.902h8.205l1.507,2.615
		c0.218,0.379,0.702,0.509,1.081,0.289l0.733-0.424c0.48-0.278,1.187-0.005,1.187,0.743h-11.395
		C246.308,267.915,245.717,267.322,245.717,266.594z M265.994,264.455l-0.791,1.372c-1.639-0.946-3.609,0.158-3.609,2.088
		c-0.69,0-1.07,0-1.582,0c0-1.93-1.969-3.035-3.608-2.088l-0.791-1.372c1.652-0.958,1.654-3.218,0-4.176l0.791-1.373
		c1.638,0.947,3.608-0.157,3.608-2.087h1.582c0,1.898,1.943,3.051,3.609,2.087l0.791,1.373
		C264.364,261.224,264.317,263.483,265.994,264.455z"/>
	<linearGradient id="SVGID_5_" gradientUnits="userSpaceOnUse" x1="258.4297" y1="262.3672" x2="263.1758" y2="262.3672">
		<stop  offset="0" style="stop-color:#5E55D7"/>
		<stop  offset="1" style="stop-color:#5C83E3"/>
	</linearGradient>
	<path fill="url(#SVGID_5_)" d="M260.803,259.989c-1.309,0-2.373,1.066-2.373,2.378c0,1.311,1.064,2.377,2.373,2.377
		s2.373-1.066,2.373-2.377C263.176,261.056,262.111,259.989,260.803,259.989z M260.803,263.159c-0.436,0-0.791-0.355-0.791-0.792
		c0-0.438,0.355-0.793,0.791-0.793s0.791,0.355,0.791,0.793C261.594,262.804,261.238,263.159,260.803,263.159z"/>
</g>
</svg>
