<?xml version="1.0" encoding="utf-8"?>
<!-- Generator: Adobe Illustrator 16.0.0, SVG Export Plug-In . SVG Version: 6.00 Build 0)  -->
<!DOCTYPE svg PUBLIC "-//W3C//DTD SVG 1.1//EN" "http://www.w3.org/Graphics/SVG/1.1/DTD/svg11.dtd">
<svg version="1.1" id="Capa_1" xmlns="http://www.w3.org/2000/svg" xmlns:xlink="http://www.w3.org/1999/xlink" x="0px" y="0px"
	 width="30px" height="30px" viewBox="0 0 30 30" enable-background="new 0 0 30 30" xml:space="preserve">
<g>
	<g>
		
			<linearGradient id="SVGID_1_" gradientUnits="userSpaceOnUse" x1="54.0088" y1="-127.2549" x2="75.9922" y2="-127.2549" gradientTransform="matrix(1 0 0 -1 -50 -109)">
			<stop  offset="0" style="stop-color:#5E55D7"/>
			<stop  offset="1" style="stop-color:#5C83E3"/>
		</linearGradient>
		<path fill="url(#SVGID_1_)" d="M22.37,15.847c-0.035-3.422,2.79-5.059,2.915-5.142c-1.587-2.317-4.056-2.638-4.938-2.672
			c-2.1-0.216-4.101,1.235-5.168,1.235c-1.063,0-2.711-1.207-4.455-1.176C8.431,8.127,6.321,9.426,5.14,11.477
			c-2.382,4.131-0.611,10.25,1.709,13.606c1.135,1.639,2.487,3.479,4.262,3.415c1.711-0.067,2.355-1.106,4.424-1.106
			c2.066,0,2.648,1.106,4.455,1.073c1.842-0.034,3.006-1.672,4.131-3.315c1.303-1.902,1.839-3.748,1.872-3.84
			C25.95,21.287,22.407,19.931,22.37,15.847z"/>
		
			<linearGradient id="SVGID_2_" gradientUnits="userSpaceOnUse" x1="64.9316" y1="-113.6162" x2="70.4033" y2="-113.6162" gradientTransform="matrix(1 0 0 -1 -50 -109)">
			<stop  offset="0" style="stop-color:#5E55D7"/>
			<stop  offset="1" style="stop-color:#5C83E3"/>
		</linearGradient>
		<path fill="url(#SVGID_2_)" d="M18.97,5.813c0.941-1.142,1.579-2.729,1.405-4.313c-1.358,0.055-3.001,0.902-3.978,2.044
			c-0.875,1.011-1.635,2.625-1.433,4.177C16.479,7.84,18.028,6.951,18.97,5.813z"/>
	</g>
</g>
</svg>
