<?xml version="1.0" encoding="utf-8"?>
<!-- Generator: Adobe Illustrator 16.0.0, SVG Export Plug-In . SVG Version: 6.00 Build 0)  -->
<!DOCTYPE svg PUBLIC "-//W3C//DTD SVG 1.1//EN" "http://www.w3.org/Graphics/SVG/1.1/DTD/svg11.dtd">
<svg version="1.1" id="Capa_1" xmlns="http://www.w3.org/2000/svg" xmlns:xlink="http://www.w3.org/1999/xlink" x="0px" y="0px"
	 width="30px" height="30px" viewBox="241 241 30 30" enable-background="new 241 241 30 30" xml:space="preserve">
<g>
	<g>
		<g>
			<linearGradient id="SVGID_1_" gradientUnits="userSpaceOnUse" x1="242.5" y1="254.0337" x2="269.5" y2="254.0337">
				<stop  offset="0" style="stop-color:#5E55D7"/>
				<stop  offset="1" style="stop-color:#5C83E3"/>
			</linearGradient>
			<path fill="url(#SVGID_1_)" d="M267.857,243.866h-23.713c-0.905,0-1.644,0.74-1.644,1.643v17.05c0,0.901,0.739,1.643,1.644,1.643
				h23.713c0.903,0,1.643-0.741,1.643-1.643v-17.05C269.5,244.606,268.761,243.866,267.857,243.866z M267.443,261.35h-22.887V246.17
				h22.887V261.35z"/>
			<linearGradient id="SVGID_2_" gradientUnits="userSpaceOnUse" x1="249.855" y1="266.5576" x2="262.1904" y2="266.5576">
				<stop  offset="0" style="stop-color:#5E55D7"/>
				<stop  offset="1" style="stop-color:#5C83E3"/>
			</linearGradient>
			<polygon fill="url(#SVGID_2_)" points="252.958,264.981 249.855,268.134 262.19,268.134 259.087,264.981 			"/>
			<linearGradient id="SVGID_3_" gradientUnits="userSpaceOnUse" x1="246.9526" y1="254.4673" x2="264.6504" y2="254.4673">
				<stop  offset="0" style="stop-color:#5E55D7"/>
				<stop  offset="1" style="stop-color:#5C83E3"/>
			</linearGradient>
			<path fill="url(#SVGID_3_)" d="M248.051,258.307c0.606,0,1.1-0.493,1.1-1.099c0-0.11-0.033-0.21-0.063-0.311
				c1.406-1.133,3.889-3.131,5.021-4.003c0.179,0.126,0.386,0.217,0.621,0.217c0.196,0,0.37-0.065,0.528-0.154
				c0.728,0.619,1.965,1.67,2.844,2.418c-0.012,0.063-0.037,0.121-0.037,0.188c0,0.607,0.493,1.1,1.101,1.1s1.101-0.492,1.101-1.1
				c0-0.107-0.032-0.206-0.062-0.305l2.844-2.567c0.152,0.08,0.317,0.137,0.503,0.137c0.606,0,1.1-0.493,1.1-1.1
				c0-0.607-0.493-1.1-1.1-1.1c-0.607,0-1.099,0.492-1.099,1.101c0,0.145,0.031,0.283,0.082,0.409
				c-0.795,0.717-2.021,1.825-2.785,2.515c-0.171-0.11-0.363-0.191-0.583-0.191c-0.26,0-0.486,0.103-0.674,0.252
				c-0.727-0.618-1.901-1.616-2.737-2.327c0.044-0.118,0.075-0.242,0.075-0.376c0-0.607-0.492-1.1-1.099-1.1
				c-0.607,0-1.1,0.493-1.1,1.1c0,0.134,0.032,0.26,0.076,0.378l-5.047,3.926c-0.176-0.12-0.379-0.208-0.608-0.208
				c-0.607,0-1.1,0.493-1.1,1.1C246.952,257.813,247.444,258.307,248.051,258.307z"/>
		</g>
	</g>
</g>
</svg>
