<?xml version="1.0" encoding="utf-8"?>
<!-- Generator: Adobe Illustrator 16.0.0, SVG Export Plug-In . SVG Version: 6.00 Build 0)  -->
<!DOCTYPE svg PUBLIC "-//W3C//DTD SVG 1.1//EN" "http://www.w3.org/Graphics/SVG/1.1/DTD/svg11.dtd">
<svg version="1.1" id="Layer_1" xmlns="http://www.w3.org/2000/svg" xmlns:xlink="http://www.w3.org/1999/xlink" x="0px" y="0px"
	 width="30px" height="30px" viewBox="241 241 30 30" enable-background="new 241 241 30 30" xml:space="preserve">
<g>
	<linearGradient id="SVGID_1_" gradientUnits="userSpaceOnUse" x1="242.5" y1="256" x2="269.5" y2="256">
		<stop  offset="0" style="stop-color:#5E55D7"/>
		<stop  offset="1" style="stop-color:#5C83E3"/>
	</linearGradient>
	<path fill="url(#SVGID_1_)" d="M242.5,267.127c0,1.309,1.064,2.373,2.373,2.373c1.03,0,1.9-0.663,2.228-1.582h17.799
		c0.328,0.919,1.197,1.582,2.228,1.582c1.309,0,2.373-1.064,2.373-2.373c0-1.03-0.663-1.899-1.582-2.228v-13.698
		c0-0.437-0.354-0.791-0.791-0.791s-0.791,0.354-0.791,0.791v3.955h-3.955c-0.438,0-0.791,0.354-0.791,0.791
		s0.354,0.791,0.791,0.791h3.955v8.161c-0.67,0.239-1.197,0.767-1.437,1.437h-8.056v-5.643c0-0.438-0.354-0.791-0.791-0.791
		s-0.791,0.354-0.791,0.791v5.643h-8.161c-0.239-0.67-0.767-1.197-1.437-1.437v-8.161h5.643c0.437,0,0.791-0.354,0.791-0.791
		s-0.354-0.791-0.791-0.791h-5.643v-8.056c0.67-0.239,1.197-0.767,1.437-1.437h8.161v3.955c0,0.437,0.354,0.791,0.791,0.791
		s0.791-0.354,0.791-0.791v-3.955h3.955c0.438,0,0.791-0.354,0.791-0.791s-0.354-0.791-0.791-0.791h-13.698
		c-0.328-0.919-1.198-1.582-2.228-1.582c-1.309,0-2.373,1.064-2.373,2.373c0,1.03,0.663,1.9,1.582,2.228v17.799
		C243.163,265.228,242.5,266.097,242.5,267.127z"/>
	<linearGradient id="SVGID_2_" gradientUnits="userSpaceOnUse" x1="251.7544" y1="256.8623" x2="258.5215" y2="256.8623">
		<stop  offset="0" style="stop-color:#5E55D7"/>
		<stop  offset="1" style="stop-color:#5C83E3"/>
	</linearGradient>
	<path fill="url(#SVGID_2_)" d="M254.223,254.422c-0.087,0.086-0.152,0.192-0.191,0.309l-1.059,3.179l-0.987,0.986
		c-0.309,0.31-0.309,0.81,0,1.119c0.309,0.309,0.81,0.309,1.119,0l0.986-0.987l3.179-1.06c0.116-0.038,0.223-0.104,0.309-0.19
		l0.943-0.943l-3.355-3.355L254.223,254.422z"/>
	<linearGradient id="SVGID_3_" gradientUnits="userSpaceOnUse" x1="264.8701" y1="244.8252" x2="269.4795" y2="244.8252">
		<stop  offset="0" style="stop-color:#5E55D7"/>
		<stop  offset="1" style="stop-color:#5C83E3"/>
	</linearGradient>
	<path fill="url(#SVGID_3_)" d="M268.787,246.57c0.924-0.926,0.924-2.431-0.001-3.357c-0.925-0.925-2.431-0.922-3.356,0.001
		l-0.56,0.56l3.357,3.357L268.787,246.57z"/>
	<linearGradient id="SVGID_4_" gradientUnits="userSpaceOnUse" x1="256.2847" y1="250.3037" x2="267.1084" y2="250.3037">
		<stop  offset="0" style="stop-color:#5E55D7"/>
		<stop  offset="1" style="stop-color:#5C83E3"/>
	</linearGradient>
	<path fill="url(#SVGID_4_)" d="M267.108,248.248l-3.356-3.356l-7.467,7.468l3.355,3.355L267.108,248.248z"/>
</g>
</svg>
