<?xml version="1.0" encoding="utf-8"?>
<!-- Generator: Adobe Illustrator 16.0.0, SVG Export Plug-In . SVG Version: 6.00 Build 0)  -->
<!DOCTYPE svg PUBLIC "-//W3C//DTD SVG 1.1//EN" "http://www.w3.org/Graphics/SVG/1.1/DTD/svg11.dtd">
<svg version="1.1" id="Capa_1" xmlns="http://www.w3.org/2000/svg" xmlns:xlink="http://www.w3.org/1999/xlink" x="0px" y="0px"
	 width="30px" height="30px" viewBox="241 241 30 30" enable-background="new 241 241 30 30" xml:space="preserve">
<g>
	<linearGradient id="SVGID_1_" gradientUnits="userSpaceOnUse" x1="242.5" y1="265.6748" x2="269.5" y2="265.6748">
		<stop  offset="0" style="stop-color:#5E55D7"/>
		<stop  offset="1" style="stop-color:#5C83E3"/>
	</linearGradient>
	<path fill="url(#SVGID_1_)" d="M261.453,261.854c-0.248-0.03-0.471,0.146-0.5,0.394s0.147,0.471,0.395,0.5
		c4.731,0.557,7.252,2.058,7.252,2.928c0,1.222-4.793,2.925-12.6,2.925s-12.6-1.703-12.6-2.925c0-0.87,2.521-2.371,7.253-2.928
		c0.247-0.029,0.423-0.253,0.394-0.5c-0.029-0.247-0.252-0.425-0.5-0.394c-4.738,0.558-8.047,2.129-8.047,3.821
		c0,1.901,4.637,3.825,13.5,3.825c8.862,0,13.5-1.924,13.5-3.825C269.5,263.982,266.19,262.411,261.453,261.854z"/>
	<linearGradient id="SVGID_2_" gradientUnits="userSpaceOnUse" x1="247.2905" y1="254.8203" x2="264.5479" y2="254.8203">
		<stop  offset="0" style="stop-color:#5E55D7"/>
		<stop  offset="1" style="stop-color:#5C83E3"/>
	</linearGradient>
	<path fill="url(#SVGID_2_)" d="M255.92,267.141l6.904-9.971c2.589-3.452,2.215-9.126-0.802-12.142
		c-1.63-1.63-3.797-2.528-6.102-2.528s-4.472,0.898-6.102,2.528c-3.017,3.016-3.391,8.69-0.812,12.128L255.92,267.141z M256,247.9
		c1.737,0,3.15,1.414,3.15,3.15c0,1.737-1.413,3.15-3.15,3.15c-1.737,0-3.15-1.414-3.15-3.15
		C252.85,249.313,254.263,247.9,256,247.9z"/>
</g>
</svg>
