<?xml version="1.0" encoding="utf-8"?>
<!-- Generator: Adobe Illustrator 16.0.0, SVG Export Plug-In . SVG Version: 6.00 Build 0)  -->
<!DOCTYPE svg PUBLIC "-//W3C//DTD SVG 1.1//EN" "http://www.w3.org/Graphics/SVG/1.1/DTD/svg11.dtd">
<svg version="1.1" id="Layer_1" xmlns="http://www.w3.org/2000/svg" xmlns:xlink="http://www.w3.org/1999/xlink" x="0px" y="0px"
	 width="30px" height="30px" viewBox="113 179 30 30" enable-background="new 113 179 30 30" xml:space="preserve">
<g>
	<linearGradient id="SVGID_1_" gradientUnits="userSpaceOnUse" x1="118.8105" y1="193.6426" x2="136.6182" y2="193.6426">
		<stop  offset="0" style="stop-color:#5E55D7"/>
		<stop  offset="1" style="stop-color:#5C83E3"/>
	</linearGradient>
	<path fill="url(#SVGID_1_)" d="M136.44,196.284L136.44,196.284c-0.501-2.503-2.028-4.636-4.127-5.938c0,0,0,0-0.001,0
		c0,0-0.001-0.001-0.002-0.001s-0.001-0.001-0.002-0.001s-0.001,0-0.001-0.001c-0.194-0.12-0.394-0.233-0.597-0.339l-5.622-2.817
		l0,0l0,0v0l-0.302-0.151c-0.018-0.008-0.035-0.017-0.053-0.026l0,0c-0.001-0.001-0.002-0.001-0.003-0.002l0,0
		c-0.001,0-0.002-0.001-0.004-0.002l0,0c-0.001,0-0.002-0.001-0.003-0.001c0,0,0,0,0,0c-0.001,0-0.002-0.001-0.003-0.001
		c0,0,0,0-0.001,0c-0.001,0-0.002-0.001-0.002-0.001c0,0-0.001,0-0.001,0s-0.001-0.001-0.002-0.001c0,0-0.001,0-0.001-0.001
		c0,0-0.001,0-0.001,0c-0.001,0-0.001-0.001-0.002-0.001c0,0,0,0,0,0c-0.584-0.3-1.083-0.745-1.447-1.287
		c-0.413-0.615-0.654-1.355-0.654-2.152c0-1.479,0.833-2.765,2.055-3.414l-1.814,0.927c-2.986,1.491-5.037,4.575-5.037,8.139
		l0.135,1.564l0,0v0c0.002,0,0.005,0.001,0.007,0.002c-0.002-0.001-0.004-0.001-0.007-0.002c0.489,2.823,2.28,5.199,4.733,6.488l0,0
		c0.001,0.001,0.002,0.001,0.003,0.002h0c0.001,0.001,0.002,0.001,0.003,0.002c0,0,0,0,0.001,0c0.001,0.001,0.002,0.001,0.003,0.002
		c0,0,0,0,0.001,0c0.003,0.002,0.006,0.004,0.009,0.005c0,0.001,0,0.001,0.001,0.001c0.001,0,0.001,0.001,0.002,0.001
		c0,0.001,0.001,0.001,0.001,0.001c0.001,0.001,0.001,0.001,0.002,0.001c0,0.001,0.001,0.001,0.001,0.001
		c0.001,0.001,0.001,0.001,0.002,0.001c0.001,0.001,0.001,0.001,0.002,0.002c0,0,0.001,0,0.002,0.001
		c0.001,0,0.002,0.001,0.004,0.002l0.563,0.282c0-0.002-0.001-0.003-0.002-0.005c0.001,0.002,0.001,0.003,0.002,0.005l0,0l0,0
		l0.671,0.336l4.689,2.351c1.29,0.626,2.181,1.947,2.181,3.478v0.009c0,0.002,0,0.003,0,0.004v0.015c0,0.001,0,0.002,0,0.003v0.006
		c0,0.001,0,0.001-0.001,0.002v0.007c0,0,0,0.001,0,0.002v0.005c0,0,0,0.001,0,0.002v0.001c0,0.003,0,0.006,0,0.008v0.001
		c-0.016,0.997-0.409,1.901-1.044,2.578c-0.29,0.311-0.632,0.572-1.01,0.773l1.165-0.596l0.649-0.331
		c2.985-1.491,5.036-4.576,5.036-8.14L136.44,196.284"/>
	<linearGradient id="SVGID_2_" gradientUnits="userSpaceOnUse" x1="118.8105" y1="191.9668" x2="131.8223" y2="191.9668">
		<stop  offset="0" style="stop-color:#5E55D7"/>
		<stop  offset="1" style="stop-color:#5C83E3"/>
	</linearGradient>
	<path fill="url(#SVGID_2_)" d="M118.811,189.208c0-3.563,2.05-6.648,5.037-8.139l1.814-0.927c-1.222,0.648-2.055,1.934-2.055,3.414
		c0,0.797,0.241,1.537,0.654,2.152c-0.615,1.539-0.973,3.117-1.093,4.688c-0.777,0.393-1.655,0.613-2.579,0.613
		c-0.088,0-0.178-0.002-0.267-0.006c-0.478-0.021-0.938-0.102-1.377-0.231L118.811,189.208L118.811,189.208z M131.822,203.731
		v-0.004V203.731L131.822,203.731z M131.822,203.736v-0.004V203.736L131.822,203.736z M131.822,203.74c0-0.001,0-0.002,0-0.004
		C131.822,203.738,131.822,203.739,131.822,203.74L131.822,203.74z M131.822,203.745v-0.004V203.745L131.822,203.745z
		 M131.822,203.749v-0.004V203.749L131.822,203.749z M131.822,203.753v-0.003V203.753L131.822,203.753z M131.822,203.758
		c0-0.001,0-0.002,0-0.003C131.822,203.756,131.822,203.757,131.822,203.758L131.822,203.758z M131.822,203.762v-0.002V203.762
		L131.822,203.762z M131.822,203.766c0-0.001,0-0.001,0-0.002C131.822,203.765,131.822,203.765,131.822,203.766L131.822,203.766z
		 M131.822,203.771v-0.002V203.771L131.822,203.771z M131.821,203.774c0-0.001,0.001-0.002,0.001-0.002
		S131.821,203.773,131.821,203.774L131.821,203.774z M131.821,203.779v-0.002V203.779L131.821,203.779z M131.821,203.782
		L131.821,203.782L131.821,203.782L131.821,203.782z M131.821,203.791L131.821,203.791L131.821,203.791L131.821,203.791z"/>
	
		<linearGradient id="SVGID_3_" gradientUnits="userSpaceOnUse" x1="-123.6143" y1="448.0947" x2="-123.6264" y2="448.0564" gradientTransform="matrix(76.5487 0 0 -102.8184 9584.4014 46265.2422)">
		<stop  offset="0" style="stop-color:#5E55D7"/>
		<stop  offset="1" style="stop-color:#5C83E3"/>
	</linearGradient>
	<path fill="url(#SVGID_3_)" d="M124.282,197.563l-0.563-0.282c-0.001-0.001-0.003-0.002-0.004-0.002
		c0-0.001-0.001-0.001-0.002-0.001c0-0.001-0.001-0.001-0.002-0.002c-0.001,0-0.001,0-0.002-0.001c0,0-0.001,0-0.001-0.001
		c-0.001,0-0.001,0-0.002-0.001c0,0-0.001,0-0.001-0.001c-0.001,0-0.001-0.001-0.002-0.001c0,0,0,0-0.001-0.001
		c-0.003-0.001-0.006-0.003-0.009-0.005c0,0-0.001,0-0.001,0c-0.001-0.001-0.002-0.001-0.003-0.002c0,0,0,0-0.001,0
		c0-0.001-0.002-0.001-0.003-0.002h0c-0.001-0.001-0.002-0.001-0.003-0.002l0,0c-2.453-1.289-4.244-3.666-4.733-6.489
		c0.438,0.13,0.899,0.21,1.377,0.232c0.089,0.004,0.179,0.006,0.267,0.006c0.924,0,1.801-0.22,2.579-0.613
		C122.979,192.867,123.375,195.318,124.282,197.563"/>
	
		<linearGradient id="SVGID_4_" gradientUnits="userSpaceOnUse" x1="-126.2661" y1="449.4688" x2="-126.1965" y2="449.4582" gradientTransform="matrix(192.9304 0 0 -307.456 24483.623 138387.1719)">
		<stop  offset="0" style="stop-color:#5E55D7"/>
		<stop  offset="1" style="stop-color:#5C83E3"/>
	</linearGradient>
	<path fill="url(#SVGID_4_)" d="M126.089,187.186l-0.302-0.151c-0.018-0.008-0.035-0.017-0.053-0.026l0,0
		c-0.001-0.001-0.002-0.001-0.003-0.002l0,0c-0.001,0-0.002-0.001-0.004-0.002l0,0c-0.001,0-0.002-0.001-0.003-0.001c0,0,0,0,0,0
		c-0.001,0-0.002-0.001-0.003-0.001c0,0,0,0-0.001,0c-0.001,0-0.002-0.001-0.002-0.001c0,0-0.001,0-0.001,0
		s-0.001-0.001-0.002-0.001c0,0-0.001,0-0.001-0.001c0,0-0.001,0-0.001,0c-0.001,0-0.001-0.001-0.002-0.001c0,0,0,0,0,0
		c-0.584-0.3-1.083-0.745-1.447-1.287c-0.615,1.539-0.973,3.117-1.093,4.688c1.042-0.526,1.905-1.362,2.463-2.392L126.089,187.186
		L126.089,187.186z M136.44,196.284c-2.14,1.415-4.697,2.234-7.431,2.234c-0.208,0-0.417-0.004-0.627-0.014
		c-1.193-0.055-2.342-0.264-3.43-0.605l4.689,2.351c1.29,0.626,2.181,1.947,2.181,3.478v0.009c0,0.002,0,0.003,0,0.004v0.015
		c0,0.001,0,0.002,0,0.003v0.006c0,0.001,0,0.001-0.001,0.002v0.007c0,0,0,0.001,0,0.002v0.005c0,0,0,0.001,0,0.002v0.001
		c0,0.003,0,0.006,0,0.008v0.001c-0.016,0.997-0.409,1.901-1.044,2.578c-0.29,0.311-0.632,0.572-1.01,0.773l1.165-0.596l0.649-0.331
		c2.985-1.491,5.036-4.576,5.036-8.14L136.44,196.284L136.44,196.284z"/>
	
		<linearGradient id="SVGID_5_" gradientUnits="userSpaceOnUse" x1="-126.2412" y1="448.7305" x2="-126.2059" y2="448.6607" gradientTransform="matrix(191.0404 0 0 -162.56 24242.0273 73132.7813)">
		<stop  offset="0" style="stop-color:#5E55D7"/>
		<stop  offset="1" style="stop-color:#5C83E3"/>
	</linearGradient>
	<path fill="url(#SVGID_5_)" d="M129.01,198.519c-0.208,0-0.417-0.004-0.627-0.014c-1.193-0.055-2.342-0.264-3.43-0.605
		l-0.671-0.336c-0.906-2.245-1.304-4.697-1.114-7.167c1.042-0.526,1.905-1.362,2.464-2.392l0.458-0.818l5.622,2.817
		c0.203,0.105,0.402,0.219,0.597,0.339c0,0,0,0,0.001,0.001s0.001,0.001,0.002,0.001s0.002,0.001,0.002,0.001
		c0.001,0,0.001,0,0.001,0c2.099,1.302,3.626,3.434,4.127,5.938C134.301,197.699,131.743,198.519,129.01,198.519"/>
</g>
</svg>
