<?xml version="1.0" encoding="utf-8"?>
<!-- Generator: Adobe Illustrator 16.0.0, SVG Export Plug-In . SVG Version: 6.00 Build 0)  -->
<!DOCTYPE svg PUBLIC "-//W3C//DTD SVG 1.1//EN" "http://www.w3.org/Graphics/SVG/1.1/DTD/svg11.dtd">
<svg version="1.1" id="Capa_1" xmlns="http://www.w3.org/2000/svg" xmlns:xlink="http://www.w3.org/1999/xlink" x="0px" y="0px"
	 width="30px" height="30px" viewBox="0 0 30 30" enable-background="new 0 0 30 30" xml:space="preserve">
<linearGradient id="SVGID_1_" gradientUnits="userSpaceOnUse" x1="55.8291" y1="-124" x2="74.1709" y2="-124" gradientTransform="matrix(1 0 0 -1 -50 -109)">
	<stop  offset="0" style="stop-color:#5E55D7"/>
	<stop  offset="1" style="stop-color:#5C83E3"/>
</linearGradient>
<path fill="url(#SVGID_1_)" d="M21.849,6.283c-0.031-0.02-1.908-0.739-1.908-0.739l-0.562-3.528C19.331,1.719,19.075,1.5,18.774,1.5
	h-8.313c-0.301,0-0.559,0.219-0.605,0.516L9.295,5.544c0,0-1.877,0.72-1.907,0.739C6.495,6.6,5.829,7.305,5.829,8.266v13.49
	c0,0.992,0.781,1.693,1.645,2.004c0.004,0.002,0.008,0.004,0.012,0.004l1.811,0.691l0.563,3.527
	c0.048,0.299,0.305,0.518,0.604,0.518h8.312c0.303,0,0.559-0.219,0.605-0.518l0.563-3.527c0,0,1.816-0.695,1.82-0.695
	c0.786-0.232,1.646-1.012,1.646-2.004v-3.723h0.763v-2.32h-0.763v-2.426h0.763v-2.322h-0.763V8.266
	C23.406,7.307,22.754,6.671,21.849,6.283z M21.431,20.627c0,0.66-0.537,1.197-1.197,1.197H9.004c-0.661,0-1.198-0.537-1.198-1.197
	V9.396c0-0.66,0.537-1.197,1.198-1.197h11.229c0.66,0,1.197,0.537,1.197,1.197V20.627L21.431,20.627z"/>
<g>
	<g>
		<g>
			
				<linearGradient id="SVGID_2_" gradientUnits="userSpaceOnUse" x1="160.7441" y1="-885.1548" x2="161.959" y2="-885.1548" gradientTransform="matrix(1 0 0 -1 -150 -870)">
				<stop  offset="0" style="stop-color:#5E55D7"/>
				<stop  offset="1" style="stop-color:#5C83E3"/>
			</linearGradient>
			<path fill="url(#SVGID_2_)" d="M11.364,13.266h-0.025c-0.328,0-0.595,0.268-0.595,0.594v2.59c0,0.328,0.269,0.595,0.595,0.595
				h0.025c0.328,0,0.595-0.269,0.595-0.595v-2.59C11.959,13.532,11.691,13.266,11.364,13.266z"/>
			
				<linearGradient id="SVGID_3_" gradientUnits="userSpaceOnUse" x1="162.2441" y1="-886.6738" x2="167.752" y2="-886.6738" gradientTransform="matrix(1 0 0 -1 -150 -870)">
				<stop  offset="0" style="stop-color:#5E55D7"/>
				<stop  offset="1" style="stop-color:#5C83E3"/>
			</linearGradient>
			<path fill="url(#SVGID_3_)" d="M12.244,17.449c0,0.3,0.246,0.545,0.547,0.545h0.583v1.398c0,0.329,0.27,0.596,0.595,0.596h0.025
				c0.329,0,0.595-0.268,0.595-0.596v-1.398h0.817v1.398c0,0.329,0.27,0.596,0.596,0.596h0.025c0.328,0,0.594-0.268,0.594-0.596
				v-1.398h0.586c0.299,0,0.545-0.244,0.545-0.545V13.36h-5.508V17.449L12.244,17.449z"/>
			
				<linearGradient id="SVGID_4_" gradientUnits="userSpaceOnUse" x1="162.2256" y1="-881.5625" x2="167.7734" y2="-881.5625" gradientTransform="matrix(1 0 0 -1 -150 -870)">
				<stop  offset="0" style="stop-color:#5E55D7"/>
				<stop  offset="1" style="stop-color:#5C83E3"/>
			</linearGradient>
			<path fill="url(#SVGID_4_)" d="M16.371,10.881l0.465-0.716c0.029-0.045,0.016-0.107-0.029-0.136
				c-0.045-0.03-0.105-0.018-0.137,0.029l-0.48,0.741c-0.361-0.148-0.764-0.231-1.19-0.231c-0.426,0-0.828,0.083-1.19,0.231
				l-0.479-0.741c-0.029-0.047-0.092-0.059-0.138-0.029c-0.045,0.029-0.058,0.091-0.028,0.137l0.465,0.716
				c-0.838,0.41-1.402,1.184-1.402,2.07c0,0.054,0.004,0.108,0.008,0.162h5.532c0.004-0.054,0.008-0.107,0.008-0.162
				C17.773,12.064,17.209,11.291,16.371,10.881z M13.717,12.162c-0.146,0-0.267-0.117-0.267-0.266c0-0.146,0.119-0.265,0.267-0.265
				s0.267,0.118,0.267,0.265C13.983,12.044,13.864,12.162,13.717,12.162z M16.283,12.162c-0.146,0-0.268-0.117-0.268-0.266
				c0-0.146,0.119-0.265,0.268-0.265c0.146,0,0.264,0.118,0.264,0.265C16.547,12.044,16.43,12.162,16.283,12.162z"/>
			
				<linearGradient id="SVGID_5_" gradientUnits="userSpaceOnUse" x1="168.0391" y1="-885.1548" x2="169.2559" y2="-885.1548" gradientTransform="matrix(1 0 0 -1 -150 -870)">
				<stop  offset="0" style="stop-color:#5E55D7"/>
				<stop  offset="1" style="stop-color:#5C83E3"/>
			</linearGradient>
			<path fill="url(#SVGID_5_)" d="M18.66,13.266h-0.025c-0.328,0-0.596,0.268-0.596,0.594v2.59c0,0.328,0.27,0.595,0.596,0.595
				h0.025c0.328,0,0.596-0.269,0.596-0.595v-2.59C19.256,13.532,18.986,13.266,18.66,13.266z"/>
		</g>
	</g>
</g>
</svg>
