<?xml version="1.0" encoding="utf-8"?>
<!-- Generator: Adobe Illustrator 16.0.0, SVG Export Plug-In . SVG Version: 6.00 Build 0)  -->
<!DOCTYPE svg PUBLIC "-//W3C//DTD SVG 1.1//EN" "http://www.w3.org/Graphics/SVG/1.1/DTD/svg11.dtd">
<svg version="1.1" id="Capa_1" xmlns="http://www.w3.org/2000/svg" xmlns:xlink="http://www.w3.org/1999/xlink" x="0px" y="0px"
	 width="30px" height="30px" viewBox="178.68 178.679 30 30" enable-background="new 178.68 178.679 30 30" xml:space="preserve">
<g>
	<g>
		<linearGradient id="SVGID_1_" gradientUnits="userSpaceOnUse" x1="181.0273" y1="193.6794" x2="206.332" y2="193.6794">
			<stop  offset="0" style="stop-color:#5E55D7"/>
			<stop  offset="1" style="stop-color:#5C83E3"/>
		</linearGradient>
		<path fill="url(#SVGID_1_)" d="M201.506,193.68c0.854-0.846,1.619-1.685,2.274-2.495c0.061,0.007,0.118,0.011,0.175,0.011
			c0.846,0,1.533-0.688,1.533-1.533c0-0.236-0.056-0.471-0.16-0.682c1.114-1.916,1.302-3.394,0.558-4.393
			c-0.488-0.656-1.301-0.988-2.416-0.988c-1.236,0-2.896,0.429-4.806,1.242c-0.068-0.165-0.136-0.323-0.203-0.471
			c-1.22-2.703-2.919-4.191-4.784-4.191s-3.564,1.488-4.785,4.191c-0.067,0.148-0.135,0.306-0.202,0.471
			c-0.382-0.163-0.758-0.312-1.12-0.444c-0.158-0.695-0.773-1.191-1.493-1.191c-0.424,0-0.827,0.175-1.116,0.483
			c-0.388-0.06-0.75-0.09-1.076-0.09c-1.115,0-1.928,0.332-2.417,0.988c-0.928,1.247-0.384,3.292,1.575,5.916
			c0.761,1.019,1.704,2.087,2.805,3.177c-1.101,1.089-2.044,2.158-2.805,3.176c-1.959,2.624-2.503,4.669-1.575,5.916
			c0.488,0.655,1.301,0.988,2.417,0.988c1.236,0,2.896-0.43,4.806-1.242c0.067,0.164,0.135,0.322,0.202,0.471
			c1.22,2.702,2.919,4.19,4.785,4.19s3.564-1.488,4.785-4.19c0.066-0.148,0.134-0.306,0.202-0.472
			c1.91,0.813,3.569,1.243,4.806,1.243c1.115,0,1.928-0.333,2.416-0.988c0.929-1.247,0.384-3.292-1.575-5.916
			C203.55,195.838,202.606,194.769,201.506,193.68z M198.474,196.397c-0.141,1.402-0.39,2.72-0.74,3.922
			c-0.836-0.42-1.702-0.902-2.579-1.435c0.529-0.363,1.055-0.738,1.565-1.118C197.316,197.321,197.905,196.862,198.474,196.397z
			 M190.634,197.765c0.511,0.381,1.037,0.757,1.566,1.119c-0.878,0.533-1.744,1.015-2.58,1.435c-0.351-1.202-0.599-2.52-0.74-3.922
			C189.448,196.862,190.037,197.321,190.634,197.765z M188.88,190.963c0.141-1.402,0.39-2.719,0.74-3.922
			c0.835,0.42,1.702,0.902,2.58,1.435c-0.529,0.363-1.055,0.739-1.566,1.119C190.037,190.039,189.448,190.498,188.88,190.963z
			 M196.72,189.594c-0.51-0.38-1.036-0.756-1.565-1.119c0.878-0.533,1.744-1.015,2.579-1.435c0.351,1.203,0.6,2.52,0.74,3.921
			C197.905,190.498,197.316,190.038,196.72,189.594z M193.677,205.577c-1.18,0-2.392-1.184-3.323-3.248
			c-0.069-0.152-0.138-0.313-0.206-0.481c1.139-0.562,2.325-1.231,3.529-1.991c1.204,0.76,2.391,1.43,3.529,1.991
			c-0.068,0.167-0.137,0.329-0.206,0.481C196.068,204.393,194.857,205.577,193.677,205.577z M193.677,197.947
			c-0.701-0.465-1.402-0.958-2.085-1.467c-0.993-0.739-1.948-1.51-2.841-2.291c-0.003-0.174-0.005-0.345-0.005-0.509
			s0.001-0.335,0.005-0.509c0.893-0.781,1.849-1.552,2.841-2.291c0.683-0.508,1.384-1.001,2.085-1.467
			c0.702,0.466,1.403,0.959,2.085,1.467c0.993,0.739,1.948,1.51,2.842,2.291c0.003,0.174,0.005,0.345,0.005,0.509
			s-0.002,0.335-0.005,0.509c-0.893,0.781-1.849,1.552-2.842,2.291C195.08,196.988,194.379,197.481,193.677,197.947z
			 M193.677,181.783c1.181,0,2.392,1.184,3.323,3.248c0.069,0.153,0.139,0.314,0.206,0.482c-1.139,0.562-2.325,1.23-3.529,1.991
			c-1.204-0.76-2.391-1.429-3.529-1.991c0.068-0.168,0.137-0.33,0.206-0.482C191.285,182.967,192.497,181.783,193.677,181.783z
			 M204.6,201.815c-0.164,0.221-0.565,0.342-1.13,0.342c-1.054,0-2.528-0.397-4.27-1.15c0.552-1.811,0.892-3.908,0.984-6.078
			c0.053-0.049,0.106-0.097,0.158-0.145c1.058,1.044,1.96,2.063,2.684,3.032C204.825,200.225,204.862,201.463,204.6,201.815z
			 M203.955,188.13c-0.846,0-1.533,0.688-1.533,1.533c0,0.184,0.032,0.363,0.096,0.534c-0.624,0.771-1.354,1.57-2.175,2.379
			c-0.052-0.048-0.105-0.096-0.158-0.144c-0.093-2.171-0.433-4.269-0.984-6.079c1.741-0.753,3.216-1.15,4.27-1.15
			c0.564,0,0.966,0.122,1.131,0.342c0.223,0.3,0.188,1.155-0.634,2.584C203.963,188.13,203.959,188.13,203.955,188.13z
			 M182.753,185.545c0.165-0.221,0.566-0.342,1.131-0.342c0.225,0,0.477,0.019,0.75,0.058c0.217,0.601,0.797,1.014,1.442,1.014
			c0.361,0,0.708-0.127,0.984-0.359c0.356,0.131,0.723,0.278,1.093,0.438c-0.552,1.811-0.892,3.908-0.984,6.079
			c-0.053,0.048-0.106,0.096-0.159,0.144c-1.057-1.043-1.959-2.063-2.683-3.032C182.528,187.135,182.492,185.897,182.753,185.545z
			 M187.01,194.784c0.053,0.048,0.105,0.096,0.159,0.144c0.093,2.171,0.433,4.269,0.984,6.079c-1.741,0.753-3.215,1.15-4.269,1.15
			c-0.565,0-0.966-0.122-1.131-0.342c-0.262-0.353-0.225-1.59,1.574-3.999C185.051,196.846,185.953,195.828,187.01,194.784z"/>
		<linearGradient id="SVGID_2_" gradientUnits="userSpaceOnUse" x1="191.2373" y1="193.6804" x2="196.1162" y2="193.6804">
			<stop  offset="0" style="stop-color:#5E55D7"/>
			<stop  offset="1" style="stop-color:#5C83E3"/>
		</linearGradient>
		<path fill="url(#SVGID_2_)" d="M193.677,191.24c-1.345,0-2.439,1.094-2.439,2.439s1.094,2.44,2.439,2.44
			c1.346,0,2.439-1.095,2.439-2.44S195.021,191.24,193.677,191.24z"/>
	</g>
</g>
</svg>
