<?xml version="1.0" encoding="utf-8"?>
<!-- Generator: Adobe Illustrator 16.0.0, SVG Export Plug-In . SVG Version: 6.00 Build 0)  -->
<!DOCTYPE svg PUBLIC "-//W3C//DTD SVG 1.1//EN" "http://www.w3.org/Graphics/SVG/1.1/DTD/svg11.dtd">
<svg version="1.1" id="Capa_1" xmlns="http://www.w3.org/2000/svg" xmlns:xlink="http://www.w3.org/1999/xlink" x="0px" y="0px"
	 width="30px" height="30px" viewBox="241 241 30 30" enable-background="new 241 241 30 30" xml:space="preserve">
<linearGradient id="SVGID_1_" gradientUnits="userSpaceOnUse" x1="242.5" y1="256" x2="269.5" y2="256">
	<stop  offset="0" style="stop-color:#5E55D7"/>
	<stop  offset="1" style="stop-color:#5C83E3"/>
</linearGradient>
<path fill="url(#SVGID_1_)" d="M265.19,248.273h-1.92v-1.878c0-1.801-1.464-3.266-3.265-3.266h-8.012
	c-1.8,0-3.265,1.465-3.265,3.266v1.878h-1.919c-2.376,0-4.31,1.933-4.31,4.31v11.978c0,2.376,1.933,4.31,4.31,4.31h18.381
	c2.376,0,4.31-1.934,4.31-4.31v-11.978C269.5,250.206,267.566,248.273,265.19,248.273z M250.116,246.396
	c0-1.036,0.843-1.879,1.878-1.879h8.012c1.035,0,1.878,0.843,1.878,1.879v1.878h-11.768V246.396z M268.113,264.561
	c0,1.611-1.312,2.923-2.923,2.923H246.81c-1.611,0-2.923-1.312-2.923-2.923v-11.978c0-1.611,1.312-2.923,2.923-2.923h18.381
	c1.611,0,2.923,1.312,2.923,2.923V264.561L268.113,264.561z M260.613,255.945h-1.987v-1.987c0-0.786-0.64-1.426-1.426-1.426h-2.4
	c-0.786,0-1.426,0.64-1.426,1.426v1.987h-1.987c-0.787,0-1.426,0.64-1.426,1.427v2.399c0,0.787,0.64,1.427,1.426,1.427h1.987v1.986
	c0,0.787,0.64,1.427,1.426,1.427h2.4c0.786,0,1.426-0.64,1.426-1.427v-1.986h1.987c0.786,0,1.426-0.64,1.426-1.427v-2.399
	C262.039,256.585,261.399,255.945,260.613,255.945z M260.652,259.771c0,0.021-0.019,0.04-0.039,0.04h-2.681
	c-0.383,0-0.693,0.31-0.693,0.693v2.68c0,0.021-0.02,0.04-0.039,0.04h-2.4c-0.02,0-0.039-0.02-0.039-0.04v-2.68
	c0-0.384-0.311-0.693-0.693-0.693h-2.681c-0.02,0-0.04-0.02-0.04-0.04v-2.399c0-0.021,0.019-0.04,0.04-0.04h2.681
	c0.383,0,0.693-0.31,0.693-0.693v-2.681c0-0.02,0.02-0.039,0.039-0.039h2.4c0.02,0,0.039,0.02,0.039,0.039v2.681
	c0,0.384,0.311,0.693,0.693,0.693h2.681c0.021,0,0.039,0.02,0.039,0.04V259.771z"/>
</svg>
