<?xml version="1.0" encoding="utf-8"?>
<!-- Generator: Adobe Illustrator 16.0.0, SVG Export Plug-In . SVG Version: 6.00 Build 0)  -->
<!DOCTYPE svg PUBLIC "-//W3C//DTD SVG 1.1//EN" "http://www.w3.org/Graphics/SVG/1.1/DTD/svg11.dtd">
<svg version="1.1" id="Layer_1" xmlns="http://www.w3.org/2000/svg" xmlns:xlink="http://www.w3.org/1999/xlink" x="0px" y="0px"
	 width="30px" height="30px" viewBox="241 241 30 30" enable-background="new 241 241 30 30" xml:space="preserve">
<g>
	<linearGradient id="SVGID_1_" gradientUnits="userSpaceOnUse" x1="254.5679" y1="253.5645" x2="257.4316" y2="253.5645">
		<stop  offset="0" style="stop-color:#5E55D7"/>
		<stop  offset="1" style="stop-color:#5C83E3"/>
	</linearGradient>
	<path fill="url(#SVGID_1_)" d="M257.082,253.495c-0.427-0.553-0.791-1.14-1.082-1.737c-0.292,0.597-0.655,1.185-1.083,1.737
		c-0.111,0.144-0.228,0.279-0.35,0.407c0.537,0.605,1.062,1.122,1.432,1.469c0.37-0.348,0.896-0.865,1.432-1.469
		C257.311,253.774,257.193,253.639,257.082,253.495z"/>
	<linearGradient id="SVGID_2_" gradientUnits="userSpaceOnUse" x1="243.4976" y1="258.4531" x2="268.502" y2="258.4531">
		<stop  offset="0" style="stop-color:#5E55D7"/>
		<stop  offset="1" style="stop-color:#5C83E3"/>
	</linearGradient>
	<path fill="url(#SVGID_2_)" d="M268.502,254.015c0-1.047-0.372-2.039-1.049-2.792c-0.554-0.617-1.26-1.02-2.031-1.17
		c-0.748-2.255-2.037-2.735-3.833-2.632c0.366,0.344,0.718,0.733,1.047,1.159c1.966,2.544,1.241,6.584,1.21,6.754l-0.117,0.628
		l-0.639,0.021c-0.014,0-0.055,0.001-0.117,0.001c-0.514,0-2.539-0.07-4.289-1.099c-1.079,1.228-2.118,2.119-2.168,2.162
		L256,257.486l-0.516-0.439c-0.05-0.043-1.089-0.934-2.167-2.162c-1.751,1.029-3.775,1.099-4.289,1.099
		c-0.064,0-0.104-0.001-0.118-0.001l-0.639-0.021l-0.117-0.628c-0.032-0.17-0.755-4.21,1.21-6.754
		c0.328-0.425,0.678-0.811,1.042-1.154c-0.792-0.049-1.654,0-2.389,0.449c-0.687,0.42-1.182,1.125-1.537,2.198
		c-1.712,0.384-2.983,2.011-2.983,3.943c0,1.472,0.734,2.791,1.889,3.497c-0.083,0.334-0.125,0.679-0.125,1.031
		c0,1.53,0.806,2.901,2.034,3.581c-0.071,0.311-0.106,0.63-0.106,0.957c0,2.046,1.431,3.74,3.277,3.995
		c0.588,1.453,1.936,2.424,3.45,2.424c0.753,0,1.472-0.235,2.083-0.673c0.611,0.438,1.33,0.673,2.084,0.673
		c1.514,0,2.861-0.971,3.449-2.424c1.846-0.255,3.277-1.949,3.277-3.995c0-0.327-0.036-0.646-0.106-0.957
		c1.228-0.68,2.034-2.051,2.034-3.581c0-0.353-0.042-0.697-0.125-1.031C267.768,256.806,268.502,255.486,268.502,254.015z"/>
	<linearGradient id="SVGID_3_" gradientUnits="userSpaceOnUse" x1="255.2056" y1="244.458" x2="258.8965" y2="244.458">
		<stop  offset="0" style="stop-color:#5E55D7"/>
		<stop  offset="1" style="stop-color:#5C83E3"/>
	</linearGradient>
	<path fill="url(#SVGID_3_)" d="M256,246.416c0.038-0.04,0.076-0.078,0.116-0.115c0.202-0.186,0.429-0.333,0.678-0.44v-0.06
		c0-0.62,0.347-1.164,0.861-1.354l1.241-0.458l-0.549-1.49l-1.242,0.458c-1.136,0.419-1.9,1.562-1.9,2.844v0.06
		c0.249,0.108,0.476,0.255,0.678,0.44C255.924,246.338,255.962,246.376,256,246.416z"/>
	<linearGradient id="SVGID_4_" gradientUnits="userSpaceOnUse" x1="256.7939" y1="250.8008" x2="262.4121" y2="250.8008">
		<stop  offset="0" style="stop-color:#5E55D7"/>
		<stop  offset="1" style="stop-color:#5C83E3"/>
	</linearGradient>
	<path fill="url(#SVGID_4_)" d="M260.238,250.338l-1.27,0.954l-2.162-2.879c-0.008,0.085-0.013,0.174-0.013,0.267
		c0,0.019,0.001,0.039,0,0.058c0.004,0.195,0.024,0.404,0.062,0.625c0.179,1.031,0.705,2.154,1.484,3.163
		c1.078,1.397,3.009,1.752,4.027,1.842c0.1-1.118,0.129-3.369-0.988-4.816c-1.017-1.316-2.331-2.222-3.349-2.309
		c-0.042-0.003-0.082-0.005-0.122-0.006L260.238,250.338z"/>
	<linearGradient id="SVGID_5_" gradientUnits="userSpaceOnUse" x1="249.585" y1="250.7993" x2="255.2061" y2="250.7993">
		<stop  offset="0" style="stop-color:#5E55D7"/>
		<stop  offset="1" style="stop-color:#5C83E3"/>
	</linearGradient>
	<path fill="url(#SVGID_5_)" d="M250.621,249.55c-1.122,1.453-1.091,3.697-0.99,4.814c1.02-0.091,2.957-0.45,4.029-1.839
		c0.779-1.008,1.306-2.131,1.483-3.163c0.061-0.35,0.076-0.67,0.05-0.95l-2.162,2.879l-1.27-0.954l2.33-3.103
		c-0.04,0-0.08,0.002-0.122,0.006C252.952,247.328,251.638,248.234,250.621,249.55z"/>
</g>
</svg>
