<?xml version="1.0" encoding="utf-8"?>
<!-- Generator: Adobe Illustrator 16.0.0, SVG Export Plug-In . SVG Version: 6.00 Build 0)  -->
<!DOCTYPE svg PUBLIC "-//W3C//DTD SVG 1.1//EN" "http://www.w3.org/Graphics/SVG/1.1/DTD/svg11.dtd">
<svg version="1.1" id="Layer_1" xmlns="http://www.w3.org/2000/svg" xmlns:xlink="http://www.w3.org/1999/xlink" x="0px" y="0px"
	 width="30px" height="30px" viewBox="241 241 30 30" enable-background="new 241 241 30 30" xml:space="preserve">
<g>
	<title>ionic-logo-landscape</title>
	<g>
		<linearGradient id="SVGID_1_" gradientUnits="userSpaceOnUse" x1="249.3486" y1="255.5068" x2="261.6533" y2="255.5068">
			<stop  offset="0" style="stop-color:#5E55D7"/>
			<stop  offset="1" style="stop-color:#5C83E3"/>
		</linearGradient>
		<path fill="url(#SVGID_1_)" d="M255.501,249.355c-3.398,0-6.152,2.755-6.152,6.152c0,3.398,2.754,6.152,6.152,6.152
			c3.397,0,6.152-2.754,6.152-6.152l0,0C261.649,252.111,258.897,249.359,255.501,249.355z"/>
		<linearGradient id="SVGID_2_" gradientUnits="userSpaceOnUse" x1="261.5322" y1="247.0977" x2="267.1367" y2="247.0977">
			<stop  offset="0" style="stop-color:#5E55D7"/>
			<stop  offset="1" style="stop-color:#5C83E3"/>
		</linearGradient>
		<circle fill="url(#SVGID_2_)" cx="264.334" cy="247.098" r="2.803"/>
		<linearGradient id="SVGID_3_" gradientUnits="userSpaceOnUse" x1="242.001" y1="255.501" x2="269.001" y2="255.501">
			<stop  offset="0" style="stop-color:#5E55D7"/>
			<stop  offset="1" style="stop-color:#5C83E3"/>
		</linearGradient>
		<path fill="url(#SVGID_3_)" d="M267.785,249.916l-0.117-0.258l-0.185,0.214c-0.459,0.521-1.04,0.921-1.691,1.164l-0.184,0.066
			l0.074,0.184c2.34,5.626-0.325,12.086-5.953,14.426c-5.627,2.34-12.086-0.324-14.426-5.953c-2.34-5.627,0.324-12.087,5.952-14.427
			c2.886-1.2,6.146-1.12,8.971,0.221l0.172,0.083l0.075-0.184c0.275-0.639,0.702-1.199,1.245-1.633l0.221-0.184l-0.251-0.13
			c-1.912-0.994-4.035-1.51-6.189-1.505c-7.455,0.002-13.499,6.047-13.498,13.502c0.001,7.457,6.046,13.5,13.502,13.498
			c7.456,0,13.499-6.045,13.498-13.501c0-1.933-0.416-3.843-1.218-5.601L267.785,249.916z"/>
	</g>
</g>
</svg>
