<?xml version="1.0" encoding="utf-8"?>
<!-- Generator: Adobe Illustrator 16.0.0, SVG Export Plug-In . SVG Version: 6.00 Build 0)  -->
<!DOCTYPE svg PUBLIC "-//W3C//DTD SVG 1.1//EN" "http://www.w3.org/Graphics/SVG/1.1/DTD/svg11.dtd">
<svg version="1.1" id="Layer_1" xmlns="http://www.w3.org/2000/svg" xmlns:xlink="http://www.w3.org/1999/xlink" x="0px" y="0px"
	 width="30px" height="30px" viewBox="241 241 30 30" enable-background="new 241 241 30 30" xml:space="preserve">
<g id="surface1">
	<linearGradient id="SVGID_1_" gradientUnits="userSpaceOnUse" x1="245.8901" y1="262.293" x2="266.1094" y2="262.293">
		<stop  offset="0" style="stop-color:#5E55D7"/>
		<stop  offset="1" style="stop-color:#5C83E3"/>
	</linearGradient>
	<path fill="url(#SVGID_1_)" d="M265.383,257.34c-0.469-0.47-1.094-0.729-1.758-0.729s-1.287,0.259-1.758,0.729l-1.797,1.797
		c-0.012-2.235-1.832-4.05-4.07-4.05c-2.238,0-4.059,1.815-4.071,4.05l-1.797-1.798c-0.469-0.469-1.093-0.728-1.757-0.728
		s-1.288,0.259-1.757,0.729c-0.969,0.969-0.969,2.545,0,3.515l5.203,5.203v2.651c0,0.437,0.354,0.791,0.791,0.791h6.778
		c0.438,0,0.791-0.354,0.791-0.791v-2.651l5.203-5.203C266.352,259.885,266.352,258.309,265.383,257.34z M256,256.668
		c1.373,0,2.489,1.117,2.489,2.489c0,1.373-1.116,2.49-2.489,2.49c-1.373,0-2.489-1.117-2.489-2.49
		C253.511,257.785,254.627,256.668,256,256.668z M264.264,259.735l-5.434,5.435c-0.148,0.148-0.232,0.35-0.232,0.56v2.188h-5.196
		v-2.188c0-0.21-0.083-0.411-0.231-0.56l-5.435-5.435c-0.352-0.352-0.352-0.925,0-1.277c0.17-0.171,0.397-0.265,0.639-0.265
		s0.468,0.094,0.639,0.265l4.539,4.539c0.148,0.148,0.35,0.232,0.56,0.232h3.775c0.21,0,0.411-0.084,0.56-0.232l4.539-4.539
		c0.171-0.171,0.398-0.265,0.639-0.265c0.242,0,0.469,0.094,0.639,0.265C264.617,258.811,264.617,259.384,264.264,259.735z"/>
	<linearGradient id="SVGID_2_" gradientUnits="userSpaceOnUse" x1="249.9131" y1="248.3271" x2="262.0859" y2="248.3271">
		<stop  offset="0" style="stop-color:#5E55D7"/>
		<stop  offset="1" style="stop-color:#5C83E3"/>
	</linearGradient>
	<path fill="url(#SVGID_2_)" d="M252.502,249.996l-0.555,3.234c-0.051,0.297,0.071,0.597,0.315,0.773
		c0.138,0.1,0.301,0.151,0.465,0.151c0.126,0,0.252-0.03,0.368-0.091l2.905-1.527l2.904,1.527c0.116,0.061,0.242,0.091,0.368,0.091
		c0.001,0,0.002,0,0.003,0c0.436-0.001,0.789-0.355,0.789-0.791c0-0.061-0.006-0.12-0.02-0.177l-0.547-3.191l2.35-2.291
		c0.215-0.21,0.293-0.525,0.2-0.811c-0.093-0.287-0.341-0.495-0.639-0.539l-3.247-0.472l-1.453-2.943
		c-0.133-0.27-0.408-0.441-0.709-0.441c-0.301,0-0.576,0.171-0.709,0.441l-1.452,2.943l-3.248,0.472
		c-0.298,0.043-0.545,0.252-0.639,0.539c-0.093,0.286-0.015,0.601,0.2,0.811L252.502,249.996z M254.478,247.39
		c0.257-0.038,0.48-0.199,0.595-0.433l0.927-1.878l0.927,1.878c0.115,0.233,0.338,0.395,0.596,0.433l2.073,0.301l-1.5,1.462
		c-0.187,0.182-0.271,0.444-0.228,0.7l0.354,2.064l-1.854-0.975c-0.115-0.061-0.242-0.091-0.368-0.091s-0.253,0.031-0.368,0.091
		l-1.854,0.975l0.354-2.064c0.044-0.256-0.041-0.519-0.227-0.7l-1.5-1.462L254.478,247.39z"/>
</g>
</svg>
