<?xml version="1.0" encoding="utf-8"?>
<!-- Generator: Adobe Illustrator 16.0.0, SVG Export Plug-In . SVG Version: 6.00 Build 0)  -->
<!DOCTYPE svg PUBLIC "-//W3C//DTD SVG 1.1//EN" "http://www.w3.org/Graphics/SVG/1.1/DTD/svg11.dtd">
<svg version="1.1" id="touch" xmlns="http://www.w3.org/2000/svg" xmlns:xlink="http://www.w3.org/1999/xlink" x="0px" y="0px"
	 width="30px" height="30px" viewBox="241 241 30 30" enable-background="new 241 241 30 30" xml:space="preserve">
<g>
	<linearGradient id="SVGID_1_" gradientUnits="userSpaceOnUse" x1="249.2075" y1="265.5723" x2="250.8843" y2="265.5723">
		<stop  offset="0" style="stop-color:#5E55D7"/>
		<stop  offset="1" style="stop-color:#5C83E3"/>
	</linearGradient>
	<circle fill="url(#SVGID_1_)" cx="250.046" cy="265.572" r="0.838"/>
	<linearGradient id="SVGID_2_" gradientUnits="userSpaceOnUse" x1="242.5" y1="256" x2="269.5" y2="256">
		<stop  offset="0" style="stop-color:#5E55D7"/>
		<stop  offset="1" style="stop-color:#5C83E3"/>
	</linearGradient>
	<path fill="url(#SVGID_2_)" d="M269.254,260.766l-2.006-2.006l-0.024-0.847c-0.064-2.145-0.936-4.161-2.45-5.677l-0.654-0.653
		c-0.944-0.943-2.402-1.125-3.531-0.447l-2.996,1.695v-7.315c0-1.424-1.276-2.581-2.845-2.581h-9.401
		c-1.569,0-2.845,1.157-2.845,2.581v17.541v3.024c0,1.568,1.276,2.845,2.845,2.845h9.401c1.511,0,2.739-1.188,2.828-2.677
		c1.326,0.638,2.554,1.499,3.626,2.571c0.163,0.164,0.378,0.245,0.593,0.245c0.214,0,0.429-0.081,0.593-0.245
		c0.327-0.328,0.327-0.858,0-1.186c-3.196-3.195-7.609-4.748-12.095-4.274l-0.381,0.041c-0.073-0.118-0.116-0.239-0.14-0.36
		c0-0.015-0.007-0.026-0.008-0.04c-0.018-0.123-0.014-0.246,0.021-0.366c0.144-0.501,0.727-0.913,1.558-1.104l2.544-0.581
		c0.297-0.068,0.535-0.292,0.619-0.585c0.084-0.294,0.003-0.609-0.212-0.825l-5.478-5.478c-0.318-0.318-0.388-0.817-0.159-1.137
		c0.15-0.209,0.371-0.335,0.62-0.355c0.247-0.023,0.487,0.068,0.662,0.243l3.558,3.558l1.778,1.778
		c0.164,0.163,0.378,0.245,0.593,0.245c0.215,0,0.429-0.082,0.593-0.245c0.327-0.328,0.327-0.858,0-1.187l-0.999-0.998l1.533-0.868
		c0.021,0.028,0.032,0.062,0.058,0.088l0.593,0.594c0.164,0.163,0.379,0.245,0.594,0.245s0.429-0.082,0.593-0.244
		c0.327-0.328,0.327-0.858,0.001-1.187l-0.342-0.343l1.518-0.858c0.004,0.005,0.006,0.011,0.01,0.015l0.593,0.593
		c0.164,0.163,0.378,0.245,0.593,0.245s0.429-0.081,0.593-0.245c0.327-0.328,0.327-0.858,0-1.186l-0.266-0.267
		c0.468-0.229,1.032-0.152,1.406,0.223l0.653,0.653c1.213,1.212,1.909,2.825,1.96,4.54l0.034,1.18
		c0.007,0.214,0.095,0.417,0.246,0.568l2.242,2.24c0.327,0.328,0.857,0.328,1.186,0
		C269.581,261.624,269.582,261.094,269.254,260.766L269.254,260.766z M250.468,265.027c1.867-0.197,3.714,0.015,5.447,0.573v0.48
		c0,0.644-0.524,1.168-1.168,1.168h-9.401c-0.645,0-1.168-0.524-1.168-1.168v-2.186h4.106c0.149,0.349,0.373,0.682,0.672,0.98
		c0.18,0.18,0.43,0.269,0.682,0.241L250.468,265.027z M249.139,250.898c-0.736,0.06-1.409,0.441-1.846,1.048
		c-0.708,0.984-0.565,2.403,0.334,3.302l4.405,4.405l-1.065,0.243c-1.457,0.333-2.475,1.161-2.796,2.274
		c-0.004,0.016-0.006,0.031-0.01,0.047h-3.984v-16.702c0-0.49,0.535-0.904,1.168-0.904h9.401c0.634,0,1.168,0.414,1.168,0.904v8.264
		l-1.688,0.955l-3.107-3.106C250.599,251.105,249.88,250.847,249.139,250.898L249.139,250.898z"/>
</g>
</svg>
