<?xml version="1.0" encoding="utf-8"?>
<!-- Generator: Adobe Illustrator 16.0.0, SVG Export Plug-In . SVG Version: 6.00 Build 0)  -->
<!DOCTYPE svg PUBLIC "-//W3C//DTD SVG 1.1//EN" "http://www.w3.org/Graphics/SVG/1.1/DTD/svg11.dtd">
<svg version="1.1" id="Layer_1" xmlns="http://www.w3.org/2000/svg" xmlns:xlink="http://www.w3.org/1999/xlink" x="0px" y="0px"
	 width="30px" height="30px" viewBox="241 241 30 30" enable-background="new 241 241 30 30" xml:space="preserve">
<g>
	<g>
		<linearGradient id="SVGID_1_" gradientUnits="userSpaceOnUse" x1="242.5" y1="256" x2="269.5" y2="256">
			<stop  offset="0" style="stop-color:#5E55D7"/>
			<stop  offset="1" style="stop-color:#5C83E3"/>
		</linearGradient>
		<path fill="url(#SVGID_1_)" d="M269.5,245.971l-4.05,0.579l0.578-4.05l-3.08,3.081c-2.097-1.428-4.63-2.262-7.357-2.262
			c-7.23,0-13.091,5.861-13.091,13.091c0,7.229,5.861,13.091,13.091,13.091c7.229,0,13.091-5.861,13.091-13.091
			c0-2.728-0.835-5.261-2.262-7.357L269.5,245.971z M263.112,263.93c-2.01,2.01-4.681,3.116-7.521,3.116s-5.512-1.106-7.521-3.116
			c-2.009-2.009-3.115-4.68-3.115-7.521c0-2.841,1.106-5.512,3.115-7.521c2.009-2.009,4.68-3.116,7.521-3.116
			c2.428,0,4.731,0.809,6.604,2.297l-2.925,2.925c-1.049-0.714-2.314-1.131-3.679-1.131c-3.615,0-6.545,2.93-6.545,6.545
			s2.931,6.545,6.545,6.545c3.615,0,6.546-2.93,6.546-6.545c0-1.364-0.418-2.63-1.132-3.679l2.925-2.925
			c1.489,1.872,2.298,4.175,2.298,6.604C266.228,259.25,265.121,261.921,263.112,263.93z M255.05,256.949
			c0.24,0.24,0.554,0.359,0.868,0.359c0.314,0,0.629-0.119,0.868-0.359l2.431-2.431c0.297,0.566,0.465,1.209,0.465,1.891
			c0,2.256-1.835,4.091-4.091,4.091s-4.091-1.835-4.091-4.091s1.835-4.091,4.091-4.091c0.682,0,1.324,0.168,1.891,0.465
			l-2.431,2.431C254.571,255.693,254.571,256.47,255.05,256.949z"/>
	</g>
</g>
</svg>
