<?xml version="1.0" encoding="utf-8"?>
<!-- Generator: Adobe Illustrator 16.0.0, SVG Export Plug-In . SVG Version: 6.00 Build 0)  -->
<!DOCTYPE svg PUBLIC "-//W3C//DTD SVG 1.1//EN" "http://www.w3.org/Graphics/SVG/1.1/DTD/svg11.dtd">
<svg version="1.1" id="Layer_2" xmlns="http://www.w3.org/2000/svg" xmlns:xlink="http://www.w3.org/1999/xlink" x="0px" y="0px"
	 width="30px" height="30px" viewBox="0 0 30 30" enable-background="new 0 0 30 30" xml:space="preserve">
<g>
	
		<linearGradient id="SVGID_1_" gradientUnits="userSpaceOnUse" x1="62.5918" y1="-123.9736" x2="67.418" y2="-123.9736" gradientTransform="matrix(1 0 0 -1 -50 -109)">
		<stop  offset="0" style="stop-color:#5E55D7"/>
		<stop  offset="1" style="stop-color:#5C83E3"/>
	</linearGradient>
	<circle fill="url(#SVGID_1_)" cx="15.004" cy="14.974" r="2.413"/>
	<g>
		
			<linearGradient id="SVGID_2_" gradientUnits="userSpaceOnUse" x1="51.5" y1="-123.9976" x2="78.5" y2="-123.9976" gradientTransform="matrix(1 0 0 -1 -50 -109)">
			<stop  offset="0" style="stop-color:#5E55D7"/>
			<stop  offset="1" style="stop-color:#5C83E3"/>
		</linearGradient>
		<path fill="url(#SVGID_2_)" d="M15.004,20.5c-3.388,0-6.35-0.398-8.564-1.158c-1.437-0.49-2.657-1.143-3.527-1.889
			C1.989,16.666,1.5,15.805,1.5,14.975c0-1.597,1.749-3.158,4.687-4.178C8.588,9.961,11.723,9.495,15,9.495
			c3.219,0,6.309,0.452,8.7,1.278c1.396,0.48,2.574,1.104,3.412,1.797c0.908,0.76,1.389,1.591,1.389,2.402
			c0,1.657-1.955,3.336-5.109,4.379C21.162,20.092,18.182,20.5,15.004,20.5z M15.004,10.648c-3.109,0-6.186,0.451-8.434,1.234
			c-2.701,0.942-3.912,2.23-3.912,3.09c0,0.895,1.302,2.303,4.156,3.278c2.096,0.715,4.932,1.097,8.189,1.097
			c3.056,0,5.908-0.386,8.025-1.093c2.967-0.983,4.322-2.394,4.322-3.282c0-0.457-0.348-0.994-0.977-1.519
			c-0.727-0.604-1.783-1.158-3.047-1.595C21.057,11.081,18.1,10.648,15.004,10.648z"/>
	</g>
	<g>
		
			<linearGradient id="SVGID_3_" gradientUnits="userSpaceOnUse" x1="56.7227" y1="-123.9932" x2="73.2686" y2="-123.9932" gradientTransform="matrix(1 0 0 -1 -50 -109)">
			<stop  offset="0" style="stop-color:#5E55D7"/>
			<stop  offset="1" style="stop-color:#5C83E3"/>
		</linearGradient>
		<path fill="url(#SVGID_3_)" d="M9.532,26.998c-0.49,0-0.924-0.105-1.288-0.316c-1.379-0.799-1.86-3.096-1.278-6.147
			c0.477-2.505,1.639-5.444,3.277-8.285c1.609-2.788,3.542-5.239,5.449-6.896c1.115-0.972,2.246-1.683,3.266-2.058
			c1.109-0.409,2.07-0.409,2.771-0.005c1.438,0.827,1.912,3.363,1.24,6.613c-0.477,2.307-1.609,5.089-3.195,7.843
			c-1.691,2.932-3.52,5.297-5.282,6.84c-1.144,1-2.321,1.729-3.397,2.108C10.53,26.896,10.001,26.998,9.532,26.998z M10.737,12.537
			l0.5,0.289c-1.551,2.689-2.7,5.578-3.143,7.925c-0.533,2.813-0.02,4.504,0.721,4.933c0.184,0.104,0.424,0.162,0.717,0.162
			c0.955,0,2.46-0.605,4.199-2.123c1.668-1.457,3.414-3.726,5.042-6.548c1.527-2.647,2.613-5.31,3.066-7.497
			c0.629-3.062,0.086-4.936-0.689-5.383c-0.395-0.227-1.031-0.197-1.801,0.087c-0.891,0.327-1.895,0.966-2.904,1.845
			c-1.811,1.578-3.661,3.922-5.208,6.604L10.737,12.537z"/>
	</g>
	<g>
		
			<linearGradient id="SVGID_4_" gradientUnits="userSpaceOnUse" x1="56.7285" y1="-124.0117" x2="73.3115" y2="-124.0117" gradientTransform="matrix(1 0 0 -1 -50 -109)">
			<stop  offset="0" style="stop-color:#5E55D7"/>
			<stop  offset="1" style="stop-color:#5C83E3"/>
		</linearGradient>
		<path fill="url(#SVGID_4_)" d="M20.479,27.012c-1.307,0-2.965-0.787-4.693-2.277c-1.933-1.661-3.898-4.139-5.542-6.979l0,0
			c-1.615-2.787-2.768-5.686-3.254-8.17C6.706,8.135,6.653,6.803,6.835,5.732c0.202-1.168,0.679-2,1.384-2.408
			c1.432-0.832,3.869,0.023,6.35,2.229c1.759,1.563,3.603,3.937,5.195,6.685c1.695,2.933,2.834,5.695,3.287,7.992
			c0.293,1.49,0.34,2.875,0.135,4c-0.223,1.195-0.721,2.047-1.441,2.465C21.383,26.906,20.955,27.012,20.479,27.012z M11.243,17.18
			c1.557,2.691,3.488,5.127,5.296,6.68c2.166,1.865,3.887,2.271,4.633,1.836c0.771-0.446,1.34-2.276,0.754-5.237
			c-0.434-2.172-1.523-4.815-3.158-7.638c-1.533-2.647-3.296-4.92-4.962-6.4c-2.337-2.076-4.229-2.542-5.004-2.096
			C8.407,4.55,8.114,5.122,7.975,5.93C7.817,6.861,7.864,8.053,8.125,9.365C8.584,11.725,9.69,14.498,11.243,17.18L11.243,17.18z"/>
	</g>
</g>
</svg>
