<?xml version="1.0" encoding="utf-8"?>
<!-- Generator: Adobe Illustrator 16.0.0, SVG Export Plug-In . SVG Version: 6.00 Build 0)  -->
<!DOCTYPE svg PUBLIC "-//W3C//DTD SVG 1.1//EN" "http://www.w3.org/Graphics/SVG/1.1/DTD/svg11.dtd">
<svg version="1.1" id="Layer_1" xmlns="http://www.w3.org/2000/svg" xmlns:xlink="http://www.w3.org/1999/xlink" x="0px" y="0px"
	 width="30px" height="30px" viewBox="0 0 30 30" enable-background="new 0 0 30 30" xml:space="preserve">
<g transform="matrix(.061615 0 0 .061615 -1.430818 -1.2754)">
	<g>
		<g>
			
				<linearGradient id="SVGID_2_" gradientUnits="userSpaceOnUse" x1="74095.7188" y1="-100086.1953" x2="74117.5234" y2="-100086.1953" gradientTransform="matrix(0.0616 0 0 -0.0616 -4475.688 -5902.6704)">
				<stop  offset="0" style="stop-color:#5E55D7"/>
				<stop  offset="1" style="stop-color:#5C83E3"/>
			</linearGradient>
			<path id="SVGID_1_" fill="url(#SVGID_2_)" d="M443.612,247.251L325.66,365.25l117.952,117.999H308.797L190.814,365.25
				l117.983-117.999H443.612z M308.797,45.044L89.726,264.115l67.423,67.423L443.612,45.044H308.797L308.797,45.044z"/>
		</g>
		<g>
			<defs>
				<path id="SVGID_3_" d="M443.612,247.251L325.66,365.25l117.952,117.999H308.797L190.814,365.25l117.983-117.999H443.612z
					 M308.797,45.044L89.726,264.115l67.423,67.423L443.612,45.044H308.797L308.797,45.044z"/>
			</defs>
			<clipPath id="SVGID_4_">
				<use xlink:href="#SVGID_3_"  overflow="visible"/>
			</clipPath>
			<g clip-path="url(#SVGID_4_)">
				
					<linearGradient id="SVGID_6_" gradientUnits="userSpaceOnUse" x1="75737.2109" y1="-101316.4844" x2="75752.7813" y2="-101316.4844" gradientTransform="matrix(0.0616 0 0 -0.0616 -4475.688 -5902.6704)">
					<stop  offset="0" style="stop-color:#5E55D7"/>
					<stop  offset="1" style="stop-color:#5C83E3"/>
				</linearGradient>
				<path fill="url(#SVGID_6_)" d="M190.861,365.25l67.376,67.408l185.375-185.406H308.797L190.861,365.25z"/>
			</g>
		</g>
	</g>
	<g>
		<g>
			
				<linearGradient id="SVGID_7_" gradientUnits="userSpaceOnUse" x1="74095.7188" y1="-100086.1953" x2="74117.5234" y2="-100086.1953" gradientTransform="matrix(0.0616 0 0 -0.0616 -4475.688 -5902.6704)">
				<stop  offset="0" style="stop-color:#5E55D7"/>
				<stop  offset="1" style="stop-color:#5C83E3"/>
			</linearGradient>
			<path id="SVGID_5_" fill="url(#SVGID_7_)" d="M443.612,247.251L325.66,365.25l117.952,117.999H308.797L190.814,365.25
				l117.983-117.999H443.612z M308.797,45.044L89.726,264.115l67.423,67.423L443.612,45.044H308.797L308.797,45.044z"/>
		</g>
		<g>
			<defs>
				<path id="SVGID_8_" d="M443.612,247.251L325.66,365.25l117.952,117.999H308.797L190.814,365.25l117.983-117.999H443.612z
					 M308.797,45.044L89.726,264.115l67.423,67.423L443.612,45.044H308.797L308.797,45.044z"/>
			</defs>
			<clipPath id="SVGID_10_">
				<use xlink:href="#SVGID_8_"  overflow="visible"/>
			</clipPath>
			
				<linearGradient id="SVGID_11_" gradientUnits="userSpaceOnUse" x1="74095.7188" y1="-98855.1328" x2="74117.5234" y2="-98855.1328" gradientTransform="matrix(0.0616 0 0 -0.0616 -4475.688 -5902.6704)">
				<stop  offset="0" style="stop-color:#5E55D7"/>
				<stop  offset="1" style="stop-color:#5C83E3"/>
			</linearGradient>
			<path clip-path="url(#SVGID_10_)" fill="url(#SVGID_11_)" d="M308.797,45.044h134.815L157.149,331.539l-67.423-67.423
				L308.797,45.044z"/>
		</g>
	</g>
	<g>
		<g>
			
				<linearGradient id="SVGID_12_" gradientUnits="userSpaceOnUse" x1="74095.7188" y1="-100086.1953" x2="74117.5234" y2="-100086.1953" gradientTransform="matrix(0.0616 0 0 -0.0616 -4475.688 -5902.6704)">
				<stop  offset="0" style="stop-color:#5E55D7"/>
				<stop  offset="1" style="stop-color:#5C83E3"/>
			</linearGradient>
			<path id="SVGID_9_" fill="url(#SVGID_12_)" d="M443.612,247.251L325.66,365.25l117.952,117.999H308.797L190.814,365.25
				l117.983-117.999H443.612z M308.797,45.044L89.726,264.115l67.423,67.423L443.612,45.044H308.797L308.797,45.044z"/>
		</g>
		<g>
			<defs>
				<path id="SVGID_14_" d="M443.612,247.251L325.66,365.25l117.952,117.999H308.797L190.814,365.25l117.983-117.999H443.612z
					 M308.797,45.044L89.726,264.115l67.423,67.423L443.612,45.044H308.797L308.797,45.044z"/>
			</defs>
			<clipPath id="SVGID_15_">
				<use xlink:href="#SVGID_14_"  overflow="visible"/>
			</clipPath>
			
				<linearGradient id="SVGID_16_" gradientUnits="userSpaceOnUse" x1="76830.6953" y1="-102684.2266" x2="76842.1172" y2="-102684.2266" gradientTransform="matrix(0.0616 0 0 -0.0616 -4475.688 -5902.6704)">
				<stop  offset="0" style="stop-color:#5E55D7"/>
				<stop  offset="1" style="stop-color:#5C83E3"/>
			</linearGradient>
			<path clip-path="url(#SVGID_15_)" fill="url(#SVGID_16_)" d="M258.237,432.658l50.56,50.544h134.815L325.66,365.25
				L258.237,432.658z"/>
		</g>
	</g>
	<g>
		<g>
			
				<linearGradient id="SVGID_18_" gradientUnits="userSpaceOnUse" x1="74095.7188" y1="-100086.1953" x2="74117.5234" y2="-100086.1953" gradientTransform="matrix(0.0616 0 0 -0.0616 -4475.688 -5902.6704)">
				<stop  offset="0" style="stop-color:#5E55D7"/>
				<stop  offset="1" style="stop-color:#5C83E3"/>
			</linearGradient>
			<path id="SVGID_13_" fill="url(#SVGID_18_)" d="M443.612,247.251L325.66,365.25l117.952,117.999H308.797L190.814,365.25
				l117.983-117.999H443.612z M308.797,45.044L89.726,264.115l67.423,67.423L443.612,45.044H308.797L308.797,45.044z"/>
		</g>
		<g>
			<defs>
				<path id="SVGID_19_" d="M443.612,247.251L325.66,365.25l117.952,117.999H308.797L190.814,365.25l117.983-117.999H443.612z
					 M308.797,45.044L89.726,264.115l67.423,67.423L443.612,45.044H308.797L308.797,45.044z"/>
			</defs>
			<clipPath id="SVGID_20_">
				<use xlink:href="#SVGID_19_"  overflow="visible"/>
			</clipPath>
			
				<linearGradient id="SVGID_21_" gradientUnits="userSpaceOnUse" x1="55424.2969" y1="-132581.0938" x2="55428.6523" y2="-132585.4531" gradientTransform="matrix(0.0038 0 0 0.0038 -8916.8223 -11802.0137)">
				<stop  offset="0" style="stop-color:#5E55D7"/>
				<stop  offset="1" style="stop-color:#5C83E3"/>
			</linearGradient>
			<path clip-path="url(#SVGID_20_)" fill="url(#SVGID_21_)" d="M358.215,398.027L325.66,365.25l-67.423,67.408L358.215,398.027z"/>
		</g>
	</g>
	<g>
		<g>
			
				<linearGradient id="SVGID_22_" gradientUnits="userSpaceOnUse" x1="74095.7188" y1="-100086.1953" x2="74117.5234" y2="-100086.1953" gradientTransform="matrix(0.0616 0 0 -0.0616 -4475.688 -5902.6704)">
				<stop  offset="0" style="stop-color:#5E55D7"/>
				<stop  offset="1" style="stop-color:#5C83E3"/>
			</linearGradient>
			<path id="SVGID_17_" fill="url(#SVGID_22_)" d="M443.612,247.251L325.66,365.25l117.952,117.999H308.797L190.814,365.25
				l117.983-117.999H443.612z M308.797,45.044L89.726,264.115l67.423,67.423L443.612,45.044H308.797L308.797,45.044z"/>
		</g>
		<g>
			<defs>
				<path id="SVGID_23_" d="M443.612,247.251L325.66,365.25l117.952,117.999H308.797L190.814,365.25l117.983-117.999H443.612z
					 M308.797,45.044L89.726,264.115l67.423,67.423L443.612,45.044H308.797L308.797,45.044z"/>
			</defs>
			<clipPath id="SVGID_24_">
				<use xlink:href="#SVGID_23_"  overflow="visible"/>
			</clipPath>
			<g clip-path="url(#SVGID_24_)">
				
					<linearGradient id="SVGID_25_" gradientUnits="userSpaceOnUse" x1="75736.9531" y1="-101726.6719" x2="75745.2578" y2="-101726.6719" gradientTransform="matrix(0.0616 0 0 -0.0616 -4475.688 -5902.6704)">
					<stop  offset="0" style="stop-color:#5E55D7"/>
					<stop  offset="1" style="stop-color:#5C83E3"/>
				</linearGradient>
				<path fill="url(#SVGID_25_)" d="M190.845,365.219l67.423-67.407l67.423,67.407l-67.423,67.424L190.845,365.219z"/>
			</g>
		</g>
	</g>
	
		<linearGradient id="SVGID_26_" gradientUnits="userSpaceOnUse" x1="89.7261" y1="264.147" x2="111.5308" y2="264.147" gradientTransform="matrix(9.488710e-004 0 0 -9.488710e-004 -10906.4131 -12765.7324)">
		<stop  offset="0" style="stop-color:#5E55D7"/>
		<stop  offset="1" style="stop-color:#5C83E3"/>
	</linearGradient>
	<path fill="url(#SVGID_26_)" d="M443.612,247.251L325.66,365.25l117.952,117.999H308.797L190.814,365.25l117.983-117.999H443.612z
		 M308.797,45.044L89.726,264.115l67.423,67.423L443.612,45.044H308.797L308.797,45.044z"/>
</g>
</svg>
