<?xml version="1.0" encoding="utf-8"?>
<!-- Generator: Adobe Illustrator 16.0.0, SVG Export Plug-In . SVG Version: 6.00 Build 0)  -->
<!DOCTYPE svg PUBLIC "-//W3C//DTD SVG 1.1//EN" "http://www.w3.org/Graphics/SVG/1.1/DTD/svg11.dtd">
<svg version="1.1"
	 id="svg7430" xmlns:svg="http://www.w3.org/2000/svg" xmlns:rdf="http://www.w3.org/1999/02/22-rdf-syntax-ns#" xmlns:dc="http://purl.org/dc/elements/1.1/" xmlns:cc="http://creativecommons.org/ns#" xmlns:inkscape="http://www.inkscape.org/namespaces/inkscape" xmlns:sodipodi="http://sodipodi.sourceforge.net/DTD/sodipodi-0.dtd" inkscape:version="0.48.0 r9654" sodipodi:docname="New document 28"
	 xmlns="http://www.w3.org/2000/svg" xmlns:xlink="http://www.w3.org/1999/xlink" x="0px" y="0px" width="30px" height="30px"
	 viewBox="15.703 15.203 30 30" enable-background="new 15.703 15.203 30 30" xml:space="preserve">
<filter  id="filter6646" color-interpolation-filters="sRGB" inkscape:collect="always">
	<feGaussianBlur  stdDeviation="0.13181277" id="feGaussianBlur6648" inkscape:collect="always"></feGaussianBlur>
</filter>
<filter  id="filter6642" color-interpolation-filters="sRGB" inkscape:collect="always">
	<feGaussianBlur  stdDeviation="0.15860075" id="feGaussianBlur6644" inkscape:collect="always"></feGaussianBlur>
</filter>
<filter  id="filter6638" color-interpolation-filters="sRGB" inkscape:collect="always">
	<feGaussianBlur  stdDeviation="0.21808078" id="feGaussianBlur6640" inkscape:collect="always"></feGaussianBlur>
</filter>
<filter  id="filter6634" color-interpolation-filters="sRGB" inkscape:collect="always">
	<feGaussianBlur  stdDeviation="0.2942314" id="feGaussianBlur6636" inkscape:collect="always"></feGaussianBlur>
</filter>
<sodipodi:namedview  fit-margin-top="0" bordercolor="#666666" pagecolor="#ffffff" inkscape:zoom="0.35" inkscape:cx="30.69371" showgrid="false" inkscape:cy="30.209857" borderopacity="1.0" fit-margin-left="0" id="base" inkscape:pageshadow="2" fit-margin-bottom="0" inkscape:pageopacity="0.0" inkscape:window-width="465" inkscape:window-x="1004" fit-margin-right="0" inkscape:document-units="px" inkscape:window-height="459" inkscape:window-y="24" inkscape:current-layer="layer1" inkscape:window-maximized="0">
	</sodipodi:namedview>
<g id="layer1" transform="translate(-344.30629,-502.16579)" inkscape:label="Layer 1" inkscape:groupmode="layer">
	<g id="g6666" transform="translate(65.43129,-284.80296)">
		<linearGradient id="SVGID_1_" gradientUnits="userSpaceOnUse" x1="296.3379" y1="817.2769" x2="323.0977" y2="817.2769">
			<stop  offset="0" style="stop-color:#5E55D7"/>
			<stop  offset="1" style="stop-color:#5C83E3"/>
		</linearGradient>
		<path fill="url(#SVGID_1_)" stroke="#5B6DF4" stroke-width="1.5" stroke-linecap="round" stroke-linejoin="round" d="
			M323.098,807.602v19.36c0,1.92-1.56,3.47-3.479,3.47h-19.8c-1.92,0-3.48-1.55-3.48-3.47v-19.36c0-1.92,1.56-3.48,3.48-3.48h19.8
			C321.538,804.122,323.098,805.682,323.098,807.602z"/>
		<g>
			<defs>
				<path id="SVGID_2_" d="M300.045,804.307h19.831c1.912,0,3.464,1.557,3.464,3.478v19.355c0,1.921-1.552,3.478-3.464,3.478
					h-19.831c-1.913,0-3.464-1.557-3.464-3.478v-19.355C296.582,805.864,298.132,804.307,300.045,804.307z"/>
			</defs>
			<clipPath id="SVGID_3_">
				<use xlink:href="#SVGID_2_"  overflow="visible"/>
			</clipPath>
			
				<g id="path5872" sodipodi:cx="95.123322" sodipodi:rx="23.0602" sodipodi:start="0" sodipodi:type="arc" sodipodi:cy="477.94135" sodipodi:end="1.5681251" sodipodi:ry="23.0602" clip-path="url(#SVGID_3_)" filter="url(#filter6646)">
				
					<linearGradient id="SVGID_4_" gradientUnits="userSpaceOnUse" x1="54.3106" y1="500.3711" x2="50.1594" y2="504.5628" gradientTransform="matrix(0 -3.3685 -3.3545 0 2002.1836 986.8143)">
					<stop  offset="0" style="stop-color:#5E55D7"/>
					<stop  offset="1" style="stop-color:#5C83E3"/>
				</linearGradient>
				<path fill="url(#SVGID_4_)" d="M295.885,797.033c19.049,0,34.505,15.479,34.556,34.607l-34.556,0.094V797.033z"/>
			</g>
		</g>
		<g>
			<defs>
				<path id="SVGID_5_" d="M299.88,804.307h20.161c1.821,0,3.299,1.557,3.299,3.478v19.355c0,1.921-1.478,3.478-3.299,3.478H299.88
					c-1.821,0-3.298-1.557-3.298-3.478v-19.355C296.582,805.864,298.059,804.307,299.88,804.307z"/>
			</defs>
			<clipPath id="SVGID_6_">
				<use xlink:href="#SVGID_5_"  overflow="visible"/>
			</clipPath>
			
				<g id="path5876" sodipodi:cx="95.123322" sodipodi:rx="23.0602" sodipodi:start="0" sodipodi:type="arc" sodipodi:cy="477.94135" sodipodi:end="1.5681251" sodipodi:ry="23.0602" clip-path="url(#SVGID_6_)" filter="url(#filter6642)">
				<path fill="#FFFFFF" d="M296.055,803.135c15.449,0,27.984,13.184,28.025,29.474l-28.025,0.079V803.135z"/>
				<path fill="none" stroke="#807EAD" stroke-width="0.7875" stroke-linejoin="round" d="M296.055,803.135
					c15.449,0,27.984,13.184,28.025,29.474l-28.025,0.079V803.135z"/>
			</g>
		</g>
		<g>
			<defs>
				<path id="SVGID_7_" d="M299.935,804.307h20.051c1.852,0,3.354,1.557,3.354,3.478v19.355c0,1.921-1.502,3.478-3.354,3.478
					h-20.051c-1.852,0-3.354-1.557-3.354-3.478v-19.355C296.582,805.864,298.083,804.307,299.935,804.307z"/>
			</defs>
			<clipPath id="SVGID_8_">
				<use xlink:href="#SVGID_7_"  overflow="visible"/>
			</clipPath>
			
				<g id="path5026" sodipodi:cx="95.123322" sodipodi:rx="23.0602" sodipodi:start="0" sodipodi:type="arc" sodipodi:cy="477.94135" sodipodi:end="1.5681251" sodipodi:ry="23.0602" clip-path="url(#SVGID_8_)" filter="url(#filter6638)">
				
					<linearGradient id="SVGID_9_" gradientUnits="userSpaceOnUse" x1="-11.1523" y1="441.0454" x2="-16.324" y2="446.8846" gradientTransform="matrix(0 -2.0693 -1.9949 0 1192.1318 791.7769)">
					<stop  offset="0" style="stop-color:#5E55D7"/>
					<stop  offset="1" style="stop-color:#5C83E3"/>
				</linearGradient>
				<path fill="url(#SVGID_9_)" d="M295.837,809.885c11.328,0,20.52,9.509,20.55,21.26l-20.55,0.057V809.885z"/>
			</g>
		</g>
		<g>
			<defs>
				<path id="SVGID_10_" d="M299.994,804.307h19.934c1.885,0,3.412,1.557,3.412,3.478v19.355c0,1.921-1.527,3.478-3.412,3.478
					h-19.934c-1.884,0-3.412-1.557-3.412-3.478v-19.355C296.582,805.864,298.109,804.307,299.994,804.307z"/>
			</defs>
			<clipPath id="SVGID_11_">
				<use xlink:href="#SVGID_10_"  overflow="visible"/>
			</clipPath>
			
				<g id="path5849" sodipodi:cx="95.123322" sodipodi:rx="23.0602" sodipodi:start="0" sodipodi:type="arc" sodipodi:cy="477.94135" sodipodi:end="1.5681251" sodipodi:ry="23.0602" clip-path="url(#SVGID_11_)" filter="url(#filter6634)">
				<path fill="#FFFFFF" d="M295.563,815.904c8.47,0,15.341,6.987,15.365,15.621l-15.365,0.042V815.904z"/>
			</g>
		</g>
	</g>
</g>
</svg>
