<?xml version="1.0" encoding="utf-8"?>
<!-- Generator: Adobe Illustrator 16.0.0, SVG Export Plug-In . SVG Version: 6.00 Build 0)  -->
<!DOCTYPE svg PUBLIC "-//W3C//DTD SVG 1.1//EN" "http://www.w3.org/Graphics/SVG/1.1/DTD/svg11.dtd">
<svg version="1.1" id="Layer_1" xmlns="http://www.w3.org/2000/svg" xmlns:xlink="http://www.w3.org/1999/xlink" x="0px" y="0px"
	 width="30px" height="30px" viewBox="113 124.5 30 30" enable-background="new 113 124.5 30 30" xml:space="preserve">
<g>
	<linearGradient id="SVGID_1_" gradientUnits="userSpaceOnUse" x1="125.5464" y1="139.5" x2="139.8428" y2="139.5">
		<stop  offset="0" style="stop-color:#5E55D7"/>
		<stop  offset="1" style="stop-color:#5C83E3"/>
	</linearGradient>
	<path fill="url(#SVGID_1_)" d="M138.671,130.267c-0.078-2.003-1.838-2.423-1.838-2.423s-6.104-0.919-8.777-1.253
		c-2.674-0.335-2.508,2.256-2.508,2.256s0.607,18.889,0.671,21.229c0.071,2.787,2.672,2.338,2.672,2.338l9.195-1.59
		c1.672-0.334,1.756-2.422,1.756-2.422S138.755,132.454,138.671,130.267C138.593,128.264,138.755,132.454,138.671,130.267
		L138.671,130.267L138.671,130.267z M136.614,146.313l-6.838,0.708c0,0-1.991,0.304-2.036-2.115
		c-0.032-1.782-0.427-11.991-0.427-11.991s-0.138-1.872,1.911-1.719c2.092,0.155,7.103,0.537,7.103,0.537s1.342,0.319,1.4,1.848
		c0.063,1.661,0.643,10.889,0.643,10.889S138.521,145.985,136.614,146.313L136.614,146.313L136.614,146.313z"/>
	<linearGradient id="SVGID_2_" gradientUnits="userSpaceOnUse" x1="116.1572" y1="139.3291" x2="119.9331" y2="139.3291">
		<stop  offset="0" style="stop-color:#5E55D7"/>
		<stop  offset="1" style="stop-color:#5C83E3"/>
	</linearGradient>
	<path fill="url(#SVGID_2_)" d="M119.876,143.561l-1.263,0.09c0,0-1.274,0.172-1.304-1.222c-0.021-1.027-0.148-6.859-0.148-6.859
		s-0.088-1.079,1.223-0.991c0.332,0.021,0.803,0.052,1.323,0.083c-0.019-0.967-0.034-1.813-0.046-2.456
		c-0.721-0.054-1.396-0.113-1.878-0.164c-1.731-0.191-1.625,1.263-1.625,1.263s0.208,10.696,0.247,12.007
		c0.048,1.563,1.73,1.31,1.73,1.31l1.797-0.192C119.917,145.652,119.897,144.664,119.876,143.561L119.876,143.561L119.876,143.561z"
		/>
	<linearGradient id="SVGID_3_" gradientUnits="userSpaceOnUse" x1="122.2627" y1="139.1069" x2="125.1821" y2="139.1069">
		<stop  offset="0" style="stop-color:#5E55D7"/>
		<stop  offset="1" style="stop-color:#5C83E3"/>
	</linearGradient>
	<path fill="url(#SVGID_3_)" d="M124.9,133.839c-0.006-0.136-0.028-0.261-0.063-0.372c-0.554-0.045-1.941-0.406-2.387,0.064
		c-0.282,0.296-0.165,0.919-0.158,1.274c0.595,0.033,1.007,0.057,1.007,0.057s0.858,0.184,0.895,1.064
		c0.04,0.959,0.035,6.333,0.035,6.333s0.097,0.876-1.122,1.062l-0.639,0.048c0.003,0.19,0.007,0.344,0.009,0.458
		c0.026,1.532,1.656,1.041,2.679,0.942c0.088-1.626-0.068-3.3-0.104-4.927C125.007,137.842,124.991,135.837,124.9,133.839
		C124.894,133.703,124.956,135.062,124.9,133.839L124.9,133.839L124.9,133.839z"/>
	<linearGradient id="SVGID_4_" gradientUnits="userSpaceOnUse" x1="120.2837" y1="139.4365" x2="125.5542" y2="139.4365">
		<stop  offset="0" style="stop-color:#5E55D7"/>
		<stop  offset="1" style="stop-color:#5C83E3"/>
	</linearGradient>
	<path fill="url(#SVGID_4_)" d="M125.429,145.396l-1.842,0.178c0,0-1.718,0.246-1.755-1.732c-0.027-1.461-0.199-9.739-0.199-9.739
		s-0.119-1.53,1.644-1.408c0.452,0.031,1.075,0.082,1.753,0.136c-0.051-1.588-0.091-2.841-0.111-3.486
		c-0.929-0.09-1.804-0.182-2.45-0.256c-2.329-0.264-2.183,1.795-2.183,1.795s0.276,15.186,0.331,17.041
		c0.063,2.218,2.329,1.861,2.329,1.861l2.608-0.333C125.528,148.589,125.484,147.139,125.429,145.396L125.429,145.396
		L125.429,145.396z"/>
	<linearGradient id="SVGID_5_" gradientUnits="userSpaceOnUse" x1="127.9624" y1="139.1104" x2="132.3604" y2="139.1104">
		<stop  offset="0" style="stop-color:#5E55D7"/>
		<stop  offset="1" style="stop-color:#5C83E3"/>
	</linearGradient>
	<path fill="url(#SVGID_5_)" d="M129.176,131.841c-0.326-0.026-0.721-0.004-0.963,0.25c-0.255,0.268-0.26,0.647-0.245,0.99
		c0.924,0.081,1.594,0.14,1.594,0.14s1.154,0.259,1.207,1.51c0.054,1.361,0.384,8.753,0.384,8.753s0.13,1.243-1.512,1.512
		l-1.242,0.119c0.165,1.941,2.675,1.122,3.961,0.989c-0.133-2.92-0.541-11.952-0.635-14.072
		C130.752,131.957,129.822,131.886,129.176,131.841C129.112,131.835,129.822,131.886,129.176,131.841L129.176,131.841
		L129.176,131.841z"/>
</g>
</svg>
