<?xml version="1.0" encoding="utf-8"?>
<!-- Generator: Adobe Illustrator 16.0.0, SVG Export Plug-In . SVG Version: 6.00 Build 0)  -->
<!DOCTYPE svg PUBLIC "-//W3C//DTD SVG 1.1//EN" "http://www.w3.org/Graphics/SVG/1.1/DTD/svg11.dtd">
<svg version="1.1" id="Capa_1" xmlns="http://www.w3.org/2000/svg" xmlns:xlink="http://www.w3.org/1999/xlink" x="0px" y="0px"
	 width="30px" height="30px" viewBox="241 241 30 30" enable-background="new 241 241 30 30" xml:space="preserve">
<g>
	<g>
		<g>
			<linearGradient id="SVGID_1_" gradientUnits="userSpaceOnUse" x1="258.25" y1="249.8125" x2="266.125" y2="249.8125">
				<stop  offset="0" style="stop-color:#5E55D7"/>
				<stop  offset="1" style="stop-color:#5C83E3"/>
			</linearGradient>
			<path fill="url(#SVGID_1_)" d="M262.188,248.125c-0.883,0-1.688,0.305-2.342,0.8l-0.636-0.636c-0.22-0.219-0.576-0.219-0.795,0
				c-0.22,0.22-0.22,0.576,0,0.795l0.636,0.636c-0.381,0.514-0.648,1.117-0.744,1.779h7.762c-0.096-0.662-0.363-1.266-0.744-1.779
				l0.636-0.636c0.22-0.219,0.22-0.576,0-0.795c-0.22-0.219-0.576-0.219-0.795,0l-0.636,0.636
				C263.875,248.43,263.071,248.125,262.188,248.125z"/>
			<linearGradient id="SVGID_2_" gradientUnits="userSpaceOnUse" x1="244.7505" y1="256" x2="265" y2="256">
				<stop  offset="0" style="stop-color:#5E55D7"/>
				<stop  offset="1" style="stop-color:#5C83E3"/>
			</linearGradient>
			<path fill="url(#SVGID_2_)" d="M264.413,262.75c-0.506-0.006-0.96-0.238-1.265-0.6c-0.138-0.163-0.398-0.079-0.398,0.136v2.153
				c0,0.311-0.252,0.563-0.563,0.563h-14.625c-0.311,0-0.563-0.252-0.563-0.563v-19.125c0-0.311,0.252-0.563,0.563-0.563h14.625
				c0.311,0,0.563,0.252,0.563,0.563v1.744c0.443,0.051,0.885,0.142,1.314,0.313c0.176,0.071,0.376,0.046,0.531-0.06l0.127-0.071
				c0.172-0.101,0.277-0.286,0.277-0.486v-2.005c0-1.65-2.354-2.25-3.938-2.25h-12.375c-1.583,0-3.938,0.6-3.938,2.25v22.5
				c0,1.65,2.354,2.25,3.938,2.25h12.375c1.583,0,3.938-0.6,3.938-2.25v-3.938C265,262.992,264.733,262.755,264.413,262.75z
				 M256.563,267.25h-3.375c-0.311,0-0.563-0.252-0.563-0.563s0.252-0.563,0.563-0.563h3.375c0.311,0,0.563,0.253,0.563,0.563
				C257.125,266.998,256.873,267.25,256.563,267.25z"/>
			<linearGradient id="SVGID_3_" gradientUnits="userSpaceOnUse" x1="257.125" y1="257.125" x2="267.25" y2="257.125">
				<stop  offset="0" style="stop-color:#5E55D7"/>
				<stop  offset="1" style="stop-color:#5C83E3"/>
			</linearGradient>
			<path fill="url(#SVGID_3_)" d="M266.688,252.625c-0.31,0-0.563,0.252-0.563,0.563v-0.563h-7.875v0.563
				c0-0.311-0.252-0.563-0.563-0.563s-0.563,0.252-0.563,0.563v4.5c0,0.311,0.252,0.563,0.563,0.563s0.563-0.252,0.563-0.563
				c0,0.732,0.472,1.352,1.125,1.584v1.791c0,0.311,0.253,0.563,0.563,0.563c0.311,0,0.563-0.252,0.563-0.563v-1.688h3.375v1.688
				c0,0.311,0.253,0.563,0.563,0.563c0.311,0,0.563-0.252,0.563-0.563v-1.791c0.653-0.232,1.124-0.852,1.124-1.584
				c0,0.311,0.253,0.563,0.563,0.563c0.311,0,0.563-0.252,0.563-0.563v-4.5C267.25,252.877,266.998,252.625,266.688,252.625z"/>
		</g>
	</g>
</g>
</svg>
