<?xml version="1.0" encoding="utf-8"?>
<!-- Generator: Adobe Illustrator 16.0.0, SVG Export Plug-In . SVG Version: 6.00 Build 0)  -->
<!DOCTYPE svg PUBLIC "-//W3C//DTD SVG 1.1//EN" "http://www.w3.org/Graphics/SVG/1.1/DTD/svg11.dtd">
<svg version="1.1" id="Capa_1" xmlns="http://www.w3.org/2000/svg" xmlns:xlink="http://www.w3.org/1999/xlink" x="0px" y="0px"
	 width="30px" height="30px" viewBox="0 0 30 30" enable-background="new 0 0 30 30" xml:space="preserve">
<g>
	<g>
		<g>
			
				<linearGradient id="SVGID_1_" gradientUnits="userSpaceOnUse" x1="103.4844" y1="776.418" x2="106.7725" y2="776.418" gradientTransform="matrix(1 0 0 1 -100 -761)">
				<stop  offset="0" style="stop-color:#5E55D7"/>
				<stop  offset="1" style="stop-color:#5C83E3"/>
			</linearGradient>
			<path fill="url(#SVGID_1_)" d="M5.163,10.305H5.094c-0.887,0-1.609,0.726-1.609,1.608v7.007c0,0.889,0.725,1.611,1.609,1.611
				h0.07c0.887,0,1.608-0.727,1.608-1.611v-7.007C6.771,11.028,6.049,10.305,5.163,10.305z"/>
			
				<linearGradient id="SVGID_2_" gradientUnits="userSpaceOnUse" x1="107.542" y1="780.5303" x2="122.4502" y2="780.5303" gradientTransform="matrix(1 0 0 1 -100 -761)">
				<stop  offset="0" style="stop-color:#5E55D7"/>
				<stop  offset="1" style="stop-color:#5C83E3"/>
			</linearGradient>
			<path fill="url(#SVGID_2_)" d="M7.544,21.626c0,0.813,0.665,1.478,1.479,1.478h1.58v3.785c0,0.889,0.727,1.611,1.609,1.611h0.068
				c0.889,0,1.61-0.725,1.61-1.611v-3.785H16.1v3.785c0,0.889,0.729,1.611,1.612,1.611h0.067c0.889,0,1.611-0.725,1.611-1.611
				v-3.785h1.582c0.813,0,1.478-0.662,1.478-1.478V10.561H7.542v11.065H7.544z"/>
			
				<linearGradient id="SVGID_3_" gradientUnits="userSpaceOnUse" x1="107.4941" y1="766.6963" x2="122.5049" y2="766.6963" gradientTransform="matrix(1 0 0 1 -100 -761)">
				<stop  offset="0" style="stop-color:#5E55D7"/>
				<stop  offset="1" style="stop-color:#5C83E3"/>
			</linearGradient>
			<path fill="url(#SVGID_3_)" d="M18.713,3.852l1.256-1.938c0.081-0.123,0.045-0.29-0.078-0.369
				c-0.121-0.081-0.289-0.047-0.369,0.079l-1.301,2.005c-0.978-0.4-2.068-0.626-3.221-0.626s-2.241,0.226-3.221,0.625l-1.3-2.005
				c-0.08-0.126-0.248-0.159-0.371-0.079S9.95,1.791,10.03,1.913l1.258,1.938c-2.268,1.11-3.794,3.204-3.794,5.604
				c0,0.146,0.01,0.292,0.021,0.438h14.97c0.014-0.145,0.021-0.289,0.021-0.438C22.507,7.055,20.979,4.961,18.713,3.852z
				 M11.528,7.319c-0.396,0-0.721-0.318-0.721-0.719c0-0.397,0.322-0.718,0.721-0.718c0.4,0,0.723,0.319,0.723,0.718
				C12.251,7.001,11.928,7.319,11.528,7.319z M18.471,7.319c-0.396,0-0.722-0.318-0.722-0.719c0-0.397,0.323-0.718,0.722-0.718
				c0.399,0,0.719,0.319,0.719,0.718C19.189,7.001,18.869,7.319,18.471,7.319z"/>
			
				<linearGradient id="SVGID_4_" gradientUnits="userSpaceOnUse" x1="123.2266" y1="776.418" x2="126.5156" y2="776.418" gradientTransform="matrix(1 0 0 1 -100 -761)">
				<stop  offset="0" style="stop-color:#5E55D7"/>
				<stop  offset="1" style="stop-color:#5C83E3"/>
			</linearGradient>
			<path fill="url(#SVGID_4_)" d="M24.904,10.305h-0.066c-0.887,0-1.611,0.726-1.611,1.608v7.007c0,0.889,0.728,1.611,1.611,1.611
				h0.066c0.889,0,1.611-0.727,1.611-1.611v-7.007C26.516,11.028,25.791,10.305,24.904,10.305z"/>
		</g>
	</g>
</g>
</svg>
