<?xml version="1.0" encoding="utf-8"?>
<!-- Generator: Adobe Illustrator 16.0.0, SVG Export Plug-In . SVG Version: 6.00 Build 0)  -->
<!DOCTYPE svg PUBLIC "-//W3C//DTD SVG 1.1//EN" "http://www.w3.org/Graphics/SVG/1.1/DTD/svg11.dtd">
<svg version="1.1" id="Capa_1" xmlns="http://www.w3.org/2000/svg" xmlns:xlink="http://www.w3.org/1999/xlink" x="0px" y="0px"
	 width="30px" height="30px" viewBox="0 0 30 30" enable-background="new 0 0 30 30" xml:space="preserve">
<g>
	<g>
		
			<linearGradient id="SVGID_1_" gradientUnits="userSpaceOnUse" x1="71.6895" y1="-122.5635" x2="73.8652" y2="-122.5635" gradientTransform="matrix(1 0 0 -1 -50 -109)">
			<stop  offset="0" style="stop-color:#5E55D7"/>
			<stop  offset="1" style="stop-color:#5C83E3"/>
		</linearGradient>
		<path fill="url(#SVGID_1_)" d="M22.445,12.314c-0.371,0-0.623,0.035-0.756,0.071v2.38c0.156,0.035,0.35,0.047,0.61,0.047
			c0.97,0,1.565-0.489,1.565-1.314C23.866,12.758,23.354,12.314,22.445,12.314z"/>
		
			<linearGradient id="SVGID_2_" gradientUnits="userSpaceOnUse" x1="56.4951" y1="-122.5635" x2="58.6709" y2="-122.5635" gradientTransform="matrix(1 0 0 -1 -50 -109)">
			<stop  offset="0" style="stop-color:#5E55D7"/>
			<stop  offset="1" style="stop-color:#5C83E3"/>
		</linearGradient>
		<path fill="url(#SVGID_2_)" d="M7.25,12.314c-0.37,0-0.623,0.035-0.755,0.071v2.38c0.157,0.035,0.348,0.047,0.608,0.047
			c0.969,0,1.567-0.489,1.567-1.314C8.671,12.758,8.157,12.314,7.25,12.314z"/>
		
			<linearGradient id="SVGID_3_" gradientUnits="userSpaceOnUse" x1="51.5" y1="-124" x2="78.5" y2="-124" gradientTransform="matrix(1 0 0 -1 -50 -109)">
			<stop  offset="0" style="stop-color:#5E55D7"/>
			<stop  offset="1" style="stop-color:#5C83E3"/>
		</linearGradient>
		<path fill="url(#SVGID_3_)" d="M1.5,8.936v12.129h27V8.936H1.5L1.5,8.936z M9.734,15.365c-0.621,0.586-1.541,0.849-2.617,0.849
			c-0.239,0-0.455-0.012-0.623-0.034v2.881H4.689v-7.953c0.563-0.094,1.35-0.168,2.461-0.168c1.125,0,1.927,0.215,2.464,0.646
			c0.516,0.406,0.862,1.077,0.862,1.866C10.479,14.241,10.215,14.91,9.734,15.365z M18.291,19.061h-1.818v-3.373h-3v3.373h-1.83V11
			h1.83v3.098h3V11h1.818V19.061z M24.932,15.365c-0.621,0.586-1.541,0.849-2.615,0.849c-0.239,0-0.455-0.012-0.625-0.034v2.881
			h-1.805v-7.953c0.563-0.094,1.353-0.168,2.463-0.168c1.125,0,1.926,0.215,2.465,0.646c0.513,0.406,0.859,1.077,0.859,1.866
			C25.676,14.241,25.41,14.91,24.932,15.365z"/>
	</g>
</g>
</svg>
