<?xml version="1.0" encoding="utf-8"?>
<!-- Generator: Adobe Illustrator 16.0.0, SVG Export Plug-In . SVG Version: 6.00 Build 0)  -->
<!DOCTYPE svg PUBLIC "-//W3C//DTD SVG 1.1//EN" "http://www.w3.org/Graphics/SVG/1.1/DTD/svg11.dtd">
<svg version="1.1" id="Layer_1" xmlns="http://www.w3.org/2000/svg" xmlns:xlink="http://www.w3.org/1999/xlink" x="0px" y="0px"
	 width="30px" height="30px" viewBox="0 0 30 30" enable-background="new 0 0 30 30" xml:space="preserve">
<g>
	
		<linearGradient id="SVGID_1_" gradientUnits="userSpaceOnUse" x1="294.1836" y1="-364.103" x2="297.2676" y2="-364.103" gradientTransform="matrix(1 0 0 -1 -291 -350)">
		<stop  offset="0" style="stop-color:#5E5DA8"/>
		<stop  offset="1" style="stop-color:#647FBE"/>
	</linearGradient>
	<polyline fill="url(#SVGID_1_)" points="4.63,13.484 6.268,13.489 4.594,14.715 3.183,14.722 4.63,13.484 	"/>
	
		<linearGradient id="SVGID_2_" gradientUnits="userSpaceOnUse" x1="292.501" y1="-365.1504" x2="293.748" y2="-365.1504" gradientTransform="matrix(1 0 0 -1 -291 -350)">
		<stop  offset="0" style="stop-color:#5E5DA8"/>
		<stop  offset="1" style="stop-color:#647FBE"/>
	</linearGradient>
	<rect x="1.501" y="13.47" fill="url(#SVGID_2_)" width="1.247" height="3.36"/>
	
		<linearGradient id="SVGID_3_" gradientUnits="userSpaceOnUse" x1="293.8145" y1="-365.834" x2="297.1895" y2="-365.834" gradientTransform="matrix(1 0 0 -1 -291 -350)">
		<stop  offset="0" style="stop-color:#5E5DA8"/>
		<stop  offset="1" style="stop-color:#647FBE"/>
	</linearGradient>
	<polyline fill="url(#SVGID_3_)" points="4.517,14.848 6.19,16.82 4.517,16.82 2.814,14.848 4.517,14.848 	"/>
	
		<linearGradient id="SVGID_4_" gradientUnits="userSpaceOnUse" x1="297.6689" y1="-365.1982" x2="302.4912" y2="-365.1982" gradientTransform="matrix(1 0 0 -1 -291 -350)">
		<stop  offset="0" style="stop-color:#5E5DA8"/>
		<stop  offset="1" style="stop-color:#647FBE"/>
	</linearGradient>
	<path fill="url(#SVGID_4_)" d="M7.897,16.021h2.353l1.225-0.006l0.016,0.819H7.53c-0.235,0-0.439-0.084-0.609-0.25
		c-0.168-0.168-0.252-0.372-0.252-0.61v-1.553c0-0.239,0.084-0.442,0.252-0.61c0.17-0.167,0.374-0.251,0.609-0.251h3.96
		l-0.016,0.814H7.897v0.456h3.343v0.7H7.897V16.021"/>
	
		<linearGradient id="SVGID_5_" gradientUnits="userSpaceOnUse" x1="303.2227" y1="-365.1992" x2="308.0488" y2="-365.1992" gradientTransform="matrix(1 0 0 -1 -291 -350)">
		<stop  offset="0" style="stop-color:#5E5DA8"/>
		<stop  offset="1" style="stop-color:#647FBE"/>
	</linearGradient>
	<path fill="url(#SVGID_5_)" d="M15.799,16.836h1.25v-2.413c0-0.239-0.085-0.442-0.256-0.61c-0.167-0.167-0.368-0.251-0.604-0.251
		h-3.96l-0.006,0.814v0.522l0.006,1.937h1.234v-2.459h2.348L15.799,16.836"/>
	
		<linearGradient id="SVGID_6_" gradientUnits="userSpaceOnUse" x1="314.667" y1="-365.0981" x2="319.4863" y2="-365.0981" gradientTransform="matrix(1 0 0 -1 -291 -350)">
		<stop  offset="0" style="stop-color:#5E5DA8"/>
		<stop  offset="1" style="stop-color:#647FBE"/>
	</linearGradient>
	<path fill="url(#SVGID_6_)" d="M24.625,13.466h2.866c0.368,0,0.995,0.214,0.995,0.763v1.778c0,0.32-0.402,0.724-0.725,0.724h-3.371
		c-0.394,0-0.724-0.472-0.724-0.83v-1.564C23.668,13.782,24.102,13.466,24.625,13.466 M27.238,14.289h-2.321v1.621h2.321V14.289z"/>
	
		<linearGradient id="SVGID_7_" gradientUnits="userSpaceOnUse" x1="308.7734" y1="-365.1592" x2="313.6113" y2="-365.1592" gradientTransform="matrix(1 0 0 -1 -291 -350)">
		<stop  offset="0" style="stop-color:#5E5DA8"/>
		<stop  offset="1" style="stop-color:#647FBE"/>
	</linearGradient>
	<path fill="url(#SVGID_7_)" d="M21.616,13.526c0.37,0,0.995,0.214,0.995,0.763v1.777c0,0.32-0.402,0.725-0.725,0.725l-4.113,0.01
		v-3.283C18.74,13.518,21.616,13.526,21.616,13.526 M21.363,14.348h-2.32v1.621h2.32V14.348z"/>
	
		<linearGradient id="SVGID_8_" gradientUnits="userSpaceOnUse" x1="293.793" y1="-363.9727" x2="297.1689" y2="-363.9727" gradientTransform="matrix(1 0 0 -1 -291 -350)">
		<stop  offset="0" style="stop-color:#5E5DA8"/>
		<stop  offset="1" style="stop-color:#647FBE"/>
	</linearGradient>
	<polyline fill="url(#SVGID_8_)" points="4.53,13.358 6.169,13.362 4.494,14.588 2.793,14.588 4.53,13.358 	"/>
	
		<linearGradient id="SVGID_9_" gradientUnits="userSpaceOnUse" x1="292.5" y1="-365.0029" x2="293.748" y2="-365.0029" gradientTransform="matrix(1 0 0 -1 -291 -350)">
		<stop  offset="0" style="stop-color:#5E5DA8"/>
		<stop  offset="1" style="stop-color:#647FBE"/>
	</linearGradient>
	<rect x="1.5" y="13.326" fill="url(#SVGID_9_)" width="1.248" height="3.354"/>
	
		<linearGradient id="SVGID_10_" gradientUnits="userSpaceOnUse" x1="293.8711" y1="-365.707" x2="297.2471" y2="-365.707" gradientTransform="matrix(1 0 0 -1 -291 -350)">
		<stop  offset="0" style="stop-color:#5E5DA8"/>
		<stop  offset="1" style="stop-color:#647FBE"/>
	</linearGradient>
	<polyline fill="url(#SVGID_10_)" points="4.573,14.721 6.247,16.693 4.573,16.693 2.871,14.721 4.573,14.721 	"/>
	
		<linearGradient id="SVGID_11_" gradientUnits="userSpaceOnUse" x1="297.5898" y1="-365.0732" x2="302.4102" y2="-365.0732" gradientTransform="matrix(1 0 0 -1 -291 -350)">
		<stop  offset="0" style="stop-color:#5E5DA8"/>
		<stop  offset="1" style="stop-color:#647FBE"/>
	</linearGradient>
	<path fill="url(#SVGID_11_)" d="M7.817,15.895h2.353l1.224-0.004l0.016,0.818H7.45c-0.235,0-0.438-0.084-0.608-0.25
		C6.674,16.291,6.59,16.088,6.59,15.85v-1.553c0-0.239,0.084-0.442,0.252-0.609c0.17-0.167,0.373-0.251,0.608-0.251h3.96
		l-0.016,0.815H7.817v0.455h3.343v0.701H7.817V15.895"/>
	
		<linearGradient id="SVGID_12_" gradientUnits="userSpaceOnUse" x1="303.2227" y1="-365.0723" x2="308.0488" y2="-365.0723" gradientTransform="matrix(1 0 0 -1 -291 -350)">
		<stop  offset="0" style="stop-color:#5E5DA8"/>
		<stop  offset="1" style="stop-color:#647FBE"/>
	</linearGradient>
	<path fill="url(#SVGID_12_)" d="M15.798,16.709h1.251v-2.413c0-0.239-0.086-0.442-0.257-0.609
		c-0.167-0.167-0.368-0.251-0.604-0.251h-3.959l-0.005,0.815v0.522l0.005,1.936h1.235V14.25h2.346L15.798,16.709"/>
	
		<linearGradient id="SVGID_13_" gradientUnits="userSpaceOnUse" x1="314.6641" y1="-364.9727" x2="319.4844" y2="-364.9727" gradientTransform="matrix(1 0 0 -1 -291 -350)">
		<stop  offset="0" style="stop-color:#5E5DA8"/>
		<stop  offset="1" style="stop-color:#647FBE"/>
	</linearGradient>
	<path fill="url(#SVGID_13_)" d="M24.622,13.34h2.866c0.369,0,0.996,0.214,0.996,0.763v1.778c0,0.32-0.403,0.725-0.725,0.725h-3.371
		c-0.395,0-0.725-0.473-0.725-0.832V14.21C23.665,13.656,24.098,13.34,24.622,13.34 M27.234,14.162h-2.32v1.621h2.32V14.162z"/>
	
		<linearGradient id="SVGID_14_" gradientUnits="userSpaceOnUse" x1="308.7715" y1="-365.0332" x2="313.6094" y2="-365.0332" gradientTransform="matrix(1 0 0 -1 -291 -350)">
		<stop  offset="0" style="stop-color:#5E5DA8"/>
		<stop  offset="1" style="stop-color:#647FBE"/>
	</linearGradient>
	<path fill="url(#SVGID_14_)" d="M21.613,13.399c0.369,0,0.996,0.214,0.996,0.763v1.777c0,0.321-0.403,0.725-0.725,0.725
		l-4.113,0.01v-3.282C18.738,13.392,21.613,13.399,21.613,13.399 M21.359,14.221H19.04v1.621h2.319V14.221z"/>
	
		<linearGradient id="SVGID_15_" gradientUnits="userSpaceOnUse" x1="297.8389" y1="-364.916" x2="302.6592" y2="-364.916" gradientTransform="matrix(1 0 0 -1 -291 -350)">
		<stop  offset="0" style="stop-color:#5E5DA8"/>
		<stop  offset="1" style="stop-color:#647FBE"/>
	</linearGradient>
	<path fill="url(#SVGID_15_)" d="M8.066,15.739h2.353l1.225-0.005l0.015,0.818h-3.96c-0.235,0-0.438-0.082-0.609-0.251
		c-0.168-0.167-0.251-0.37-0.251-0.608v-1.552c0-0.239,0.083-0.442,0.251-0.61c0.171-0.167,0.374-0.251,0.609-0.251h3.96
		l-0.015,0.814H8.066v0.455h3.343v0.701H8.066V15.739"/>
	
		<linearGradient id="SVGID_16_" gradientUnits="userSpaceOnUse" x1="303.2227" y1="-364.916" x2="308.0488" y2="-364.916" gradientTransform="matrix(1 0 0 -1 -291 -350)">
		<stop  offset="0" style="stop-color:#5E5DA8"/>
		<stop  offset="1" style="stop-color:#647FBE"/>
	</linearGradient>
	<path fill="url(#SVGID_16_)" d="M15.798,16.553h1.251v-2.412c0-0.239-0.086-0.442-0.257-0.61c-0.167-0.167-0.368-0.251-0.604-0.251
		h-3.959l-0.006,0.814v0.522l0.006,1.936h1.235v-2.458h2.346L15.798,16.553"/>
	
		<linearGradient id="SVGID_17_" gradientUnits="userSpaceOnUse" x1="314.6797" y1="-364.8164" x2="319.5" y2="-364.8164" gradientTransform="matrix(1 0 0 -1 -291 -350)">
		<stop  offset="0" style="stop-color:#5E5DA8"/>
		<stop  offset="1" style="stop-color:#647FBE"/>
	</linearGradient>
	<path fill="url(#SVGID_17_)" d="M24.639,13.184h2.865c0.369,0,0.996,0.214,0.996,0.762v1.779c0,0.319-0.402,0.724-0.723,0.724
		h-3.373c-0.394,0-0.725-0.472-0.725-0.831v-1.564C23.682,13.5,24.114,13.184,24.639,13.184 M27.251,14.005h-2.319v1.621h2.319
		V14.005z"/>
	
		<linearGradient id="SVGID_18_" gradientUnits="userSpaceOnUse" x1="308.7881" y1="-364.877" x2="313.626" y2="-364.877" gradientTransform="matrix(1 0 0 -1 -291 -350)">
		<stop  offset="0" style="stop-color:#5E5DA8"/>
		<stop  offset="1" style="stop-color:#647FBE"/>
	</linearGradient>
	<path fill="url(#SVGID_18_)" d="M21.63,13.243c0.369,0,0.996,0.214,0.996,0.763v1.778c0,0.321-0.403,0.724-0.726,0.724l-4.112,0.01
		v-3.282C18.754,13.235,21.63,13.243,21.63,13.243 M21.376,14.065h-2.319v1.621h2.319V14.065z"/>
	
		<linearGradient id="SVGID_19_" gradientUnits="userSpaceOnUse" x1="293.8555" y1="-363.7939" x2="297.2324" y2="-363.7939" gradientTransform="matrix(1 0 0 -1 -291 -350)">
		<stop  offset="0" style="stop-color:#5E5DA8"/>
		<stop  offset="1" style="stop-color:#647FBE"/>
	</linearGradient>
	<polyline fill="url(#SVGID_19_)" points="4.594,13.178 6.232,13.183 4.558,14.409 2.855,14.409 4.594,13.178 	"/>
	
		<linearGradient id="SVGID_20_" gradientUnits="userSpaceOnUse" x1="292.5" y1="-364.8447" x2="293.749" y2="-364.8447" gradientTransform="matrix(1 0 0 -1 -291 -350)">
		<stop  offset="0" style="stop-color:#5E5DA8"/>
		<stop  offset="1" style="stop-color:#647FBE"/>
	</linearGradient>
	<rect x="1.5" y="13.164" fill="url(#SVGID_20_)" width="1.249" height="3.361"/>
	
		<linearGradient id="SVGID_21_" gradientUnits="userSpaceOnUse" x1="293.8555" y1="-365.5278" x2="297.2324" y2="-365.5278" gradientTransform="matrix(1 0 0 -1 -291 -350)">
		<stop  offset="0" style="stop-color:#5E5DA8"/>
		<stop  offset="1" style="stop-color:#647FBE"/>
	</linearGradient>
	<polyline fill="url(#SVGID_21_)" points="4.558,14.542 6.232,16.514 4.558,16.514 2.855,14.542 4.558,14.542 	"/>
</g>
</svg>
