<?xml version="1.0" encoding="utf-8"?>
<!-- Generator: Adobe Illustrator 16.0.0, SVG Export Plug-In . SVG Version: 6.00 Build 0)  -->
<!DOCTYPE svg PUBLIC "-//W3C//DTD SVG 1.1//EN" "http://www.w3.org/Graphics/SVG/1.1/DTD/svg11.dtd">
<svg version="1.1" id="Layer_1" xmlns="http://www.w3.org/2000/svg" xmlns:xlink="http://www.w3.org/1999/xlink" x="0px" y="0px"
	 width="50px" height="50px" viewBox="0 0 50 50" enable-background="new 0 0 50 50" xml:space="preserve">
<path fill="#FFFFFF" d="M39.881,15.481c0.381-0.382,0.381-1,0-1.381c-0.382-0.382-1-0.382-1.381,0c-0.382,0.381-0.382,0.999,0,1.381
	C38.881,15.863,39.499,15.863,39.881,15.481z"/>
<path fill="#FFFFFF" d="M12.743,17.503c0.381-0.381,0.381-0.999,0-1.381c-0.382-0.381-1-0.381-1.381,0c-0.382,0.382-0.382,1,0,1.381
	C11.743,17.886,12.361,17.886,12.743,17.503z"/>
<path fill="#FFFFFF" d="M6.996,23.126l2.923-2.924c0.381-0.381,0.381-1,0-1.381c-0.381-0.382-1-0.381-1.381,0l-2.923,2.924
	c-0.381,0.381-0.381,1,0,1.381C5.996,23.509,6.615,23.509,6.996,23.126z"/>
<path fill="#FFFFFF" d="M43.102,20.294c0.383,0.381,1,0.381,1.383,0c0.382-0.381,0.382-1,0-1.381l-1.948-1.948
	c-0.382-0.381-1-0.381-1.382,0c-0.381,0.381-0.381,1,0,1.381L43.102,20.294z"/>
<path fill="#FFFFFF" d="M49.714,19.207L38.667,8.159c-0.373-0.374-0.976-0.383-1.36-0.021c-0.856,0.809-4.891,4.606-4.947,4.663
	c-0.004,0.003-0.008,0.006-0.012,0.01c-0.955,0.955-1.896,1.381-3.049,1.381c-2.359,0-4.166,0.666-5.666,2.087
	c-1.23-1.165-2.625-1.767-4.57-1.968l-4.882-4.882c-0.381-0.381-1-0.381-1.381,0L0.286,21.941c-0.372,0.371-0.384,0.971-0.022,1.357
	c0.008,0.008,0.014,0.016,0.022,0.023c0,0,8.143,8.13,8.154,8.142l-0.345,0.345c-1.335,1.335-1.336,3.497,0,4.833
	c0.633,0.632,1.501,1.007,2.452,0.998c-0.01,0.938,0.352,1.807,1.001,2.455c0.659,0.658,1.539,1.008,2.452,0.999
	c-0.01,0.937,0.352,1.805,1.001,2.454c0.632,0.632,1.501,1.007,2.452,0.998c-0.01,0.938,0.353,1.807,1.001,2.455
	c1.333,1.332,3.5,1.332,4.833,0l0.346-0.346l0.346,0.346c1.333,1.332,3.5,1.332,4.833,0c0.646-0.647,1.011-1.514,1-2.453
	c0.934,0.01,1.803-0.35,2.453-1c0.674-0.676,1.008-1.565,0.998-2.452c0.946,0.01,1.813-0.358,2.453-1
	c0.65-0.649,1.012-1.521,1.001-2.455c0.907,0.009,1.79-0.335,2.452-0.998c1.336-1.335,1.336-3.497,0-4.833l-0.344-0.345
	c6.809-6.801-1.805,1.819,10.888-10.876C50.096,20.207,50.096,19.588,49.714,19.207z M2.358,22.632L13.49,11.5l3.752,3.751
	L6.112,26.383L2.358,22.632z M9.477,35.261c-0.572-0.572-0.572-1.499,0-2.071l3.453-3.452c0.571-0.572,1.5-0.572,2.071,0
	c0.573,0.573,0.573,1.498,0,2.071l-3.452,3.452C10.978,35.831,10.047,35.831,9.477,35.261z M12.93,38.714
	c-0.573-0.573-0.574-1.499,0-2.072l3.452-3.452c0.573-0.573,1.499-0.573,2.072,0c0.571,0.571,0.573,1.498,0,2.071c0,0,0,0,0,0.001
	l-3.453,3.453C14.43,39.286,13.5,39.286,12.93,38.714z M16.382,42.165c-0.572-0.571-0.572-1.498,0-2.07l3.453-3.453
	c0.571-0.57,1.5-0.57,2.072,0.001c0.564,0.563,0.581,1.49,0,2.071l0,0l-3.452,3.451C17.883,42.737,16.953,42.737,16.382,42.165z
	 M19.835,45.62c-0.573-0.574-0.573-1.5,0-2.072l3.452-3.452c0.573-0.572,1.499-0.573,2.072,0c0.577,0.577,0.568,1.504,0,2.071
	l-3.453,3.453C21.335,46.189,20.406,46.189,19.835,45.62z M27.43,45.62c-0.57,0.57-1.5,0.57-2.07,0l-0.346-0.347l1.727-1.728
	c0.116-0.116,0.223-0.24,0.319-0.37l0.369,0.37c0,0,0,0,0.002,0l0,0C28.004,44.12,28.004,45.046,27.43,45.62z M37.789,35.261
	c-0.571,0.57-1.501,0.57-2.072,0l-4.488-4.488c-0.381-0.381-1-0.381-1.381,0s-0.381,1,0,1.381l4.488,4.489
	c0.572,0.572,0.573,1.499,0,2.072c-0.574,0.573-1.5,0.571-2.07,0l-4.488-4.489c-0.383-0.381-1-0.381-1.381,0
	c-0.383,0.381-0.383,1-0.002,1.381l4.488,4.489c0.572,0.571,0.572,1.5,0,2.071c-0.275,0.275-0.644,0.429-1.035,0.429
	c-0.928,0-1.228-0.729-2.106-1.5c-0.009-0.899-0.363-1.744-1-2.38c-0.647-0.648-1.515-1.012-2.452-1.001
	c0.01-0.939-0.354-1.806-1.001-2.453c-0.675-0.675-1.565-1.007-2.452-0.998c0.02-1.927-1.54-3.474-3.452-3.454
	c0.01-0.949-0.361-1.813-1.001-2.453c-1.333-1.333-3.501-1.333-4.833,0l-1.728,1.729l-2.327-2.32l11.494-11.496
	c1.423,0.163,2.381,0.572,3.26,1.389l-2.759,2.759c-1.521,1.522-1.521,4,0,5.524c1.523,1.521,4.001,1.521,5.524,0l2.763-2.762
	c1.785,1.786,8.712,8.712,10.013,10.014C38.359,33.761,38.359,34.689,37.789,35.261z M37.443,30.083l-8.286-8.289l0.69-0.69
	c0.381-0.381,0.381-1,0-1.381c-0.382-0.381-1-0.381-1.382,0l-4.834,4.834c-0.761,0.761-2,0.761-2.762,0
	c-0.761-0.763-0.761-2.001,0-2.763c1.002-1.001,2.977-2.976,3.977-3.976c1.158-1.158,2.531-1.675,4.452-1.675
	c1.381,0,2.573-0.415,3.69-1.294l9.724,9.977C36.357,31.167,37.611,29.915,37.443,30.083z M44.096,23.446l-9.664-9.915l3.524-3.321
	l9.687,9.688L44.096,23.446z"/>
</svg>
