<?xml version="1.0" encoding="utf-8"?>
<!-- Generator: Adobe Illustrator 16.0.0, SVG Export Plug-In . SVG Version: 6.00 Build 0)  -->
<!DOCTYPE svg PUBLIC "-//W3C//DTD SVG 1.1//EN" "http://www.w3.org/Graphics/SVG/1.1/DTD/svg11.dtd">
<svg version="1.1" id="Layer_1" xmlns="http://www.w3.org/2000/svg" xmlns:xlink="http://www.w3.org/1999/xlink" x="0px" y="0px"
	 width="30px" height="30px" viewBox="0 0 30 30" enable-background="new 0 0 30 30" xml:space="preserve">
<linearGradient id="SVGID_1_" gradientUnits="userSpaceOnUse" x1="0" y1="15" x2="30" y2="15">
	<stop  offset="0" style="stop-color:#5E55D7"/>
	<stop  offset="1" style="stop-color:#5C83E3"/>
</linearGradient>
<path fill="url(#SVGID_1_)" d="M15,0C6.729,0,0,6.729,0,15c0,8.271,6.729,15,15,15c8.271,0,15-6.729,15-15C30,6.729,23.271,0,15,0z
	 M14.121,7.363c-1.337-0.058-2.661-0.246-3.925-0.551c0.202-0.478,0.421-0.938,0.657-1.373c0.969-1.786,2.159-3.039,3.268-3.493
	V7.363z M14.121,9.122v4.999h-5.49c0.078-1.951,0.41-3.888,0.96-5.65C11.049,8.838,12.579,9.061,14.121,9.122z M14.121,15.879v4.999
	c-1.542,0.062-3.072,0.284-4.53,0.651c-0.55-1.762-0.882-3.699-0.96-5.65H14.121z M14.121,22.637v5.418
	c-1.109-0.455-2.298-1.707-3.268-3.493c-0.236-0.436-0.455-0.896-0.657-1.373C11.46,22.883,12.784,22.695,14.121,22.637z
	 M15.879,22.637c1.337,0.059,2.66,0.246,3.925,0.552c-0.202,0.478-0.421,0.938-0.657,1.373c-0.969,1.786-2.158,3.038-3.268,3.493
	V22.637z M15.879,20.878v-4.999h5.49c-0.078,1.951-0.41,3.889-0.961,5.65C18.951,21.162,17.421,20.939,15.879,20.878z
	 M15.879,14.121V9.122c1.542-0.062,3.072-0.284,4.529-0.651c0.551,1.762,0.883,3.699,0.961,5.65H15.879z M15.879,7.363V1.946
	c1.109,0.454,2.299,1.707,3.268,3.493c0.236,0.436,0.455,0.895,0.657,1.373C18.539,7.117,17.216,7.305,15.879,7.363z M20.691,4.6
	c-0.44-0.811-0.918-1.526-1.422-2.136c1.757,0.6,3.349,1.56,4.688,2.792c-0.764,0.409-1.586,0.764-2.452,1.061
	C21.26,5.721,20.988,5.146,20.691,4.6z M9.309,4.6C9.012,5.146,8.741,5.721,8.495,6.317C7.629,6.02,6.807,5.665,6.043,5.256
	c1.339-1.231,2.931-2.191,4.688-2.792C10.227,3.074,9.749,3.789,9.309,4.6z M7.9,7.969c-0.6,1.919-0.953,4.012-1.029,6.152H1.788
	c0.188-2.856,1.285-5.469,3.006-7.549C5.748,7.12,6.793,7.588,7.9,7.969z M6.872,15.879C6.948,18.02,7.3,20.111,7.9,22.031
	c-1.107,0.381-2.152,0.85-3.107,1.396c-1.721-2.08-2.817-4.692-3.006-7.549H6.872z M8.495,23.684
	c0.246,0.596,0.517,1.17,0.813,1.717c0.44,0.811,0.918,1.525,1.422,2.135c-1.757-0.6-3.349-1.56-4.688-2.791
	C6.806,24.336,7.629,23.98,8.495,23.684z M20.691,25.4c0.297-0.547,0.568-1.121,0.813-1.717c0.866,0.297,1.688,0.652,2.452,1.061
	c-1.339,1.231-2.931,2.191-4.688,2.791C19.773,26.926,20.251,26.211,20.691,25.4z M22.1,22.031c0.6-1.92,0.953-4.012,1.029-6.152
	h5.084c-0.189,2.856-1.285,5.469-3.006,7.549C24.252,22.881,23.207,22.412,22.1,22.031z M23.129,14.121
	c-0.076-2.141-0.43-4.233-1.029-6.152c1.107-0.381,2.152-0.849,3.107-1.396c1.721,2.08,2.816,4.692,3.006,7.549H23.129z"/>
</svg>
