<?xml version="1.0" encoding="utf-8"?>
<!-- Generator: Adobe Illustrator 16.0.0, SVG Export Plug-In . SVG Version: 6.00 Build 0)  -->
<!DOCTYPE svg PUBLIC "-//W3C//DTD SVG 1.1//EN" "http://www.w3.org/Graphics/SVG/1.1/DTD/svg11.dtd">
<svg version="1.1" id="Capa_1" xmlns="http://www.w3.org/2000/svg" xmlns:xlink="http://www.w3.org/1999/xlink" x="0px" y="0px"
	 width="40px" height="40px" viewBox="0 0 98 85" enable-background="new 0 0 98 85" xml:space="preserve">
<g>
	<g>
		<linearGradient id="SVGID_1_" gradientUnits="userSpaceOnUse" x1="48.2676" y1="41.5732" x2="51.5879" y2="41.5732">
			<stop  offset="0" style="stop-color:#5E55D7"/>
			<stop  offset="1" style="stop-color:#5C83E3"/>
		</linearGradient>
		<path fill="url(#SVGID_1_)" d="M51.102,40.4c-0.648-0.649-1.7-0.649-2.349,0c-0.647,0.647-0.647,1.698,0,2.348
			c0.649,0.647,1.7,0.647,2.349,0C51.75,42.098,51.75,41.047,51.102,40.4z"/>
	</g>
</g>
<g>
	<g>
		<linearGradient id="SVGID_2_" gradientUnits="userSpaceOnUse" x1="58.0645" y1="25.1357" x2="74.6641" y2="25.1357">
			<stop  offset="0" style="stop-color:#5E55D7"/>
			<stop  offset="1" style="stop-color:#5C83E3"/>
		</linearGradient>
		<path fill="url(#SVGID_2_)" d="M72.23,19.27c-3.244-3.244-8.495-3.244-11.738,0c-3.236,3.235-3.236,8.501,0,11.739
			c3.236,3.235,8.502,3.236,11.738,0C75.475,27.765,75.475,22.514,72.23,19.27z M69.883,28.661c-1.941,1.941-5.101,1.941-7.043,0
			c-1.941-1.943-1.941-5.103,0-7.044c1.945-1.946,5.097-1.946,7.043,0S71.83,26.714,69.883,28.661z"/>
	</g>
</g>
<g>
	<g>
		<linearGradient id="SVGID_3_" gradientUnits="userSpaceOnUse" x1="22.4404" y1="34.5293" x2="91.499" y2="34.5293">
			<stop  offset="0" style="stop-color:#5E55D7"/>
			<stop  offset="1" style="stop-color:#5C83E3"/>
		</linearGradient>
		<path fill="url(#SVGID_3_)" d="M91.014,0.486c-0.326-0.326-0.771-0.502-1.234-0.485c-0.375,0.014-9.313,0.373-19.937,4.128
			c-8.513,3.006-15.608,7.31-21.091,12.792c-1.228,1.228-2.423,2.531-3.567,3.884c-5.42-3.19-9.763-2.19-12.509-0.721
			c-6.322,3.384-10.235,12.57-10.235,19.141c0,0.671,0.405,1.277,1.025,1.534c0.205,0.085,0.421,0.126,0.635,0.126
			c0.432,0,0.857-0.169,1.174-0.486c3.334-3.334,7.447-3.125,8.79-2.949l0.582,0.581c-1.145,2.723-2.066,5.43-2.742,8.063
			c-0.244,0.953-0.162,1.962,0.201,2.885c-1.599,0.736-3.141,1.817-4.483,3.16c-4.273,4.273-5.141,14.688-5.176,15.13
			c-0.039,0.484,0.137,0.961,0.481,1.304c0.313,0.313,0.735,0.486,1.173,0.486c0.044,0,0.087-0.001,0.131-0.004
			c0.441-0.035,10.856-0.903,15.13-5.176c1.342-1.343,2.424-2.885,3.16-4.482c0.977,0.383,1.982,0.431,2.886,0.199
			c2.632-0.676,5.339-1.598,8.062-2.742l0.582,0.582c0.176,1.344,0.385,5.456-2.949,8.789c-0.475,0.476-0.617,1.189-0.359,1.81
			c0.256,0.62,0.861,1.024,1.533,1.024c6.57,0,15.758-3.912,19.141-10.234c1.47-2.746,2.47-7.089-0.721-12.51
			c1.353-1.143,2.655-2.338,3.885-3.567c5.481-5.482,9.785-12.578,12.791-21.09c3.755-10.625,4.113-19.563,4.127-19.938
			C91.516,1.259,91.34,0.813,91.014,0.486z M26.152,35.654c1.031-4.991,4.026-10.468,8.091-12.643
			c2.716-1.454,5.684-1.311,8.84,0.417c-2.689,3.537-5.026,7.347-6.975,11.37c-0.024-0.015-0.323-0.391-0.878-0.516
			C35.001,34.23,30.609,33.285,26.152,35.654z M37.014,61.53c-2.283,2.282-7.638,3.487-11.022,3.978
			c0.492-3.384,1.696-8.738,3.978-11.021c1.278-1.278,2.761-2.247,4.25-2.793l5.587,5.586C39.261,58.77,38.292,60.252,37.014,61.53z
			 M44.582,56.379c-0.48,0.123-1.037-0.057-1.45-0.471c-2.148-2.147-2.988-2.987-3.252-3.251c-0.483-0.483-1.669-1.669-4.287-4.288
			c-0.414-0.414-0.595-0.971-0.472-1.45c0.532-2.071,1.227-4.196,2.073-6.341l13.729,13.729
			C48.777,55.152,46.652,55.848,44.582,56.379z M68.489,57.258c-2.175,4.063-7.651,7.059-12.643,8.09
			c1.591-2.994,1.942-6.807,1.36-9.117c-0.135-0.537-0.484-0.807-0.504-0.839c4.022-1.948,7.832-4.286,11.369-6.976
			C69.8,51.573,69.942,54.542,68.489,57.258z M72.232,40.4c-1.496,1.496-3.107,2.941-4.788,4.295
			c-4.041,3.254-8.489,6.01-13.234,8.203L38.601,37.291c2.194-4.746,4.95-9.193,8.204-13.234c1.355-1.683,2.801-3.293,4.296-4.789
			c4.918-4.918,11.266-8.833,18.871-11.65l13.911,13.911C81.064,29.134,77.15,35.481,72.232,40.4z M85.076,18.027L73.473,6.423
			C79.795,4.459,85.295,3.725,88.04,3.46C87.775,6.206,87.041,11.706,85.076,18.027z"/>
	</g>
</g>
<g>
	<g>
		<linearGradient id="SVGID_4_" gradientUnits="userSpaceOnUse" x1="38.8765" y1="72.0947" x2="46.8916" y2="72.0947">
			<stop  offset="0" style="stop-color:#5E55D7"/>
			<stop  offset="1" style="stop-color:#5C83E3"/>
		</linearGradient>
		<path fill="url(#SVGID_4_)" d="M46.405,68.572c-0.648-0.648-1.7-0.648-2.348,0l-4.695,4.697c-0.648,0.648-0.648,1.699,0,2.348
			s1.7,0.648,2.348,0l4.695-4.697C47.054,70.271,47.054,69.221,46.405,68.572z"/>
	</g>
</g>
<g>
	<g>
		<linearGradient id="SVGID_5_" gradientUnits="userSpaceOnUse" x1="15.397" y1="48.6162" x2="23.4136" y2="48.6162">
			<stop  offset="0" style="stop-color:#5E55D7"/>
			<stop  offset="1" style="stop-color:#5C83E3"/>
		</linearGradient>
		<path fill="url(#SVGID_5_)" d="M22.928,45.095c-0.648-0.648-1.699-0.648-2.348,0l-4.697,4.694c-0.648,0.648-0.648,1.699,0,2.348
			s1.699,0.649,2.348,0.001l4.696-4.694C23.576,46.795,23.576,45.743,22.928,45.095z"/>
	</g>
</g>
<g>
	<g>
		<linearGradient id="SVGID_6_" gradientUnits="userSpaceOnUse" x1="20.5864" y1="77.7178" x2="35.1528" y2="77.7178">
			<stop  offset="0" style="stop-color:#5E55D7"/>
			<stop  offset="1" style="stop-color:#5C83E3"/>
		</linearGradient>
		<path fill="url(#SVGID_6_)" d="M34.667,70.922c-0.648-0.648-1.699-0.648-2.348,0L21.073,82.166c-0.649,0.648-0.649,1.699,0,2.348
			c0.648,0.648,1.699,0.648,2.348,0L34.667,73.27C35.315,72.621,35.315,71.57,34.667,70.922z"/>
	</g>
</g>
<g>
	<g>
		<linearGradient id="SVGID_7_" gradientUnits="userSpaceOnUse" x1="7.3052" y1="77.7178" x2="21.8716" y2="77.7178">
			<stop  offset="0" style="stop-color:#5E55D7"/>
			<stop  offset="1" style="stop-color:#5C83E3"/>
		</linearGradient>
		<path fill="url(#SVGID_7_)" d="M21.385,70.922c-0.648-0.648-1.699-0.648-2.348,0L7.792,82.166c-0.648,0.648-0.648,1.699,0,2.348
			s1.699,0.648,2.348,0L21.385,73.27C22.034,72.621,22.034,71.57,21.385,70.922z"/>
	</g>
</g>
<g>
	<g>
		<linearGradient id="SVGID_8_" gradientUnits="userSpaceOnUse" x1="6.5" y1="63.6309" x2="21.0649" y2="63.6309">
			<stop  offset="0" style="stop-color:#5E55D7"/>
			<stop  offset="1" style="stop-color:#5C83E3"/>
		</linearGradient>
		<path fill="url(#SVGID_8_)" d="M20.579,56.834c-0.648-0.648-1.7-0.648-2.348,0L6.986,68.08c-0.648,0.648-0.648,1.699,0,2.348
			c0.648,0.648,1.699,0.648,2.348,0l11.244-11.246C21.227,58.533,21.227,57.482,20.579,56.834z"/>
	</g>
</g>
<g>
	<g>
		<linearGradient id="SVGID_9_" gradientUnits="userSpaceOnUse" x1="52.9629" y1="35.7031" x2="58.6309" y2="35.7031">
			<stop  offset="0" style="stop-color:#5E55D7"/>
			<stop  offset="1" style="stop-color:#5C83E3"/>
		</linearGradient>
		<path fill="url(#SVGID_9_)" d="M58.145,33.355c-0.648-0.648-1.699-0.648-2.348,0l-2.348,2.348c-0.648,0.648-0.648,1.699,0,2.348
			c0.648,0.648,1.699,0.648,2.348,0l2.348-2.348C58.793,35.055,58.793,34.004,58.145,33.355z"/>
	</g>
</g>
</svg>
