<?xml version="1.0" encoding="utf-8"?>
<!-- Generator: Adobe Illustrator 16.0.0, SVG Export Plug-In . SVG Version: 6.00 Build 0)  -->
<!DOCTYPE svg PUBLIC "-//W3C//DTD SVG 1.1//EN" "http://www.w3.org/Graphics/SVG/1.1/DTD/svg11.dtd">
<svg version="1.1" id="Capa_1" xmlns="http://www.w3.org/2000/svg" xmlns:xlink="http://www.w3.org/1999/xlink" x="0px" y="0px"
	 width="20px" height="20px" viewBox="0 0 20 20" enable-background="new 0 0 20 20" xml:space="preserve">
<g>
	<path fill="#202934" d="M17.961,5.049c-0.021-0.027-0.061-0.036-0.092-0.021c-0.478,0.212-0.979,0.364-1.496,0.454
		c0.55-0.413,0.957-0.984,1.166-1.641c0.011-0.031,0-0.065-0.024-0.086c-0.026-0.021-0.062-0.022-0.091-0.006
		c-0.617,0.367-1.287,0.625-1.99,0.769c-0.623-0.646-1.492-1.017-2.393-1.017c-1.832,0-3.323,1.49-3.323,3.322
		c0,0.221,0.022,0.439,0.063,0.653c-2.535-0.155-4.906-1.375-6.52-3.353C3.244,4.104,3.22,4.093,3.193,4.096
		C3.168,4.097,3.145,4.112,3.132,4.135c-0.296,0.505-0.45,1.083-0.45,1.669c0,1.02,0.462,1.97,1.25,2.599
		C3.527,8.354,3.129,8.227,2.772,8.027c-0.024-0.014-0.054-0.014-0.077,0C2.67,8.042,2.656,8.066,2.654,8.094v0.043
		c0,1.461,0.963,2.747,2.334,3.172c-0.361,0.058-0.736,0.056-1.104-0.017c-0.027-0.004-0.055,0.005-0.074,0.023
		c-0.02,0.023-0.023,0.051-0.016,0.077c0.41,1.283,1.553,2.183,2.883,2.295c-1.109,0.813-2.419,1.241-3.805,1.241
		c-0.256,0-0.512-0.016-0.765-0.045c-0.036-0.004-0.071,0.018-0.084,0.052c-0.012,0.034,0.001,0.073,0.032,0.095
		c1.499,0.961,3.232,1.469,5.014,1.469c5.821,0,9.303-4.729,9.303-9.303c0-0.127-0.004-0.254-0.008-0.38
		c0.627-0.46,1.166-1.021,1.602-1.673C17.986,5.116,17.983,5.077,17.961,5.049z"/>
</g>
</svg>
