<?xml version="1.0" encoding="utf-8"?>
<!-- Generator: Adobe Illustrator 16.0.0, SVG Export Plug-In . SVG Version: 6.00 Build 0)  -->
<!DOCTYPE svg PUBLIC "-//W3C//DTD SVG 1.1//EN" "http://www.w3.org/Graphics/SVG/1.1/DTD/svg11.dtd">
<svg version="1.1" id="Capa_1" xmlns="http://www.w3.org/2000/svg" xmlns:xlink="http://www.w3.org/1999/xlink" x="0px" y="0px"
	 width="50px" height="50px" viewBox="0 0 50 50" enable-background="new 0 0 50 50" xml:space="preserve">
<g>
	<g>
		
			<linearGradient id="SVGID_1_" gradientUnits="userSpaceOnUse" x1="72.0928" y1="-108.9502" x2="77.9707" y2="-108.9502" gradientTransform="matrix(1 0 0 -1 -50 -89)">
			<stop  offset="0" style="stop-color:#5E55D7"/>
			<stop  offset="1" style="stop-color:#5C83E3"/>
		</linearGradient>
		<path fill="url(#SVGID_1_)" d="M25.228,20.783c0.66,0,1.29,0.138,1.862,0.385c0.042-0.934,0.363-1.795,0.881-2.51
			c-0.364-0.076-0.739-0.117-1.122-0.117h-3.638c-0.383,0-0.758,0.041-1.118,0.115c0.55,0.764,0.879,1.694,0.884,2.703
			C23.646,20.992,24.412,20.783,25.228,20.783z"/>
		
			<linearGradient id="SVGID_2_" gradientUnits="userSpaceOnUse" x1="70.7422" y1="-102.9639" x2="79.3145" y2="-102.9639" gradientTransform="matrix(1 0 0 -1 -50 -89)">
			<stop  offset="0" style="stop-color:#5E55D7"/>
			<stop  offset="1" style="stop-color:#5C83E3"/>
		</linearGradient>
		<circle fill="url(#SVGID_2_)" cx="25.029" cy="13.964" r="4.286"/>
		
			<linearGradient id="SVGID_3_" gradientUnits="userSpaceOnUse" x1="77.8145" y1="-110.6128" x2="85.707" y2="-110.6128" gradientTransform="matrix(1 0 0 -1 -50 -89)">
			<stop  offset="0" style="stop-color:#5E55D7"/>
			<stop  offset="1" style="stop-color:#5C83E3"/>
		</linearGradient>
		<path fill="url(#SVGID_3_)" d="M31.76,25.562c2.182,0,3.947-1.769,3.947-3.948c0-2.182-1.767-3.949-3.947-3.949
			c-2.16,0-3.912,1.736-3.945,3.89c1.245,0.78,2.118,2.101,2.277,3.634C30.599,25.426,31.162,25.562,31.76,25.562z"/>
		
			<linearGradient id="SVGID_4_" gradientUnits="userSpaceOnUse" x1="64.3506" y1="-110.6118" x2="72.2461" y2="-110.6118" gradientTransform="matrix(1 0 0 -1 -50 -89)">
			<stop  offset="0" style="stop-color:#5E55D7"/>
			<stop  offset="1" style="stop-color:#5C83E3"/>
		</linearGradient>
		<path fill="url(#SVGID_4_)" d="M18.299,17.664c-2.182,0-3.948,1.769-3.948,3.949c0,2.18,1.767,3.946,3.948,3.946
			c0.773,0,1.49-0.226,2.1-0.608c0.194-1.262,0.871-2.365,1.838-3.117c0.004-0.073,0.01-0.146,0.01-0.221
			C22.246,19.433,20.479,17.664,18.299,17.664z"/>
		
			<linearGradient id="SVGID_5_" gradientUnits="userSpaceOnUse" x1="84.3242" y1="-106.6406" x2="92.2168" y2="-106.6406" gradientTransform="matrix(1 0 0 -1 -50 -89)">
			<stop  offset="0" style="stop-color:#5E55D7"/>
			<stop  offset="1" style="stop-color:#5C83E3"/>
		</linearGradient>
		<path fill="url(#SVGID_5_)" d="M34.324,17.58c1.244,0.781,2.117,2.102,2.276,3.635c0.507,0.236,1.069,0.374,1.668,0.374
			c2.183,0,3.948-1.769,3.948-3.948s-1.768-3.948-3.948-3.948C36.108,13.691,34.356,15.429,34.324,17.58z"/>
		
			<linearGradient id="SVGID_6_" gradientUnits="userSpaceOnUse" x1="71.2793" y1="-114.6895" x2="79.1768" y2="-114.6895" gradientTransform="matrix(1 0 0 -1 -50 -89)">
			<stop  offset="0" style="stop-color:#5E55D7"/>
			<stop  offset="1" style="stop-color:#5C83E3"/>
		</linearGradient>
		<circle fill="url(#SVGID_6_)" cx="25.228" cy="25.689" r="3.949"/>
		
			<linearGradient id="SVGID_7_" gradientUnits="userSpaceOnUse" x1="78.6074" y1="-120.0322" x2="88.4883" y2="-120.0322" gradientTransform="matrix(1 0 0 -1 -50 -89)">
			<stop  offset="0" style="stop-color:#5E55D7"/>
			<stop  offset="1" style="stop-color:#5C83E3"/>
		</linearGradient>
		<path fill="url(#SVGID_7_)" d="M33.435,25.832h-3.325c-0.035,1.33-0.604,2.526-1.502,3.389c2.479,0.738,4.291,3.035,4.291,5.75
			v1.262c3.282-0.121,5.176-1.051,5.299-1.113l0.266-0.135h0.025v-4.098C38.49,28.099,36.223,25.832,33.435,25.832z"/>
		
			<linearGradient id="SVGID_8_" gradientUnits="userSpaceOnUse" x1="85.1191" y1="-116.0581" x2="95" y2="-116.0581" gradientTransform="matrix(1 0 0 -1 -50 -89)">
			<stop  offset="0" style="stop-color:#5E55D7"/>
			<stop  offset="1" style="stop-color:#5C83E3"/>
		</linearGradient>
		<path fill="url(#SVGID_8_)" d="M39.945,21.857h-3.326c-0.035,1.33-0.604,2.528-1.5,3.389c2.478,0.737,4.289,3.037,4.289,5.75
			v1.263c3.282-0.121,5.176-1.052,5.299-1.113l0.266-0.135H45v-4.099C45,24.125,42.732,21.857,39.945,21.857z"/>
		
			<linearGradient id="SVGID_9_" gradientUnits="userSpaceOnUse" x1="61.5664" y1="-120.0186" x2="71.8447" y2="-120.0186" gradientTransform="matrix(1 0 0 -1 -50 -89)">
			<stop  offset="0" style="stop-color:#5E55D7"/>
			<stop  offset="1" style="stop-color:#5C83E3"/>
		</linearGradient>
		<path fill="url(#SVGID_9_)" d="M21.845,29.221c-0.894-0.857-1.459-2.049-1.501-3.371c-0.123-0.008-0.245-0.02-0.371-0.02h-3.35
			c-2.789,0-5.057,2.27-5.057,5.057v4.098l0.01,0.064l0.282,0.088c2.134,0.668,4.04,0.973,5.694,1.07v-1.236
			C17.554,32.256,19.367,29.959,21.845,29.221z"/>
		
			<linearGradient id="SVGID_10_" gradientUnits="userSpaceOnUse" x1="68.4961" y1="-124.1152" x2="81.9551" y2="-124.1152" gradientTransform="matrix(1 0 0 -1 -50 -89)">
			<stop  offset="0" style="stop-color:#5E55D7"/>
			<stop  offset="1" style="stop-color:#5C83E3"/>
		</linearGradient>
		<path fill="url(#SVGID_10_)" d="M26.902,29.908h-3.351c-2.788,0-5.056,2.268-5.056,5.055v4.098l0.01,0.064l0.281,0.088
			c2.662,0.832,4.973,1.109,6.875,1.109c3.717,0,5.869-1.06,6.002-1.127l0.265-0.136h0.026v-4.099
			C31.957,32.176,29.689,29.908,26.902,29.908z"/>
		
			<linearGradient id="SVGID_11_" gradientUnits="userSpaceOnUse" x1="57.7813" y1="-106.7661" x2="65.6758" y2="-106.7661" gradientTransform="matrix(1 0 0 -1 -50 -89)">
			<stop  offset="0" style="stop-color:#5E55D7"/>
			<stop  offset="1" style="stop-color:#5C83E3"/>
		</linearGradient>
		<path fill="url(#SVGID_11_)" d="M11.73,21.715c0.598,0,1.161-0.137,1.668-0.374c0.159-1.533,1.032-2.854,2.277-3.636
			c-0.033-2.151-1.785-3.888-3.945-3.888c-2.182,0-3.949,1.767-3.949,3.949C7.783,19.947,9.55,21.715,11.73,21.715z"/>
		
			<linearGradient id="SVGID_12_" gradientUnits="userSpaceOnUse" x1="55" y1="-116.1841" x2="64.8818" y2="-116.1841" gradientTransform="matrix(1 0 0 -1 -50 -89)">
			<stop  offset="0" style="stop-color:#5E55D7"/>
			<stop  offset="1" style="stop-color:#5C83E3"/>
		</linearGradient>
		<path fill="url(#SVGID_12_)" d="M14.882,25.373c-0.897-0.86-1.466-2.06-1.501-3.39h-3.325C7.268,21.983,5,24.252,5,27.039v4.1
			h0.027l0.264,0.133c0.125,0.063,2.018,0.994,5.3,1.113v-1.262C10.591,28.408,12.404,26.11,14.882,25.373z"/>
		
			<linearGradient id="SVGID_13_" gradientUnits="userSpaceOnUse" x1="64.0195" y1="-103.0977" x2="70.9531" y2="-103.0977" gradientTransform="matrix(1 0 0 -1 -50 -89)">
			<stop  offset="0" style="stop-color:#5E55D7"/>
			<stop  offset="1" style="stop-color:#5C83E3"/>
		</linearGradient>
		<path fill="url(#SVGID_13_)" d="M16.349,17.274c0.474-0.192,1.196-0.427,1.886-0.427c0.803,0,1.59,0.207,2.29,0.6
			c0.156-0.152,0.3-0.32,0.429-0.498c-0.666-0.875-1.028-1.945-1.028-3.048c0-0.741,0.166-1.479,0.481-2.147
			c-0.72-0.65-1.638-1.006-2.613-1.006c-1.775,0-3.321,1.203-3.773,2.895C15.347,14.414,16.211,15.763,16.349,17.274z"/>
		
			<linearGradient id="SVGID_14_" gradientUnits="userSpaceOnUse" x1="79.1377" y1="-103.043" x2="86.1348" y2="-103.043" gradientTransform="matrix(1 0 0 -1 -50 -89)">
			<stop  offset="0" style="stop-color:#5E55D7"/>
			<stop  offset="1" style="stop-color:#5C83E3"/>
		</linearGradient>
		<path fill="url(#SVGID_14_)" d="M29.138,16.725c0.138,0.218,0.298,0.423,0.479,0.615c0.648-0.323,1.361-0.493,2.08-0.493
			c0.705,0,1.381,0.18,1.824,0.332c0.139-1.64,1.131-3.085,2.613-3.818c-0.544-1.554-2.018-2.614-3.684-2.614
			c-1.078,0-2.1,0.442-2.836,1.223c0.258,0.617,0.391,1.266,0.391,1.931C30.006,14.918,29.705,15.89,29.138,16.725z"/>
	</g>
</g>
</svg>
