<?xml version="1.0" encoding="utf-8"?>
<!-- Generator: Adobe Illustrator 16.0.0, SVG Export Plug-In . SVG Version: 6.00 Build 0)  -->
<!DOCTYPE svg PUBLIC "-//W3C//DTD SVG 1.1//EN" "http://www.w3.org/Graphics/SVG/1.1/DTD/svg11.dtd">
<svg version="1.1" id="Capa_1" xmlns="http://www.w3.org/2000/svg" xmlns:xlink="http://www.w3.org/1999/xlink" x="0px" y="0px"
	 width="20px" height="20px" viewBox="0 0 20 20" enable-background="new 0 0 20 20" xml:space="preserve">
<g>
	<g>
		<path fill="#202934" d="M4.674,3C3.742,3,2.988,3.755,2.988,4.685c0,0.932,0.754,1.686,1.687,1.686
			c0.929,0,1.685-0.754,1.685-1.686C6.359,3.755,5.604,3,4.674,3z"/>
		<rect x="3.22" y="7.647" fill="#202934" width="2.907" height="9.353"/>
		<path fill="#202934" d="M13.525,7.415c-1.414,0-2.361,0.775-2.75,1.511h-0.039V7.647H7.951l0,0V17h2.903v-4.626
			c0-1.221,0.232-2.401,1.744-2.401c1.49,0,1.512,1.396,1.512,2.479V17h2.902v-5.13C17.012,9.353,16.469,7.415,13.525,7.415z"/>
	</g>
</g>
</svg>
