<?xml version="1.0" encoding="utf-8"?>
<!-- Generator: Adobe Illustrator 16.0.0, SVG Export Plug-In . SVG Version: 6.00 Build 0)  -->
<!DOCTYPE svg PUBLIC "-//W3C//DTD SVG 1.1//EN" "http://www.w3.org/Graphics/SVG/1.1/DTD/svg11.dtd">
<svg version="1.1" id="Capa_1" xmlns="http://www.w3.org/2000/svg" xmlns:xlink="http://www.w3.org/1999/xlink" x="0px" y="0px"
	 width="20px" height="20px" viewBox="0 0 20 20" enable-background="new 0 0 20 20" xml:space="preserve">
<g>
	<g>
		<g>
			<path fill="#202934" d="M13.354,2H6.648C4.085,2,2,4.085,2,6.648v6.705C2,15.915,4.085,18,6.648,18h6.705
				C15.915,18,18,15.915,18,13.354V6.648C18,4.085,15.915,2,13.354,2z M16.75,13.354c0,1.873-1.523,3.396-3.396,3.396H6.648
				c-1.875,0-3.398-1.523-3.398-3.396V6.648c0-1.875,1.523-3.398,3.398-3.398h6.705c1.873,0,3.396,1.523,3.396,3.398V13.354z"/>
		</g>
	</g>
	<g>
		<g>
			<path fill="#202934" d="M10,5.688c-2.378,0-4.313,1.936-4.313,4.313S7.622,14.314,10,14.314s4.313-1.936,4.313-4.313
				S12.378,5.688,10,5.688z M10,13.063c-1.688,0-3.063-1.373-3.063-3.063S8.311,6.938,10,6.938S13.063,8.311,13.063,10
				S11.688,13.063,10,13.063z"/>
		</g>
	</g>
	<g>
		<g>
			<circle fill="#202934" cx="14.375" cy="5.625" r="0.625"/>
		</g>
	</g>
</g>
</svg>
