<?xml version="1.0" encoding="utf-8"?>
<!-- Generator: Adobe Illustrator 16.0.0, SVG Export Plug-In . SVG Version: 6.00 Build 0)  -->
<!DOCTYPE svg PUBLIC "-//W3C//DTD SVG 1.1//EN" "http://www.w3.org/Graphics/SVG/1.1/DTD/svg11.dtd">
<svg version="1.1" id="Capa_1" xmlns="http://www.w3.org/2000/svg" xmlns:xlink="http://www.w3.org/1999/xlink" x="0px" y="0px"
	 width="20px" height="20px" viewBox="0 0 20 20" enable-background="new 0 0 20 20" xml:space="preserve">
<g>
	<path fill="#202934" d="M10.399,1.5c-4.641,0-6.979,3.326-6.979,6.1c0,1.681,0.636,3.174,1.999,3.73
		c0.225,0.092,0.426,0.003,0.489-0.244c0.045-0.172,0.151-0.604,0.198-0.783c0.065-0.246,0.041-0.332-0.141-0.545
		C5.573,9.295,5.321,8.694,5.321,7.844c0-2.469,1.847-4.678,4.809-4.678c2.621,0,4.062,1.602,4.062,3.742
		c0,2.814-1.244,5.191-3.096,5.191c-1.02,0-1.785-0.846-1.541-1.881c0.293-1.236,0.861-2.572,0.861-3.465
		c0-0.799-0.429-1.466-1.316-1.466c-1.043,0-1.883,1.081-1.883,2.526c0,0.923,0.313,1.545,0.313,1.545s-1.069,4.529-1.256,5.322
		c-0.375,1.578-0.057,3.516-0.029,3.711c0.016,0.115,0.164,0.144,0.23,0.056c0.098-0.126,1.342-1.661,1.764-3.195
		c0.119-0.435,0.688-2.685,0.688-2.685c0.34,0.646,1.33,1.218,2.384,1.218c3.141,0,5.27-2.861,5.27-6.692
		C16.58,4.197,14.127,1.5,10.399,1.5z"/>
</g>
</svg>
