<?xml version="1.0" encoding="utf-8"?>
<!-- Generator: Adobe Illustrator 16.0.0, SVG Export Plug-In . SVG Version: 6.00 Build 0)  -->
<!DOCTYPE svg PUBLIC "-//W3C//DTD SVG 1.1//EN" "http://www.w3.org/Graphics/SVG/1.1/DTD/svg11.dtd">
<svg version="1.1" id="Layer_1" xmlns="http://www.w3.org/2000/svg" xmlns:xlink="http://www.w3.org/1999/xlink" x="0px" y="0px"
	 width="50px" height="50px" viewBox="0 0 50 50" enable-background="new 0 0 50 50" xml:space="preserve">
<g>
	<path fill="#F9BA48" d="M27.839,38.484h-5.678v-2.488c-1.024-0.264-2.007-0.671-2.927-1.217l-1.762,1.762l-4.015-4.016l1.761-1.762
		c-0.545-0.92-0.951-1.9-1.216-2.926h-2.487V22.16h2.487c0.265-1.025,0.671-2.006,1.216-2.926l-1.761-1.762l4.015-4.016l1.762,1.761
		c0.92-0.545,1.9-0.952,2.927-1.216v-2.486h5.678v2.486c1.024,0.264,2.007,0.671,2.927,1.216l1.762-1.761l4.015,4.016l-1.761,1.762
		c0.545,0.92,0.951,1.899,1.216,2.926h2.487v5.678h-2.487c-0.265,1.025-0.671,2.006-1.216,2.926l1.761,1.762l-4.015,4.016
		l-1.762-1.762c-0.921,0.546-1.9,0.953-2.927,1.217V38.484L27.839,38.484z"/>
	<g>
		<path fill="#333333" d="M21.452,28.009v0.54h-0.709v1.419h0.709v2.13h7.097v-2.13h0.709v-1.419h-0.709v-0.54
			c1.34-1.075,2.129-2.704,2.129-4.428c0-3.13-2.548-5.677-5.678-5.677s-5.677,2.547-5.677,5.677
			C19.323,25.307,20.111,26.934,21.452,28.009z M27.129,30.678h-4.258v-0.71h4.258V30.678z M24.291,23.581
			c0-0.392,0.318-0.709,0.709-0.709s0.71,0.317,0.71,0.709s-0.317,0.71-0.71,0.71S24.291,23.973,24.291,23.581z M25,19.323
			c2.35,0,4.258,1.909,4.258,4.258c0,1.388-0.683,2.692-1.824,3.493l-0.305,0.211v1.265H25.71v-2.97
			c0.823-0.294,1.419-1.074,1.419-1.999c0-1.174-0.955-2.129-2.129-2.129s-2.129,0.955-2.129,2.129c0,0.924,0.595,1.705,1.419,1.999
			v2.97h-1.419v-1.265l-0.305-0.211c-1.143-0.801-1.824-2.105-1.824-3.493C20.742,21.232,22.652,19.323,25,19.323z"/>
		<path fill="#333333" d="M29.968,3H15.273c-1.689,0-3.299,0.729-4.412,2.002C9.822,6.189,9.313,7.71,9.426,9.283
			c0.1,1.389,0.676,2.667,1.633,3.652H9.387v1.418h4.102l0.844-3.375l-1.376-0.345l-0.433,1.726l-0.144-0.125
			c-0.907-0.777-1.454-1.861-1.54-3.053c-0.085-1.193,0.301-2.346,1.087-3.246c0.845-0.963,2.063-1.517,3.345-1.517h14.694V3H29.968
			z"/>
		<path fill="#333333" d="M10.635,37.043l1.725,0.432l-0.123,0.145c-0.778,0.906-1.862,1.454-3.055,1.54
			c-1.193,0.081-2.346-0.302-3.246-1.089c-0.963-0.844-1.517-2.063-1.517-3.344V20.033H3v14.693c0,1.69,0.729,3.299,2.002,4.412
			c1.079,0.943,2.432,1.451,3.852,1.451c0.143,0,0.285-0.006,0.43-0.016c1.389-0.102,2.667-0.676,3.652-1.633v1.672h1.418v-4.104
			l-3.375-0.843L10.635,37.043z"/>
		<path fill="#333333" d="M35.666,39.021l1.377,0.344l0.432-1.725l0.144,0.123c0.907,0.777,1.454,1.861,1.54,3.055
			c0.085,1.192-0.301,2.345-1.088,3.244c-0.844,0.965-2.063,1.519-3.344,1.519H20.033V47h14.693c1.69,0,3.299-0.729,4.412-2.002
			c1.038-1.188,1.549-2.707,1.436-4.281c-0.102-1.389-0.676-2.666-1.633-3.65h1.673v-1.42H36.51L35.666,39.021z"/>
		<path fill="#333333" d="M44.998,10.861c-1.188-1.039-2.705-1.549-4.281-1.436c-1.389,0.1-2.666,0.676-3.65,1.633V9.386h-1.42
			v4.104l3.377,0.843l0.344-1.376l-1.725-0.433l0.123-0.144c0.777-0.907,1.861-1.454,3.055-1.54
			c1.189-0.083,2.345,0.301,3.244,1.087c0.963,0.845,1.518,2.063,1.518,3.345v14.694H47V15.271
			C47,13.583,46.271,11.975,44.998,10.861z"/>
	</g>
</g>
</svg>
