<?xml version="1.0" encoding="utf-8"?>
<!-- Generator: Adobe Illustrator 16.0.0, SVG Export Plug-In . SVG Version: 6.00 Build 0)  -->
<!DOCTYPE svg PUBLIC "-//W3C//DTD SVG 1.1//EN" "http://www.w3.org/Graphics/SVG/1.1/DTD/svg11.dtd">
<svg version="1.1" id="Layer_1" xmlns="http://www.w3.org/2000/svg" xmlns:xlink="http://www.w3.org/1999/xlink" x="0px" y="0px"
	 width="50px" height="50px" viewBox="0 0 50 50" enable-background="new 0 0 50 50" xml:space="preserve">
<g>
	<g>
		<polygon fill="#F9BA48" points="25,17.193 17.903,32.807 20.743,42.742 29.258,42.742 32.098,32.807 		"/>
		<path fill="#333333" d="M25.711,28.648V17.902h-1.419v10.746c-1.223,0.317-2.129,1.42-2.129,2.737
			c0,1.566,1.273,2.839,2.839,2.839c1.565,0,2.838-1.271,2.838-2.839C27.84,30.068,26.932,28.967,25.711,28.648z M25,32.807
			c-0.783,0-1.419-0.637-1.419-1.42c0-0.781,0.637-1.419,1.419-1.419c0.783,0,1.419,0.638,1.419,1.419
			C26.42,32.17,25.783,32.807,25,32.807z"/>
		<path fill="#333333" d="M32.398,10.807h9.025c0.316,1.221,1.418,2.129,2.736,2.129c1.564,0,2.84-1.272,2.84-2.838
			c0-1.566-1.273-2.84-2.84-2.84c-1.318,0-2.42,0.909-2.736,2.129H27.838V7.258h-5.677v2.09L8.576,9.386
			c-0.318-1.22-1.419-2.128-2.737-2.128C4.274,7.258,3,8.531,3,10.098c0,1.565,1.272,2.838,2.839,2.838
			c1.32,0,2.421-0.908,2.738-2.129l9.093-0.025c-6.989,2.76-11.94,9.33-12.485,17.059H3v5.678h5.677V27.84H6.606
			c0.647-8.521,7.068-15.509,15.556-16.814v1.912h5.678v-1.912c8.486,1.306,14.906,8.293,15.555,16.814h-2.07v5.678H47V27.84h-2.186
			C44.271,20.136,39.352,13.583,32.398,10.807z M44.162,8.677c0.781,0,1.42,0.638,1.42,1.419c0,0.783-0.639,1.42-1.42,1.42
			c-0.783,0-1.42-0.637-1.42-1.42C42.742,9.314,43.379,8.677,44.162,8.677z M5.839,11.516c-0.782,0-1.419-0.636-1.419-1.418
			c0-0.783,0.637-1.42,1.419-1.42c0.783,0,1.419,0.637,1.419,1.42C7.258,10.88,6.623,11.516,5.839,11.516z M7.258,29.258v2.84H4.42
			v-2.84h0.709h1.419H7.258z M26.42,11.516h-2.838V8.677h2.838V11.516z M45.582,29.258v2.84h-2.84v-2.84h0.709h1.42H45.582z"/>
	</g>
</g>
</svg>
