<?xml version="1.0" encoding="utf-8"?>
<!-- Generator: Adobe Illustrator 16.0.0, SVG Export Plug-In . SVG Version: 6.00 Build 0)  -->
<!DOCTYPE svg PUBLIC "-//W3C//DTD SVG 1.1//EN" "http://www.w3.org/Graphics/SVG/1.1/DTD/svg11.dtd">
<svg version="1.1" id="Layer_1" xmlns="http://www.w3.org/2000/svg" xmlns:xlink="http://www.w3.org/1999/xlink" x="0px" y="0px"
	 width="50px" height="50px" viewBox="0 0 50 50" enable-background="new 0 0 50 50" xml:space="preserve">
<g>
	<g>
		<path fill="#F9BA48" d="M25,26.42c-0.784,0-1.419-0.636-1.419-1.42s0.635-1.419,1.419-1.419c0.26,0,0.5,0.075,0.71,0.196V3.729
			C25.475,3.721,25.238,3.71,25,3.71C13.241,3.71,3.71,13.241,3.71,25S13.241,46.29,25,46.29c0.238,0,0.475-0.011,0.71-0.019V26.223
			C25.5,26.344,25.26,26.42,25,26.42z"/>
		<path fill="#333333" d="M45.536,26.373l1.416,0.093C46.982,25.982,47,25.488,47,25h-1.419
			C45.581,25.461,45.564,25.919,45.536,26.373z"/>
		<path fill="#333333" d="M9.55,38.598l-1.063,0.939c0.634,0.718,1.318,1.4,2.033,2.025l0.936-1.067
			C10.785,39.909,10.145,39.271,9.55,38.598z"/>
		<path fill="#333333" d="M12.802,43.313c0.796,0.53,1.634,1.015,2.49,1.437l0.627-1.272c-0.801-0.396-1.585-0.848-2.33-1.346
			L12.802,43.313z"/>
		<path fill="#333333" d="M17.951,45.846c0.904,0.307,1.84,0.557,2.779,0.74l0.274-1.393c-0.879-0.174-1.753-0.405-2.599-0.692
			L17.951,45.846z"/>
		<path fill="#333333" d="M42.105,36.448l1.179,0.79c0.532-0.795,1.018-1.633,1.44-2.488l-1.271-0.629
			C43.057,34.921,42.604,35.705,42.105,36.448z"/>
		<path fill="#333333" d="M4.822,29.072L3.43,29.35c0.188,0.938,0.44,1.871,0.75,2.775l1.344-0.459
			C5.232,30.82,4.997,29.947,4.822,29.072z"/>
		<path fill="#333333" d="M5.287,34.775c0.424,0.854,0.911,1.69,1.443,2.483l1.178-0.791c-0.499-0.741-0.953-1.524-1.352-2.323
			L5.287,34.775z"/>
		<path fill="#333333" d="M23.671,45.538l-0.091,1.417C24.049,46.984,24.523,47,24.999,47c0.485,0,0.976-0.016,1.453-0.047
			l-0.093-1.416C25.473,45.596,24.561,45.596,23.671,45.538z"/>
		<path fill="#333333" d="M44.486,31.639l1.344,0.457c0.309-0.902,0.561-1.839,0.746-2.777l-1.393-0.277
			C45.01,29.919,44.773,30.792,44.486,31.639z"/>
		<path fill="#333333" d="M29.025,45.188l0.277,1.392c0.938-0.187,1.871-0.437,2.776-0.743l-0.457-1.345
			C30.777,44.777,29.904,45.012,29.025,45.188z"/>
		<path fill="#333333" d="M38.563,40.48l0.937,1.066c0.717-0.628,1.399-1.313,2.032-2.029l-1.066-0.938
			C39.874,39.253,39.234,39.893,38.563,40.48z"/>
		<path fill="#333333" d="M34.104,43.464l0.629,1.272c0.854-0.424,1.691-0.906,2.486-1.438l-0.789-1.18
			C35.686,42.615,34.902,43.068,34.104,43.464z"/>
		<path fill="#333333" d="M4.419,25C4.419,13.65,13.65,4.419,25,4.419c3.65,0,7.188,0.959,10.313,2.774l-2.062,0.824l0.526,1.318
			l3.996-1.598V3.71h-1.42v2.459C32.934,4.102,29.032,3,25,3C12.87,3,3,12.87,3,25c0,0.488,0.018,0.982,0.047,1.466l1.417-0.093
			C4.434,25.919,4.419,25.461,4.419,25z"/>
		<path fill="#333333" d="M40.613,20.032c0-0.409-0.122-0.788-0.322-1.112l3.889-6.109c0.217,0.074,0.448,0.125,0.691,0.125
			c1.174,0,2.129-0.955,2.129-2.129c0-1.175-0.955-2.13-2.129-2.13s-2.129,0.956-2.129,2.13c0,0.408,0.121,0.787,0.322,1.111
			l-3.89,6.109c-0.218-0.074-0.448-0.125-0.69-0.125c-0.562,0-1.066,0.223-1.447,0.576l-2.842-1.705
			c0.015-0.096,0.029-0.19,0.029-0.291c0-1.174-0.955-2.129-2.129-2.129s-2.129,0.955-2.129,2.129c0,0.369,0.104,0.711,0.27,1.014
			l-4.43,5.536c-0.031-0.013-0.065-0.019-0.099-0.031V7.257H25c-9.783,0-17.742,7.959-17.742,17.742S15.217,42.741,25,42.741h0.71
			V26.997c0.823-0.293,1.419-1.074,1.419-1.998c0-0.368-0.104-0.71-0.27-1.013l4.43-5.536c0.25,0.103,0.521,0.161,0.809,0.161
			c0.56,0,1.065-0.221,1.445-0.576l2.842,1.705c-0.014,0.096-0.029,0.191-0.029,0.291c0,1.174,0.955,2.129,2.129,2.129
			C39.658,22.161,40.613,21.206,40.613,20.032z M44.871,10.098c0.391,0,0.71,0.318,0.71,0.709c0,0.392-0.319,0.709-0.71,0.709
			c-0.393,0-0.71-0.317-0.71-0.709C44.161,10.416,44.479,10.098,44.871,10.098z M24.291,17.163
			c-2.139-0.108-4.072-0.677-5.695-1.396c1.797-3.518,4.301-5.586,5.695-6.537V17.163z M17.352,15.163
			c-1.537-0.817-2.692-1.688-3.334-2.222c2.303-2.099,5.205-3.549,8.418-4.059C20.906,10.132,18.891,12.182,17.352,15.163z
			 M16.742,16.465c-0.926,2.168-1.572,4.764-1.661,7.826H8.695c0.171-3.98,1.775-7.593,4.307-10.34
			C13.691,14.54,14.984,15.538,16.742,16.465z M15.081,25.71c0.088,3.063,0.735,5.658,1.661,7.825
			c-1.758,0.927-3.051,1.926-3.74,2.514c-2.531-2.746-4.136-6.359-4.307-10.339H15.081L15.081,25.71z M17.352,34.837
			c1.539,2.981,3.555,5.031,5.084,6.28c-3.213-0.51-6.117-1.96-8.418-4.059C14.659,36.523,15.813,35.654,17.352,34.837z
			 M18.622,34.221c1.618-0.713,3.543-1.275,5.668-1.383v7.916C22.908,39.792,20.42,37.707,18.622,34.221z M24.291,31.417
			c-2.375,0.106-4.502,0.722-6.273,1.502c-0.841-1.997-1.43-4.387-1.516-7.209h6.501c0.214,0.603,0.688,1.075,1.289,1.289
			L24.291,31.417L24.291,31.417L24.291,31.417z M23.001,24.291H16.5c0.084-2.833,0.665-5.225,1.493-7.219
			c1.776,0.785,3.913,1.404,6.298,1.512v4.418C23.689,23.216,23.216,23.689,23.001,24.291z M25,25.71
			c-0.391,0-0.709-0.319-0.709-0.71s0.318-0.71,0.709-0.71s0.71,0.319,0.71,0.71S25.391,25.71,25,25.71z M32.098,17.193
			c-0.392,0-0.711-0.318-0.711-0.709c0-0.392,0.319-0.711,0.711-0.711c0.391,0,0.709,0.319,0.709,0.711
			C32.807,16.875,32.486,17.193,32.098,17.193z M38.484,20.742c-0.393,0-0.711-0.319-0.711-0.71c0-0.392,0.318-0.71,0.711-0.71
			c0.391,0,0.709,0.318,0.709,0.71C39.193,20.423,38.875,20.742,38.484,20.742z"/>
	</g>
</g>
</svg>
