<?xml version="1.0" encoding="utf-8"?>
<!-- Generator: Adobe Illustrator 16.0.0, SVG Export Plug-In . SVG Version: 6.00 Build 0)  -->
<!DOCTYPE svg PUBLIC "-//W3C//DTD SVG 1.1//EN" "http://www.w3.org/Graphics/SVG/1.1/DTD/svg11.dtd">
<svg version="1.1" id="Layer_5" xmlns="http://www.w3.org/2000/svg" xmlns:xlink="http://www.w3.org/1999/xlink" x="0px" y="0px"
	 width="50px" height="50px" viewBox="0 0 50 50" enable-background="new 0 0 50 50" xml:space="preserve">
<g>
	<path fill="#F0BC5E" d="M45.087,16.164c-0.364-1.433-0.935-2.8-1.694-4.081l1.021-1.695l-4.801-4.799L37.92,6.61
		c-1.279-0.762-2.648-1.33-4.081-1.695L33.363,3h-6.787L26.1,4.916c-1.432,0.366-2.8,0.935-4.08,1.694l-1.695-1.021l-4.801,4.8
		l1.021,1.694c-0.761,1.28-1.33,2.647-1.695,4.081l-1.914,0.477v6.786l1.908,0.474c0.085,0.371,0.178,0.76,0.275,1.152l0.047,0.19
		l0.281,0.28c0.481-1.416,1.42-2.634,2.638-3.485c-0.11-0.654-0.183-1.32-0.183-2.005c0-6.663,5.401-12.064,12.064-12.064
		s12.064,5.401,12.064,12.064c0,6.662-5.401,12.064-12.064,12.064c-0.686,0-1.352-0.072-2.005-0.182
		c-0.853,1.217-2.069,2.152-3.485,2.637l0.28,0.281l0.19,0.047c0.393,0.1,0.779,0.189,1.15,0.273l0.475,1.91h6.787l0.477-1.916
		c1.432-0.363,2.801-0.932,4.081-1.693l1.694,1.021l4.8-4.801l-1.021-1.693c0.761-1.279,1.329-2.648,1.694-4.08l1.914-0.477v-6.787
		L45.087,16.164z"/>
	<path fill="#333333" d="M29.97,7.258c-7.043,0-12.774,5.73-12.774,12.774c0,0.549,0.054,1.11,0.133,1.688
		c-1.405,1.104-2.42,2.662-2.795,4.441c-0.29,1.373-0.215,2.775,0.216,4.092L4.613,38.91c-1.024,0.875-1.611,2.146-1.611,3.492
		C3.002,44.938,5.064,47,7.598,47c1.346,0,2.62-0.588,3.494-1.611l8.656-10.137c1.314,0.43,2.718,0.506,4.091,0.217
		c1.78-0.375,3.339-1.389,4.442-2.795c0.576,0.08,1.138,0.133,1.688,0.133c7.044,0,12.774-5.73,12.774-12.774
		C42.744,12.99,37.014,7.258,29.97,7.258z M23.546,34.082c-1.265,0.266-2.565,0.154-3.755-0.322l-0.473-0.189l-9.307,10.898
		c-0.604,0.707-1.484,1.113-2.414,1.113c-1.752,0-3.177-1.428-3.177-3.178c0-0.932,0.406-1.813,1.113-2.416l10.897-9.307
		l-0.19-0.473c-0.478-1.189-0.589-2.488-0.321-3.754c0.456-2.163,2.057-3.948,4.178-4.659c0.689-0.231,1.379-0.346,2.067-0.346
		c0.347,0,0.692,0.028,1.037,0.088l-2.692,2.692c-0.664,0.662-1.076,1.488-1.165,2.328c-0.118,1.127,0.271,2.232,1.069,3.029
		c0.797,0.797,1.898,1.191,3.027,1.066c0.838-0.088,1.666-0.5,2.33-1.162l2.691-2.693c0.175,1.027,0.089,2.066-0.259,3.104
		C27.493,32.023,25.709,33.625,23.546,34.082L23.546,34.082z M29.97,31.387c-0.274,0-0.554-0.018-0.834-0.039
		c0.159-0.318,0.302-0.648,0.416-0.992c0.572-1.705,0.554-3.492-0.053-5.167l-0.38-1.049l-4.352,4.351
		c-0.434,0.434-0.957,0.701-1.473,0.756c-0.702,0.07-1.384-0.166-1.878-0.66c-0.493-0.492-0.733-1.178-0.661-1.879
		c0.055-0.516,0.322-1.037,0.756-1.47l4.352-4.352l-1.049-0.379c-1.676-0.605-3.463-0.625-5.168-0.053
		c-0.343,0.115-0.673,0.256-0.992,0.416c-0.021-0.283-0.039-0.563-0.039-0.835c0-6.261,5.094-11.354,11.354-11.354
		s11.354,5.094,11.354,11.354C41.324,26.295,36.23,31.387,29.97,31.387L29.97,31.387z"/>
	<path fill="#333333" d="M34.229,12.936v1.42h-2.84v2.838h-2.838v5.678h9.936v-9.936H34.229L34.229,12.936z M29.97,18.614h1.419
		v2.839H29.97V18.614z M32.809,21.453v-5.677h1.42v5.677H32.809z M37.066,21.453h-1.42v-7.097h1.42V21.453z"/>
	<path fill="#333333" d="M20.514,16.975l1.35,0.438c0.84-2.596,2.89-4.646,5.486-5.485l-0.438-1.35
		C23.884,11.555,21.492,13.948,20.514,16.975L20.514,16.975z"/>
	<path fill="#333333" d="M29.97,11.516v-1.418c-0.516,0-1.028,0.039-1.528,0.116l0.22,1.403
		C29.087,11.55,29.527,11.516,29.97,11.516z"/>
	<path fill="#333333" d="M7.97,39.902c-1.174,0-2.129,0.955-2.129,2.131c0,1.174,0.955,2.129,2.129,2.129
		c1.175,0,2.13-0.955,2.13-2.129C10.1,40.857,9.145,39.902,7.97,39.902z M7.97,42.742c-0.391,0-0.709-0.318-0.709-0.709
		c0-0.393,0.318-0.711,0.709-0.711c0.392,0,0.709,0.318,0.709,0.711C8.679,42.424,8.361,42.742,7.97,42.742z"/>
	<path fill="#333333" d="M12.309,36.682l1.004-1.002l1.002,1.002l-1.002,1.004L12.309,36.682z"/>
	<path fill="#333333" d="M10.302,38.689l1.003-1.004l1.004,1.004l-1.004,1.002L10.302,38.689z"/>
	<path fill="#333333" d="M14.316,34.676l0.953-0.953l1.002,1.004l-0.953,0.951L14.316,34.676z"/>
	<path fill="#333333" d="M35.896,26.146l0.988,1.021c0.365-0.355,0.706-0.738,1.012-1.145l-1.131-0.856
		C36.502,25.514,36.21,25.844,35.896,26.146L35.896,26.146z"/>
	<path fill="#333333" d="M33.768,27.658l0.635,1.27c0.453-0.227,0.895-0.49,1.309-0.785l-0.82-1.156
		C34.533,27.236,34.156,27.463,33.768,27.658L33.768,27.658z"/>
	<path fill="#333333" d="M31.281,28.447l0.216,1.402c0.505-0.076,1.006-0.195,1.489-0.35l-0.434-1.352
		C32.143,28.281,31.714,28.383,31.281,28.447z"/>
</g>
</svg>
