<?xml version="1.0" encoding="utf-8"?>
<!-- Generator: Adobe Illustrator 16.0.0, SVG Export Plug-In . SVG Version: 6.00 Build 0)  -->
<!DOCTYPE svg PUBLIC "-//W3C//DTD SVG 1.1//EN" "http://www.w3.org/Graphics/SVG/1.1/DTD/svg11.dtd">
<svg version="1.1" id="Layer_1" xmlns="http://www.w3.org/2000/svg" xmlns:xlink="http://www.w3.org/1999/xlink" x="0px" y="0px"
	 width="30px" height="30px" viewBox="0 0 30 30" enable-background="new 0 0 30 30" xml:space="preserve">
<g>
	
		<linearGradient id="SVGID_1_" gradientUnits="userSpaceOnUse" x1="59.3984" y1="-131.9893" x2="64.5684" y2="-131.9893" gradientTransform="matrix(1 0 0 -1 -50 -109)">
		<stop  offset="0" style="stop-color:#5E55D7"/>
		<stop  offset="1" style="stop-color:#5C83E3"/>
	</linearGradient>
	<path fill="url(#SVGID_1_)" d="M13.133,24.816V17.91c0-0.238-0.193-0.432-0.431-0.432H9.831c-0.239,0-0.432,0.191-0.432,0.432
		c0,0.238,0.192,0.432,0.432,0.432h2.441v6.475c-0.822,0.195-1.438,0.936-1.438,1.816c0,1.029,0.838,1.867,1.867,1.867
		s1.867-0.838,1.867-1.867C14.569,25.75,13.956,25.012,13.133,24.816z M12.703,27.639c-0.554,0-1.005-0.451-1.005-1.006
		s0.451-1.006,1.005-1.006s1.005,0.451,1.005,1.006S13.256,27.639,12.703,27.639z"/>
	
		<linearGradient id="SVGID_2_" gradientUnits="userSpaceOnUse" x1="63.9961" y1="-131.9893" x2="69.166" y2="-131.9893" gradientTransform="matrix(1 0 0 -1 -50 -109)">
		<stop  offset="0" style="stop-color:#5E55D7"/>
		<stop  offset="1" style="stop-color:#5C83E3"/>
	</linearGradient>
	<path fill="url(#SVGID_2_)" d="M17.729,24.816V17.91c0-0.238-0.191-0.432-0.43-0.432h-2.873c-0.238,0-0.431,0.191-0.431,0.432
		c0,0.238,0.192,0.432,0.431,0.432h2.441v6.475c-0.822,0.195-1.435,0.936-1.435,1.816c0,1.029,0.835,1.867,1.867,1.867
		c1.029,0,1.867-0.838,1.867-1.867C19.166,25.75,18.551,25.012,17.729,24.816z M17.299,27.639c-0.555,0-1.006-0.451-1.006-1.006
		s0.451-1.006,1.006-1.006c0.553,0,1.004,0.451,1.004,1.006S17.852,27.639,17.299,27.639z"/>
	
		<linearGradient id="SVGID_3_" gradientUnits="userSpaceOnUse" x1="68.5898" y1="-130.5547" x2="76.9199" y2="-130.5547" gradientTransform="matrix(1 0 0 -1 -50 -109)">
		<stop  offset="0" style="stop-color:#5E55D7"/>
		<stop  offset="1" style="stop-color:#5C83E3"/>
	</linearGradient>
	<path fill="url(#SVGID_3_)" d="M25.053,21.895c-0.881,0-1.621,0.613-1.816,1.436h-0.91v-5.418c0-0.24-0.193-0.432-0.432-0.432
		h-2.873c-0.236,0-0.432,0.191-0.432,0.432c0,0.238,0.193,0.43,0.432,0.43h2.441v5.42c0,0.236,0.193,0.432,0.432,0.432h1.342
		c0.195,0.822,0.938,1.436,1.816,1.436c1.031,0,1.867-0.838,1.867-1.865C26.92,22.734,26.084,21.895,25.053,21.895z M25.053,24.766
		c-0.553,0-1.004-0.451-1.004-1.006c0-0.553,0.451-1.004,1.004-1.004c0.555,0,1.006,0.451,1.006,1.004
		C26.059,24.314,25.607,24.766,25.053,24.766z"/>
	
		<linearGradient id="SVGID_4_" gradientUnits="userSpaceOnUse" x1="51.5" y1="-122.5635" x2="78.5" y2="-122.5635" gradientTransform="matrix(1 0 0 -1 -50 -109)">
		<stop  offset="0" style="stop-color:#5E55D7"/>
		<stop  offset="1" style="stop-color:#5C83E3"/>
	</linearGradient>
	<path fill="url(#SVGID_4_)" d="M27.475,10.781c-0.582-0.721-1.369-1.256-2.248-1.527c-0.098-2.04-0.943-3.943-2.4-5.389
		C21.287,2.34,19.248,1.5,17.084,1.5c-2.845,0-5.476,1.481-6.957,3.894c-0.359-0.112-0.734-0.17-1.116-0.17
		c-1.76,0-3.274,1.242-3.639,2.937C3.112,8.747,1.5,10.806,1.5,13.168c0,2.855,2.32,5.173,5.174,5.173h1.001v4.988H6.762
		c-0.195-0.822-0.936-1.436-1.816-1.436c-1.029,0-1.866,0.838-1.866,1.867c0,1.027,0.837,1.865,1.866,1.865
		c0.882,0,1.623-0.613,1.816-1.436h1.344c0.237,0,0.431-0.193,0.431-0.432v-5.85c0-0.24-0.193-0.432-0.431-0.432H6.673
		c-2.378,0-4.313-1.936-4.313-4.313c0-2.052,1.459-3.831,3.47-4.23C6.011,8.9,6.149,8.752,6.173,8.568
		c0.185-1.416,1.404-2.485,2.836-2.485c0.394,0,0.775,0.079,1.136,0.233c0.203,0.088,0.439,0.009,0.547-0.187
		c1.287-2.325,3.734-3.771,6.39-3.771c3.982,0,7.256,3.242,7.293,7.228c0.002,0.199,0.139,0.372,0.334,0.417
		c1.725,0.398,2.93,1.916,2.93,3.688c0,2.09-1.699,3.788-3.787,3.788h-0.234c-0.238,0-0.432,0.191-0.432,0.432
		c0,0.238,0.191,0.432,0.432,0.432h0.234c2.563,0,4.648-2.086,4.648-4.649C28.5,12.636,28.135,11.601,27.475,10.781z M4.948,24.766
		c-0.555,0-1.006-0.451-1.006-1.006c0-0.553,0.451-1.004,1.006-1.004c0.554,0,1.005,0.451,1.005,1.004
		C5.953,24.314,5.501,24.766,4.948,24.766z"/>
	
		<linearGradient id="SVGID_5_" gradientUnits="userSpaceOnUse" x1="71.709" y1="-117.6494" x2="72.9395" y2="-117.6494" gradientTransform="matrix(1 0 0 -1 -50 -109)">
		<stop  offset="0" style="stop-color:#5E55D7"/>
		<stop  offset="1" style="stop-color:#5C83E3"/>
	</linearGradient>
	<path fill="url(#SVGID_5_)" d="M22.508,10.037h0.004c0.238-0.003,0.43-0.197,0.428-0.436c-0.006-0.709-0.141-1.403-0.398-2.063
		c-0.086-0.222-0.334-0.332-0.557-0.245c-0.223,0.086-0.332,0.336-0.246,0.559c0.221,0.563,0.334,1.153,0.34,1.758
		C22.08,9.847,22.271,10.037,22.508,10.037L22.508,10.037z"/>
	
		<linearGradient id="SVGID_6_" gradientUnits="userSpaceOnUse" x1="66.6504" y1="-114.2188" x2="71.6963" y2="-114.2188" gradientTransform="matrix(1 0 0 -1 -50 -109)">
		<stop  offset="0" style="stop-color:#5E55D7"/>
		<stop  offset="1" style="stop-color:#5C83E3"/>
	</linearGradient>
	<path fill="url(#SVGID_6_)" d="M20.934,6.484c0.086,0.103,0.209,0.156,0.332,0.156c0.096,0,0.193-0.033,0.275-0.099
		c0.182-0.151,0.209-0.423,0.057-0.606c-1.121-1.358-2.768-2.138-4.516-2.138c-0.238,0-0.432,0.193-0.432,0.431
		c0,0.238,0.191,0.432,0.432,0.432C18.57,4.66,19.975,5.324,20.934,6.484z"/>
</g>
</svg>
