<?xml version="1.0" encoding="utf-8"?>
<!-- Generator: Adobe Illustrator 16.0.0, SVG Export Plug-In . SVG Version: 6.00 Build 0)  -->
<!DOCTYPE svg PUBLIC "-//W3C//DTD SVG 1.1//EN" "http://www.w3.org/Graphics/SVG/1.1/DTD/svg11.dtd">
<svg version="1.1" id="Layer_1" xmlns="http://www.w3.org/2000/svg" xmlns:xlink="http://www.w3.org/1999/xlink" x="0px" y="0px"
	 width="30px" height="30px" viewBox="0 0 30 30" enable-background="new 0 0 30 30" xml:space="preserve">
<g>
	
		<linearGradient id="SVGID_1_" gradientUnits="userSpaceOnUse" x1="58.7021" y1="-117.3286" x2="69.8979" y2="-130.6713" gradientTransform="matrix(1 0 0 -1 -50 -109)">
		<stop  offset="0" style="stop-color:#5E55D7"/>
		<stop  offset="1" style="stop-color:#5C83E3"/>
	</linearGradient>
	<path fill="url(#SVGID_1_)" d="M18.978,7.985H9.622c-0.774,0-1.403,0.627-1.403,1.402v11.226c0,0.772,0.628,1.402,1.403,1.402
		h9.355c0.773,0,1.402-0.628,1.402-1.402V9.387C20.38,8.612,19.751,7.985,18.978,7.985z M9.622,8.919h9.355
		c0.257,0,0.467,0.211,0.467,0.468v5.145H18.12c-0.174,0-0.332,0.096-0.415,0.249l-0.924,1.75l-1.562-5.862
		c-0.055-0.204-0.241-0.348-0.453-0.348c-0.212,0-0.396,0.144-0.452,0.348l-1.542,5.781l-0.779-1.652
		c-0.077-0.162-0.241-0.267-0.421-0.267H9.153V9.387C9.155,9.13,9.363,8.919,9.622,8.919z M18.978,21.081H9.622
		c-0.259,0-0.467-0.209-0.467-0.468v-5.145h2.12l1.2,2.539c0.085,0.178,0.269,0.283,0.466,0.266
		c0.196-0.019,0.359-0.154,0.411-0.345l1.415-5.321l1.42,5.321c0.049,0.187,0.208,0.322,0.398,0.345
		c0.018,0,0.036,0.002,0.054,0.002c0.174,0,0.33-0.096,0.415-0.249l1.349-2.557h1.043v5.146
		C19.444,20.872,19.234,21.081,18.978,21.081z"/>
	
		<linearGradient id="SVGID_2_" gradientUnits="userSpaceOnUse" x1="55.3496" y1="-113.335" x2="73.2486" y2="-134.666" gradientTransform="matrix(1 0 0 -1 -50 -109)">
		<stop  offset="0" style="stop-color:#5E55D7"/>
		<stop  offset="1" style="stop-color:#5C83E3"/>
	</linearGradient>
	<path fill="url(#SVGID_2_)" d="M23.186,14.066c0.259,0,0.467-0.21,0.467-0.469v-3.275c0-0.257-0.208-0.467-0.467-0.467h-0.935
		V8.451c-0.004-0.975-0.611-1.847-1.529-2.185c-0.038-0.042-0.083-0.078-0.132-0.104c-0.019-0.007-1.613-0.836-1.613-1.918V0.968
		c0-0.259-0.21-0.469-0.469-0.469h-8.418c-0.259,0-0.467,0.209-0.467,0.469v3.275c0,0.908-1.165,1.693-1.614,1.919
		c-0.05,0.026-0.095,0.063-0.131,0.105C6.96,6.604,6.349,7.476,6.347,8.452V21.55c0.004,0.974,0.613,1.847,1.528,2.185
		c0.038,0.041,0.083,0.077,0.135,0.104c0.016,0.01,1.612,0.835,1.612,1.92v3.274c0,0.257,0.208,0.468,0.467,0.468h8.418
		c0.259,0,0.469-0.211,0.469-0.468v-3.274c0-0.908,1.163-1.693,1.615-1.92c0.049-0.026,0.092-0.063,0.128-0.104
		c0.92-0.338,1.528-1.211,1.531-2.185v-1.405h0.935c0.259,0,0.467-0.207,0.467-0.466v-3.277c0-0.255-0.208-0.465-0.467-0.465h-0.935
		v-1.871H23.186L23.186,14.066z M22.718,10.791v2.338h-0.467v-2.338H22.718z M10.558,4.243V1.436h7.485v2.808
		c0.035,0.72,0.367,1.395,0.908,1.871H9.649C10.191,5.638,10.519,4.963,10.558,4.243z M18.043,25.758v2.808h-7.485v-2.808
		c-0.039-0.719-0.367-1.396-0.909-1.871h9.303C18.409,24.361,18.078,25.037,18.043,25.758z M21.316,21.55
		c0,0.771-0.629,1.402-1.402,1.402H8.686c-0.774,0-1.403-0.63-1.403-1.402V8.452c0-0.774,0.628-1.402,1.403-1.402h11.229
		c0.771,0,1.402,0.626,1.402,1.402V21.55z M22.718,16.871v2.339h-0.467v-2.339H22.718z"/>
</g>
</svg>
