<?xml version="1.0" encoding="utf-8"?>
<!-- Generator: Adobe Illustrator 16.0.0, SVG Export Plug-In . SVG Version: 6.00 Build 0)  -->
<!DOCTYPE svg PUBLIC "-//W3C//DTD SVG 1.1//EN" "http://www.w3.org/Graphics/SVG/1.1/DTD/svg11.dtd">
<svg version="1.1" id="Capa_1" xmlns="http://www.w3.org/2000/svg" xmlns:xlink="http://www.w3.org/1999/xlink" x="0px" y="0px"
	 width="30px" height="30px" viewBox="0 0 30 30" enable-background="new 0 0 30 30" xml:space="preserve">
<g>
	<g>
		<g>
			
				<linearGradient id="SVGID_1_" gradientUnits="userSpaceOnUse" x1="68.8223" y1="-122.937" x2="69.8838" y2="-122.937" gradientTransform="matrix(1 0 0 -1 -50 -109)">
				<stop  offset="0" style="stop-color:#5E55D7"/>
				<stop  offset="1" style="stop-color:#5C83E3"/>
			</linearGradient>
			<circle fill="url(#SVGID_1_)" cx="19.354" cy="13.937" r="0.531"/>
		</g>
	</g>
	<g>
		<g>
			
				<linearGradient id="SVGID_2_" gradientUnits="userSpaceOnUse" x1="61.4004" y1="-127.1577" x2="69.8965" y2="-127.1577" gradientTransform="matrix(1 0 0 -1 -50 -109)">
				<stop  offset="0" style="stop-color:#5E55D7"/>
				<stop  offset="1" style="stop-color:#5C83E3"/>
			</linearGradient>
			<path fill="url(#SVGID_2_)" d="M19.443,16.214c-0.291-0.043-0.562,0.158-0.604,0.448c-0.146,0.98-0.975,1.794-2.218,2.176
				c-1.33,0.407-3.173,0.271-4.298-0.954c-0.199-0.217-0.535-0.229-0.751-0.032c-0.216,0.198-0.23,0.535-0.032,0.752
				c0.65,0.709,1.536,1.191,2.559,1.396c0.36,0.072,0.735,0.107,1.112,0.107c0.583,0,1.17-0.084,1.722-0.254
				c1.646-0.506,2.75-1.641,2.957-3.037C19.936,16.527,19.734,16.257,19.443,16.214z"/>
		</g>
	</g>
	<g>
		<g>
			
				<linearGradient id="SVGID_3_" gradientUnits="userSpaceOnUse" x1="51.501" y1="-124" x2="78.5" y2="-124" gradientTransform="matrix(1 0 0 -1 -50 -109)">
				<stop  offset="0" style="stop-color:#5E55D7"/>
				<stop  offset="1" style="stop-color:#5C83E3"/>
			</linearGradient>
			<path fill="url(#SVGID_3_)" d="M26.829,11.516c-0.966-1.121-2.3-1.847-3.903-2.138c1.536-1.037,2.861-2.067,3.807-2.968
				c1.44-1.373,1.924-2.337,1.521-3.036c-0.448-0.776-1.744-0.772-4.077,0.017c-1.972,0.668-4.427,1.825-6.915,3.262
				c-0.43,0.248-0.854,0.502-1.271,0.759c-0.309-0.873-0.105-1.869,0.576-2.733c0.511-0.646,0.625-1.469,0.297-2.146
				c-0.342-0.708-1.094-1.134-2.014-1.136h-0.024c-3.242,0-6.412,1.279-8.929,3.603c-2.519,2.325-4.061,5.403-4.342,8.668
				c-0.338,3.931,0.918,7.668,3.538,10.522c2.574,2.806,6.222,4.414,10.011,4.414c2.04,0,3.956-0.373,5.691-1.108
				c1.587-0.673,2.997-1.634,4.19-2.856c1.105-1.134,1.979-2.438,2.592-3.877c0.584-1.371,0.902-2.822,0.923-4.199
				C28.527,14.559,27.95,12.814,26.829,11.516z M16.051,8.623c0.563-0.355,1.147-0.708,1.74-1.051
				c2.301-1.328,4.591-2.422,6.45-3.08c2.046-0.725,2.884-0.678,3.079-0.584c-0.018,0.124-0.17,0.674-1.514,1.91
				c-1.121,1.033-2.759,2.248-4.611,3.42c-0.584,0.371-1.193,0.738-1.811,1.095c-0.85,0.49-1.697,0.949-2.531,1.368
				c-0.166-0.485-0.379-0.956-0.639-1.405c-0.251-0.435-0.543-0.844-0.868-1.222C15.578,8.924,15.813,8.771,16.051,8.623z
				 M15.893,12.173c-1.5,0.711-2.877,1.254-3.978,1.568c-0.058-0.275-0.158-0.541-0.302-0.788c-0.135-0.235-0.305-0.445-0.5-0.625
				c0.822-0.794,1.98-1.715,3.346-2.656c0.316,0.354,0.598,0.741,0.837,1.156C15.543,11.257,15.742,11.708,15.893,12.173z
				 M27.436,16.546c-0.074,5.287-4.813,10.994-12.333,10.994c-3.492,0-6.854-1.481-9.228-4.067
				c-2.417-2.635-3.575-6.084-3.263-9.715C3.15,7.529,8.627,2.46,14.824,2.46h0.023c0.508,0.001,0.895,0.196,1.059,0.535
				c0.15,0.312,0.085,0.694-0.176,1.024c-0.958,1.213-1.198,2.707-0.657,3.967c-0.285,0.183-0.564,0.367-0.836,0.55
				c0,0.001-0.002,0.002-0.004,0.003c-1.689,1.141-3.116,2.273-4.065,3.229c-0.72-0.246-1.511-0.174-2.185,0.215
				C6.88,12.62,5.431,15.591,5.152,16.18c-0.075,0.158-0.067,0.344,0.02,0.493c0.087,0.151,0.243,0.25,0.417,0.265
				c0.293,0.023,1.127,0.084,2.056,0.084c1.127,0,2.393-0.088,2.998-0.438c0.655-0.379,1.109-1.011,1.268-1.738
				c1.303-0.342,3.006-1.011,4.85-1.91c1.033-0.502,2.096-1.067,3.158-1.682c0.539-0.313,1.072-0.632,1.59-0.956
				c0.003,0,0.006,0.001,0.01,0.001C25.945,10.426,27.479,13.609,27.436,16.546z M10.904,14.382
				c-0.033,0.535-0.33,1.013-0.793,1.281c-0.502,0.29-2.229,0.329-3.646,0.265c0.652-1.26,1.549-2.734,2.053-3.025
				c0.475-0.274,1.049-0.286,1.535-0.032c0.268,0.14,0.489,0.353,0.641,0.614C10.851,13.759,10.924,14.068,10.904,14.382z"/>
		</g>
	</g>
	<g>
		<g>
			
				<linearGradient id="SVGID_4_" gradientUnits="userSpaceOnUse" x1="58.7266" y1="-115.8086" x2="62.9766" y2="-115.8086" gradientTransform="matrix(1 0 0 -1 -50 -109)">
				<stop  offset="0" style="stop-color:#5E55D7"/>
				<stop  offset="1" style="stop-color:#5C83E3"/>
			</linearGradient>
			<path fill="url(#SVGID_4_)" d="M10.851,4.684c-1.172,0-2.125,0.952-2.125,2.125c0,1.172,0.953,2.125,2.125,2.125
				s2.125-0.955,2.125-2.125C12.976,5.636,12.023,4.684,10.851,4.684z M10.851,7.871c-0.586,0-1.063-0.477-1.063-1.063
				s0.478-1.063,1.063-1.063s1.063,0.478,1.063,1.063S11.437,7.871,10.851,7.871z"/>
		</g>
	</g>
	<g>
		<g>
			
				<linearGradient id="SVGID_5_" gradientUnits="userSpaceOnUse" x1="56.0684" y1="-130.0864" x2="60.3184" y2="-130.0864" gradientTransform="matrix(1 0 0 -1 -50 -109)">
				<stop  offset="0" style="stop-color:#5E55D7"/>
				<stop  offset="1" style="stop-color:#5C83E3"/>
			</linearGradient>
			<path fill="url(#SVGID_5_)" d="M8.193,18.961c-1.172,0-2.125,0.954-2.125,2.126s0.955,2.125,2.125,2.125
				c1.172,0,2.125-0.953,2.125-2.125S9.366,18.961,8.193,18.961z M8.193,22.148c-0.586,0-1.063-0.477-1.063-1.063
				s0.477-1.063,1.063-1.063s1.063,0.477,1.063,1.063S8.779,22.148,8.193,22.148z"/>
		</g>
	</g>
	<g>
		<g>
			
				<linearGradient id="SVGID_6_" gradientUnits="userSpaceOnUse" x1="61.3828" y1="-133.2744" x2="65.6328" y2="-133.2744" gradientTransform="matrix(1 0 0 -1 -50 -109)">
				<stop  offset="0" style="stop-color:#5E55D7"/>
				<stop  offset="1" style="stop-color:#5C83E3"/>
			</linearGradient>
			<path fill="url(#SVGID_6_)" d="M13.507,22.148c-1.172,0-2.125,0.955-2.125,2.127s0.953,2.125,2.125,2.125
				s2.125-0.953,2.125-2.125S14.679,22.148,13.507,22.148z M13.507,25.338c-0.586,0-1.063-0.477-1.063-1.063
				s0.477-1.063,1.063-1.063s1.063,0.478,1.063,1.063C14.57,24.859,14.093,25.338,13.507,25.338z"/>
		</g>
	</g>
	<g>
		<g>
			
				<linearGradient id="SVGID_7_" gradientUnits="userSpaceOnUse" x1="67.7588" y1="-132.2124" x2="72.0098" y2="-132.2124" gradientTransform="matrix(1 0 0 -1 -50 -109)">
				<stop  offset="0" style="stop-color:#5E55D7"/>
				<stop  offset="1" style="stop-color:#5C83E3"/>
			</linearGradient>
			<path fill="url(#SVGID_7_)" d="M19.884,21.087c-1.172,0-2.125,0.953-2.125,2.125c0,1.173,0.953,2.126,2.125,2.126
				c1.173,0,2.126-0.953,2.126-2.126C22.01,22.04,21.057,21.087,19.884,21.087z M19.884,24.275c-0.586,0-1.063-0.478-1.063-1.063
				s0.478-1.063,1.063-1.063c0.587,0,1.063,0.478,1.063,1.063C20.947,23.799,20.471,24.275,19.884,24.275z"/>
		</g>
	</g>
	<g>
		<g>
			
				<linearGradient id="SVGID_8_" gradientUnits="userSpaceOnUse" x1="72.0098" y1="-126.8984" x2="76.2617" y2="-126.8984" gradientTransform="matrix(1 0 0 -1 -50 -109)">
				<stop  offset="0" style="stop-color:#5E55D7"/>
				<stop  offset="1" style="stop-color:#5C83E3"/>
			</linearGradient>
			<path fill="url(#SVGID_8_)" d="M24.135,15.773c-1.172,0-2.125,0.953-2.125,2.125s0.953,2.125,2.125,2.125
				s2.127-0.953,2.127-2.125S25.307,15.773,24.135,15.773z M24.135,18.961c-0.586,0-1.063-0.477-1.063-1.063
				s0.477-1.063,1.063-1.063s1.063,0.478,1.063,1.063S24.721,18.961,24.135,18.961z"/>
		</g>
	</g>
</g>
</svg>
