<?xml version="1.0" encoding="utf-8"?>
<!-- Generator: Adobe Illustrator 16.0.0, SVG Export Plug-In . SVG Version: 6.00 Build 0)  -->
<!DOCTYPE svg PUBLIC "-//W3C//DTD SVG 1.1//EN" "http://www.w3.org/Graphics/SVG/1.1/DTD/svg11.dtd">
<svg version="1.1" id="Capa_1" xmlns="http://www.w3.org/2000/svg" xmlns:xlink="http://www.w3.org/1999/xlink" x="0px" y="0px"
	 width="30px" height="30px" viewBox="0 0 30 30" enable-background="new 0 0 30 30" xml:space="preserve">
<g>
	<g>
		<g>
			
				<linearGradient id="SVGID_1_" gradientUnits="userSpaceOnUse" x1="62.6865" y1="-122.417" x2="67.3128" y2="-127.9303" gradientTransform="matrix(1 0 0 -1 -50 -109)">
				<stop  offset="0" style="stop-color:#5E55D7"/>
				<stop  offset="1" style="stop-color:#5C83E3"/>
			</linearGradient>
			<path fill="url(#SVGID_1_)" d="M14.999,12.573c-1.984,0-3.6,1.615-3.6,3.599c0,1.985,1.615,3.602,3.6,3.602
				s3.602-1.615,3.602-3.602C18.601,14.188,16.983,12.573,14.999,12.573z"/>
		</g>
	</g>
	<g>
		<g>
			
				<linearGradient id="SVGID_2_" gradientUnits="userSpaceOnUse" x1="56.3271" y1="-114.834" x2="73.6736" y2="-135.5067" gradientTransform="matrix(1 0 0 -1 -50 -109)">
				<stop  offset="0" style="stop-color:#5E55D7"/>
				<stop  offset="1" style="stop-color:#5C83E3"/>
			</linearGradient>
			<path fill="url(#SVGID_2_)" d="M14.999,2.672c-7.443,0-13.5,6.057-13.5,13.5c0,4.402,2.166,8.542,5.792,11.074
				c0.204,0.143,0.483,0.093,0.627-0.112c0.142-0.202,0.092-0.483-0.112-0.626c-3.385-2.363-5.406-6.229-5.406-10.336
				C2.399,9.225,8.052,3.573,15,3.573s12.601,5.652,12.601,12.599c0,4.107-2.021,7.973-5.406,10.336
				c-0.203,0.143-0.254,0.424-0.111,0.626c0.088,0.126,0.229,0.192,0.37,0.192c0.089,0,0.179-0.026,0.257-0.081
				c3.627-2.531,5.791-6.671,5.791-11.073C28.5,8.729,22.442,2.672,14.999,2.672z"/>
		</g>
	</g>
	<g>
		<g>
			
				<linearGradient id="SVGID_3_" gradientUnits="userSpaceOnUse" x1="58.3477" y1="-117.2485" x2="71.649" y2="-133.1005" gradientTransform="matrix(1 0 0 -1 -50 -109)">
				<stop  offset="0" style="stop-color:#5E55D7"/>
				<stop  offset="1" style="stop-color:#5C83E3"/>
			</linearGradient>
			<path fill="url(#SVGID_3_)" d="M14.999,5.823c-5.706,0-10.35,4.643-10.35,10.349c0,3.616,1.845,6.911,4.935,8.816
				c0.212,0.131,0.489,0.063,0.619-0.147c0.131-0.211,0.065-0.487-0.146-0.618c-2.822-1.74-4.509-4.748-4.509-8.051
				c0-5.209,4.239-9.449,9.45-9.449s9.45,4.238,9.45,9.449c0,3.301-1.685,6.311-4.507,8.051c-0.213,0.131-0.277,0.407-0.146,0.618
				c0.084,0.14,0.232,0.214,0.383,0.214c0.082,0,0.162-0.021,0.236-0.066c3.09-1.903,4.936-5.199,4.936-8.815
				C25.351,10.465,20.707,5.823,14.999,5.823z"/>
		</g>
	</g>
	<g>
		<g>
			
				<linearGradient id="SVGID_4_" gradientUnits="userSpaceOnUse" x1="60.377" y1="-119.6563" x2="69.6237" y2="-130.676" gradientTransform="matrix(1 0 0 -1 -50 -109)">
				<stop  offset="0" style="stop-color:#5E55D7"/>
				<stop  offset="1" style="stop-color:#5C83E3"/>
			</linearGradient>
			<path fill="url(#SVGID_4_)" d="M14.999,8.973c-3.971,0-7.199,3.229-7.199,7.199c0,2.773,1.631,5.331,4.154,6.516
				c0.225,0.106,0.493,0.011,0.6-0.215c0.104-0.227,0.008-0.494-0.218-0.6c-2.209-1.037-3.637-3.273-3.637-5.701
				c0-3.472,2.825-6.298,6.301-6.298c3.474,0,6.3,2.826,6.3,6.298c0,2.428-1.428,4.664-3.637,5.701
				c-0.227,0.105-0.322,0.373-0.216,0.6c0.075,0.162,0.237,0.258,0.407,0.258c0.063,0,0.129-0.014,0.19-0.043
				c2.522-1.185,4.154-3.742,4.154-6.516C22.2,12.204,18.97,8.973,14.999,8.973z"/>
		</g>
	</g>
</g>
</svg>
