<?xml version="1.0" encoding="utf-8"?>
<!-- Generator: Adobe Illustrator 16.0.0, SVG Export Plug-In . SVG Version: 6.00 Build 0)  -->
<!DOCTYPE svg PUBLIC "-//W3C//DTD SVG 1.1//EN" "http://www.w3.org/Graphics/SVG/1.1/DTD/svg11.dtd">
<svg version="1.1" id="Layer_1" xmlns="http://www.w3.org/2000/svg" xmlns:xlink="http://www.w3.org/1999/xlink" x="0px" y="0px"
	 width="30px" height="30px" viewBox="0 0 30 30" enable-background="new 0 0 30 30" xml:space="preserve">
<g>
	
		<linearGradient id="SVGID_1_" gradientUnits="userSpaceOnUse" x1="109.0527" y1="778.4219" x2="112.6875" y2="778.4219" gradientTransform="matrix(1 0 0 1 -100 -761)">
		<stop  offset="0" style="stop-color:#5E55D7"/>
		<stop  offset="1" style="stop-color:#5C83E3"/>
	</linearGradient>
	<path fill="url(#SVGID_1_)" d="M12.258,20.217c-0.097,0-0.197-0.032-0.277-0.102L9.203,17.75c-0.096-0.082-0.151-0.2-0.151-0.326
		c0-0.127,0.056-0.248,0.151-0.33l2.777-2.364c0.179-0.154,0.451-0.131,0.605,0.048c0.152,0.181,0.132,0.452-0.049,0.605
		l-2.393,2.039l2.394,2.036c0.18,0.154,0.201,0.426,0.049,0.606C12.501,20.166,12.379,20.217,12.258,20.217z"/>
	
		<linearGradient id="SVGID_2_" gradientUnits="userSpaceOnUse" x1="117.3105" y1="778.4238" x2="120.9453" y2="778.4238" gradientTransform="matrix(1 0 0 1 -100 -761)">
		<stop  offset="0" style="stop-color:#5E55D7"/>
		<stop  offset="1" style="stop-color:#5C83E3"/>
	</linearGradient>
	<path fill="url(#SVGID_2_)" d="M17.741,20.217c-0.12,0-0.241-0.051-0.327-0.15c-0.154-0.18-0.134-0.451,0.049-0.605l2.395-2.037
		l-2.395-2.037c-0.181-0.153-0.203-0.425-0.049-0.605c0.154-0.179,0.424-0.203,0.604-0.048l2.778,2.364
		c0.097,0.084,0.149,0.203,0.149,0.328c0,0.126-0.055,0.246-0.149,0.328l-2.778,2.365C17.938,20.185,17.84,20.217,17.741,20.217z"/>
	
		<linearGradient id="SVGID_3_" gradientUnits="userSpaceOnUse" x1="113.5859" y1="778.4531" x2="116.1748" y2="778.4531" gradientTransform="matrix(1 0 0 1 -100 -761)">
		<stop  offset="0" style="stop-color:#5E55D7"/>
		<stop  offset="1" style="stop-color:#5C83E3"/>
	</linearGradient>
	<path fill="url(#SVGID_3_)" d="M14.016,21.992c-0.029,0-0.058-0.004-0.089-0.01c-0.231-0.051-0.381-0.278-0.331-0.511l1.729-8.218
		c0.049-0.232,0.278-0.381,0.51-0.331c0.23,0.047,0.379,0.275,0.329,0.508l-1.73,8.218C14.395,21.854,14.214,21.992,14.016,21.992z"
		/>
	
		<linearGradient id="SVGID_4_" gradientUnits="userSpaceOnUse" x1="102" y1="775.999" x2="128" y2="775.999" gradientTransform="matrix(1 0 0 1 -100 -761)">
		<stop  offset="0" style="stop-color:#5E55D7"/>
		<stop  offset="1" style="stop-color:#5C83E3"/>
	</linearGradient>
	<path fill="url(#SVGID_4_)" d="M25.118,26.469H4.882C3.293,26.469,2,25.176,2,23.588V6.412C2,4.824,3.293,3.53,4.882,3.53h20.236
		C26.707,3.53,28,4.824,28,6.412v17.176C28,25.176,26.707,26.469,25.118,26.469z M4.882,4.39c-1.115,0-2.025,0.907-2.025,2.022
		v17.176c0,1.115,0.91,2.023,2.025,2.023h20.236c1.116,0,2.024-0.908,2.024-2.023V6.412c0-1.116-0.908-2.022-2.024-2.022H4.882z"/>
	
		<linearGradient id="SVGID_5_" gradientUnits="userSpaceOnUse" x1="102" y1="770.9746" x2="128" y2="770.9746" gradientTransform="matrix(1 0 0 1 -100 -761)">
		<stop  offset="0" style="stop-color:#5E55D7"/>
		<stop  offset="1" style="stop-color:#5C83E3"/>
	</linearGradient>
	<path fill="url(#SVGID_5_)" d="M27.571,10.403H2.429C2.192,10.403,2,10.211,2,9.975c0-0.237,0.192-0.429,0.429-0.429h25.143
		C27.809,9.546,28,9.737,28,9.975C28,10.211,27.809,10.403,27.571,10.403z"/>
	
		<linearGradient id="SVGID_6_" gradientUnits="userSpaceOnUse" x1="107.9746" y1="767.9912" x2="110.6914" y2="767.9912" gradientTransform="matrix(1 0 0 1 -100 -761)">
		<stop  offset="0" style="stop-color:#5E55D7"/>
		<stop  offset="1" style="stop-color:#5C83E3"/>
	</linearGradient>
	<path fill="url(#SVGID_6_)" d="M9.333,8.35c-0.75,0-1.358-0.609-1.358-1.358s0.608-1.358,1.358-1.358
		c0.75,0,1.358,0.609,1.358,1.358S10.083,8.35,9.333,8.35z M9.333,6.491c-0.275,0-0.5,0.225-0.5,0.501
		c0,0.275,0.225,0.499,0.5,0.499c0.276,0,0.499-0.224,0.499-0.499C9.833,6.716,9.61,6.491,9.333,6.491z"/>
	
		<linearGradient id="SVGID_7_" gradientUnits="userSpaceOnUse" x1="103.8008" y1="767.9785" x2="106.5186" y2="767.9785" gradientTransform="matrix(1 0 0 1 -100 -761)">
		<stop  offset="0" style="stop-color:#5E55D7"/>
		<stop  offset="1" style="stop-color:#5C83E3"/>
	</linearGradient>
	<path fill="url(#SVGID_7_)" d="M5.159,8.337C4.41,8.337,3.8,7.728,3.8,6.978C3.8,6.229,4.41,5.62,5.159,5.62
		c0.75,0,1.36,0.609,1.36,1.358C6.519,7.728,5.909,8.337,5.159,8.337z M5.159,6.479c-0.273,0-0.499,0.224-0.499,0.5
		c0,0.277,0.225,0.5,0.499,0.5c0.277,0,0.501-0.223,0.501-0.5C5.66,6.703,5.436,6.479,5.159,6.479z"/>
	
		<linearGradient id="SVGID_8_" gradientUnits="userSpaceOnUse" x1="112.1504" y1="768.0049" x2="114.8672" y2="768.0049" gradientTransform="matrix(1 0 0 1 -100 -761)">
		<stop  offset="0" style="stop-color:#5E55D7"/>
		<stop  offset="1" style="stop-color:#5C83E3"/>
	</linearGradient>
	<path fill="url(#SVGID_8_)" d="M13.508,8.363c-0.75,0-1.358-0.609-1.358-1.358c0-0.749,0.609-1.358,1.358-1.358
		s1.358,0.609,1.358,1.358C14.866,7.752,14.257,8.363,13.508,8.363z M13.508,6.505c-0.276,0-0.499,0.223-0.499,0.499
		c0,0.275,0.223,0.5,0.499,0.5c0.275,0,0.5-0.224,0.5-0.5C14.008,6.729,13.783,6.505,13.508,6.505z"/>
</g>
</svg>
