<?xml version="1.0" encoding="utf-8"?>
<!-- Generator: Adobe Illustrator 16.0.0, SVG Export Plug-In . SVG Version: 6.00 Build 0)  -->
<!DOCTYPE svg PUBLIC "-//W3C//DTD SVG 1.1//EN" "http://www.w3.org/Graphics/SVG/1.1/DTD/svg11.dtd">
<svg version="1.1" id="Capa_1" xmlns="http://www.w3.org/2000/svg" xmlns:xlink="http://www.w3.org/1999/xlink" x="0px" y="0px"
	 width="50px" height="50px" viewBox="0 0 50 50" enable-background="new 0 0 50 50" xml:space="preserve">
<g>
	
		<linearGradient id="SVGID_1_" gradientUnits="userSpaceOnUse" x1="55" y1="-114" x2="95" y2="-114" gradientTransform="matrix(1 0 0 -1 -50 -89)">
		<stop  offset="0" style="stop-color:#5E55D7"/>
		<stop  offset="1" style="stop-color:#5C83E3"/>
	</linearGradient>
	<path fill="url(#SVGID_1_)" d="M43.295,19.681c-0.18,0-0.363,0.025-0.551,0.077l-1.941,0.535l-2.055-5.002
		c-0.615-1.499-2.434-2.719-4.055-2.719h-1.365V8.426c0-0.729-0.594-1.321-1.322-1.321H17.998c-0.729,0-1.322,0.593-1.322,1.321
		v4.146h-1.395c-1.621,0-3.44,1.22-4.055,2.719l-2.052,4.994l-1.917-0.528c-0.185-0.051-0.371-0.076-0.551-0.076
		C5.718,19.681,5,20.437,5,21.478v1.063c0,1.214,0.988,2.202,2.203,2.202h0.142l-0.293,0.715c-0.572,1.394-1.037,3.751-1.037,5.256
		v9.979c0,1.215,0.987,2.203,2.203,2.203h2.647c1.215,0,2.202-0.988,2.202-2.203V38.24h23.836v2.452
		c0,1.215,0.988,2.203,2.203,2.203h2.646c1.217,0,2.203-0.988,2.203-2.203v-9.979c0-1.505-0.465-3.862-1.037-5.256l-0.293-0.715
		h0.17c1.215,0,2.203-0.988,2.203-2.202v-1.063C45.002,20.437,44.283,19.681,43.295,19.681z M30.313,8.866
		c0-0.029,0.021-0.053,0.053-0.053h1.018c0.029,0,0.055,0.022,0.055,0.053v3.665c0,0.018-0.012,0.03-0.023,0.041h-1.078
		c-0.014-0.011-0.021-0.023-0.021-0.041V8.866H30.313z M23.007,8.813h1.225c0.028,0,0.062,0.021,0.071,0.049l1.453,3.65l1.332-1.646
		c0.02-0.022,0.021-0.061,0.004-0.085l-1.277-1.925c-0.018-0.023-0.006-0.043,0.023-0.043h1.131c0.029,0,0.066,0.021,0.08,0.045
		l0.66,1.067c0.016,0.024,0.039,0.024,0.055,0l0.658-1.067c0.018-0.024,0.053-0.045,0.082-0.045h1.131
		c0.029,0,0.041,0.02,0.023,0.043l-1.277,1.925c-0.018,0.024-0.016,0.063,0.004,0.085l1.355,1.677
		c0.008,0.013,0.01,0.021,0.008,0.029h-1.201c-0.018-0.009-0.029-0.021-0.039-0.032l-0.744-1.191c-0.016-0.023-0.039-0.023-0.057,0
		l-0.742,1.191c-0.008,0.014-0.021,0.023-0.037,0.032h-2.265c-0.015-0.009-0.029-0.021-0.034-0.038l-0.25-0.764
		c-0.009-0.028-0.041-0.051-0.068-0.051h-1.388c-0.028,0-0.062,0.021-0.069,0.049l-0.27,0.767c-0.006,0.016-0.02,0.028-0.035,0.037
		h-1.089c-0.008-0.009-0.013-0.021-0.006-0.037l1.481-3.672C22.947,8.836,22.978,8.813,23.007,8.813z M19.426,12.531V9.62
		c0-0.029-0.024-0.053-0.053-0.053H18.15c-0.029,0-0.053-0.024-0.053-0.053V8.866c0-0.029,0.022-0.053,0.053-0.053h3.685
		c0.028,0,0.054,0.022,0.054,0.053v0.648c0,0.027-0.023,0.053-0.054,0.053h-1.231c-0.028,0-0.053,0.022-0.053,0.053v2.911
		c0,0.018-0.01,0.03-0.023,0.041H19.45C19.437,12.562,19.426,12.549,19.426,12.531z M10.732,23.515l3.119-7.601
		c0.368-0.896,1.463-1.631,2.433-1.631h17.408c0.969,0,2.063,0.733,2.432,1.631l3.119,7.601c0.369,0.896-0.123,1.631-1.092,1.631
		H11.825C10.855,25.146,10.363,24.411,10.732,23.515z M17.781,33.304c0,0.484-0.396,0.881-0.881,0.881h-5.957
		c-0.484,0-0.881-0.396-0.881-0.881v-2.826c0-0.483,0.396-0.881,0.881-0.881H16.9c0.484,0,0.881,0.396,0.881,0.881V33.304
		L17.781,33.304z M39.855,33.304c0,0.484-0.396,0.881-0.881,0.881H33.02c-0.484,0-0.883-0.396-0.883-0.881v-2.826
		c0-0.483,0.396-0.881,0.883-0.881h5.955c0.484,0,0.881,0.396,0.881,0.881V33.304z"/>
	
		<linearGradient id="SVGID_2_" gradientUnits="userSpaceOnUse" x1="73.1436" y1="-99.4248" x2="74.0977" y2="-99.4248" gradientTransform="matrix(1 0 0 -1 -50 -89)">
		<stop  offset="0" style="stop-color:#5E55D7"/>
		<stop  offset="1" style="stop-color:#5C83E3"/>
	</linearGradient>
	<path fill="url(#SVGID_2_)" d="M24.062,10.966c0.029,0,0.043-0.021,0.032-0.048l-0.438-1.015c-0.012-0.026-0.031-0.026-0.043,0
		l-0.465,1.015c-0.013,0.026,0.002,0.048,0.031,0.048H24.062z"/>
</g>
</svg>
