<?xml version="1.0" encoding="utf-8"?>
<!-- Generator: Adobe Illustrator 16.0.0, SVG Export Plug-In . SVG Version: 6.00 Build 0)  -->
<!DOCTYPE svg PUBLIC "-//W3C//DTD SVG 1.1//EN" "http://www.w3.org/Graphics/SVG/1.1/DTD/svg11.dtd">
<svg version="1.1" id="Capa_1" xmlns="http://www.w3.org/2000/svg" xmlns:xlink="http://www.w3.org/1999/xlink" x="0px" y="0px"
	 width="50px" height="50px" viewBox="0 0 50 50" enable-background="new 0 0 50 50" xml:space="preserve">
<g>
	
		<linearGradient id="SVGID_1_" gradientUnits="userSpaceOnUse" x1="55" y1="-114" x2="95.001" y2="-114" gradientTransform="matrix(1 0 0 -1 -50 -89)">
		<stop  offset="0" style="stop-color:#5E55D7"/>
		<stop  offset="1" style="stop-color:#5C83E3"/>
	</linearGradient>
	<path fill="url(#SVGID_1_)" d="M42.371,13.076c1.642-2.198,2.625-4.479,2.63-6.109c-0.003-0.527-0.108-0.939-0.31-1.248
		c-0.021-0.037-0.079-0.136-0.183-0.232c-0.103-0.102-0.192-0.155-0.213-0.166c-0.323-0.215-0.737-0.319-1.266-0.319
		c-1.626,0.003-3.908,0.985-6.106,2.629c-1.776,1.33-3.555,3.203-6.015,5.796c-0.417,0.439-0.856,0.902-1.32,1.387l-4.765-1.428
		l0.015-0.014c0.198-0.2,0.312-0.477,0.309-0.746c0.002-0.286-0.113-0.561-0.313-0.759l-0.86-0.862
		c-0.199-0.2-0.474-0.314-0.758-0.314c-0.287,0-0.555,0.11-0.754,0.313l-1.288,1.288l-0.682-0.204
		c0.147-0.188,0.228-0.419,0.226-0.648c0.002-0.291-0.109-0.56-0.311-0.76l-0.865-0.865c-0.197-0.197-0.47-0.312-0.757-0.312
		c-0.285,0-0.552,0.11-0.75,0.313l-1.183,1.181l-4.845-1.451c-0.108-0.032-0.223-0.049-0.346-0.049
		C11.318,9.499,11,9.627,10.767,9.857l-1.705,1.705c-0.192,0.192-0.301,0.455-0.299,0.703c-0.007,0.364,0.195,0.702,0.52,0.875
		l10.188,5.692c0.051,0.028,0.194,0.134,0.247,0.188l2.905,2.903c-2.717,2.862-5.137,5.636-7.023,8.046
		c-0.176,0.225-0.343,0.442-0.507,0.659L7.21,29.914c-0.038-0.006-0.081-0.01-0.136-0.01c-0.361,0.009-0.714,0.15-0.978,0.404
		l-0.793,0.793C5.107,31.294,4.997,31.554,5,31.804c-0.006,0.384,0.227,0.736,0.573,0.892l5.545,2.635
		c0.048,0.023,0.172,0.111,0.212,0.152l0.46,0.457c-0.144,0.404-0.217,0.756-0.222,1.064c0,0.413,0.133,0.768,0.387,1.021
		l0.02,0.018l0.006,0.004c0.262,0.254,0.6,0.383,1.02,0.383c0.303-0.005,0.65-0.076,1.057-0.22l0.467,0.466
		c0.037,0.039,0.123,0.16,0.146,0.209l2.628,5.532c0.161,0.354,0.507,0.582,0.884,0.582h0.006c0.261,0,0.51-0.104,0.701-0.296
		l0.813-0.816c0.24-0.254,0.383-0.604,0.389-0.974c0-0.045-0.002-0.08-0.003-0.099l-0.718-7.912c0.216-0.162,0.436-0.33,0.658-0.504
		c2.416-1.89,5.188-4.313,8.045-7.024l2.906,2.91c0.047,0.045,0.156,0.188,0.188,0.249l5.681,10.17
		c0.175,0.328,0.509,0.531,0.878,0.531c0.265,0,0.517-0.104,0.708-0.299l1.717-1.715c0.223-0.232,0.348-0.549,0.351-0.895
		c0-0.116-0.017-0.229-0.046-0.335l-1.451-4.847l1.182-1.184c0.197-0.197,0.312-0.473,0.312-0.754c0-0.283-0.11-0.55-0.311-0.752
		L39.32,29.59c-0.197-0.199-0.473-0.313-0.754-0.313c-0.238,0-0.474,0.08-0.654,0.224l-0.203-0.679l1.289-1.288
		c0.197-0.199,0.312-0.474,0.312-0.757c0-0.284-0.11-0.553-0.312-0.752l-0.862-0.861c-0.198-0.202-0.475-0.316-0.758-0.316
		c-0.285,0-0.562,0.116-0.756,0.314l-0.009,0.008l-1.428-4.764c0.492-0.471,0.961-0.918,1.407-1.34
		C39.179,16.62,41.045,14.85,42.371,13.076z"/>
</g>
</svg>
