<?xml version="1.0" encoding="utf-8"?>
<!-- Generator: Adobe Illustrator 16.0.0, SVG Export Plug-In . SVG Version: 6.00 Build 0)  -->
<!DOCTYPE svg PUBLIC "-//W3C//DTD SVG 1.1//EN" "http://www.w3.org/Graphics/SVG/1.1/DTD/svg11.dtd">
<svg version="1.1" id="Layer_1" xmlns="http://www.w3.org/2000/svg" xmlns:xlink="http://www.w3.org/1999/xlink" x="0px" y="0px"
	 width="35px" height="35px" viewBox="0 0 35 35" enable-background="new 0 0 35 35" xml:space="preserve">
<g>
	
		<linearGradient id="SVGID_1_" gradientUnits="userSpaceOnUse" x1="66.2441" y1="-104.7983" x2="68.7529" y2="-107.7882" gradientTransform="matrix(1 0 0 -1 -50 -104)">
		<stop  offset="0" style="stop-color:#5E55D7"/>
		<stop  offset="1" style="stop-color:#5C83E3"/>
	</linearGradient>
	<path fill="url(#SVGID_1_)" d="M17.5,4.675c0.299,0,0.542-0.243,0.542-0.542V0.453c0-0.3-0.243-0.542-0.542-0.542
		s-0.542,0.242-0.542,0.542v3.681C16.958,4.434,17.201,4.675,17.5,4.675z"/>
	
		<linearGradient id="SVGID_2_" gradientUnits="userSpaceOnUse" x1="81.5391" y1="-120.1182" x2="83.7387" y2="-122.7396" gradientTransform="matrix(1 0 0 -1 -50 -104)">
		<stop  offset="0" style="stop-color:#5E55D7"/>
		<stop  offset="1" style="stop-color:#5C83E3"/>
	</linearGradient>
	<path fill="url(#SVGID_2_)" d="M34.458,16.886H30.82c-0.299,0-0.543,0.243-0.543,0.542s0.244,0.543,0.543,0.543h3.638
		c0.299,0,0.542-0.244,0.542-0.543S34.757,16.886,34.458,16.886z"/>
	
		<linearGradient id="SVGID_3_" gradientUnits="userSpaceOnUse" x1="51.2607" y1="-120.1182" x2="53.4606" y2="-122.7397" gradientTransform="matrix(1 0 0 -1 -50 -104)">
		<stop  offset="0" style="stop-color:#5E55D7"/>
		<stop  offset="1" style="stop-color:#5C83E3"/>
	</linearGradient>
	<path fill="url(#SVGID_3_)" d="M4.18,16.886H0.542C0.243,16.886,0,17.129,0,17.428s0.243,0.543,0.542,0.543H4.18
		c0.299,0,0.541-0.244,0.541-0.543S4.479,16.886,4.18,16.886z"/>
	
		<linearGradient id="SVGID_4_" gradientUnits="userSpaceOnUse" x1="77.6133" y1="-110.1401" x2="78.5101" y2="-111.2089" gradientTransform="matrix(1 0 0 -1 -50 -104)">
		<stop  offset="0" style="stop-color:#5E55D7"/>
		<stop  offset="1" style="stop-color:#5C83E3"/>
	</linearGradient>
	<path fill="url(#SVGID_4_)" d="M26.789,8.487c0.145,0,0.281-0.057,0.384-0.158l2.541-2.542c0.212-0.212,0.212-0.556,0-0.767
		c-0.211-0.213-0.555-0.213-0.767,0l-2.541,2.541c-0.155,0.155-0.201,0.389-0.118,0.592C26.373,8.356,26.57,8.487,26.789,8.487z"/>
	
		<linearGradient id="SVGID_5_" gradientUnits="userSpaceOnUse" x1="55.4395" y1="-108.8877" x2="58.4388" y2="-112.4621" gradientTransform="matrix(1 0 0 -1 -50 -104)">
		<stop  offset="0" style="stop-color:#5E55D7"/>
		<stop  offset="1" style="stop-color:#5C83E3"/>
	</linearGradient>
	<path fill="url(#SVGID_5_)" d="M7.827,8.33c0.212,0.212,0.555,0.212,0.767,0c0.213-0.211,0.213-0.556,0-0.767L6.052,5.02
		c-0.211-0.211-0.555-0.211-0.767,0c-0.213,0.211-0.213,0.556,0,0.768L7.827,8.33z"/>
	
		<linearGradient id="SVGID_6_" gradientUnits="userSpaceOnUse" x1="66.666" y1="-123.1221" x2="68.3354" y2="-125.1115" gradientTransform="matrix(1 0 0 -1 -50 -104)">
		<stop  offset="0" style="stop-color:#5E55D7"/>
		<stop  offset="1" style="stop-color:#5C83E3"/>
	</linearGradient>
	<path fill="url(#SVGID_6_)" d="M18.799,20.117c0,0.717-0.582,1.298-1.299,1.298s-1.298-0.581-1.298-1.298
		c0-0.719,0.582-1.299,1.298-1.299S18.799,19.398,18.799,20.117z"/>
	
		<linearGradient id="SVGID_7_" gradientUnits="userSpaceOnUse" x1="65.7646" y1="-135.1533" x2="69.341" y2="-139.4153" gradientTransform="matrix(1 0 0 -1 -50 -104)">
		<stop  offset="0" style="stop-color:#5E55D7"/>
		<stop  offset="1" style="stop-color:#5C83E3"/>
	</linearGradient>
	<path fill="url(#SVGID_7_)" d="M13.938,32.992c0,0.561,0.224,1.099,0.623,1.492c0.398,0.395,0.939,0.613,1.5,0.604h2.879
		c0.563,0.009,1.104-0.21,1.502-0.604s0.623-0.933,0.621-1.492v-0.305h-7.125V32.992z"/>
	
		<linearGradient id="SVGID_8_" gradientUnits="userSpaceOnUse" x1="61.5186" y1="-115.0898" x2="73.9622" y2="-129.9196" gradientTransform="matrix(1 0 0 -1 -50 -104)">
		<stop  offset="0" style="stop-color:#5E55D7"/>
		<stop  offset="1" style="stop-color:#5C83E3"/>
	</linearGradient>
	<path fill="url(#SVGID_8_)" d="M13.539,25.602c0.016,0.008,0.034,0.017,0.048,0.024c0.209,0.081,0.349,0.28,0.351,0.505v2.221
		h3.021v-5.914c-1.179-0.275-1.963-1.392-1.824-2.594c0.138-1.201,1.156-2.109,2.367-2.109c1.21,0,2.229,0.908,2.367,2.109
		c0.138,1.202-0.646,2.317-1.825,2.594v5.914h3.021v-2.221c0.004-0.224,0.143-0.424,0.351-0.505
		c0.015-0.008,0.036-0.017,0.052-0.024c3.686-1.838,5.623-5.972,4.68-9.98c-0.944-4.01-4.522-6.844-8.643-6.844
		c-4.119,0-7.697,2.834-8.643,6.844C7.915,19.63,9.854,23.764,13.539,25.602L13.539,25.602z"/>
	
		<linearGradient id="SVGID_9_" gradientUnits="userSpaceOnUse" x1="65.4932" y1="-132.1304" x2="69.5056" y2="-136.9122" gradientTransform="matrix(1 0 0 -1 -50 -104)">
		<stop  offset="0" style="stop-color:#5E55D7"/>
		<stop  offset="1" style="stop-color:#5C83E3"/>
	</linearGradient>
	<path fill="url(#SVGID_9_)" d="M13.938,29.436h7.125v2.17h-7.125V29.436z"/>
</g>
</svg>
