<?xml version="1.0" encoding="utf-8"?>
<!-- Generator: Adobe Illustrator 16.0.0, SVG Export Plug-In . SVG Version: 6.00 Build 0)  -->
<!DOCTYPE svg PUBLIC "-//W3C//DTD SVG 1.1//EN" "http://www.w3.org/Graphics/SVG/1.1/DTD/svg11.dtd">
<svg version="1.1" id="Capa_1" xmlns="http://www.w3.org/2000/svg" xmlns:xlink="http://www.w3.org/1999/xlink" x="0px" y="0px"
	 width="40px" height="40px" viewBox="0 0 40 40" enable-background="new 0 0 40 40" xml:space="preserve">
<g>
	<g>
		<g>
			
				<linearGradient id="SVGID_1_" gradientUnits="userSpaceOnUse" x1="108.8213" y1="773.7656" x2="126.7565" y2="795.1401" gradientTransform="matrix(1 0 0 1 -100 -761)">
				<stop  offset="0" style="stop-color:#5E55D7"/>
				<stop  offset="1" style="stop-color:#5C83E3"/>
			</linearGradient>
			<path fill="url(#SVGID_1_)" d="M32.226,24.872l-3.199-6.398c-0.018-0.722-0.131-1.427-0.278-2.117
				c-0.132,0.148-0.263,0.313-0.41,0.459c-2.28,2.28-5.759,2.674-7.958,2.674c-0.705,0-1.265-0.032-1.624-0.065l-1.46,1.46
				c-0.296,0.328-0.854,0.328-1.149,0c-0.328-0.313-0.328-0.837,0-1.147l1.461-1.443v-0.016c-0.133-1.461-0.395-6.581,2.607-9.583
				c0.146-0.147,0.295-0.279,0.459-0.41c-0.754-0.164-1.525-0.279-2.313-0.279c-5.875,0-10.666,4.791-10.666,10.664
				c0,2.889,1.199,5.677,3.281,7.678v8.839c0,0.459,0.361,0.819,0.82,0.819h9.844c0.459,0,0.82-0.36,0.82-0.819v-2.517h5.742
				c0.459,0,0.819-0.36,0.819-0.819v-5.798h2.461c0.277,0,0.541-0.146,0.705-0.395C32.339,25.431,32.339,25.118,32.226,24.872z"/>
		</g>
	</g>
	<g>
		<g>
			
				<linearGradient id="SVGID_2_" gradientUnits="userSpaceOnUse" x1="121.7666" y1="770.6162" x2="127.0377" y2="776.8979" gradientTransform="matrix(1 0 0 1 -100 -761)">
				<stop  offset="0" style="stop-color:#5E55D7"/>
				<stop  offset="1" style="stop-color:#5C83E3"/>
			</linearGradient>
			<path fill="url(#SVGID_2_)" d="M29.123,8.112c-1.478-0.164-5.446-0.442-7.743,1.854c-1.887,1.87-2.198,4.922-2.198,6.841
				l1.969-1.951v-1.985c0-0.459,0.36-0.82,0.82-0.82c0.459,0,0.82,0.36,0.82,0.82v0.345l1.805-1.837V9.377
				c0-0.443,0.36-0.82,0.82-0.82c0.459,0,0.819,0.377,0.819,0.82v1.528h1.524c0.443,0,0.82,0.361,0.82,0.82s-0.377,0.82-0.82,0.82
				h-2.002l-1.837,1.805h0.346c0.459,0,0.819,0.361,0.819,0.82s-0.36,0.82-0.819,0.82H22.28l-1.951,1.965
				c1.902,0,4.971-0.328,6.841-2.198C29.483,13.462,29.287,9.59,29.123,8.112z"/>
		</g>
	</g>
</g>
</svg>
