<?xml version="1.0" encoding="utf-8"?>
<!-- Generator: Adobe Illustrator 16.0.0, SVG Export Plug-In . SVG Version: 6.00 Build 0)  -->
<!DOCTYPE svg PUBLIC "-//W3C//DTD SVG 1.1//EN" "http://www.w3.org/Graphics/SVG/1.1/DTD/svg11.dtd">
<svg version="1.1" id="Capa_1" xmlns="http://www.w3.org/2000/svg" xmlns:xlink="http://www.w3.org/1999/xlink" x="0px" y="0px"
	 width="40px" height="40px" viewBox="0 0 40 40" enable-background="new 0 0 40 40" xml:space="preserve">
<g>
	<g>
		<g>
			
				<linearGradient id="SVGID_1_" gradientUnits="userSpaceOnUse" x1="61.6494" y1="-117.7285" x2="77.1166" y2="-136.1616" gradientTransform="matrix(1 0 0 -1 -50 -99)">
				<stop  offset="0" style="stop-color:#5E55D7"/>
				<stop  offset="1" style="stop-color:#5C83E3"/>
			</linearGradient>
			<path fill="url(#SVGID_1_)" d="M29.236,30.431c-2.541-2.092-5.279-3.473-5.842-3.744c-0.063-0.029-0.102-0.095-0.102-0.164
				v-3.953c0.5-0.336,0.827-0.896,0.827-1.537v-4.102c0-2.043-1.653-3.695-3.696-3.695h-0.436h-0.444
				c-2.043,0-3.696,1.652-3.696,3.695v4.102c0,0.64,0.326,1.209,0.825,1.537v3.953c0,0.069-0.039,0.135-0.101,0.164
				c-0.563,0.271-3.299,1.662-5.842,3.744c-0.459,0.373-0.725,0.941-0.725,1.534v2.81h9.98h9.975v-2.81
				C29.963,31.372,29.697,30.804,29.236,30.431z"/>
		</g>
		<g>
			
				<linearGradient id="SVGID_2_" gradientUnits="userSpaceOnUse" x1="75.833" y1="-114.998" x2="88.8088" y2="-130.462" gradientTransform="matrix(1 0 0 -1 -50 -99)">
				<stop  offset="0" style="stop-color:#5E55D7"/>
				<stop  offset="1" style="stop-color:#5C83E3"/>
			</linearGradient>
			<path fill="url(#SVGID_2_)" d="M38.368,27.66c-2.13-1.753-4.431-2.916-4.897-3.142c-0.055-0.023-0.086-0.08-0.086-0.142v-3.313
				c0.414-0.28,0.695-0.748,0.695-1.295v-3.438c0-1.708-1.389-3.098-3.098-3.098h-0.365h-0.366c-1.708,0-3.097,1.39-3.097,3.098
				v3.438c0,0.539,0.273,1.016,0.693,1.295v3.313c0,0.062-0.031,0.108-0.084,0.142c-0.289,0.14-1.289,0.64-2.504,1.418
				c1.215,0.672,3.144,1.826,4.959,3.321c0.639,0.522,1.062,1.249,1.217,2.043H39v-2.354C38.979,28.448,38.759,27.974,38.368,27.66z
				"/>
		</g>
		<g>
			
				<linearGradient id="SVGID_3_" gradientUnits="userSpaceOnUse" x1="52.3789" y1="-116.8423" x2="61.5631" y2="-127.7877" gradientTransform="matrix(1 0 0 -1 -50 -99)">
				<stop  offset="0" style="stop-color:#5E55D7"/>
				<stop  offset="1" style="stop-color:#5C83E3"/>
			</linearGradient>
			<path fill="url(#SVGID_3_)" d="M12.229,24.519c-0.055-0.022-0.086-0.078-0.086-0.141v-3.314c0.414-0.279,0.694-0.748,0.694-1.293
				v-3.438c0-1.708-1.388-3.097-3.096-3.097H9.375H8.992c-1.708,0-3.096,1.389-3.096,3.097v3.438c0,0.537,0.272,1.015,0.694,1.293
				v3.314c0,0.063-0.032,0.109-0.086,0.141c-0.468,0.227-2.769,1.39-4.897,3.143C1.227,27.981,1,28.449,1,28.949v2.354h7.564
				c0.147-0.794,0.576-1.521,1.217-2.043c1.816-1.495,3.742-2.649,4.959-3.321C13.516,25.158,12.518,24.658,12.229,24.519z"/>
		</g>
	</g>
</g>
</svg>
