<?xml version="1.0" encoding="utf-8"?>
<!-- Generator: Adobe Illustrator 16.0.0, SVG Export Plug-In . SVG Version: 6.00 Build 0)  -->
<!DOCTYPE svg PUBLIC "-//W3C//DTD SVG 1.1//EN" "http://www.w3.org/Graphics/SVG/1.1/DTD/svg11.dtd">
<svg version="1.1" id="Capa_1" xmlns="http://www.w3.org/2000/svg" xmlns:xlink="http://www.w3.org/1999/xlink" x="0px" y="0px"
	 width="40px" height="40px" viewBox="0 0 40 40" enable-background="new 0 0 40 40" xml:space="preserve">
<g>
	
		<linearGradient id="SVGID_1_" gradientUnits="userSpaceOnUse" x1="60.6953" y1="-109.335" x2="78.6375" y2="-130.7176" gradientTransform="matrix(1 0 0 -1 -50 -99)">
		<stop  offset="0" style="stop-color:#5E55D7"/>
		<stop  offset="1" style="stop-color:#5C83E3"/>
	</linearGradient>
	<path fill="url(#SVGID_1_)" d="M35.5,16.58v9.379c0,0-2.012,0.396-2.422,0.454c-0.408,0.051-1.711,0.468-2.648-0.434
		c-1.451-1.392-6.598-6.508-6.598-6.508s-0.881-0.873-2.309-0.121c-1.309,0.691-3.248,1.7-4.059,2.093
		c-1.528,0.813-2.801-0.477-2.801-1.46c0-0.767,0.479-1.283,1.16-1.664c1.847-1.119,5.735-3.305,7.36-4.166
		c0.982-0.524,1.695-0.57,3.047,0.568c1.666,1.404,3.148,2.678,3.148,2.678s0.482,0.406,1.26,0.242
		C32.527,17.245,35.5,16.58,35.5,16.58z M15.014,32.478c0.25-0.642,0.166-1.354-0.312-1.848c-0.431-0.436-1.056-0.554-1.655-0.417
		c0.167-0.591,0.075-1.228-0.355-1.671c-0.433-0.434-1.055-0.555-1.654-0.416c0.166-0.593,0.072-1.227-0.355-1.668
		c-0.679-0.693-1.847-0.663-2.617,0.07C7.3,27.26,6.809,28.592,7.492,29.374c0.681,0.775,1.467,0.307,2.062,0.165
		c-0.166,0.597-0.662,1.144-0.049,1.92c0.609,0.772,1.464,0.306,2.059,0.167c-0.166,0.596-0.64,1.2-0.051,1.917
		c0.596,0.72,1.566,0.337,2.211,0.136c-0.25,0.637-0.781,1.329-0.099,2.096c0.683,0.781,2.256,0.418,3.024-0.313
		c0.77-0.736,0.843-1.902,0.166-2.598C16.348,32.389,15.655,32.28,15.014,32.478z M29.045,27.594
		c-5.555-5.558-2.945-2.939-5.938-5.941c0,0-0.896-0.894-2.082-0.373c-0.832,0.365-1.902,0.861-2.708,1.24
		c-0.883,0.465-1.521,0.608-1.82,0.605c-1.711-0.01-3.104-1.387-3.104-3.095c0-1.111,0.59-2.076,1.469-2.625
		c1.236-0.854,4.078-2.368,4.078-2.368s-0.866-1.097-2.763-1.097c-1.897,0-5.86,2.596-5.86,2.596s-1.125,0.722-2.728,0.074
		L4.5,15.534v10.735c0,0,0.883,0.26,1.673,0.58c0.182-0.509,0.469-0.98,0.87-1.374c1.313-1.25,3.494-1.265,4.69-0.031
		c0.358,0.376,0.613,0.819,0.74,1.315c0.48,0.148,0.918,0.41,1.269,0.773c0.362,0.371,0.614,0.818,0.741,1.313
		c0.482,0.148,0.92,0.413,1.27,0.776c0.396,0.409,0.663,0.905,0.787,1.438c0.5,0.146,0.955,0.418,1.322,0.795
		c0.721,0.733,0.976,1.736,0.82,2.703c0,0,0.004,0,0.006,0.002c0.011,0.021,0.442,0.504,0.713,0.775c0.529,0.525,1.4,0.525,1.927,0
		c0.531-0.534,0.531-1.395,0-1.93c-0.016-0.02-1.913-1.998-1.761-2.149c0.152-0.151,2.566,2.356,2.609,2.399
		c0.531,0.533,1.395,0.533,1.924,0c0.535-0.526,0.533-1.396,0-1.924c-0.023-0.022-0.131-0.131-0.174-0.174
		c0,0-2.391-2.127-2.209-2.309c0.186-0.184,3.156,2.585,3.162,2.585c0.531,0.479,1.355,0.479,1.869-0.034
		c0.5-0.5,0.51-1.292,0.068-1.82c-0.012-0.027-2.264-2.388-2.088-2.566c0.18-0.18,2.406,2.117,2.412,2.123
		c0.529,0.533,1.396,0.533,1.922,0c0.535-0.525,0.535-1.395,0-1.926C29.066,27.606,29.055,27.601,29.045,27.594z"/>
</g>
</svg>
