<?xml version="1.0" encoding="utf-8"?>
<!-- Generator: Adobe Illustrator 16.0.0, SVG Export Plug-In . SVG Version: 6.00 Build 0)  -->
<!DOCTYPE svg PUBLIC "-//W3C//DTD SVG 1.1//EN" "http://www.w3.org/Graphics/SVG/1.1/DTD/svg11.dtd">
<svg version="1.1" id="Capa_1" xmlns="http://www.w3.org/2000/svg" xmlns:xlink="http://www.w3.org/1999/xlink" x="0px" y="0px"
	 width="98px" height="85px" viewBox="0 0 98 85" enable-background="new 0 0 98 85" xml:space="preserve">
<rect x="37.333" y="59.521" fill="#445EA0" width="13.067" height="6.845"/>
<rect x="37.333" y="59.521" fill="#2E4C89" width="3.294" height="6.845"/>
<path fill="#293D7C" d="M59.104,66.201H27.677c-0.466,0-0.847,0.381-0.847,0.847v4.245c0,0.466,0.381,0.848,0.847,0.848h31.427
	V66.201L59.104,66.201z"/>
<path fill="#1A2B63" d="M30.124,71.293v-4.245c0-0.466,0.381-0.847,0.847-0.847h-3.294c-0.466,0-0.847,0.381-0.847,0.847v4.245
	c0,0.466,0.381,0.848,0.847,0.848h3.294C30.505,72.141,30.124,71.759,30.124,71.293z"/>
<path fill="#293D7C" d="M80.386,9.789H7.347c-0.466,0-0.847,0.381-0.847,0.847v48.205c0,0.466,0.381,0.847,0.847,0.847h51.756
	V34.327c0-0.641,0.521-1.162,1.162-1.162h20.967V10.636C81.232,10.17,80.852,9.789,80.386,9.789z"/>
<path fill="#FFFFFF" d="M10.218,51.219c0,0.279,0.229,0.508,0.508,0.508h48.377v-17.4c0-0.641,0.521-1.162,1.162-1.162h17.249
	V18.095H10.218V51.219z"/>
<path fill="#D9EAFC" d="M13.512,51.219V18.095h-3.294v33.124c0,0.279,0.229,0.508,0.508,0.508h3.294
	C13.741,51.727,13.512,51.498,13.512,51.219z"/>
<circle fill="#445EA0" cx="43.867" cy="55.691" r="2.287"/>
<path fill="#C3DDF4" d="M59.104,37.046h-8.869c-0.274,0-0.498,0.224-0.498,0.498v9.901c0,0.273,0.224,0.498,0.498,0.498h8.869
	V37.046z"/>
<path fill="#AEC1ED" d="M53.029,47.445v-9.901c0-0.274,0.225-0.498,0.498-0.498h-3.293c-0.274,0-0.498,0.224-0.498,0.498v9.901
	c0,0.273,0.224,0.498,0.498,0.498h3.293C53.254,47.943,53.029,47.719,53.029,47.445z"/>
<path fill="#C3DDF4" d="M60.266,33.165h7.738V22.31c0-0.457-0.373-0.83-0.83-0.83H20.559c-0.457,0-0.83,0.374-0.83,0.83v11.044
	c0,0.457,0.374,0.83,0.83,0.83h38.555C59.184,33.611,59.673,33.165,60.266,33.165z"/>
<path fill="#AEC1ED" d="M23.022,33.354V22.31c0-0.457,0.374-0.83,0.83-0.83h-3.294c-0.457,0-0.83,0.374-0.83,0.83v11.044
	c0,0.457,0.374,0.83,0.83,0.83h3.294C23.396,34.184,23.022,33.811,23.022,33.354z"/>
<path fill="#FFAF10" d="M77.007,14.108H10.726c-0.279,0-0.508,0.229-0.508,0.508v3.645h67.296v-3.645
	C77.515,14.337,77.286,14.108,77.007,14.108z"/>
<path fill="#FF9518" d="M14.021,14.108h-3.294c-0.279,0-0.508,0.229-0.508,0.508v3.645h3.294v-3.645
	C13.512,14.337,13.741,14.108,14.021,14.108z"/>
<g>
	<path fill="#5DC1D8" d="M34.972,39.674H20.999c-0.688,0-1.245-0.557-1.245-1.245s0.557-1.245,1.245-1.245h13.973
		c0.688,0,1.245,0.557,1.245,1.245S35.66,39.674,34.972,39.674z"/>
	<path fill="#5DC1D8" d="M34.972,43.739H20.999c-0.688,0-1.245-0.558-1.245-1.245s0.557-1.245,1.245-1.245h13.973
		c0.688,0,1.245,0.558,1.245,1.245S35.66,43.739,34.972,43.739z"/>
	<path fill="#5DC1D8" d="M34.972,47.805H20.999c-0.688,0-1.245-0.557-1.245-1.245s0.557-1.245,1.245-1.245h13.973
		c0.688,0,1.245,0.557,1.245,1.245S35.66,47.805,34.972,47.805z"/>
	<path fill="#5DC1D8" d="M45.938,39.674h-7.192c-0.688,0-1.245-0.557-1.245-1.245s0.557-1.245,1.245-1.245h7.192
		c0.688,0,1.245,0.557,1.245,1.245S46.626,39.674,45.938,39.674z"/>
	<path fill="#5DC1D8" d="M45.938,43.739h-7.192c-0.688,0-1.245-0.558-1.245-1.245s0.557-1.245,1.245-1.245h7.192
		c0.688,0,1.245,0.558,1.245,1.245S46.626,43.739,45.938,43.739z"/>
	<path fill="#5DC1D8" d="M45.938,47.805h-7.192c-0.688,0-1.245-0.557-1.245-1.245s0.557-1.245,1.245-1.245h7.192
		c0.688,0,1.245,0.557,1.245,1.245S46.626,47.805,45.938,47.805z"/>
</g>
<path fill="#445EA0" d="M90.172,32.999c0.73,0,1.328,0.598,1.328,1.328v40.138c0,0.73-0.598,1.328-1.328,1.328H60.266
	c-0.73,0-1.328-0.598-1.328-1.328V34.327c0-0.73,0.598-1.328,1.328-1.328H90.172L90.172,32.999z"/>
<path fill="#FFFFFF" d="M62.541,70.577c-0.456,0-0.83-0.373-0.83-0.83v-33.36c0-0.457,0.374-0.83,0.83-0.83h25.355
	c0.456,0,0.83,0.374,0.83,0.83v33.36c0,0.457-0.374,0.83-0.83,0.83H62.541z"/>
<path fill="#D9EAFC" d="M65.006,69.747v-33.36c0-0.457,0.373-0.83,0.83-0.83h-3.295c-0.456,0-0.83,0.374-0.83,0.83v33.36
	c0,0.457,0.374,0.83,0.83,0.83h3.295C65.379,70.577,65.006,70.204,65.006,69.747z"/>
<path fill="#445EA0" d="M73.664,73.897c-0.456,0-0.83-0.373-0.83-0.83v-0.323c0-0.456,0.374-0.83,0.83-0.83h3.109
	c0.456,0,0.83,0.374,0.83,0.83v0.323c0,0.457-0.374,0.83-0.83,0.83H73.664z"/>
<path fill="#FFAF10" d="M88.727,38.76v-2.373c0-0.457-0.374-0.83-0.83-0.83H62.541c-0.456,0-0.83,0.374-0.83,0.83v2.373H88.727
	L88.727,38.76z"/>
<path fill="#FF9518" d="M65.836,35.557h-3.295c-0.456,0-0.83,0.374-0.83,0.83v2.373h3.295v-2.373
	C65.006,35.931,65.379,35.557,65.836,35.557z"/>
<g>
	<path fill="#5DC1D8" d="M80.877,53.943H69.561c-0.688,0-1.246-0.557-1.246-1.244s0.559-1.246,1.246-1.246h11.316
		c0.688,0,1.245,0.559,1.245,1.246S81.564,53.943,80.877,53.943z"/>
	<path fill="#5DC1D8" d="M80.877,57.783H69.561c-0.688,0-1.246-0.557-1.246-1.245c0-0.688,0.559-1.245,1.246-1.245h11.316
		c0.688,0,1.245,0.558,1.245,1.245C82.122,57.227,81.564,57.783,80.877,57.783z"/>
	<path fill="#5DC1D8" d="M80.877,61.623H69.561c-0.688,0-1.246-0.558-1.246-1.246c0-0.688,0.559-1.244,1.246-1.244h11.316
		c0.688,0,1.245,0.557,1.245,1.244C82.122,61.065,81.564,61.623,80.877,61.623z"/>
</g>
<path fill="#C3DDF4" d="M86.146,48.52c0,0.456-0.373,0.83-0.83,0.83H65.12c-0.456,0-0.83-0.374-0.83-0.83v-6.848
	c0-0.457,0.374-0.83,0.83-0.83h20.196c0.457,0,0.83,0.374,0.83,0.83V48.52z"/>
<path fill="#AEC1ED" d="M67.584,48.52v-6.848c0-0.457,0.374-0.83,0.83-0.83H65.12c-0.456,0-0.83,0.374-0.83,0.83v6.848
	c0,0.456,0.374,0.83,0.83,0.83h3.294C67.958,49.35,67.584,48.976,67.584,48.52z"/>
<path fill="#C3DDF4" d="M83.158,67.969c0,0.457-0.373,0.83-0.83,0.83h-14.22c-0.456,0-0.83-0.373-0.83-0.83v-2.807
	c0-0.457,0.374-0.83,0.83-0.83h14.22c0.457,0,0.83,0.373,0.83,0.83V67.969L83.158,67.969z"/>
<path fill="#AEC1ED" d="M70.572,67.969v-2.807c0-0.457,0.373-0.83,0.83-0.83h-3.294c-0.456,0-0.83,0.373-0.83,0.83v2.807
	c0,0.457,0.374,0.83,0.83,0.83h3.294C70.945,68.799,70.572,68.426,70.572,67.969z"/>
</svg>
